<?xml version="1.0" encoding="UTF-8"?>
<svg width="1127px" height="430px" viewBox="0 0 1127 430" version="1.1" xmlns="http://www.w3.org/2000/svg" xmlns:xlink="http://www.w3.org/1999/xlink">
    <!-- Generator: Sketch 39.1 (31720) - http://www.bohemiancoding.com/sketch -->
    <title>Artboard</title>
    <desc>Created with Sketch.</desc>
    <defs></defs>
    <g id="Page-1" stroke="none" stroke-width="1" fill="none" fill-rule="evenodd">
        <g id="Artboard" fill="#5868AA">
            <g id="bermondsey-welcome">
                <g id="STYLEGUIDE">
                    <g id="WL-WELCOME-BERMONDSEY_V1">
                        <path d="M97.283892,158.439977 L117.39684,0.85399 L97.905941,0.85399 L86.086993,137.082928 L72.194544,0.85399 L47.312546,0.85399 L33.420097,137.082928 L21.601148,0.85399 L0.86615,0.85399 L20.979098,158.439977 L48.763996,158.439977 L59.546195,25.735988 L70.328394,158.439977 L97.283892,158.439977 L97.283892,158.439977 Z M126.105539,158.439977 L175.662185,158.439977 L175.662185,141.437278 L146.011137,141.437278 L146.011137,87.111583 L171.515185,87.111583 L171.515185,70.108884 L146.011137,70.108884 L146.011137,17.856689 L175.247485,17.856689 L175.247485,0.85399 L126.105539,0.85399 L126.105539,158.439977 L126.105539,158.439977 Z M232.47608,158.439977 L232.47608,141.437278 L206.142632,141.437278 L206.142632,0.85399 L186.237034,0.85399 L186.237034,158.439977 L232.47608,158.439977 L232.47608,158.439977 Z M240.770079,145.998978 L253.211078,158.439977 L283.898875,158.439977 L296.339874,145.998978 L296.339874,110.334781 L276.434276,110.334781 L276.434276,137.290278 L272.287276,141.437278 L264.822677,141.437278 L260.675677,137.290278 L260.675677,21.588988 L264.822677,17.441989 L272.287276,17.441989 L276.434276,21.588988 L276.434276,48.751836 L296.339874,48.751836 L296.339874,13.294989 L283.898875,0.85399 L253.211078,0.85399 L240.770079,13.294989 L240.770079,145.998978 L240.770079,145.998978 Z M366.631518,13.294989 L354.190519,0.85399 L319.563072,0.85399 L307.122073,13.294989 L307.122073,145.998978 L319.563072,158.439977 L354.190519,158.439977 L366.631518,145.998978 L366.631518,13.294989 L366.631518,13.294989 Z M342.57892,17.856689 L346.72592,22.003688 L346.72592,137.290278 L342.57892,141.437278 L331.174671,141.437278 L327.027672,137.290278 L327.027672,22.003688 L331.174671,17.856689 L342.57892,17.856689 L342.57892,17.856689 Z M432.983513,158.439977 L448.534761,34.859387 L448.534761,158.439977 L467.40361,158.439977 L467.40361,0.85399 L437.959912,0.85399 L423.238064,128.166879 L408.516215,0.85399 L379.694567,0.85399 L379.694567,158.439977 L397.734016,158.439977 L397.734016,34.859387 L413.285264,158.439977 L432.983513,158.439977 L432.983513,158.439977 Z M481.088709,158.439977 L530.645354,158.439977 L530.645354,141.437278 L500.994307,141.437278 L500.994307,87.111583 L526.498355,87.111583 L526.498355,70.108884 L500.994307,70.108884 L500.994307,17.856689 L530.230654,17.856689 L530.230654,0.85399 L481.088709,0.85399 L481.088709,158.439977 L481.088709,158.439977 Z M627.063096,17.441989 L627.063096,0.85399 L569.419801,0.85399 L569.419801,17.441989 L588.288649,17.441989 L588.288649,158.439977 L608.194248,158.439977 L608.194248,17.441989 L627.063096,17.441989 L627.063096,17.441989 Z M693.82979,13.294989 L681.388791,0.85399 L646.761344,0.85399 L634.320345,13.294989 L634.320345,145.998978 L646.761344,158.439977 L681.388791,158.439977 L693.82979,145.998978 L693.82979,13.294989 L693.82979,13.294989 Z M669.777192,17.856689 L673.924192,22.003688 L673.924192,137.290278 L669.777192,141.437278 L658.372943,141.437278 L654.225944,137.290278 L654.225944,22.003688 L658.372943,17.856689 L669.777192,17.856689 L669.777192,17.856689 Z M81.676093,183.472775 L9.699259,183.472775 L9.699259,429.879953 L81.676093,429.879953 L101.129291,410.426755 L101.129291,323.535802 L81.676093,304.082604 L101.129291,284.629406 L101.129291,202.925973 L81.676093,183.472775 L81.676093,183.472775 Z M63.519774,291.762245 L40.824376,291.762245 L40.824376,209.410372 L63.519774,209.410372 L70.004174,215.894772 L70.004174,285.277846 L63.519774,291.762245 L63.519774,291.762245 Z M63.519774,317.699843 L70.004174,324.184242 L70.004174,396.809516 L63.519774,403.293916 L40.824376,403.293916 L40.824376,317.699843 L63.519774,317.699843 L63.519774,317.699843 Z M120.90671,429.879953 L198.395283,429.879953 L198.395283,403.293916 L152.031827,403.293916 L152.031827,318.348283 L191.910883,318.348283 L191.910883,291.762245 L152.031827,291.762245 L152.031827,210.058812 L197.746843,210.058812 L197.746843,183.472775 L120.90671,183.472775 L120.90671,429.879953 L120.90671,429.879953 Z M214.930501,429.879953 L246.055619,429.879953 L246.055619,324.832682 L259.348638,324.832682 L278.477616,429.879953 L308.630073,429.879953 L289.176875,322.563143 L306.360534,305.379484 L306.360534,202.925973 L286.907335,183.472775 L214.930501,183.472775 L214.930501,429.879953 L214.930501,429.879953 Z M268.751017,299.543525 L246.055619,299.543525 L246.055619,209.410372 L268.751017,209.410372 L275.235416,215.894772 L275.235416,293.059125 L268.751017,299.543525 L268.751017,299.543525 Z M411.732025,429.879953 L436.048522,236.64485 L436.048522,429.879953 L465.55254,429.879953 L465.55254,183.472775 L419.513304,183.472775 L396.493686,382.543837 L373.474068,183.472775 L328.407492,183.472775 L328.407492,429.879953 L356.614629,429.879953 L356.614629,236.64485 L380.931127,429.879953 L411.732025,429.879953 L411.732025,429.879953 Z M579.02953,202.925973 L559.576332,183.472775 L505.431596,183.472775 L485.978398,202.925973 L485.978398,410.426755 L505.431596,429.879953 L559.576332,429.879953 L579.02953,410.426755 L579.02953,202.925973 L579.02953,202.925973 Z M541.420013,210.058812 L547.904413,216.543212 L547.904413,396.809516 L541.420013,403.293916 L523.587915,403.293916 L517.103515,396.809516 L517.103515,216.543212 L523.587915,210.058812 L541.420013,210.058812 L541.420013,210.058812 Z M599.455388,429.879953 L627.662526,429.879953 L627.662526,261.609788 L663.326723,429.879953 L697.0456,429.879953 L697.0456,183.472775 L668.838462,183.472775 L668.838462,354.3367 L633.174265,183.472775 L599.455388,183.472775 L599.455388,429.879953 L599.455388,429.879953 Z M791.393612,183.472775 L718.444118,183.472775 L718.444118,429.879953 L791.393612,429.879953 L810.84681,410.426755 L810.84681,202.925973 L791.393612,183.472775 L791.393612,183.472775 Z M773.237293,403.293916 L749.569235,403.293916 L749.569235,210.058812 L773.237293,210.058812 L779.721693,216.543212 L779.721693,396.809516 L773.237293,403.293916 L773.237293,403.293916 Z M884.44474,254.801168 L915.56986,254.801168 L915.56986,202.925973 L896.11666,183.472775 L848.45633,183.472775 L829.003129,202.925973 L829.003129,298.895085 L848.45633,318.348283 L878.933,318.348283 L885.4174,324.832682 L885.4174,397.457956 L878.933,403.942356 L865.96421,403.942356 L859.47981,397.457956 L859.47981,358.875779 L828.354689,358.875779 L828.354689,410.426755 L847.80789,429.879953 L897.08932,429.879953 L916.54252,410.426755 L916.54252,311.215444 L897.08932,291.762245 L866.61265,291.762245 L860.12825,285.277846 L860.12825,215.894772 L866.61265,209.410372 L877.96034,209.410372 L884.44474,215.894772 L884.44474,254.801168 L884.44474,254.801168 Z M935.02306,429.879953 L1012.51163,429.879953 L1012.51163,403.293916 L966.14818,403.293916 L966.14818,318.348283 L1006.02723,318.348283 L1006.02723,291.762245 L966.14818,291.762245 L966.14818,210.058812 L1011.86319,210.058812 L1011.86319,183.472775 L935.02306,183.472775 L935.02306,429.879953 L935.02306,429.879953 Z M1089.35177,429.879953 L1089.35177,349.14918 L1126.96128,183.472775 L1093.56663,183.472775 L1074.11343,304.406824 L1054.66023,183.472775 L1021.26557,183.472775 L1058.87509,349.14918 L1058.87509,429.879953 L1089.35177,429.879953 L1089.35177,429.879953 Z" id="WELCOME-TO-Bermondse"></path>
                    </g>
                </g>
            </g>
        </g>
    </g>
</svg>