<?xml version="1.0" encoding="UTF-8"?>
<svg width="1119px" height="247px" viewBox="0 0 1119 247" version="1.1" xmlns="http://www.w3.org/2000/svg" xmlns:xlink="http://www.w3.org/1999/xlink">
    <!-- Generator: Sketch 39.1 (31720) - http://www.bohemiancoding.com/sketch -->
    <title>Artboard 2</title>
    <desc>Created with Sketch.</desc>
    <defs></defs>
    <g id="Page-1" stroke="none" stroke-width="1" fill="none" fill-rule="evenodd">
        <g id="Artboard-2" fill="#FFFFFF">
            <g id="bermondsey-logo">
                <g id="Page-1">
                    <g id="Artboard">
                        <g id="bermondsey-logo">
                            <g id="STYLEGUIDE">
                                <g id="WL-BERMONDSEY_V1">
                                    <path d="M72.736462,0.032798 L0.759628,0.032798 L0.759628,246.439977 L72.736462,246.439977 L92.18966,226.986778 L92.18966,140.095826 L72.736462,120.642627 L92.18966,101.189429 L92.18966,19.485996 L72.736462,0.032798 L72.736462,0.032798 L72.736462,0.032798 Z M54.580143,108.322269 L31.884745,108.322269 L31.884745,25.970396 L54.580143,25.970396 L61.064543,32.454795 L61.064543,101.837869 L54.580143,108.322269 L54.580143,108.322269 L54.580143,108.322269 Z M54.580143,134.259866 L61.064543,140.744266 L61.064543,213.369539 L54.580143,219.853939 L31.884745,219.853939 L31.884745,134.259866 L54.580143,134.259866 L54.580143,134.259866 L54.580143,134.259866 Z M111.967078,246.439977 L189.455651,246.439977 L189.455651,219.853939 L143.092195,219.853939 L143.092195,134.908306 L182.971252,134.908306 L182.971252,108.322269 L143.092195,108.322269 L143.092195,26.618836 L188.807212,26.618836 L188.807212,0.032798 L111.967078,0.032798 L111.967078,246.439977 L111.967078,246.439977 L111.967078,246.439977 Z M205.99087,246.439977 L237.115987,246.439977 L237.115987,141.392706 L250.409006,141.392706 L269.537985,246.439977 L299.690442,246.439977 L280.237244,139.123166 L297.420902,121.939507 L297.420902,19.485996 L277.967704,0.032798 L205.99087,0.032798 L205.99087,246.439977 L205.99087,246.439977 L205.99087,246.439977 Z M259.811385,116.103548 L237.115987,116.103548 L237.115987,25.970396 L259.811385,25.970396 L266.295785,32.454795 L266.295785,109.619148 L259.811385,116.103548 L259.811385,116.103548 L259.811385,116.103548 Z M402.792393,246.439977 L427.108891,53.204873 L427.108891,246.439977 L456.612909,246.439977 L456.612909,0.032798 L410.573672,0.032798 L387.554054,199.103861 L364.534436,0.032798 L319.46786,0.032798 L319.46786,246.439977 L347.674998,246.439977 L347.674998,53.204873 L371.991496,246.439977 L402.792393,246.439977 L402.792393,246.439977 L402.792393,246.439977 Z M570.089899,19.485996 L550.6367,0.032798 L496.491965,0.032798 L477.038767,19.485996 L477.038767,226.986778 L496.491965,246.439977 L550.6367,246.439977 L570.089899,226.986778 L570.089899,19.485996 L570.089899,19.485996 L570.089899,19.485996 Z M532.480382,26.618836 L538.964781,33.103235 L538.964781,213.369539 L532.480382,219.853939 L514.648284,219.853939 L508.163884,213.369539 L508.163884,33.103235 L514.648284,26.618836 L532.480382,26.618836 L532.480382,26.618836 L532.480382,26.618836 Z M590.515757,246.439977 L618.722895,246.439977 L618.722895,78.169811 L654.387091,246.439977 L688.105969,246.439977 L688.105969,0.032798 L659.898831,0.032798 L659.898831,170.896723 L624.234634,0.032798 L590.515757,0.032798 L590.515757,246.439977 L590.515757,246.439977 L590.515757,246.439977 Z M782.45398,0.032798 L709.504487,0.032798 L709.504487,246.439977 L782.45398,246.439977 L801.907179,226.986778 L801.907179,19.485996 L782.45398,0.032798 L782.45398,0.032798 L782.45398,0.032798 Z M764.297662,219.853939 L740.629604,219.853939 L740.629604,26.618836 L764.297662,26.618836 L770.782061,33.103235 L770.782061,213.369539 L764.297662,219.853939 L764.297662,219.853939 L764.297662,219.853939 Z M875.50511,71.361192 L906.63023,71.361192 L906.63023,19.485996 L887.17703,0.032798 L839.5167,0.032798 L820.063497,19.485996 L820.063497,115.455108 L839.5167,134.908306 L869.99337,134.908306 L876.47777,141.392706 L876.47777,214.017979 L869.99337,220.502379 L857.02457,220.502379 L850.54017,214.017979 L850.54017,175.435803 L819.415057,175.435803 L819.415057,226.986778 L838.86826,246.439977 L888.14969,246.439977 L907.60289,226.986778 L907.60289,127.775467 L888.14969,108.322269 L857.67301,108.322269 L851.18861,101.837869 L851.18861,32.454795 L857.67301,25.970396 L869.02071,25.970396 L875.50511,32.454795 L875.50511,71.361192 L875.50511,71.361192 L875.50511,71.361192 Z M926.08343,246.439977 L1003.572,246.439977 L1003.572,219.853939 L957.20855,219.853939 L957.20855,134.908306 L997.0876,134.908306 L997.0876,108.322269 L957.20855,108.322269 L957.20855,26.618836 L1002.92356,26.618836 L1002.92356,0.032798 L926.08343,0.032798 L926.08343,246.439977 L926.08343,246.439977 L926.08343,246.439977 Z M1080.41213,246.439977 L1080.41213,165.709204 L1118.02165,0.032798 L1084.62699,0.032798 L1065.1738,120.966847 L1045.7206,0.032798 L1012.32594,0.032798 L1049.93546,165.709204 L1049.93546,246.439977 L1080.41213,246.439977 L1080.41213,246.439977 L1080.41213,246.439977 Z" id="Bermondsey"></path>
                                </g>
                            </g>
                        </g>
                    </g>
                </g>
            </g>
        </g>
    </g>
</svg>