<?xml version="1.0" encoding="UTF-8" standalone="no"?>
<svg width="372px" height="128px" viewBox="0 0 372 128" version="1.1" xmlns="http://www.w3.org/2000/svg" xmlns:xlink="http://www.w3.org/1999/xlink">
    <!-- Generator: Sketch 39.1 (31720) - http://www.bohemiancoding.com/sketch -->
    <title>Page 1</title>
    <desc>Created with Sketch.</desc>
    <defs>
        <filter x="-50%" y="-50%" width="200%" height="200%" filterUnits="objectBoundingBox" id="filter-1">
            <feOffset dx="2" dy="2" in="SourceAlpha" result="shadowOffsetOuter1"></feOffset>
            <feColorMatrix values="0 0 0 0 0.2   0 0 0 0 0.188235294   0 0 0 0 0.250980392  0 0 0 0.1 0" type="matrix" in="shadowOffsetOuter1" result="shadowMatrixOuter1"></feColorMatrix>
            <feMerge>
                <feMergeNode in="shadowMatrixOuter1"></feMergeNode>
                <feMergeNode in="SourceGraphic"></feMergeNode>
            </feMerge>
        </filter>
    </defs>
    <g id="London-Fields" stroke="none" stroke-width="1" fill="none" fill-rule="evenodd">
        <g id="WL-LONDON-FIELD-DESKTOP-Copy" transform="translate(-198.000000, -194.000000)" fill="#F8B574">
            <g id="Page-1" filter="url(#filter-1)" transform="translate(198.000000, 194.000000)">
                <path d="M165.642623,55.67345 C159.946866,63.00525 157.673608,70.85225 155.706581,78.62295 C153.20768,88.49575 151.816676,98.64435 149.495066,108.56825 C148.660464,112.13895 147.322017,116.25285 144.806998,118.64195 C138.130881,124.98115 132.597699,120.98345 130.427453,114.21725 C129.761733,112.14175 129.776449,109.81425 129.686752,107.59385 C128.988097,90.32205 131.897642,73.62565 137.682396,57.36955 C139.386638,52.58015 141.440559,51.24245 146.281392,52.36665 C151.140445,53.49575 153.067528,56.21735 152.139025,61.08445 C151.334555,65.30755 150.21965,69.47045 149.328987,73.67815 C148.9716,75.36865 148.846866,77.10885 149.508381,79.09545 C150.237869,76.99685 150.77535,74.80655 151.732585,72.81715 C154.96518,66.10065 158.157831,59.35335 161.749214,52.82795 C163.541752,49.57155 166.886468,48.67975 170.5234,49.58415 C174.111979,50.47665 176.579347,52.49965 176.706884,56.47215 C176.911506,62.83725 177.047453,69.20445 177.173589,75.57095 C177.226847,78.26945 177.181998,80.96935 178.035521,83.97165 C178.500824,82.84535 178.976638,81.72325 179.430729,80.59275 C183.347263,70.85085 187.00732,60.99485 191.258116,51.40065 C194.325331,44.47835 197.65393,42.92785 203.51857,44.29285 C210.876525,46.00575 213.796581,49.11445 213.270312,56.73815 C212.4266,68.97205 207.240994,87.27705 210.365672,105.04865 C210.52965,108.24275 212.427301,111.34865 213.330578,113.92395 C211.236714,116.92065 209.729384,120.24565 207.175123,122.21825 C205.980331,123.14085 202.141581,122.16855 200.57679,120.81405 C195.45215,116.37745 192.860748,110.34835 192.04857,103.64935 C191.330294,94.25955 192.248987,92.06015 195.198475,76.84775 C196.499782,70.13475 198.646203,63.58485 199.965028,56.87325 C200.349044,54.91815 199.201203,52.66205 198.755521,50.54385 C197.198438,51.89555 194.862112,52.95115 194.21321,54.64935 C190.527225,64.30165 187.124347,74.06805 183.86232,83.87435 C181.1616,91.99435 179.475578,100.53715 175.946563,108.25745 C174.45535,111.52085 169.526922,113.42765 165.817112,115.25395 C165.224972,115.54515 161.576828,112.23835 161.456297,110.45195 C160.837528,101.27915 160.232074,92.00835 160.934233,82.87195 C161.610464,74.07785 163.887225,65.40625 165.642623,55.67345" id="Fill-1"></path>
                <path d="M268.51825,35.39151 C271.983496,25.76581 280.508913,17.47011 277.886678,4.94781 C270.056413,14.60221 270.357038,25.28351 268.51825,35.39151 M231.284197,97.57391 C231.993364,97.40521 232.208496,97.41781 232.294689,97.32401 C242.909064,85.78311 247.751299,72.23601 247.736583,57.06421 C247.735883,56.12761 246.755523,54.68771 245.899898,54.41541 C245.20825,54.19561 243.585996,55.16091 243.111583,55.98131 C236.776034,66.92581 232.685011,78.61441 230.828705,90.96101 C230.511261,93.07501 231.104803,95.31151 231.284197,97.57391 M297.222682,64.38901 C293.341186,73.43441 289.702152,82.18931 285.831167,90.85181 C282.558629,98.17451 279.061848,105.40761 275.579784,112.64421 C273.478913,117.00871 270.823742,120.90841 266.484652,123.77561 C261.705485,126.93401 258.294898,126.80031 254.508004,122.37911 C248.496905,115.35951 246.71628,106.97701 246.173193,98.25921 C245.999405,95.47391 246.145864,92.67111 246.145864,89.87601 C245.717701,89.80531 245.290239,89.73461 244.862076,89.66461 C243.725447,92.22311 242.867019,94.93771 241.386318,97.30371 C239.300864,100.63781 237.232928,104.20921 234.276432,106.76701 C231.030523,109.57541 226.816867,111.82801 222.012473,109.67971 C216.991545,107.43411 215.050447,103.05491 214.697265,98.23751 C214.036451,89.21661 215.688136,80.46311 219.535295,72.16041 C220.940314,69.12661 222.591299,66.17751 224.353705,63.31381 C229.877076,54.33911 236.052152,46.24151 248.058231,48.84901 C252.643288,37.13031 253.543761,31.73681 258.608136,20.93441 C261.591962,14.56931 266.40967,8.94201 270.663269,3.15441 C273.091394,-0.14959 276.680674,0.54201 280.230712,1.45691 C283.721886,2.35641 284.796848,4.54951 285.236924,7.73521 C286.54664,17.22861 282.138875,25.17571 277.668042,32.98841 C273.518856,40.23971 270.963894,40.92431 267.277909,48.35481 C264.849083,53.25131 263.907265,59.04731 263.448269,64.52691 C262.554803,75.19841 262.092303,85.93361 262.207928,96.63521 C262.26539,101.93771 264.001867,107.22341 264.978723,112.51681 C265.439121,112.65611 265.899519,112.79611 266.359917,112.93541 C267.577833,111.38281 269.062038,109.95761 269.97092,108.25731 C277.019841,95.06791 283.934917,81.81411 290.953004,68.61001 C292.091034,66.46871 292.928439,63.72261 297.222682,64.38901" id="Fill-3"></path>
                <g id="Group-7" transform="translate(0.000000, 0.648900)">
                    <path d="M22.4353845,97.90858 C28.593642,105.62328 35.8142481,108.65078 45.2100057,102.85058 C50.764911,99.42198 55.4025246,95.08198 60.5748163,91.25438 C61.6014261,90.49488 63.1865398,90.20158 64.5137746,89.69338 C64.9454413,90.81338 65.634286,91.92078 65.7218807,93.05688 C65.7835473,93.85628 65.2124299,94.79218 64.6076761,95.49918 C60.5369754,100.25778 57.0591155,105.47138 52.1285852,109.60698 C37.1968428,122.13208 11.4243807,116.81908 4.63964583,100.14788 C-3.08620644,81.16248 -0.424729167,62.42838 7.19951326,43.94698 C12.0915019,32.09038 18.667411,20.76158 28.868339,11.04488 C32.2894375,7.78568 36.109267,4.58248 40.4847973,2.18778 C50.5981307,-3.34782 66.0183011,2.56088 68.1380928,12.03328 C70.187108,21.18718 66.6959337,29.12378 61.061142,36.72158 C59.9707633,38.19158 57.6323352,39.46558 55.534267,39.97308 C53.9750814,40.34968 50.9765398,39.77708 50.2414451,38.83978 C49.3129413,37.65678 49.1468617,35.03878 50.1881875,34.13858 C56.2924867,28.86128 57.4627519,22.28338 58.8551572,15.73418 C59.1116345,14.52738 59.298036,12.99158 58.5804602,12.05008 C57.4438314,10.55908 55.7522027,9.03658 53.8216155,8.33868 C52.8762936,7.99708 50.2288314,9.17798 49.4481875,10.19158 C46.4047973,14.14448 43.5912557,18.22828 41.0713314,22.40518 C33.2242481,35.40908 23.9336042,47.98668 20.5881875,62.39198 C19.2448352,68.17538 12.634589,85.62988 22.4353845,97.90858" id="Fill-5"></path>
                </g>
                <path d="M82.3913617,103.64298 C82.9176307,103.81448 83.4431989,103.98598 83.9694678,104.15748 C89.3197519,93.51888 94.7071761,82.89918 99.994392,72.22978 C101.309013,69.57748 103.415491,66.06348 99.9074981,64.22388 C96.1535398,62.25478 93.9237292,66.14748 92.895017,68.84318 C89.2777064,78.32118 86.1467216,87.98888 83.0059261,97.64118 C82.3969678,99.51088 82.575661,101.63608 82.3913617,103.64298 M97.2985777,99.23508 C96.4394489,100.74008 94.5410966,103.48898 93.2271761,106.49268 C90.5958314,112.50848 86.0857557,115.33438 79.6773277,116.31088 C73.6396004,117.23068 69.2465511,115.60108 68.8891648,109.60838 C68.4617027,102.44668 68.8239943,94.84538 70.8407746,88.02318 C73.7636345,78.13358 78.6920625,68.97058 87.0485966,62.11618 C92.3477254,57.76918 97.7666837,57.03558 103.882195,59.97628 C105.409847,60.71128 107.120396,61.19428 108.800112,61.46518 C117.169259,62.81618 120.110339,67.25558 117.975131,75.69268 C116.219032,82.63178 114.085225,89.48548 112.612233,96.48128 C111.549884,101.52688 111.297612,106.74328 110.684449,111.88338 C111.274487,112.11088 111.864525,112.33908 112.454563,112.56658 C115.621987,107.45728 118.833559,102.37528 121.945623,97.23308 C125.483748,91.38668 128.822858,85.41638 132.505339,79.66308 C133.342744,78.35548 135.233388,77.72128 136.639809,76.77698 C136.916608,77.16968 137.193407,77.56168 137.470206,77.95438 C131.721191,89.58138 126.306438,101.39248 120.030453,112.72828 C118.02068,116.35778 114.097138,119.34888 110.394335,121.51608 C106.003388,124.08648 100.526968,121.80518 99.3665133,116.81138 C97.9600928,110.76058 97.8542784,104.40738 97.2985777,99.23508" id="Fill-8"></path>
                <path d="M301.971015,73.08686 C302.361337,73.33466 302.75236,73.58246 303.142682,73.83026 C308.305864,69.95716 313.151602,65.77536 314.220958,58.80196 C314.380731,57.75686 313.447322,56.10906 312.519519,55.49796 C311.972227,55.13746 309.844027,55.97256 309.448799,56.77266 C306.802739,62.13536 304.431375,67.63316 301.971015,73.08686 M297.59058,108.68256 C301.678098,105.40516 305.567303,103.09936 308.387152,99.86396 C315.192909,92.05756 321.439462,83.76816 328.063723,75.80006 C329.163212,74.47706 331.02933,73.78966 332.540864,72.80826 C332.843591,73.21006 333.147019,73.61186 333.449746,74.01366 C333.229708,74.73606 333.176451,75.57466 332.765807,76.16546 C325.690958,86.32876 318.701602,96.55646 311.406716,106.56086 C307.789405,111.52176 303.235182,115.46136 296.80503,116.65206 C290.080561,117.89736 284.629367,115.11976 283.450693,108.39626 C280.372265,90.83886 283.065277,74.38886 294.828894,60.27196 C297.467947,57.10586 300.515542,54.23936 303.614992,51.50726 C307.444633,48.13116 311.637265,48.92776 315.574121,51.37916 C319.183023,53.62616 318.532019,57.46776 317.618932,60.48196 C315.092,68.82316 310.312133,75.56206 301.964008,79.25036 C300.769216,79.77816 299.370504,80.82816 298.947947,81.96426 C295.904557,90.14796 294.144955,98.48636 297.59058,108.68256" id="Fill-10"></path>
                <path d="M355.806716,57.42009 C356.533402,57.80929 356.428989,57.75329 357.155674,58.14179 C356.441602,60.89139 355.695996,63.63329 355.015561,66.39129 C352.460598,76.74079 349.329614,86.99439 347.56861,97.47759 C346.612777,103.16299 345.975087,108.98069 346.594557,114.74169 C346.750826,116.19559 348.057038,117.24279 349.506905,117.04749 C352.729689,116.61349 358.37289,116.14309 361.429595,111.70159 L361.4345,111.70229 C363.95022,95.57779 366.573155,79.47009 369.214311,63.36519 C370.191867,57.40469 367.458212,53.60229 361.768761,52.24009 C355.618913,50.76799 351.419273,53.34679 348.427739,58.15719 C345.520295,62.83319 343.170655,67.85639 340.576451,72.72629 C340.237284,72.61219 340.320674,72.64019 339.981508,72.52609 C340.321375,70.31409 340.65003,68.09999 341.00111,65.88939 C341.53789,62.51539 340.826621,59.86939 337.098591,58.81729 C333.250731,57.73089 330.822606,59.25829 329.857663,62.93749 C327.520636,71.84709 324.625807,80.69439 323.316091,89.76219 C322.314708,96.69219 322.971318,103.97289 323.806621,110.98899 C324.060996,113.12749 327.629254,116.70099 329.205958,116.46439 C332.261962,116.00589 335.170807,113.54049 337.748193,111.42859 C338.762189,110.59769 338.877814,108.51239 339.138496,106.95419 C339.849064,102.71149 340.288439,98.42119 341.070485,94.19319 C343.041015,83.53569 344.930958,72.81449 350.722019,63.37569 C352.069576,61.17769 354.087758,59.39059 355.806716,57.42009" id="Fill-12"></path>
            </g>
        </g>
    </g>
</svg>