<?xml version="1.0" encoding="UTF-8"?>
<svg width="528px" height="179px" viewBox="0 0 528 179" version="1.1" xmlns="http://www.w3.org/2000/svg" xmlns:xlink="http://www.w3.org/1999/xlink">
    <!-- Generator: Sketch 39.1 (31720) - http://www.bohemiancoding.com/sketch -->
    <title>Artboard</title>
    <desc>Created with Sketch.</desc>
    <defs></defs>
    <g id="Page-1" stroke="none" stroke-width="1" fill="none" fill-rule="evenodd">
        <g id="Artboard" fill="#FFFFFF">
            <g id="camden-logo">
                <g id="London-Fields">
                    <g id="camden-logo">
                        <g id="Page-1">
                            <path d="M236.3765,78.5335 C228.2485,89.0075 225.0045,100.2175 222.1975,111.3185 C218.6315,125.4225 216.6465,139.9205 213.3335,154.0975 C212.1425,159.1985 210.2325,165.0755 206.6435,168.4885 C197.1165,177.5445 189.2205,171.8335 186.1235,162.1675 C185.1735,159.2025 185.1945,155.8775 185.0665,152.7055 C184.0695,128.0315 188.2215,104.1795 196.4765,80.9565 C198.9085,74.1145 201.8395,72.2035 208.7475,73.8095 C215.6815,75.4225 218.4315,79.3105 217.1065,86.2635 C215.9585,92.2965 214.3675,98.2435 213.0965,104.2545 C212.5865,106.6695 212.4085,109.1555 213.3525,111.9935 C214.3935,108.9955 215.1605,105.8665 216.5265,103.0245 C221.1395,93.4295 225.6955,83.7905 230.8205,74.4685 C233.3785,69.8165 238.1515,68.5425 243.3415,69.8345 C248.4625,71.1095 251.9835,73.9995 252.1655,79.6745 C252.4575,88.7675 252.6515,97.8635 252.8315,106.9585 C252.9075,110.8135 252.8435,114.6705 254.0615,118.9595 C254.7255,117.3505 255.4045,115.7475 256.0525,114.1325 C261.6415,100.2155 266.8645,86.1355 272.9305,72.4295 C277.3075,62.5405 282.0575,60.3255 290.4265,62.2755 C300.9265,64.7225 305.0935,69.1635 304.3425,80.0545 C303.1385,97.5315 295.7385,123.6815 300.1975,149.0695 C300.4315,153.6325 303.1395,158.0695 304.4285,161.7485 C301.4405,166.0295 299.2895,170.7795 295.6445,173.5975 C293.9395,174.9155 288.4615,173.5265 286.2285,171.5915 C278.9155,165.2535 275.2175,156.6405 274.0585,147.0705 C273.0335,133.6565 274.3445,130.5145 278.5535,108.7825 C280.4105,99.1925 283.4735,89.8355 285.3555,80.2475 C285.9035,77.4545 284.2655,74.2315 283.6295,71.2055 C281.4075,73.1365 278.0735,74.6445 277.1475,77.0705 C271.8875,90.8595 267.0315,104.8115 262.3765,118.8205 C258.5225,130.4205 256.1165,142.6245 251.0805,153.6535 C248.9525,158.3155 241.9195,161.0395 236.6255,163.6485 C235.7805,164.0645 230.5745,159.3405 230.4025,156.7885 C229.5195,143.6845 228.6555,130.4405 229.6575,117.3885 C230.6225,104.8255 233.8715,92.4375 236.3765,78.5335" id="Fill-1"></path>
                            <path d="M383.1828,49.5593 C388.1278,35.8083 400.2938,23.9573 396.5518,6.0683 C385.3778,19.8603 385.8068,35.1193 383.1828,49.5593 M330.0488,138.3913 C331.0608,138.1503 331.3678,138.1683 331.4908,138.0343 C346.6378,121.5473 353.5478,102.1943 353.5268,80.5203 C353.5258,79.1823 352.1268,77.1253 350.9058,76.7363 C349.9188,76.4223 347.6038,77.8013 346.9268,78.9733 C337.8858,94.6083 332.0478,111.3063 329.3988,128.9443 C328.9458,131.9643 329.7928,135.1593 330.0488,138.3913 M424.1448,90.9843 C418.6058,103.9063 413.4128,116.4133 407.8888,128.7883 C403.2188,139.2493 398.2288,149.5823 393.2598,159.9203 C390.2618,166.1553 386.4728,171.7263 380.2808,175.8223 C373.4608,180.3343 368.5938,180.1433 363.1898,173.8273 C354.6118,163.7993 352.0708,151.8243 351.2958,139.3703 C351.0478,135.3913 351.2568,131.3873 351.2568,127.3943 C350.6458,127.2933 350.0358,127.1923 349.4248,127.0923 C347.8028,130.7473 346.5778,134.6253 344.4648,138.0053 C341.4888,142.7683 338.5378,147.8703 334.3188,151.5243 C329.6868,155.5363 323.6738,158.7543 316.8178,155.6853 C309.6528,152.4773 306.8828,146.2213 306.3788,139.3393 C305.4358,126.4523 307.7928,113.9473 313.2828,102.0863 C315.2878,97.7523 317.6438,93.5393 320.1588,89.4483 C328.0408,76.6273 336.8528,65.0593 353.9858,68.7843 C360.5288,52.0433 361.8138,44.3383 369.0408,28.9063 C373.2988,19.8133 380.1738,11.7743 386.2438,3.5063 C389.7088,-1.2137 394.8308,-0.2257 399.8968,1.0813 C404.8788,2.3663 406.4128,5.4993 407.0408,10.0503 C408.9098,23.6123 402.6198,34.9653 396.2398,46.1263 C390.3188,56.4853 386.6728,57.4633 381.4128,68.0783 C377.9468,75.0733 376.6028,83.3533 375.9478,91.1813 C374.6728,106.4263 374.0128,121.7623 374.1778,137.0503 C374.2598,144.6253 376.7378,152.1763 378.1318,159.7383 C378.7888,159.9373 379.4458,160.1373 380.1028,160.3363 C381.8408,158.1183 383.9588,156.0823 385.2558,153.6533 C395.3148,134.8113 405.1828,115.8773 415.1978,97.0143 C416.8218,93.9553 418.0168,90.0323 424.1448,90.9843" id="Fill-3"></path>
                            <path d="M32.0159,139.7964 C40.8039,150.8174 51.1079,155.1424 64.5159,146.8564 C72.4429,141.9584 79.0609,135.7584 86.4419,130.2904 C87.9069,129.2054 90.1689,128.7864 92.0629,128.0604 C92.6789,129.6604 93.6619,131.2424 93.7869,132.8654 C93.8749,134.0074 93.0599,135.3444 92.1969,136.3544 C86.3879,143.1524 81.4249,150.6004 74.3889,156.5084 C53.0809,174.4014 16.3029,166.8114 6.6209,142.9954 C-4.4041,115.8734 -0.6061,89.1104 10.2739,62.7084 C17.2549,45.7704 26.6389,29.5864 41.1959,15.7054 C46.0779,11.0494 51.5289,6.4734 57.7729,3.0524 C72.2049,-4.8556 94.2099,3.5854 97.2349,17.1174 C100.1589,30.1944 95.1769,41.5324 87.1359,52.3864 C85.5799,54.4864 82.2429,56.3064 79.2489,57.0314 C77.0239,57.5694 72.7449,56.7514 71.6959,55.4124 C70.3709,53.7224 70.1339,49.9824 71.6199,48.6964 C80.3309,41.1574 82.0009,31.7604 83.9879,22.4044 C84.3539,20.6804 84.6199,18.4864 83.5959,17.1414 C81.9739,15.0114 79.5599,12.8364 76.8049,11.8394 C75.4559,11.3514 71.6779,13.0384 70.5639,14.4864 C66.2209,20.1334 62.2059,25.9674 58.6099,31.9344 C47.4119,50.5114 34.1539,68.4794 29.3799,89.0584 C27.4629,97.3204 18.0299,122.2554 32.0159,139.7964" id="Fill-5"></path>
                            <path d="M117.5747,147.0614 C118.3257,147.3064 119.0757,147.5514 119.8267,147.7964 C127.4617,132.5984 135.1497,117.4274 142.6947,102.1854 C144.5707,98.3964 147.5767,93.3764 142.5707,90.7484 C137.2137,87.9354 134.0317,93.4964 132.5637,97.3474 C127.4017,110.8874 122.9337,124.6984 118.4517,138.4874 C117.5827,141.1584 117.8377,144.1944 117.5747,147.0614 M138.8477,140.7644 C137.6217,142.9144 134.9127,146.8414 133.0377,151.1324 C129.2827,159.7264 122.8467,163.7634 113.7017,165.1584 C105.0857,166.4724 98.8167,164.1444 98.3067,155.5834 C97.6967,145.3524 98.2137,134.4934 101.0917,124.7474 C105.2627,110.6194 112.2957,97.5294 124.2207,87.7374 C131.7827,81.5274 139.5157,80.4794 148.2427,84.6804 C150.4227,85.7304 152.8637,86.4204 155.2607,86.8074 C167.2037,88.7374 171.4007,95.0794 168.3537,107.1324 C165.8477,117.0454 162.8027,126.8364 160.7007,136.8304 C159.1847,144.0384 158.8247,151.4904 157.9497,158.8334 C158.7917,159.1584 159.6337,159.4844 160.4757,159.8094 C164.9957,152.5104 169.5787,145.2504 174.0197,137.9044 C179.0687,129.5524 183.8337,121.0234 189.0887,112.8044 C190.2837,110.9364 192.9817,110.0304 194.9887,108.6814 C195.3837,109.2424 195.7787,109.8024 196.1737,110.3634 C187.9697,126.9734 180.2427,143.8464 171.2867,160.0404 C168.4187,165.2254 162.8197,169.4984 157.5357,172.5944 C151.2697,176.2664 143.4547,173.0074 141.7987,165.8734 C139.7917,157.2294 139.6407,148.1534 138.8477,140.7644" id="Fill-8"></path>
                            <path d="M430.9208,103.4098 C431.4778,103.7638 432.0358,104.1178 432.5928,104.4718 C439.9608,98.9388 446.8758,92.9648 448.4018,83.0028 C448.6298,81.5098 447.2978,79.1558 445.9738,78.2828 C445.1928,77.7678 442.1558,78.9608 441.5918,80.1038 C437.8158,87.7648 434.4318,95.6188 430.9208,103.4098 M424.6698,154.2608 C430.5028,149.5788 436.0528,146.2848 440.0768,141.6628 C449.7888,130.5108 458.7028,118.6688 468.1558,107.2858 C469.7248,105.3958 472.3878,104.4138 474.5448,103.0118 C474.9768,103.5858 475.4098,104.1598 475.8418,104.7338 C475.5278,105.7658 475.4518,106.9638 474.8658,107.8078 C464.7698,122.3268 454.7958,136.9378 444.3858,151.2298 C439.2238,158.3168 432.7248,163.9448 423.5488,165.6458 C413.9528,167.4248 406.1738,163.4568 404.4918,153.8518 C400.0988,128.7698 403.9418,105.2698 420.7288,85.1028 C424.4948,80.5798 428.8438,76.4848 433.2668,72.5818 C438.7318,67.7588 444.7148,68.8968 450.3328,72.3988 C455.4828,75.6088 454.5538,81.0968 453.2508,85.4028 C449.6448,97.3188 442.8238,106.9458 430.9108,112.2148 C429.2058,112.9688 427.2098,114.4688 426.6068,116.0918 C422.2638,127.7828 419.7528,139.6948 424.6698,154.2608" id="Fill-10"></path>
                            <path d="M507.7458,81.0287 C508.7828,81.5847 508.6338,81.5047 509.6708,82.0597 C508.6518,85.9877 507.5878,89.9047 506.6168,93.8447 C502.9708,108.6297 498.5028,123.2777 495.9898,138.2537 C494.6258,146.3757 493.7158,154.6867 494.5998,162.9167 C494.8228,164.9937 496.6868,166.4897 498.7558,166.2107 C503.3548,165.5907 511.4078,164.9187 515.7698,158.5737 L515.7768,158.5747 C519.3668,135.5397 523.1098,112.5287 526.8788,89.5217 C528.2738,81.0067 524.3728,75.5747 516.2538,73.6287 C507.4778,71.5257 501.4848,75.2097 497.2158,82.0817 C493.0668,88.7617 489.7138,95.9377 486.0118,102.8947 C485.5278,102.7317 485.6468,102.7717 485.1628,102.6087 C485.6478,99.4487 486.1168,96.2857 486.6178,93.1277 C487.3838,88.3077 486.3688,84.5277 481.0488,83.0247 C475.5578,81.4727 472.0928,83.6547 470.7158,88.9107 C467.3808,101.6387 463.2498,114.2777 461.3808,127.2317 C459.9518,137.1317 460.8888,147.5327 462.0808,157.5557 C462.4438,160.6107 467.5358,165.7157 469.7858,165.3777 C474.1468,164.7227 478.2978,161.2007 481.9758,158.1837 C483.4228,156.9967 483.5878,154.0177 483.9598,151.7917 C484.9738,145.7307 485.6008,139.6017 486.7168,133.5617 C489.5288,118.3367 492.2258,103.0207 500.4898,89.5367 C502.4128,86.3967 505.2928,83.8437 507.7458,81.0287" id="Fill-12"></path>
                        </g>
                    </g>
                </g>
            </g>
        </g>
    </g>
</svg>