<?xml version="1.0" encoding="utf-8"?>
<!-- Generator: Adobe Illustrator 19.2.1, SVG Export Plug-In . SVG Version: 6.00 Build 0)  -->
<!DOCTYPE svg PUBLIC "-//W3C//DTD SVG 1.1//EN" "http://www.w3.org/Graphics/SVG/1.1/DTD/svg11.dtd">
<svg version="1.1" id="Layer_1" xmlns="http://www.w3.org/2000/svg" xmlns:xlink="http://www.w3.org/1999/xlink" x="0px" y="0px"
	 viewBox="0 0 2000 560" style="enable-background:new 0 0 2000 560;" xml:space="preserve">
<style type="text/css">
	.st0{fill:#EE7979;}
</style>
<path class="st0" d="M88.2,316.4V278h-28C36.4,278,20,294.4,20,318.1v125.7c0,23.7,16.4,40.1,40.2,40.1h28v-38.4H70.3
	c-6.2,0-9.6-3.4-9.6-9.6V326c0-6.2,3.4-9.6,9.6-9.6H88.2z M96.7,278v38.5h17.8c6.2,0,9.6,3.4,9.6,9.6v24.9h40.7v-32.8
	c0-23.7-16.4-40.2-40.2-40.2H96.7z M96.7,445.5v38.4h28c23.7,0,40.2-16.4,40.2-40.1V411h-40.7v24.9c0,6.2-3.4,9.6-9.6,9.6H96.7z
	 M201.1,482.8h40.7V279.1h-40.7V482.8z M327.3,444.4h-76.9v38.5h76.9V444.4z M398.9,279.1h-40.7v203.7h40.7V279.1z M491.4,279.1h-84
	v38.5h84V279.1z M473.9,359.5h-66.5v38.5h66.5V359.5z M491.4,444.4h-84v38.5h84V444.4z M527.4,482.8h40.7V279.1h-40.7V482.8z
	 M677.6,482.8l-33.9-77.3c17-4.8,27.7-19.2,27.7-38.5v-47.9c0-23.8-16.4-40.2-40.2-40.2h-54.7v38.4h44.5c6.2,0,9.6,3.4,9.6,9.6v32.6
	c0,6.2-3.4,9.6-9.6,9.6h-44.5v37.9H601l32.8,75.6H677.6z M751.5,279.1h-40.2v203.7h40.2V279.1z M760,363.7v56.9l109.8-141.5H822
	L760,363.7z M784.3,402.2l42.7,80.6h45.8l-61.7-115.7L784.3,402.2z M940.3,279.1h-40.7v203.7h40.7V279.1z M1032.8,279.1h-84v38.5h84
	V279.1z M1015.3,359.5h-66.5v38.5h66.5V359.5z M1032.8,444.4h-84v38.5h84V444.4z M1182,482.8h40.4l-109.8-203.7h-40.4L1182,482.8z
	 M1225.8,472.9V279.1h-38.2v122.8L1225.8,472.9z M1107,360l-38.2-71v193.8h38.2V360z M1335.1,482.8l-38.2-203.7h-43.6l50.7,203.7
	H1335.1z M1443.7,482.8l-50.1-203.7h-32.3l-32.5,130.7l14.2,73h1.1l33.4-134.1l33.4,134.1H1443.7z M1450.5,480l49.5-200.9h-41.9
	l-24.6,131.3L1450.5,480z M1568.2,279.1h-40.7v203.7h40.7V279.1z M1660.8,279.1h-84v38.5h84V279.1z M1643.2,359.5h-66.5v38.5h66.5
	V359.5z M1660.8,444.4h-84v38.5h84V444.4z M1696.8,482.8h40.7V279.1h-40.7V482.8z M1822.9,444.4H1746v38.5h76.9V444.4z
	 M1853.8,482.8h40.7V279.1h-40.7V482.8z M1980,444.4h-76.9v38.5h76.9V444.4z"/>
<path class="st0" d="M1590.6,76.3v28.5h14.5c4.6,0,7.1,2.5,7.1,7.1v81.4c0,4.6-2.5,7.1-7.1,7.1h-14.5v28.5h22
	c17.6,0,29.7-12.2,29.7-29.7V106c0-17.6-12.2-29.7-29.7-29.7H1590.6z M1584.3,104.8V76.3h-22.2c-17.6,0-29.7,12.2-29.7,29.7v93.1
	c0,17.6,12.2,29.7,29.7,29.7h22.2v-28.5h-14.7c-4.6,0-7.1-2.5-7.1-7.1v-81.4c0-4.6,2.5-7.1,7.1-7.1H1584.3z M1477.2,111.1H1447v117
	h30.2V111.1z M1407.6,105.2h109V77.1h-109V105.2z M1342,199.6h-62.2v28.5h62.2V199.6z M1329,136.7h-49.2v28.5h49.2V136.7z
	 M1342,77.1h-62.2v28.5h62.2V77.1z M1273.4,77.1h-30.2v150.9h30.2V77.1z M1209.4,77.1l-27.9,65.4v85.5h28.5V77.1H1209.4z
	 M1127.1,203.9h21.8l54.3-126.8H1177l-39,88.5l-39-88.5h-26.2L1127.1,203.9z M1094.3,228.1v-85.5l-27.9-65.4h-0.6v150.9H1094.3z
	 M984.5,76.3v28.5H999c4.6,0,7.1,2.5,7.1,7.1v81.4c0,4.6-2.5,7.1-7.1,7.1h-14.5v28.5h22c17.6,0,29.7-12.2,29.7-29.7V106
	c0-17.6-12.2-29.7-29.7-29.7H984.5z M978.2,104.8V76.3H956c-17.6,0-29.7,12.2-29.7,29.7v93.1c0,17.6,12.1,29.7,29.7,29.7h22.2v-28.5
	h-14.7c-4.6,0-7.1-2.5-7.1-7.1v-81.4c0-4.6,2.5-7.1,7.1-7.1H978.2z M852.4,200.4v28.5h20.8c17.6,0,29.7-12.2,29.7-29.7v-24.3h-30.2
	v18.5c0,4.6-2.5,7.1-7.1,7.1H852.4z M852.4,76.3v28.5h13.2c4.6,0,7.1,2.5,7.1,7.1v18.5h30.2V106c0-17.6-12.2-29.7-29.7-29.7H852.4z
	 M846.1,104.8V76.3h-20.8c-17.6,0-29.7,12.2-29.7,29.7v93.1c0,17.6,12.1,29.7,29.7,29.7h20.8v-28.5h-13.2c-4.6,0-7.1-2.5-7.1-7.1
	v-81.4c0-4.6,2.5-7.1,7.1-7.1H846.1z M779.6,199.6h-57v28.5h57V199.6z M686.1,228.1h30.2V77.1h-30.2V228.1z M659.5,199.6h-62.2v28.5
	h62.2V199.6z M646.5,136.7h-49.2v28.5h49.2V136.7z M659.5,77.1h-62.2v28.5h62.2V77.1z M590.9,77.1h-30.2v150.9h30.2V77.1z
	 M503.7,226l36.7-148.8h-31l-18.2,97.3L503.7,226z M498.7,228.1L461.6,77.1h-23.9L413.6,174l10.5,54.1h0.8l24.7-99.4l24.7,99.4
	H498.7z M418.2,228.1L389.9,77.1h-32.3l37.5,150.9H418.2z"/>
</svg>
