<svg id="Layer_1" data-name="Layer 1" xmlns="http://www.w3.org/2000/svg" viewBox="0 0 275 222"><defs><style>.cls-1{fill:#f9b674;}.cls-2{fill:#333040;}.cls-3{fill:#f3f3f3;}.cls-4{fill:none;stroke:#333040;stroke-width:2px;}.cls-5{fill:#f4f4f4;}.cls-6{fill:#f8b574;}.cls-7{fill:#fff;}</style></defs><title>mobile_welcome_to_worklife_graphic</title><g id="NEW-LONDON-FIELDS-HEADER"><g id="Mobile_Welcome-to-WL-Header" data-name="Mobile Welcome-to-WL-Header"><g id="Group-2"><path id="Fill-23" class="cls-1" d="M229.65,103V54.53a1,1,0,0,1,1-1h20a1,1,0,0,1,1,1v5.05a1,1,0,0,1-1,1H241a1,1,0,0,0-1,1V73a1,1,0,0,0,1,1h7.06a1,1,0,0,1,1,1v5.11a1,1,0,0,1-1,1H241a1,1,0,0,0-1,1V96a1,1,0,0,0,1,1h9.82a1,1,0,0,1,1,1V103a1,1,0,0,1-1,1H230.7a1,1,0,0,1-1-1m-42,0,.79-48.47a1,1,0,0,1,1-1h9a1,1,0,0,1,1,.84l5.23,26.38a1,1,0,0,0,2,0l5.51-26.4a1,1,0,0,1,1-.83H222a1,1,0,0,1,1,1l.79,48.47a1,1,0,0,1-1,1.06h-5.47a1,1,0,0,1-1-1l-.48-23.24a1,1,0,0,0-2.07-.17l-4.55,23.59a1,1,0,0,1-1,.84h-4.58a1,1,0,0,1-1-.84l-4.71-23.89a1,1,0,0,0-2.07.18L195.33,103a1,1,0,0,1-1,1h-5.56a1,1,0,0,1-1-1.06m-22.25-6.06a4.73,4.73,0,0,0,2,.38,4.83,4.83,0,0,0,2-.38,3.56,3.56,0,0,0,1.32-1,4.27,4.27,0,0,0,.75-1.52,9.53,9.53,0,0,0,.35-1.81q.08-.87.08-2.09V66.87q0-1.22-.08-2.09A9,9,0,0,0,171.5,63a4.12,4.12,0,0,0-.75-1.48,3.5,3.5,0,0,0-1.32-.93,5,5,0,0,0-2-.37,4.89,4.89,0,0,0-2,.37,3.39,3.39,0,0,0-1.29.93,4.09,4.09,0,0,0-.72,1.49,10,10,0,0,0-.34,1.78q-.08.85-.08,2.07V90.53q0,1.22.08,2.09a10.27,10.27,0,0,0,.34,1.81,4.26,4.26,0,0,0,.72,1.52,3.45,3.45,0,0,0,1.29,1m2,7.79a19.73,19.73,0,0,1-7-1.11,10.5,10.5,0,0,1-4.64-3.32,14.13,14.13,0,0,1-2.51-5.2,28.08,28.08,0,0,1-.78-7V69.37a27.9,27.9,0,0,1,.78-7,13.69,13.69,0,0,1,2.51-5.14,10.55,10.55,0,0,1,4.64-3.26,20,20,0,0,1,7-1.1q8,0,11.55,4.18t3.5,12.35V88q0,8.17-3.5,12.42t-11.55,4.25m-34,0a18.71,18.71,0,0,1-7.1-1.2,10.46,10.46,0,0,1-4.62-3.52,15,15,0,0,1-2.42-5.3,29.31,29.31,0,0,1-.73-7V69.89a30.44,30.44,0,0,1,.73-7.13,14.71,14.71,0,0,1,2.42-5.31A10.26,10.26,0,0,1,126.34,54a19.35,19.35,0,0,1,7.12-1.16,19.87,19.87,0,0,1,6.78,1,9.87,9.87,0,0,1,4.41,3A12.47,12.47,0,0,1,147,61.43a22.51,22.51,0,0,1,.72,6V70.8a1,1,0,0,1-1,1h-8a1,1,0,0,1-1-1V65.9q0-.34,0-1.1a6.45,6.45,0,0,0-.11-1.08l-.21-.93a2.5,2.5,0,0,0-.34-.88l-.51-.67a1.72,1.72,0,0,0-.72-.56,7,7,0,0,0-1-.3,5.23,5.23,0,0,0-1.24-.14,4.6,4.6,0,0,0-2,.41,3.53,3.53,0,0,0-1.3,1,4.42,4.42,0,0,0-.7,1.66,12.23,12.23,0,0,0-.31,2q-.06.9-.06,2.27V90.13a12,12,0,0,0,.93,5.43,3.58,3.58,0,0,0,3.47,1.74,5.45,5.45,0,0,0,1.71-.24,2.44,2.44,0,0,0,1.18-.81,6.16,6.16,0,0,0,.7-1.1,4.72,4.72,0,0,0,.37-1.51q.11-1,.14-1.65t0-1.86v-3.9a1,1,0,0,1,1-1h8a1,1,0,0,1,1,1v3.23a24.45,24.45,0,0,1-.69,6.14,13.83,13.83,0,0,1-2.25,4.76,9.68,9.68,0,0,1-4.41,3.23,18.93,18.93,0,0,1-6.89,1.11M92.85,103V54.53a1,1,0,0,1,1-1h8.22a1,1,0,0,1,1,1V96a1,1,0,0,0,1,1H114a1,1,0,0,1,1,1V103a1,1,0,0,1-1,1H93.9a1,1,0,0,1-1-1M66,103V54.53a1,1,0,0,1,1-1h20a1,1,0,0,1,1,1v5.05a1,1,0,0,1-1,1H77.37a1,1,0,0,0-1,1V73a1,1,0,0,0,1,1h7.06a1,1,0,0,1,1,1v5.11a1,1,0,0,1-1,1H77.37a1,1,0,0,0-1,1V96a1,1,0,0,0,1,1h9.82a1,1,0,0,1,1,1V103a1,1,0,0,1-1,1H67.05a1,1,0,0,1-1-1m-38.87.13L20.8,54.66a1,1,0,0,1,1-1.18h6.6a1,1,0,0,1,1,.92l2.51,22a1,1,0,0,0,2.07,0l3.26-22a1,1,0,0,1,1-.89h5.09a1,1,0,0,1,1,.88l3.42,22.17a1,1,0,0,0,2.07,0l2.53-22.09a1,1,0,0,1,1-.92H60a1,1,0,0,1,1,1.18L54.7,103.13a1,1,0,0,1-1,.91H46.79a1,1,0,0,1-1-.88L42,78.82a1,1,0,0,0-2.07,0l-3.68,24.32a1,1,0,0,1-1,.89h-7a1,1,0,0,1-1-.91"/><path id="Fill-243" class="cls-2" d="M28.45,100.84,22.11,52.38a1,1,0,0,1,1-1.17h6.6a1,1,0,0,1,1,.92l2.51,22a1,1,0,0,0,2.07,0l3.26-22a1,1,0,0,1,1-.89h5.09a1,1,0,0,1,1,.88l3.42,22.17a1,1,0,0,0,2.07,0l2.53-22.09a1,1,0,0,1,1-.92h6.51a1,1,0,0,1,1,1.18L56,100.84a1,1,0,0,1-1,.91H48.1a1,1,0,0,1-1-.88L43.3,76.54a1,1,0,0,0-2.07,0l-3.68,24.32a1,1,0,0,1-1,.89h-7a1,1,0,0,1-1-.91"/><path id="Fill-245" class="cls-2" d="M67.33,100.71V52.24a1,1,0,0,1,1-1h20a1,1,0,0,1,1,1V57.3a1,1,0,0,1-1,1H78.69a1,1,0,0,0-1,1v11.3a1,1,0,0,0,1,1h7.06a1,1,0,0,1,1,1v5.11a1,1,0,0,1-1,1H78.69a1,1,0,0,0-1,1V93.7a1,1,0,0,0,1,1H88.5a1,1,0,0,1,1,1v4.93a1,1,0,0,1-1,1H68.37a1,1,0,0,1-1-1"/><path id="Fill-247" class="cls-2" d="M94.17,100.71V52.24a1,1,0,0,1,1-1h8.22a1,1,0,0,1,1,1V93.7a1,1,0,0,0,1,1h9.75a1,1,0,0,1,1,1v4.93a1,1,0,0,1-1,1H95.22a1,1,0,0,1-1-1"/><path id="Fill-249" class="cls-2" d="M134.77,102.42a18.71,18.71,0,0,1-7.1-1.2A10.46,10.46,0,0,1,123,97.7a15,15,0,0,1-2.42-5.3,29.31,29.31,0,0,1-.73-7V67.61a30.45,30.45,0,0,1,.73-7.13,14.72,14.72,0,0,1,2.42-5.3,10.26,10.26,0,0,1,4.61-3.44,19.35,19.35,0,0,1,7.12-1.16,19.87,19.87,0,0,1,6.78,1,9.87,9.87,0,0,1,4.41,3,12.47,12.47,0,0,1,2.33,4.56,22.51,22.51,0,0,1,.72,6v3.35a1,1,0,0,1-1,1h-8a1,1,0,0,1-1-1v-4.9q0-.34,0-1.1a6.45,6.45,0,0,0-.11-1.08l-.21-.93a2.5,2.5,0,0,0-.34-.88l-.51-.67a1.72,1.72,0,0,0-.72-.56,7,7,0,0,0-1-.3,5.23,5.23,0,0,0-1.24-.14,4.6,4.6,0,0,0-2,.41,3.53,3.53,0,0,0-1.3,1,4.42,4.42,0,0,0-.7,1.66,12.23,12.23,0,0,0-.31,2q-.06.9-.06,2.27V87.85a12,12,0,0,0,.93,5.43A3.58,3.58,0,0,0,134.8,95a5.45,5.45,0,0,0,1.71-.24,2.44,2.44,0,0,0,1.18-.81,6.16,6.16,0,0,0,.7-1.1,4.72,4.72,0,0,0,.37-1.51q.11-1,.14-1.65t0-1.86v-3.9a1,1,0,0,1,1-1h8a1,1,0,0,1,1,1v3.23a24.45,24.45,0,0,1-.69,6.14,13.83,13.83,0,0,1-2.25,4.76,9.68,9.68,0,0,1-4.41,3.23,18.93,18.93,0,0,1-6.89,1.11"/><path id="Fill-251" class="cls-2" d="M166.75,94.63a4.72,4.72,0,0,0,2,.38,4.83,4.83,0,0,0,2-.38,3.56,3.56,0,0,0,1.32-1,4.27,4.27,0,0,0,.75-1.52,9.47,9.47,0,0,0,.35-1.81q.08-.87.08-2.09V64.59q0-1.22-.08-2.09a8.89,8.89,0,0,0-.35-1.78,4.11,4.11,0,0,0-.75-1.48,3.49,3.49,0,0,0-1.32-.93,5,5,0,0,0-2-.37,4.89,4.89,0,0,0-2,.37,3.37,3.37,0,0,0-1.29.93,4.09,4.09,0,0,0-.72,1.49,9.88,9.88,0,0,0-.34,1.78q-.08.85-.08,2.07V88.24q0,1.22.08,2.09a10.19,10.19,0,0,0,.34,1.81,4.25,4.25,0,0,0,.72,1.52,3.44,3.44,0,0,0,1.29,1m2,7.79a19.75,19.75,0,0,1-7-1.11A10.5,10.5,0,0,1,157.07,98a14.1,14.1,0,0,1-2.51-5.2,28.08,28.08,0,0,1-.78-7V67.09a27.89,27.89,0,0,1,.78-7,13.67,13.67,0,0,1,2.51-5.14,10.54,10.54,0,0,1,4.64-3.26,20,20,0,0,1,7-1.1q8,0,11.55,4.18t3.5,12.35V85.74q0,8.17-3.5,12.42t-11.55,4.25"/><path id="Fill-253" class="cls-2" d="M189,100.69l.79-48.47a1,1,0,0,1,1-1h9a1,1,0,0,1,1,.84l5.23,26.38a1,1,0,0,0,2,0L213.63,52a1,1,0,0,1,1-.83h8.68a1,1,0,0,1,1,1l.79,48.47a1,1,0,0,1-1,1.06h-5.47a1,1,0,0,1-1-1l-.48-23.24a1,1,0,0,0-2.07-.17l-4.55,23.59a1,1,0,0,1-1,.84H204.9a1,1,0,0,1-1-.84L199.16,77a1,1,0,0,0-2.07.18l-.44,23.53a1,1,0,0,1-1,1H190a1,1,0,0,1-1-1.06"/><path id="Fill-255" class="cls-2" d="M231,100.71V52.24a1,1,0,0,1,1-1h20a1,1,0,0,1,1,1V57.3a1,1,0,0,1-1,1h-9.69a1,1,0,0,0-1,1v11.3a1,1,0,0,0,1,1h7.06a1,1,0,0,1,1,1v5.11a1,1,0,0,1-1,1h-7.06a1,1,0,0,0-1,1V93.7a1,1,0,0,0,1,1h9.82a1,1,0,0,1,1,1v4.93a1,1,0,0,1-1,1H232a1,1,0,0,1-1-1"/><path id="Fill-257" class="cls-3" d="M24.64,49.08a1,1,0,0,1,1-1.17h6.6a1,1,0,0,1,1,.92l2.51,22a1,1,0,0,0,2.07,0l3.26-22a1,1,0,0,1,1-.89h5.09a1,1,0,0,1,1,.88L51.74,71a1,1,0,0,0,2.07,0l2.53-22.09a1,1,0,0,1,1-.92h6.51a1,1,0,0,1,1,1.18L58.55,97.55a1,1,0,0,1-1,.91H50.64a1,1,0,0,1-1-.88L45.83,73.24a1,1,0,0,0-2.07,0L40.08,97.57a1,1,0,0,1-1,.89H32a1,1,0,0,1-1-.91Z"/><path id="Stroke-259" class="cls-4" d="M31,97.55,24.64,49.08a1,1,0,0,1,1-1.17h6.6a1,1,0,0,1,1,.92l2.51,22a1,1,0,0,0,2.07,0l3.26-22a1,1,0,0,1,1-.89h5.09a1,1,0,0,1,1,.88L51.74,71a1,1,0,0,0,2.07,0l2.53-22.09a1,1,0,0,1,1-.92h6.51a1,1,0,0,1,1,1.18L58.55,97.55a1,1,0,0,1-1,.91H50.64a1,1,0,0,1-1-.88L45.83,73.24a1,1,0,0,0-2.07,0L40.08,97.57a1,1,0,0,1-1,.89H32a1,1,0,0,1-1-.91Z"/><path id="Fill-261" class="cls-3" d="M69.86,48.95a1,1,0,0,1,1-1h20a1,1,0,0,1,1,1V54a1,1,0,0,1-1,1H81.22a1,1,0,0,0-1,1v11.3a1,1,0,0,0,1,1h7.06a1,1,0,0,1,1,1v5.11a1,1,0,0,1-1,1H81.22a1,1,0,0,0-1,1V90.4a1,1,0,0,0,1,1H91a1,1,0,0,1,1,1v4.93a1,1,0,0,1-1,1H70.9a1,1,0,0,1-1-1Z"/><path id="Stroke-263" class="cls-4" d="M69.86,97.42V48.95a1,1,0,0,1,1-1h20a1,1,0,0,1,1,1V54a1,1,0,0,1-1,1H81.22a1,1,0,0,0-1,1v11.3a1,1,0,0,0,1,1h7.06a1,1,0,0,1,1,1v5.11a1,1,0,0,1-1,1H81.22a1,1,0,0,0-1,1V90.4a1,1,0,0,0,1,1H91a1,1,0,0,1,1,1v4.93a1,1,0,0,1-1,1H70.9a1,1,0,0,1-1-1Z"/><path id="Fill-265" class="cls-3" d="M96.7,97.42V48.95a1,1,0,0,1,1-1H106a1,1,0,0,1,1,1V90.4a1,1,0,0,0,1,1h9.75a1,1,0,0,1,1,1v4.93a1,1,0,0,1-1,1H97.75a1,1,0,0,1-1-1"/><path id="Stroke-267" class="cls-4" d="M96.7,97.42V48.95a1,1,0,0,1,1-1H106a1,1,0,0,1,1,1V90.4a1,1,0,0,0,1,1h9.75a1,1,0,0,1,1,1v4.93a1,1,0,0,1-1,1H97.75a1,1,0,0,1-1-1Z"/><path id="Fill-269" class="cls-3" d="M137.3,99.13a18.71,18.71,0,0,1-7.1-1.2,10.46,10.46,0,0,1-4.62-3.52,15,15,0,0,1-2.42-5.3,29.31,29.31,0,0,1-.73-7V64.31a30.45,30.45,0,0,1,.73-7.13,14.72,14.72,0,0,1,2.42-5.3,10.26,10.26,0,0,1,4.61-3.44,19.35,19.35,0,0,1,7.12-1.16,19.87,19.87,0,0,1,6.78,1,9.87,9.87,0,0,1,4.41,3,12.47,12.47,0,0,1,2.33,4.56,22.51,22.51,0,0,1,.72,6v3.35a1,1,0,0,1-1,1h-8a1,1,0,0,1-1-1v-4.9q0-.34,0-1.1a6.45,6.45,0,0,0-.11-1.08l-.21-.93a2.5,2.5,0,0,0-.34-.88l-.51-.67a1.72,1.72,0,0,0-.72-.56,7,7,0,0,0-1-.3,5.23,5.23,0,0,0-1.24-.14,4.6,4.6,0,0,0-2,.41,3.53,3.53,0,0,0-1.3,1,4.42,4.42,0,0,0-.7,1.66,12.23,12.23,0,0,0-.31,2q-.06.9-.06,2.27V84.55a12,12,0,0,0,.93,5.43,3.58,3.58,0,0,0,3.47,1.74,5.45,5.45,0,0,0,1.71-.24,2.44,2.44,0,0,0,1.18-.81,6.16,6.16,0,0,0,.7-1.1,4.72,4.72,0,0,0,.37-1.51q.11-1,.14-1.65t0-1.86v-3.9a1,1,0,0,1,1-1h8a1,1,0,0,1,1,1v3.23a24.45,24.45,0,0,1-.69,6.14,13.83,13.83,0,0,1-2.25,4.76A9.68,9.68,0,0,1,144.19,98a18.93,18.93,0,0,1-6.89,1.11"/><path id="Stroke-271" class="cls-4" d="M137.3,99.13a18.71,18.71,0,0,1-7.1-1.2,10.46,10.46,0,0,1-4.62-3.52,15,15,0,0,1-2.42-5.3,29.31,29.31,0,0,1-.73-7V64.31a30.45,30.45,0,0,1,.73-7.13,14.72,14.72,0,0,1,2.42-5.3,10.26,10.26,0,0,1,4.61-3.44,19.35,19.35,0,0,1,7.12-1.16,19.87,19.87,0,0,1,6.78,1,9.87,9.87,0,0,1,4.41,3,12.47,12.47,0,0,1,2.33,4.56,22.51,22.51,0,0,1,.72,6v3.35a1,1,0,0,1-1,1h-8a1,1,0,0,1-1-1v-4.9q0-.34,0-1.1a6.45,6.45,0,0,0-.11-1.08l-.21-.93a2.5,2.5,0,0,0-.34-.88l-.51-.67a1.72,1.72,0,0,0-.72-.56,7,7,0,0,0-1-.3,5.23,5.23,0,0,0-1.24-.14,4.6,4.6,0,0,0-2,.41,3.53,3.53,0,0,0-1.3,1,4.42,4.42,0,0,0-.7,1.66,12.23,12.23,0,0,0-.31,2q-.06.9-.06,2.27V84.55a12,12,0,0,0,.93,5.43,3.58,3.58,0,0,0,3.47,1.74,5.45,5.45,0,0,0,1.71-.24,2.44,2.44,0,0,0,1.18-.81,6.16,6.16,0,0,0,.7-1.1,4.72,4.72,0,0,0,.37-1.51q.11-1,.14-1.65t0-1.86v-3.9a1,1,0,0,1,1-1h8a1,1,0,0,1,1,1v3.23a24.45,24.45,0,0,1-.69,6.14,13.83,13.83,0,0,1-2.25,4.76A9.68,9.68,0,0,1,144.19,98a18.93,18.93,0,0,1-6.89,1.11Z"/><path id="Fill-273" class="cls-3" d="M169.29,91.34a4.72,4.72,0,0,0,2,.38,4.83,4.83,0,0,0,2-.38,3.56,3.56,0,0,0,1.32-1,4.27,4.27,0,0,0,.75-1.52A9.47,9.47,0,0,0,175.7,87q.08-.87.08-2.09V61.29q0-1.22-.08-2.09a8.89,8.89,0,0,0-.35-1.78,4.11,4.11,0,0,0-.75-1.48,3.49,3.49,0,0,0-1.32-.93,5,5,0,0,0-2-.37,4.89,4.89,0,0,0-2,.37,3.37,3.37,0,0,0-1.29.93,4.09,4.09,0,0,0-.72,1.49,9.88,9.88,0,0,0-.34,1.78q-.08.85-.08,2.07V85q0,1.22.08,2.09a10.19,10.19,0,0,0,.34,1.81,4.25,4.25,0,0,0,.72,1.52,3.44,3.44,0,0,0,1.29,1m2,7.79a19.75,19.75,0,0,1-7-1.11,10.5,10.5,0,0,1-4.64-3.32,14.11,14.11,0,0,1-2.51-5.2,28.08,28.08,0,0,1-.78-7V63.79a27.89,27.89,0,0,1,.78-7,13.67,13.67,0,0,1,2.51-5.14,10.54,10.54,0,0,1,4.64-3.26,20,20,0,0,1,7-1.1q8,0,11.55,4.18t3.5,12.35V82.45q0,8.17-3.5,12.42t-11.55,4.25"/><path id="Stroke-275" class="cls-4" d="M169.29,91.34a4.72,4.72,0,0,0,2,.38,4.83,4.83,0,0,0,2-.38,3.56,3.56,0,0,0,1.32-1,4.27,4.27,0,0,0,.75-1.52A9.47,9.47,0,0,0,175.7,87q.08-.87.08-2.09V61.29q0-1.22-.08-2.09a8.89,8.89,0,0,0-.35-1.78,4.11,4.11,0,0,0-.75-1.48,3.49,3.49,0,0,0-1.32-.93,5,5,0,0,0-2-.37,4.89,4.89,0,0,0-2,.37,3.37,3.37,0,0,0-1.29.93,4.09,4.09,0,0,0-.72,1.49,9.88,9.88,0,0,0-.34,1.78q-.08.85-.08,2.07V85q0,1.22.08,2.09a10.19,10.19,0,0,0,.34,1.81,4.25,4.25,0,0,0,.72,1.52,3.44,3.44,0,0,0,1.29,1Zm-5,6.68a10.5,10.5,0,0,1-4.64-3.32,14.11,14.11,0,0,1-2.51-5.2,28.08,28.08,0,0,1-.78-7V63.79a27.89,27.89,0,0,1,.78-7,13.67,13.67,0,0,1,2.51-5.14,10.54,10.54,0,0,1,4.64-3.26,20,20,0,0,1,7-1.1q8,0,11.55,4.18t3.5,12.35V82.45q0,8.17-3.5,12.42t-11.55,4.25A19.75,19.75,0,0,1,164.24,98Z"/><path id="Fill-277" class="cls-5" d="M191.53,97.4l.79-48.47a1,1,0,0,1,1-1h9a1,1,0,0,1,1,.84l5.23,26.38a1,1,0,0,0,2,0l5.51-26.4a1,1,0,0,1,1-.83h8.68a1,1,0,0,1,1,1l.79,48.47a1,1,0,0,1-1,1.06h-5.47a1,1,0,0,1-1-1l-.48-23.24a1,1,0,0,0-2.07-.17L213,97.61a1,1,0,0,1-1,.84h-4.58a1,1,0,0,1-1-.84l-4.71-23.89a1,1,0,0,0-2.07.18l-.44,23.53a1,1,0,0,1-1,1h-5.56a1,1,0,0,1-1-1.06"/><path id="Stroke-279" class="cls-4" d="M191.53,97.4l.79-48.47a1,1,0,0,1,1-1h9a1,1,0,0,1,1,.84l5.23,26.38a1,1,0,0,0,2,0l5.51-26.4a1,1,0,0,1,1-.83h8.68a1,1,0,0,1,1,1l.79,48.47a1,1,0,0,1-1,1.06h-5.47a1,1,0,0,1-1-1l-.48-23.24a1,1,0,0,0-2.07-.17L213,97.61a1,1,0,0,1-1,.84h-4.58a1,1,0,0,1-1-.84l-4.71-23.89a1,1,0,0,0-2.07.18l-.44,23.53a1,1,0,0,1-1,1h-5.56a1,1,0,0,1-1-1.06Z"/><path id="Fill-281" class="cls-3" d="M233.5,97.42V48.95a1,1,0,0,1,1-1h20a1,1,0,0,1,1,1V54a1,1,0,0,1-1,1h-9.69a1,1,0,0,0-1,1v11.3a1,1,0,0,0,1,1h7.06a1,1,0,0,1,1,1v5.11a1,1,0,0,1-1,1h-7.06a1,1,0,0,0-1,1V90.4a1,1,0,0,0,1,1h9.82a1,1,0,0,1,1,1v4.93a1,1,0,0,1-1,1H234.54a1,1,0,0,1-1-1"/><path id="Stroke-283" class="cls-4" d="M233.5,97.42V48.95a1,1,0,0,1,1-1h20a1,1,0,0,1,1,1V54a1,1,0,0,1-1,1h-9.69a1,1,0,0,0-1,1v11.3a1,1,0,0,0,1,1h7.06a1,1,0,0,1,1,1v5.11a1,1,0,0,1-1,1h-7.06a1,1,0,0,0-1,1V90.4a1,1,0,0,0,1,1h9.82a1,1,0,0,1,1,1v4.93a1,1,0,0,1-1,1H234.54a1,1,0,0,1-1-1Z"/><path id="Fill-293" class="cls-6" d="M155.56,109.32a.78.78,0,0,1-.14-1.06.84.84,0,0,1,1-.28,3.82,3.82,0,0,1,.52.25,13.83,13.83,0,0,0,5.62,1.65l.58,0a1.06,1.06,0,0,1,.55.18c.54.36.11,1.27-.67,1.47a2.2,2.2,0,0,1-.7.07,13.43,13.43,0,0,1-2-.31,14.69,14.69,0,0,1-4.1-1.6c-.25-.14-.49-.3-.65-.42"/><path id="Fill-295" class="cls-6" d="M136.55,30.84a1.32,1.32,0,0,1-1.33-1.12,10.72,10.72,0,0,1-.22-2.12c0-7.93,0-16,0-24a11.71,11.71,0,0,1,.21-2.14A1.45,1.45,0,0,1,136.63.26h0A1.52,1.52,0,0,1,138,1.56a8.8,8.8,0,0,1,.1,1.51q0,4.85,0,9.7v6.06q0,4.68,0,9.36a7,7,0,0,1-.13,1.59,1.35,1.35,0,0,1-1.42,1.07Z"/><path id="Fill-297" class="cls-6" d="M116.35,36.08a1.42,1.42,0,0,1-1.36-1,8.92,8.92,0,0,1-.5-1.72q-1.74-8.49-3.44-17l-.39-1.93c-.11-.54-.2-1.09-.3-1.63v-.05a2.21,2.21,0,0,1,.12-1.19,1.41,1.41,0,0,1,1.36-.91,1.3,1.3,0,0,1,1.08.52,3.88,3.88,0,0,1,.55,1.28c.38,1.62.72,3.3,1,4.91l.17.83q1.38,6.8,2.75,13.61c.13.66.25,1.31.35,1.88l.1.53c0,1-.48,1.67-1.13,1.8a2.09,2.09,0,0,1-.4,0"/><path id="Fill-299" class="cls-6" d="M158.05,36.76a2.27,2.27,0,0,1-.4,0,1.57,1.57,0,0,1-1.14-1.42,3,3,0,0,1,0-.31c0-.09,0-.2,0-.33l2.82-17,.19-1.16c.16-1,.32-1.94.49-2.91a6.12,6.12,0,0,1,.3-1.14,1.48,1.48,0,0,1,1.43-1.1,2.16,2.16,0,0,1,.38,0,1.63,1.63,0,0,1,1.16,1.7,15.84,15.84,0,0,1-.23,1.77l0,.14q-1.16,6.86-2.33,13.71l-.51,3c-.19,1.1-.37,2.19-.57,3.28a3.61,3.61,0,0,1-.23.78,1.38,1.38,0,0,1-1.36,1"/><path id="Fill-301" class="cls-6" d="M180.65,34.53a1.39,1.39,0,0,1-1.25-.76,2.93,2.93,0,0,1-.16-.59l-.06-.27a3.16,3.16,0,0,1,.38-1.12c.67-1.27,1.35-2.53,2-3.79l.49-.91c.58-1.08,1.18-2.19,1.79-3.27a5.24,5.24,0,0,1,.81-1.13,1.4,1.4,0,0,1,1-.4,1.47,1.47,0,0,1,.76.21,1.43,1.43,0,0,1,.68,1.65,6.23,6.23,0,0,1-.49,1.21c-1.54,2.87-2.84,5.27-4.19,7.69a4.22,4.22,0,0,1-.88,1.13,1.39,1.39,0,0,1-.91.34"/><path id="Fill-303" class="cls-6" d="M92.53,34.66a1.12,1.12,0,0,1-.81-.35,4.58,4.58,0,0,1-.83-1.06c-1.47-2.64-2.93-5.36-4.35-8a4.79,4.79,0,0,1-.39-.91,1.54,1.54,0,0,1,.71-1.76,1.39,1.39,0,0,1,.68-.18,1.52,1.52,0,0,1,1.09.46,3.93,3.93,0,0,1,.64.85c1.34,2.42,2.75,5,4.44,8.11A2.21,2.21,0,0,1,94.06,33v.16a1.23,1.23,0,0,1-.81,1.34,1.85,1.85,0,0,1-.71.16"/><path id="Fill-305" class="cls-6" d="M70.71,34.47a1.66,1.66,0,0,1-1-.6,2.23,2.23,0,0,1-.45-1.36c0-.78.66-1.75,1.44-1.75h0a1.67,1.67,0,0,1,1.48,1.66,2,2,0,0,1-.37,1.29c-.28.3-.72.75-1.11.75Z"/><path id="Fill-307" class="cls-6" d="M202.53,33.93a1.55,1.55,0,0,1-1.09-.51,1.4,1.4,0,0,1-.35-1v-.17a1.15,1.15,0,0,1,.37-.77,1.55,1.55,0,0,1,1.11-.51h.09A1.54,1.54,0,0,1,204,32.48a1.51,1.51,0,0,1-1.45,1.45Z"/><path id="Fill-333" class="cls-1" d="M233.8,122l8.24.4,8.09-.4.64.17.31,1.52-.39,1.07-.55.23-7.65-.09-7.65.06-7.65.22-7.65-.25-7.65-.16-7.65.13-7.65.31-7.65.05-.53-.69-.18-.24a1.56,1.56,0,0,1-.08-1.47l.24-.46.42-.26h7.5l7.5-.07,7.48,0,7.52.51,7.5-.24Z"/><path id="Fill-333-Copy" class="cls-1" d="M75.8,123l8.24.4,8.09-.4.64.17.31,1.52-.39,1.07-.55.23-7.65-.09-7.65.06-7.65.22-7.65-.25-7.65-.16-7.65.13-7.65.31-7.65.05-.53-.69-.18-.24a1.56,1.56,0,0,1-.08-1.47l.24-.46.42-.26h7.5l7.5-.07,7.48,0,7.52.51,7.5-.24Z"/><path id="Fill-335" class="cls-7" d="M234.8,120l8.24.4,8.09-.4.64.17.31,1.52-.39,1.07-.55.23-7.65-.09-7.65.05-7.65.22-7.65-.25-7.65-.16-7.65.13-7.65.31-7.65.05-.53-.69-.18-.24a1.56,1.56,0,0,1-.08-1.47l.24-.46.42-.26h7.5l7.5-.07,7.48,0,7.52.51,7.5-.24Z"/><path id="Fill-335-Copy" class="cls-7" d="M76.8,121l8.24.4,8.09-.4.64.17.31,1.52-.39,1.07-.55.23-7.65-.09-7.65.05-7.65.22-7.65-.25-7.65-.16-7.65.13-7.65.31-7.65.05-.53-.69-.18-.24a1.56,1.56,0,0,1-.08-1.47l.24-.46.42-.26h7.5l7.5-.07,7.48,0,7.52.51,7.5-.24Z"/><path id="Stroke-337" class="cls-4" d="M234.8,120l8.24.4,8.09-.4.64.17.31,1.52-.39,1.07-.55.23-7.65-.09-7.65.05-7.65.22-7.65-.25-7.65-.16-7.65.13-7.65.31-7.65.05-.53-.69-.18-.24a1.56,1.56,0,0,1-.08-1.47l.24-.46.42-.26h7.5l7.5-.07,7.48,0,7.52.51,7.5-.24,7.5-.27Z"/><path id="Stroke-337-Copy" class="cls-4" d="M76.8,121l8.24.4,8.09-.4.64.17.31,1.52-.39,1.07-.55.23-7.65-.09-7.65.05-7.65.22-7.65-.25-7.65-.16-7.65.13-7.65.31-7.65.05-.53-.69-.18-.24a1.56,1.56,0,0,1-.08-1.47l.24-.46.42-.26h7.5l7.5-.07,7.48,0,7.52.51,7.5-.24,7.5-.27Z"/><g id="Group-17"><path id="Fill-19" class="cls-1" d="M140.31,118.17l1.89,0a10.51,10.51,0,0,1,5.34,1q.81.26.82.67t-.72.41q-.72.11-5,.57t-5.88.54q-.71,0-3.25,2.44a51.17,51.17,0,0,0-4.84,5.29q-2.3,2.88-2.3,4a.37.37,0,0,0,.19.31.79.79,0,0,0,.46.13,2.85,2.85,0,0,0,.87-.22,154.58,154.58,0,0,0,13.69-9.06.77.77,0,0,1,.33.63,1,1,0,0,1-.37.72l-1.09,1q-.72.67-2.69,2.4t-3.71,3.1q-4.67,3.77-6.53,4.36a6,6,0,0,1-1.58.18,2.16,2.16,0,0,1-1.67-.92,3.83,3.83,0,0,1-.76-2.51q0-1.59,2.06-4.58a34.31,34.31,0,0,1,5.62-6.14c.22-.17.33-.33.33-.48s-.26-.22-.78-.22l-2.34.07q-4.94,0-5.08-1.11-1.15-.22-1.15-.67a.15.15,0,0,1,.15-.17l.26,0,.37-.06,4.1-.59q3.84-.55,8.74-.92l2.56-3.4q.22-.44,1.56-.44t1.34.55a1.65,1.65,0,0,1-.3.67L140,117a5.53,5.53,0,0,0-.22.89c0,.17.17.26.52.26"/><path id="Fill-21" class="cls-1" d="M145.26,124.56q-.37,0-1.54,1.15t-1.17,1.59a1.15,1.15,0,0,0,.22.44q.22.33.33.33.63,0,1.43-1.52a8,8,0,0,0,.8-1.76c0-.16,0-.24-.07-.24m-8,9.06a4.94,4.94,0,0,0,2.93-1.55q1.74-1.55,1.82-2.14a4.38,4.38,0,0,1-.95-1.35,7.48,7.48,0,0,0-.54-1,12.52,12.52,0,0,0-2,2.48,8.34,8.34,0,0,0-1.41,3.25c0,.2.06.3.19.3m8.09-4.29a7.78,7.78,0,0,0,3.25-1.26,36.27,36.27,0,0,0,3.88-2.51l1.67-1.29a.77.77,0,0,1,.33.63.87.87,0,0,1-.33.67q-6.12,5.66-9.28,5.65a4.43,4.43,0,0,1-.67-.07Q140,136,137,136a3,3,0,0,1-2.52-1.4,3,3,0,0,1-.3-1.4q0-2.44,2.82-5.82a16.58,16.58,0,0,1,7.09-5,.81.81,0,0,1,.56.17.66.66,0,0,0,.33.19.62.62,0,0,0,.39-.15,1.22,1.22,0,0,1,.65-.18,1.15,1.15,0,0,1,.85.46,1.47,1.47,0,0,1,.59,1.18q0,2.07-2.11,5.29"/></g><g id="Group-13"><path id="Fill-1" class="cls-7" d="M41,146.38A4.12,4.12,0,0,0,36.84,150l-3.27,18.88L26,159.39A3.78,3.78,0,0,0,22.88,158a3.83,3.83,0,0,0-3.16,1.39l-7.57,9.44L8.88,150a4.14,4.14,0,0,0-8.24.52,6,6,0,0,0,.15,1.07l4.82,28c.21,1.61,2.14,3.08,4.07,3.08a4.65,4.65,0,0,0,3.41-1.92l9.81-12.1,9.76,12.1a4.68,4.68,0,0,0,3.5,1.92,4.31,4.31,0,0,0,4-3L45,151.42s0-.11,0-.25a5.76,5.76,0,0,0,.07-.68A4.13,4.13,0,0,0,41,146.38"/><path id="Fill-3" class="cls-7" d="M66.89,146.37a18.12,18.12,0,1,0,18.19,18.12,18.15,18.15,0,0,0-18.19-18.12m0,7.84a10.28,10.28,0,1,1-10.31,10.28,10.31,10.31,0,0,1,10.31-10.28"/><path id="Fill-5" class="cls-7" d="M172,178.69a3.94,3.94,0,1,1-3.94-3.92,3.93,3.93,0,0,1,3.94,3.92"/><path id="Fill-7" class="cls-7" d="M241.36,154.16a3.87,3.87,0,1,0,0-7.75H226.31a3.93,3.93,0,0,0-3.94,3.92v28.35a3.93,3.93,0,0,0,3.94,3.92h0a3.93,3.93,0,0,0,3.94-3.92v-10.3h7.5a3.88,3.88,0,0,0,3.89-3.87h0a3.88,3.88,0,0,0-3.89-3.87h-7.5v-6.48Z"/><path id="Fill-9" class="cls-7" d="M270.37,174.77h-11v-6.42h7.5a3.88,3.88,0,0,0,3.89-3.87h0a3.88,3.88,0,0,0-3.89-3.87h-7.5v-6.38h11a3.92,3.92,0,1,0,0-7.84h-15a3.93,3.93,0,0,0-3.94,3.92v28.35a3.93,3.93,0,0,0,3.94,3.92h3.94v0h11a3.92,3.92,0,1,0,0-7.84"/><path id="Fill-11" class="cls-7" d="M211,182.61h0a3.93,3.93,0,0,1-3.94-3.92V150.3a3.94,3.94,0,0,1,7.87,0v28.39a3.93,3.93,0,0,1-3.94,3.92"/><path id="Fill-13" class="cls-7" d="M156.51,175.88l-11.09-11.05,11.09-11.05a3.93,3.93,0,0,0-5.57-5.55L134.6,164.52V150.3a3.94,3.94,0,0,0-7.87,0v28.39a3.94,3.94,0,0,0,7.87,0v-3.08l5.25-5.23,11.09,11.05a3.93,3.93,0,0,0,5.57-5.55"/><path id="Fill-15" class="cls-7" d="M197.06,174.77h-9a2.68,2.68,0,0,1-2.64-2.71V150.3a3.94,3.94,0,0,0-7.87,0v21.8a10.55,10.55,0,0,0,10.2,10.51h9.35a3.92,3.92,0,1,0,0-7.84"/><path id="Fill-17" class="cls-7" d="M99.38,168.2V154.26h5.85a7,7,0,1,1,0,13.94Zm20.72-7a14.84,14.84,0,0,0-14.87-14.81H99.38v0H95.44a3.93,3.93,0,0,0-3.94,3.92v28.39a3.94,3.94,0,0,0,7.87,0V176h5.85a15,15,0,0,0,3.44-.4l3.94,5.32a4,4,0,0,0,3.31,1.62,4.16,4.16,0,0,0,4.18-4.12,4,4,0,0,0-.85-2.5L116,171.48a14.73,14.73,0,0,0,4.14-10.25Z"/><path id="Fill-339" class="cls-7" d="M41,146.38A4.12,4.12,0,0,0,36.84,150l-3.27,18.88L26,159.39A3.78,3.78,0,0,0,22.88,158a3.83,3.83,0,0,0-3.16,1.39l-7.57,9.44L8.88,150a4.14,4.14,0,0,0-8.24.52,6,6,0,0,0,.15,1.07l4.82,28c.21,1.61,2.14,3.08,4.07,3.08a4.65,4.65,0,0,0,3.41-1.92l9.81-12.1,9.76,12.1a4.68,4.68,0,0,0,3.5,1.92,4.31,4.31,0,0,0,4-3L45,151.42s0-.11,0-.25a5.76,5.76,0,0,0,.07-.68A4.13,4.13,0,0,0,41,146.38"/><path id="Fill-341" class="cls-7" d="M66.89,146.37a18.12,18.12,0,1,0,18.19,18.12,18.15,18.15,0,0,0-18.19-18.12m0,7.84a10.28,10.28,0,1,1-10.31,10.28,10.31,10.31,0,0,1,10.31-10.28"/><path id="Fill-343" class="cls-7" d="M172,178.69a3.94,3.94,0,1,1-3.94-3.92,3.93,3.93,0,0,1,3.94,3.92"/><path id="Fill-345" class="cls-7" d="M241.36,154.16a3.87,3.87,0,1,0,0-7.75H226.31a3.93,3.93,0,0,0-3.94,3.92v28.35a3.93,3.93,0,0,0,3.94,3.92h0a3.93,3.93,0,0,0,3.94-3.92v-10.3h7.5a3.88,3.88,0,0,0,3.89-3.87h0a3.88,3.88,0,0,0-3.89-3.87h-7.5v-6.48Z"/><path id="Fill-347" class="cls-7" d="M270.37,174.77h-11v-6.42h7.5a3.88,3.88,0,0,0,3.89-3.87h0a3.88,3.88,0,0,0-3.89-3.87h-7.5v-6.38h11a3.92,3.92,0,1,0,0-7.84h-15a3.93,3.93,0,0,0-3.94,3.92v28.35a3.93,3.93,0,0,0,3.94,3.92h3.94v0h11a3.92,3.92,0,1,0,0-7.84"/><path id="Fill-349" class="cls-7" d="M211,182.61h0a3.93,3.93,0,0,1-3.94-3.92V150.3a3.94,3.94,0,0,1,7.87,0v28.39a3.93,3.93,0,0,1-3.94,3.92"/><path id="Fill-351" class="cls-7" d="M156.51,175.88l-11.09-11.05,11.09-11.05a3.93,3.93,0,0,0-5.57-5.55L134.6,164.52V150.3a3.94,3.94,0,0,0-7.87,0v28.39a3.94,3.94,0,0,0,7.87,0v-3.08l5.25-5.23,11.09,11.05a3.93,3.93,0,0,0,5.57-5.55"/><path id="Fill-353" class="cls-7" d="M197.06,174.77h-9a2.68,2.68,0,0,1-2.64-2.71V150.3a3.94,3.94,0,0,0-7.87,0v21.8a10.55,10.55,0,0,0,10.2,10.51h9.35a3.92,3.92,0,1,0,0-7.84"/><path id="Fill-355" class="cls-7" d="M99.38,168.2V154.26h5.85a7,7,0,1,1,0,13.94Zm20.72-7a14.84,14.84,0,0,0-14.87-14.81H99.38v0H95.44a3.93,3.93,0,0,0-3.94,3.92v28.39a3.94,3.94,0,0,0,7.87,0V176h5.85a15,15,0,0,0,3.44-.4l3.94,5.32a4,4,0,0,0,3.31,1.62,4.16,4.16,0,0,0,4.18-4.12,4,4,0,0,0-.85-2.5L116,171.48a14.73,14.73,0,0,0,4.14-10.25Z"/><path id="Fill-357" class="cls-7" d="M36.84,150l-3.27,18.88L26,159.39A3.78,3.78,0,0,0,22.88,158a3.83,3.83,0,0,0-3.16,1.39l-7.57,9.44L8.88,150a4.14,4.14,0,0,0-8.24.52,6,6,0,0,0,.15,1.07l4.82,28c.21,1.61,2.14,3.08,4.07,3.08a4.65,4.65,0,0,0,3.41-1.92l9.81-12.1,9.76,12.1a4.68,4.68,0,0,0,3.5,1.92,4.31,4.31,0,0,0,4-3L45,151.42s0-.11,0-.25a5.76,5.76,0,0,0,.07-.68,4.14,4.14,0,0,0-8.25-.54Z"/><path id="Fill-359" class="cls-7" d="M66.89,146.37a18.12,18.12,0,1,0,18.19,18.12,18.15,18.15,0,0,0-18.19-18.12m0,7.84a10.28,10.28,0,1,1-10.31,10.28,10.31,10.31,0,0,1,10.31-10.28"/><path id="Fill-361" class="cls-7" d="M172,178.69a3.94,3.94,0,1,1-3.94-3.92,3.93,3.93,0,0,1,3.94,3.92"/><path id="Fill-363" class="cls-7" d="M241.36,154.16a3.87,3.87,0,1,0,0-7.75H226.31a3.93,3.93,0,0,0-3.94,3.92v28.35a3.93,3.93,0,0,0,3.94,3.92h0a3.93,3.93,0,0,0,3.94-3.92v-10.3h7.5a3.88,3.88,0,0,0,3.89-3.87h0a3.88,3.88,0,0,0-3.89-3.87h-7.5v-6.48Z"/><path id="Fill-365" class="cls-7" d="M270.37,174.77h-11v-6.42h7.5a3.88,3.88,0,0,0,3.89-3.87h0a3.88,3.88,0,0,0-3.89-3.87h-7.5v-6.38h11a3.92,3.92,0,1,0,0-7.84h-15a3.93,3.93,0,0,0-3.94,3.92v28.35a3.93,3.93,0,0,0,3.94,3.92h3.94v0h11a3.92,3.92,0,1,0,0-7.84"/><path id="Fill-367" class="cls-7" d="M211,182.61h0a3.93,3.93,0,0,1-3.94-3.92V150.3a3.94,3.94,0,0,1,7.87,0v28.39a3.93,3.93,0,0,1-3.94,3.92"/><path id="Fill-369" class="cls-7" d="M156.51,175.88l-11.09-11.05,11.09-11.05a3.93,3.93,0,0,0-5.57-5.55L134.6,164.52V150.3a3.94,3.94,0,0,0-7.87,0v28.39a3.94,3.94,0,0,0,7.87,0v-3.08l5.25-5.23,11.09,11.05a3.93,3.93,0,0,0,5.57-5.55"/><path id="Fill-371" class="cls-7" d="M197.06,174.77h-9a2.68,2.68,0,0,1-2.64-2.71V150.3a3.94,3.94,0,0,0-7.87,0v21.8a10.55,10.55,0,0,0,10.2,10.51h9.35a3.92,3.92,0,1,0,0-7.84"/><path id="Fill-373" class="cls-7" d="M99.38,168.2V154.26h5.85a7,7,0,1,1,0,13.94Zm20.72-7a14.84,14.84,0,0,0-14.87-14.81H99.38v0H95.44a3.93,3.93,0,0,0-3.94,3.92v28.39a3.94,3.94,0,0,0,7.87,0V176h5.85a15,15,0,0,0,3.44-.4l3.94,5.32a4,4,0,0,0,3.31,1.62,4.16,4.16,0,0,0,4.18-4.12,4,4,0,0,0-.85-2.5L116,171.48a14.73,14.73,0,0,0,4.14-10.25Z"/></g><g id="Group-14"><path id="Fill-311" class="cls-6" d="M234.54,214.23c-.87,0-4.81-.39-11-.8-3.13-.21-6.84-.19-11-.27-3.38-.07-7.07.17-11,.27-3.52,0-7.22.26-11.11.44-3.57.17-7.29.27-11.11.53-3.61.25-7.35.13-11.12.43s-7.33.77-11.07,1.09-7.36.71-11.08,1-7.38.75-11.08,1.06-7.43.3-11.11.58-7.44.31-11.1.55-7.44.65-11.08.83-7.49.44-11.1.53c-3.82.09-7.54.54-11.12.51-3.88,0-7.58-.58-11.1-.79-4.19-.17-8.3-.3-12.13-.71-4.44-.48-8.5-1.27-12-1.84-6.82-1.12-11.52-1.82-12-2-2.18-.73-3.61-2.15-3.52-3.15s1.68-1.43,3.8-1.24c.53,0,4.47.56,10.33,1.27,3,.36,6.5.91,10.33,1.23,3.27.27,6.78.19,10.39.34,3.41.14,6.89.16,10.39.11,3.26,0,6.68.47,10.22.33,3.3-.12,6.71-.41,10.2-.64,3.32-.22,6.74-.25,10.21-.56s6.73-.73,10.17-1.09,6.76-.56,10.18-1,6.7-1.19,10.1-1.64,6.75-.89,10.13-1.37,6.91-1,10.23-1.43c3.52-.45,6.94-.82,10.25-1.21,3.53-.41,6.92-1.1,10.23-1.43,3.56-.36,7-.44,10.31-.72,3.58-.3,7-.6,10.3-.81,3.61-.23,7.06-.2,10.32-.34,3.65-.15,7.09.07,10.32,0,3.7,0,7.13,0,10.31,0,3.79.1,7.26-.35,10.34-.1a95.39,95.39,0,0,1,10.19,1.7c4.6.83,7.85,1.74,9.86,2.83a7,7,0,0,1,3.78,5.77c.09,2.94-1.68,5.09-3.95,5.15a12.88,12.88,0,0,1-2.74-.55c-3.37-.67-6.84-.7-10.22-1.2s-6.73-1.47-10.13-1.82"/><path id="Fill-313" class="cls-6" d="M14,206.32c0-.43.35-.73.95-.69s1.19.28,1.18.77a1.39,1.39,0,0,1-1.29,1.09,1,1,0,0,1-.84-1.16"/><path id="Fill-315" class="cls-6" d="M19.86,209.13c.22-.83,2.24-1.55,3.69-1a2.25,2.25,0,0,1,1.51,2.73,2.47,2.47,0,0,1-3.12,1c-1.46-.49-2.51-1.8-2.08-2.7"/><path id="Fill-317" class="cls-7" d="M235,212.12c-.88,0-4.82-.4-11-.81-3.14-.21-6.84-.82-11-.9-3.4-.07-7.11.42-11.07.52-3.53,0-7.27,0-11.18.17-3.59.17-7.32.35-11.16.62-3.63.25-7.35.51-11.15.82s-7.37.64-11.14,1-7.43.31-11.17.64-7.38,1.19-11.1,1.5-7.44.54-11.14.83-7.46.65-11.14.89-7.53-.23-11.19-.06-7.52.31-11.15.4c-3.84.1-7.56.35-11.16.32-3.9,0-7.63,0-11.16-.16-4.21-.17-8.31-.63-12.16-1-4.46-.48-8.6-.86-12.12-1.44a80,80,0,0,1-11.85-2.78c-2.19-.74-3.31-1.56-3.23-2.56s1.21-1.74,3.34-1.55a76.1,76.1,0,0,0,10.29,2.08c3,.36,6.62,0,10.47.37,3.29.27,6.77,1.14,10.39,1.28,3.42.14,7-.23,10.47-.29,3.28,0,6.71.19,10.27.06,3.32-.12,6.73-.52,10.24-.76,3.34-.22,6.8,0,10.28-.31s6.77-.65,10.23-1,6.75-.93,10.19-1.34,6.73-1.26,10.14-1.7,6.78-.9,10.18-1.38,7-.36,10.36-.79c3.53-.46,6.92-1.21,10.26-1.59,3.55-.41,7-1,10.29-1.37,3.57-.36,7.06-.24,10.38-.52,3.6-.3,7-.69,10.34-.9,3.63-.23,7.07-.67,10.35-.8,3.66-.15,7.13.17,10.38.13,3.72,0,7.17.06,10.36.15,3.81.1,7.26.13,10.36.38,4,.33,7.48.31,10.36.83a33.88,33.88,0,0,1,9.93,3.13,7.43,7.43,0,0,1,3.85,6c.09,2.95-1.85,5.11-4.12,5.17a13,13,0,0,1-2.87,0c-3.39-.68-6.75-1.34-10.14-1.86s-6.81-1-10.22-1.33"/><path id="Stroke-319" class="cls-4" d="M235,212.12c-.88,0-4.82-.4-11-.81-3.14-.21-6.84-.82-11-.9-3.4-.07-7.11.42-11.07.52-3.53,0-7.27,0-11.18.17-3.59.17-7.32.35-11.16.62-3.63.25-7.35.51-11.15.82s-7.37.64-11.14,1-7.43.31-11.17.64-7.38,1.19-11.1,1.5-7.44.54-11.14.83-7.46.65-11.14.89-7.53-.23-11.19-.06-7.52.31-11.15.4c-3.84.1-7.56.35-11.16.32-3.9,0-7.63,0-11.16-.16-4.21-.17-8.31-.63-12.16-1-4.46-.48-8.6-.86-12.12-1.44a80,80,0,0,1-11.85-2.78c-2.19-.74-3.31-1.56-3.23-2.56s1.21-1.74,3.34-1.55a76.1,76.1,0,0,0,10.29,2.08c3,.36,6.62,0,10.47.37,3.29.27,6.77,1.14,10.39,1.28,3.42.14,7-.23,10.47-.29,3.28,0,6.71.19,10.27.06,3.32-.12,6.73-.52,10.24-.76,3.34-.22,6.8,0,10.28-.31s6.77-.65,10.23-1,6.75-.93,10.19-1.34,6.73-1.26,10.14-1.7,6.78-.9,10.18-1.38,7-.36,10.36-.79c3.53-.46,6.92-1.21,10.26-1.59,3.55-.41,7-1,10.29-1.37,3.57-.36,7.06-.24,10.38-.52,3.6-.3,7-.69,10.34-.9,3.63-.23,7.07-.67,10.35-.8,3.66-.15,7.13.17,10.38.13,3.72,0,7.17.06,10.36.15,3.81.1,7.26.13,10.36.38,4,.33,7.48.31,10.36.83a33.88,33.88,0,0,1,9.93,3.13,7.43,7.43,0,0,1,3.85,6c.09,2.95-1.85,5.11-4.12,5.17a13,13,0,0,1-2.87,0c-3.39-.68-6.75-1.34-10.14-1.86s-6.81-1-10.22-1.33Z"/><path id="Fill-321" class="cls-7" d="M13.5,203.74c0-.43.27-1.23.86-1.19a1.4,1.4,0,0,1,1,1.27,1.29,1.29,0,0,1-1.19,1.11c-.6,0-.77-.68-.73-1.18"/><path id="Stroke-323" class="cls-4" d="M13.5,203.74c0-.43.27-1.23.86-1.19a1.4,1.4,0,0,1,1,1.27,1.29,1.29,0,0,1-1.19,1.11c-.6,0-.77-.68-.73-1.18Z"/><path id="Fill-325" class="cls-7" d="M19.68,206.72c.22-.83,1.65-1.12,3.11-.61,1.3.45,1.84,1.16,1.49,2.08a2.14,2.14,0,0,1-2.86,1c-1.47-.49-2.17-1.53-1.74-2.44"/><path id="Stroke-327" class="cls-4" d="M19.68,206.72c.22-.83,1.65-1.12,3.11-.61,1.3.45,1.84,1.16,1.49,2.08a2.14,2.14,0,0,1-2.86,1c-1.47-.49-2.17-1.53-1.74-2.44Z"/></g><path id="Fill-285" class="cls-6" d="M7.11,61h5.28a3.22,3.22,0,0,1,.81.08,1.21,1.21,0,0,1,.88,1.29,1.19,1.19,0,0,1-.93,1.18,4.8,4.8,0,0,1-1,.11H2a5.13,5.13,0,0,1-1-.11,1.24,1.24,0,0,1-1-1.23,1.26,1.26,0,0,1,1-1.27A3.93,3.93,0,0,1,1.76,61H7.11"/><path id="Fill-287" class="cls-6" d="M14.73,72A1.31,1.31,0,0,1,16,73.13a1.26,1.26,0,0,1-.84,1.4,4,4,0,0,1-.86.18l-8.13,1-.74.07a1.42,1.42,0,0,1-.79-.16,1.3,1.3,0,0,1-.1-2.2,2.12,2.12,0,0,1,.76-.27c.82-.12,1.65-.22,2.48-.32l5.84-.69,1.1-.11"/><path id="Fill-289" class="cls-6" d="M15.82,83.07a1.13,1.13,0,0,1,.89,1,1.21,1.21,0,0,1-.51,1.25,2.44,2.44,0,0,1-.68.31c-1.24.33-2.49.65-3.74,1a2.38,2.38,0,0,1-.53.08,1.23,1.23,0,0,1-1.2-1,1.32,1.32,0,0,1,.58-1.42,2.17,2.17,0,0,1,.56-.24l3.81-1a1.34,1.34,0,0,1,.83,0"/><path id="Fill-291" class="cls-6" d="M17.18,93a1.28,1.28,0,0,1,0,2.56,1.28,1.28,0,0,1,0-2.56"/></g></g></g></svg>