<svg id="Layer_1" data-name="Layer 1" xmlns="http://www.w3.org/2000/svg" viewBox="0 0 907 221"><defs><style>.cls-1{fill:#fff;}.cls-2{fill:#f9b674;}.cls-3{fill:#333040;}.cls-4{fill:#f3f3f3;}.cls-5{fill:none;stroke:#333040;stroke-width:2px;}.cls-6{fill:#f4f4f4;}.cls-7{fill:#f8b574;}</style></defs><title>Welcome_to_worklife_header_graphic</title><g id="NEW-LONDON-FIELDS-HEADER"><g id="WL-HOME-BANNER"><g id="Page-1"><g id="Group-25"><path id="Fill-1" class="cls-1" d="M548.42,88.34a6.33,6.33,0,0,0-6.33,5.51l-5,29.1L525.43,108.4a5.8,5.8,0,0,0-4.78-2.15,5.88,5.88,0,0,0-4.86,2.15L504.16,123l-5-29.07a6.36,6.36,0,0,0-12.67.8,9.33,9.33,0,0,0,.24,1.64l7.4,43.17c.32,2.49,3.29,4.75,6.25,4.75a7.13,7.13,0,0,0,5.23-3l15.07-18.65,15,18.65a7.18,7.18,0,0,0,5.37,3c2.76,0,5.75-2.28,6.17-4.69l7.43-43.44c0-.07,0-.18,0-.38a8.91,8.91,0,0,0,.1-1,6.35,6.35,0,0,0-6.34-6.34"/><path id="Fill-3" class="cls-1" d="M588.26,88.33a27.93,27.93,0,1,0,27.94,27.93,27.94,27.94,0,0,0-27.94-27.93m0,12.09a15.84,15.84,0,1,1-15.85,15.84,15.86,15.86,0,0,1,15.85-15.84"/><path id="Fill-5" class="cls-1" d="M749.7,138.15a6,6,0,1,1-6-6,6,6,0,0,1,6,6"/><path id="Fill-7" class="cls-1" d="M856.32,100.34a6,6,0,1,0,0-11.94H833.19a6,6,0,0,0-6,6v43.71a6,6,0,0,0,6,6h0a6,6,0,0,0,6-6V122.27h11.53a6,6,0,0,0,6-6h0a6,6,0,0,0-6-6H839.24v-10Z"/><path id="Fill-9" class="cls-1" d="M900.89,132.11H884v-9.89h11.53a6,6,0,0,0,6-6h0a6,6,0,0,0-6-6H884v-9.84h16.93a6,6,0,1,0,0-12.09h-23a6,6,0,0,0-6,6V138.1a6,6,0,0,0,6,6h6v.05h16.93a6,6,0,1,0,0-12.09"/><path id="Fill-11" class="cls-1" d="M809.62,144.2h0a6,6,0,0,1-6-6V94.38a6,6,0,0,1,12.1,0v43.77a6,6,0,0,1-6,6"/><path id="Fill-13" class="cls-1" d="M725.95,133.82l-17-17,17-17a6,6,0,0,0-8.55-8.55l-25.11,25.1V94.38a6,6,0,0,0-12.1,0v43.77a6,6,0,0,0,12.1,0V133.4l8.07-8.06,17,17a6,6,0,1,0,8.55-8.55"/><path id="Fill-15" class="cls-1" d="M788.26,132.11H774.38a4.13,4.13,0,0,1-4.06-4.18V94.39a6,6,0,0,0-12.1,0V128a16.24,16.24,0,0,0,15.67,16.21h14.37a6,6,0,1,0,0-12.08"/><path id="Fill-17" class="cls-1" d="M638.18,122v-21.5h9a10.75,10.75,0,1,1,0,21.5ZM670,111.23a22.84,22.84,0,0,0-22.85-22.84h-9v0h-6a6,6,0,0,0-6,6v43.77a6,6,0,0,0,12.1,0v-4.11h9a22.89,22.89,0,0,0,5.29-.62l6.05,8.19a6.16,6.16,0,0,0,5.09,2.5,6.4,6.4,0,0,0,6.42-6.36,6.11,6.11,0,0,0-1.3-3.85l-5.06-6.9a22.75,22.75,0,0,0,6.36-15.8Z"/><path id="Fill-19" class="cls-2" d="M449.78,100.41l4-.08q7.83,0,11.38,2.21,1.74.55,1.74,1.42,0,.63-1.54.87t-10.67,1.23q-9.13,1-12.53,1.15-1.5.08-6.92,5.21A109.25,109.25,0,0,0,425,123.72q-4.9,6.16-4.9,8.61a.8.8,0,0,0,.4.67,1.67,1.67,0,0,0,1,.28,6,6,0,0,0,1.86-.47,329.23,329.23,0,0,0,29.17-19.36,1.65,1.65,0,0,1,.71,1.34,2.15,2.15,0,0,1-.79,1.54q-.79.75-2.33,2.17t-5.73,5.14q-4.19,3.72-7.9,6.64-10,8.06-13.91,9.32a12.71,12.71,0,0,1-3.36.39,4.61,4.61,0,0,1-3.56-2,8.22,8.22,0,0,1-1.62-5.37q0-3.39,4.39-9.8a73.26,73.26,0,0,1,12-13.12c.47-.37.71-.71.71-1s-.55-.47-1.66-.47l-5,.16q-10.51,0-10.83-2.37-2.45-.47-2.45-1.42a.32.32,0,0,1,.32-.35l.55-.08.79-.12,8.73-1.26q8.18-1.18,18.62-2l5.45-7.27q.47-.95,3.32-.95t2.85,1.19a3.54,3.54,0,0,1-.63,1.42l-2,2.77a11.86,11.86,0,0,0-.47,1.9c0,.37.37.55,1.11.55"/><path id="Fill-21" class="cls-2" d="M460.33,114.08q-.79,0-3.28,2.45t-2.49,3.4a2.46,2.46,0,0,0,.47.95q.47.71.71.71,1.34,0,3-3.24a17.13,17.13,0,0,0,1.7-3.75c0-.34-.05-.51-.16-.51m-17.07,19.36q2.53,0,6.25-3.32t3.87-4.58a9.37,9.37,0,0,1-2-2.89,16,16,0,0,0-1.15-2.09,26.75,26.75,0,0,0-4.35,5.29q-3,5.06-3,7c0,.42.13.63.39.63m17.23-9.17q2.21,0,6.92-2.69a77.24,77.24,0,0,0,8.26-5.37l3.56-2.77a1.65,1.65,0,0,1,.71,1.34,1.87,1.87,0,0,1-.71,1.42q-13,12.09-19.76,12.09a9.41,9.41,0,0,1-1.42-.16q-8.93,10.35-15.33,10.35-4.27-.63-5.37-3a6.34,6.34,0,0,1-.63-3q0-5.21,6-12.44a35.31,35.31,0,0,1,15.1-10.63,1.73,1.73,0,0,1,1.19.35,1.4,1.4,0,0,0,.71.4,1.32,1.32,0,0,0,.83-.32,2.6,2.6,0,0,1,1.38-.39,2.44,2.44,0,0,1,1.82,1A3.14,3.14,0,0,1,465,113q0,4.43-4.51,11.3"/><path id="Fill-23" class="cls-2" d="M360.51,158.78V84.07a1.6,1.6,0,0,1,1.6-1.6h30.74a1.6,1.6,0,0,1,1.6,1.6v7.79a1.6,1.6,0,0,1-1.6,1.6H378a1.61,1.61,0,0,0-1.61,1.6v17.42a1.61,1.61,0,0,0,1.61,1.6h10.85a1.6,1.6,0,0,1,1.6,1.6v7.88a1.6,1.6,0,0,1-1.6,1.6H378a1.61,1.61,0,0,0-1.61,1.6V148a1.61,1.61,0,0,0,1.61,1.6H393a1.6,1.6,0,0,1,1.61,1.6v7.6a1.6,1.6,0,0,1-1.61,1.6H362.12a1.6,1.6,0,0,1-1.6-1.6m-64.48,0L297.25,84a1.61,1.61,0,0,1,1.61-1.58h13.79a1.61,1.61,0,0,1,1.57,1.29l8,40.67a1.61,1.61,0,0,0,3.15,0l8.47-40.7a1.6,1.6,0,0,1,1.57-1.28h13.34a1.6,1.6,0,0,1,1.6,1.58l1.22,74.72a1.6,1.6,0,0,1-1.6,1.63h-8.41a1.6,1.6,0,0,1-1.6-1.57L339.25,123a1.6,1.6,0,0,0-3.18-.27l-7,36.37a1.6,1.6,0,0,1-1.58,1.3h-7a1.6,1.6,0,0,1-1.57-1.29l-7.24-36.83a1.6,1.6,0,0,0-3.18.28l-.68,36.27a1.61,1.61,0,0,1-1.61,1.57h-8.55a1.6,1.6,0,0,1-1.6-1.63m-34.18-9.34a7.25,7.25,0,0,0,3.06.59,7.4,7.4,0,0,0,3.08-.59,5.48,5.48,0,0,0,2-1.48,6.6,6.6,0,0,0,1.15-2.35,14.75,14.75,0,0,0,.54-2.8q.12-1.34.12-3.22V103.1q0-1.88-.12-3.22a13.86,13.86,0,0,0-.54-2.75A6.36,6.36,0,0,0,270,94.85a5.38,5.38,0,0,0-2-1.43,7.66,7.66,0,0,0-3.08-.56,7.49,7.49,0,0,0-3.06.56,5.2,5.2,0,0,0-2,1.43,6.31,6.31,0,0,0-1.1,2.3,15.39,15.39,0,0,0-.52,2.75q-.12,1.32-.12,3.2v36.47q0,1.88.12,3.22a15.88,15.88,0,0,0,.52,2.8,6.57,6.57,0,0,0,1.1,2.35,5.3,5.3,0,0,0,2,1.48m3.06,12a30.22,30.22,0,0,1-10.81-1.72,16.13,16.13,0,0,1-7.12-5.12,21.81,21.81,0,0,1-3.85-8,43.43,43.43,0,0,1-1.2-10.86V106.95a43.16,43.16,0,0,1,1.2-10.83A21.13,21.13,0,0,1,247,88.2a16.21,16.21,0,0,1,7.12-5,30.61,30.61,0,0,1,10.81-1.69q12.37,0,17.75,6.44t5.38,19v28.76q0,12.6-5.38,19.15t-17.75,6.56m-52.2,0a28.66,28.66,0,0,1-10.91-1.86,16.07,16.07,0,0,1-7.1-5.43A23.21,23.21,0,0,1,191,146a45.34,45.34,0,0,1-1.13-10.72V107.75a47.09,47.09,0,0,1,1.13-11,22.72,22.72,0,0,1,3.71-8.18,15.76,15.76,0,0,1,7.08-5.31,29.63,29.63,0,0,1,10.93-1.79A30.43,30.43,0,0,1,223.13,83a15.16,15.16,0,0,1,6.77,4.63,19.26,19.26,0,0,1,3.57,7,34.82,34.82,0,0,1,1.1,9.28v5.16a1.6,1.6,0,0,1-1.6,1.6H220.71a1.6,1.6,0,0,1-1.6-1.6v-7.56q0-.52,0-1.69a10,10,0,0,0-.16-1.67q-.12-.49-.33-1.43a3.86,3.86,0,0,0-.52-1.36q-.31-.42-.78-1a2.65,2.65,0,0,0-1.1-.87,10.69,10.69,0,0,0-1.5-.47,8,8,0,0,0-1.9-.21,7,7,0,0,0-3.13.63,5.43,5.43,0,0,0-2,1.57,6.82,6.82,0,0,0-1.08,2.56,18.91,18.91,0,0,0-.47,3q-.09,1.39-.09,3.5V139q0,5.69,1.43,8.37t5.34,2.68a8.35,8.35,0,0,0,2.63-.38,3.75,3.75,0,0,0,1.81-1.25,9.5,9.5,0,0,0,1.08-1.69,7.3,7.3,0,0,0,.56-2.33q.16-1.5.21-2.54t0-2.87v-6a1.6,1.6,0,0,1,1.6-1.6H233a1.6,1.6,0,0,1,1.6,1.6v5a37.82,37.82,0,0,1-1.06,9.47,21.35,21.35,0,0,1-3.46,7.33,14.88,14.88,0,0,1-6.77,5,29,29,0,0,1-10.58,1.72m-62.38-2.64V84.07a1.6,1.6,0,0,1,1.6-1.6h12.64a1.6,1.6,0,0,1,1.6,1.6V148a1.61,1.61,0,0,0,1.61,1.6h15a1.6,1.6,0,0,1,1.6,1.6v7.6a1.6,1.6,0,0,1-1.6,1.6H151.94a1.6,1.6,0,0,1-1.6-1.6m-41.24,0V84.07a1.6,1.6,0,0,1,1.61-1.6h30.74a1.6,1.6,0,0,1,1.6,1.6v7.79a1.6,1.6,0,0,1-1.6,1.6H126.55a1.6,1.6,0,0,0-1.6,1.6v17.42a1.6,1.6,0,0,0,1.6,1.6H137.4a1.6,1.6,0,0,1,1.6,1.6v7.88a1.6,1.6,0,0,1-1.6,1.6H126.55a1.6,1.6,0,0,0-1.6,1.6V148a1.6,1.6,0,0,0,1.6,1.6h15.08a1.6,1.6,0,0,1,1.61,1.6v7.6a1.6,1.6,0,0,1-1.61,1.6H110.7a1.6,1.6,0,0,1-1.61-1.6M49.37,159,39.63,84.27a1.6,1.6,0,0,1,1.59-1.81H51.36A1.61,1.61,0,0,1,53,83.89l3.86,33.88a1.61,1.61,0,0,0,3.18.05l5-34a1.6,1.6,0,0,1,1.59-1.37h7.82A1.61,1.61,0,0,1,76,83.82L81.26,118a1.61,1.61,0,0,0,3.18-.06l3.89-34a1.6,1.6,0,0,1,1.6-1.42h10a1.6,1.6,0,0,1,1.59,1.81L91.72,159a1.6,1.6,0,0,1-1.59,1.4H79.56A1.6,1.6,0,0,1,78,159l-5.8-37.51a1.61,1.61,0,0,0-3.17,0L63.35,159a1.6,1.6,0,0,1-1.59,1.36H51a1.6,1.6,0,0,1-1.59-1.4"/></g><g id="Group-375"><path id="Fill-243" class="cls-3" d="M51.39,155.47,41.66,80.75a1.6,1.6,0,0,1,1.59-1.81H53.39A1.6,1.6,0,0,1,55,80.36l3.85,33.88a1.61,1.61,0,0,0,3.18.05l5-34a1.61,1.61,0,0,1,1.59-1.37h7.82A1.6,1.6,0,0,1,78,80.3l5.26,34.17a1.61,1.61,0,0,0,3.18-.06l3.89-34a1.6,1.6,0,0,1,1.59-1.42h10a1.6,1.6,0,0,1,1.59,1.81l-9.78,74.72a1.6,1.6,0,0,1-1.59,1.4H81.59A1.61,1.61,0,0,1,80,155.51L74.2,118A1.61,1.61,0,0,0,71,118l-5.66,37.5a1.61,1.61,0,0,1-1.59,1.36H53a1.6,1.6,0,0,1-1.59-1.4"/><path id="Fill-245" class="cls-3" d="M111.12,155.26V80.54a1.6,1.6,0,0,1,1.6-1.6h30.74a1.6,1.6,0,0,1,1.6,1.6v7.79a1.6,1.6,0,0,1-1.6,1.6H128.57a1.61,1.61,0,0,0-1.61,1.6V109a1.61,1.61,0,0,0,1.61,1.6h10.85a1.6,1.6,0,0,1,1.6,1.6v7.88a1.6,1.6,0,0,1-1.6,1.6H128.57a1.61,1.61,0,0,0-1.61,1.6v21.18a1.61,1.61,0,0,0,1.61,1.6h15.08a1.6,1.6,0,0,1,1.61,1.6v7.6a1.6,1.6,0,0,1-1.61,1.6H112.73a1.6,1.6,0,0,1-1.6-1.6"/><path id="Fill-247" class="cls-3" d="M152.36,155.26V80.54a1.6,1.6,0,0,1,1.6-1.6h12.64a1.6,1.6,0,0,1,1.6,1.6v63.91a1.61,1.61,0,0,0,1.61,1.6h15a1.6,1.6,0,0,1,1.6,1.6v7.6a1.6,1.6,0,0,1-1.6,1.6H154a1.6,1.6,0,0,1-1.6-1.6"/><path id="Fill-249" class="cls-3" d="M214.74,157.9A28.66,28.66,0,0,1,203.83,156a16.07,16.07,0,0,1-7.1-5.43,23.21,23.21,0,0,1-3.71-8.18,45.34,45.34,0,0,1-1.13-10.72V104.22a47.11,47.11,0,0,1,1.13-11A22.72,22.72,0,0,1,196.73,85a15.76,15.76,0,0,1,7.08-5.31A29.63,29.63,0,0,1,214.74,78a30.43,30.43,0,0,1,10.41,1.57,15.16,15.16,0,0,1,6.77,4.63,19.26,19.26,0,0,1,3.57,7,34.82,34.82,0,0,1,1.1,9.28v5.16a1.6,1.6,0,0,1-1.6,1.6H222.74a1.6,1.6,0,0,1-1.6-1.6V98.07q0-.52,0-1.69a10,10,0,0,0-.16-1.67q-.12-.49-.33-1.43a3.86,3.86,0,0,0-.52-1.36q-.31-.42-.78-1a2.65,2.65,0,0,0-1.1-.87,10.69,10.69,0,0,0-1.5-.47,8,8,0,0,0-1.9-.21,7,7,0,0,0-3.13.63,5.43,5.43,0,0,0-2,1.57,6.82,6.82,0,0,0-1.08,2.56,18.91,18.91,0,0,0-.47,3q-.09,1.39-.09,3.5v34.83q0,5.69,1.43,8.37t5.34,2.68a8.35,8.35,0,0,0,2.63-.38,3.75,3.75,0,0,0,1.81-1.25,9.5,9.5,0,0,0,1.08-1.69,7.3,7.3,0,0,0,.56-2.33q.16-1.51.21-2.54t0-2.87v-6a1.6,1.6,0,0,1,1.6-1.6H235a1.6,1.6,0,0,1,1.6,1.6v5a37.82,37.82,0,0,1-1.06,9.47,21.35,21.35,0,0,1-3.46,7.33,14.88,14.88,0,0,1-6.77,5,29,29,0,0,1-10.58,1.72"/><path id="Fill-251" class="cls-3" d="M263.88,145.89a7.23,7.23,0,0,0,3.06.59,7.39,7.39,0,0,0,3.08-.59,5.47,5.47,0,0,0,2-1.48,6.59,6.59,0,0,0,1.15-2.35,14.64,14.64,0,0,0,.54-2.8q.12-1.34.12-3.22V99.57q0-1.88-.12-3.22a13.75,13.75,0,0,0-.54-2.75A6.35,6.35,0,0,0,272,91.32a5.37,5.37,0,0,0-2-1.43,7.67,7.67,0,0,0-3.08-.56,7.5,7.5,0,0,0-3.06.56,5.18,5.18,0,0,0-2,1.43,6.31,6.31,0,0,0-1.1,2.3,15.28,15.28,0,0,0-.52,2.75q-.12,1.32-.12,3.2V136q0,1.88.12,3.22a15.76,15.76,0,0,0,.52,2.8,6.56,6.56,0,0,0,1.1,2.35,5.28,5.28,0,0,0,2,1.48m3.06,12a30.25,30.25,0,0,1-10.81-1.71,16.13,16.13,0,0,1-7.12-5.12,21.78,21.78,0,0,1-3.86-8,43.44,43.44,0,0,1-1.2-10.86V103.43a43.15,43.15,0,0,1,1.2-10.83A21.11,21.11,0,0,1,249,84.67a16.2,16.2,0,0,1,7.12-5A30.61,30.61,0,0,1,266.94,78q12.37,0,17.75,6.44t5.38,19v28.76q0,12.6-5.38,19.15t-17.75,6.56"/><path id="Fill-253" class="cls-3" d="M298.06,155.23l1.22-74.72a1.61,1.61,0,0,1,1.61-1.58h13.79a1.61,1.61,0,0,1,1.57,1.29l8,40.67a1.61,1.61,0,0,0,3.15,0l8.47-40.7a1.6,1.6,0,0,1,1.57-1.28h13.34a1.6,1.6,0,0,1,1.6,1.58l1.22,74.72a1.61,1.61,0,0,1-1.61,1.63h-8.41a1.6,1.6,0,0,1-1.6-1.57l-.74-35.83a1.6,1.6,0,0,0-3.18-.27l-7,36.37a1.6,1.6,0,0,1-1.58,1.3h-7a1.6,1.6,0,0,1-1.57-1.3l-7.24-36.83a1.6,1.6,0,0,0-3.18.28l-.68,36.27a1.61,1.61,0,0,1-1.61,1.57h-8.55a1.6,1.6,0,0,1-1.6-1.63"/><path id="Fill-255" class="cls-3" d="M362.54,155.26V80.54a1.6,1.6,0,0,1,1.6-1.6h30.74a1.6,1.6,0,0,1,1.6,1.6v7.79a1.6,1.6,0,0,1-1.6,1.6H380a1.61,1.61,0,0,0-1.61,1.6V109a1.61,1.61,0,0,0,1.61,1.6h10.85a1.6,1.6,0,0,1,1.6,1.6v7.88a1.6,1.6,0,0,1-1.6,1.6H380a1.61,1.61,0,0,0-1.61,1.6v21.18a1.61,1.61,0,0,0,1.61,1.6h15.08a1.6,1.6,0,0,1,1.61,1.6v7.6a1.6,1.6,0,0,1-1.61,1.6H364.14a1.6,1.6,0,0,1-1.6-1.6"/><path id="Fill-257" class="cls-4" d="M45.55,75.67a1.6,1.6,0,0,1,1.59-1.81H57.28a1.6,1.6,0,0,1,1.6,1.42l3.85,33.88a1.61,1.61,0,0,0,3.18.05l5-34a1.61,1.61,0,0,1,1.59-1.37h7.82a1.6,1.6,0,0,1,1.59,1.36l5.26,34.17a1.61,1.61,0,0,0,3.18-.06l3.89-34a1.6,1.6,0,0,1,1.59-1.42h10a1.6,1.6,0,0,1,1.59,1.81l-9.78,74.72a1.6,1.6,0,0,1-1.59,1.4H85.48a1.61,1.61,0,0,1-1.59-1.36l-5.8-37.51a1.61,1.61,0,0,0-3.17,0l-5.66,37.5a1.61,1.61,0,0,1-1.59,1.36H56.88a1.6,1.6,0,0,1-1.59-1.4Z"/><path id="Stroke-259" class="cls-5" d="M55.28,150.39,45.55,75.67a1.6,1.6,0,0,1,1.59-1.81H57.28a1.6,1.6,0,0,1,1.6,1.42l3.85,33.88a1.61,1.61,0,0,0,3.18.05l5-34a1.61,1.61,0,0,1,1.59-1.37h7.82a1.6,1.6,0,0,1,1.59,1.36l5.26,34.17a1.61,1.61,0,0,0,3.18-.06l3.89-34a1.6,1.6,0,0,1,1.59-1.42h10a1.6,1.6,0,0,1,1.59,1.81l-9.78,74.72a1.6,1.6,0,0,1-1.59,1.4H85.48a1.61,1.61,0,0,1-1.59-1.36l-5.8-37.51a1.61,1.61,0,0,0-3.17,0l-5.66,37.5a1.61,1.61,0,0,1-1.59,1.36H56.88a1.6,1.6,0,0,1-1.59-1.4Z"/><path id="Fill-261" class="cls-4" d="M115,75.46a1.6,1.6,0,0,1,1.6-1.6h30.74a1.6,1.6,0,0,1,1.6,1.6v7.79a1.6,1.6,0,0,1-1.6,1.6H132.46a1.61,1.61,0,0,0-1.61,1.6v17.42a1.61,1.61,0,0,0,1.61,1.6h10.85a1.6,1.6,0,0,1,1.6,1.6V115a1.6,1.6,0,0,1-1.6,1.6H132.46a1.61,1.61,0,0,0-1.61,1.6v21.18a1.61,1.61,0,0,0,1.61,1.6h15.08a1.6,1.6,0,0,1,1.61,1.6v7.6a1.6,1.6,0,0,1-1.61,1.6H116.62a1.6,1.6,0,0,1-1.6-1.6Z"/><path id="Stroke-263" class="cls-5" d="M115,150.18V75.46a1.6,1.6,0,0,1,1.6-1.6h30.74a1.6,1.6,0,0,1,1.6,1.6v7.79a1.6,1.6,0,0,1-1.6,1.6H132.46a1.61,1.61,0,0,0-1.61,1.6v17.42a1.61,1.61,0,0,0,1.61,1.6h10.85a1.6,1.6,0,0,1,1.6,1.6V115a1.6,1.6,0,0,1-1.6,1.6H132.46a1.61,1.61,0,0,0-1.61,1.6v21.18a1.61,1.61,0,0,0,1.61,1.6h15.08a1.6,1.6,0,0,1,1.61,1.6v7.6a1.6,1.6,0,0,1-1.61,1.6H116.62a1.6,1.6,0,0,1-1.6-1.6Z"/><path id="Fill-265" class="cls-4" d="M156.25,150.18V75.46a1.6,1.6,0,0,1,1.6-1.6h12.64a1.6,1.6,0,0,1,1.6,1.6v63.91a1.61,1.61,0,0,0,1.61,1.6h15a1.6,1.6,0,0,1,1.6,1.6v7.6a1.6,1.6,0,0,1-1.6,1.6H157.86a1.6,1.6,0,0,1-1.6-1.6"/><path id="Stroke-267" class="cls-5" d="M156.25,150.18V75.46a1.6,1.6,0,0,1,1.6-1.6h12.64a1.6,1.6,0,0,1,1.6,1.6v63.91a1.61,1.61,0,0,0,1.61,1.6h15a1.6,1.6,0,0,1,1.6,1.6v7.6a1.6,1.6,0,0,1-1.6,1.6H157.86a1.6,1.6,0,0,1-1.6-1.6Z"/><path id="Fill-269" class="cls-4" d="M218.63,152.82A28.66,28.66,0,0,1,207.72,151a16.07,16.07,0,0,1-7.1-5.43,23.21,23.21,0,0,1-3.71-8.18,45.34,45.34,0,0,1-1.13-10.72V99.15a47.1,47.1,0,0,1,1.13-11A22.72,22.72,0,0,1,200.62,80a15.76,15.76,0,0,1,7.08-5.31,29.63,29.63,0,0,1,10.93-1.79A30.43,30.43,0,0,1,229,74.45a15.16,15.16,0,0,1,6.77,4.63,19.26,19.26,0,0,1,3.57,7,34.82,34.82,0,0,1,1.1,9.28v5.16a1.6,1.6,0,0,1-1.6,1.6H226.63a1.6,1.6,0,0,1-1.6-1.6V93q0-.52,0-1.69a10,10,0,0,0-.16-1.67q-.12-.49-.33-1.43a3.86,3.86,0,0,0-.52-1.36q-.31-.42-.78-1a2.65,2.65,0,0,0-1.1-.87,10.69,10.69,0,0,0-1.5-.47,8,8,0,0,0-1.9-.21,7,7,0,0,0-3.13.63,5.43,5.43,0,0,0-2,1.57A6.82,6.82,0,0,0,212.47,89a18.91,18.91,0,0,0-.47,3q-.09,1.39-.09,3.5v34.83q0,5.69,1.43,8.37t5.34,2.68a8.35,8.35,0,0,0,2.63-.38,3.75,3.75,0,0,0,1.81-1.25,9.5,9.5,0,0,0,1.08-1.69,7.3,7.3,0,0,0,.56-2.33q.16-1.5.21-2.54t0-2.87v-6a1.6,1.6,0,0,1,1.6-1.6h12.26a1.6,1.6,0,0,1,1.6,1.6v5a37.82,37.82,0,0,1-1.06,9.47,21.35,21.35,0,0,1-3.46,7.33,14.88,14.88,0,0,1-6.77,5,29,29,0,0,1-10.58,1.72"/><path id="Stroke-271" class="cls-5" d="M218.63,152.82A28.66,28.66,0,0,1,207.72,151a16.07,16.07,0,0,1-7.1-5.43,23.21,23.21,0,0,1-3.71-8.18,45.34,45.34,0,0,1-1.13-10.72V99.15a47.1,47.1,0,0,1,1.13-11A22.72,22.72,0,0,1,200.62,80a15.76,15.76,0,0,1,7.08-5.31,29.63,29.63,0,0,1,10.93-1.79A30.43,30.43,0,0,1,229,74.45a15.16,15.16,0,0,1,6.77,4.63,19.26,19.26,0,0,1,3.57,7,34.82,34.82,0,0,1,1.1,9.28v5.16a1.6,1.6,0,0,1-1.6,1.6H226.63a1.6,1.6,0,0,1-1.6-1.6V93q0-.52,0-1.69a10,10,0,0,0-.16-1.67q-.12-.49-.33-1.43a3.86,3.86,0,0,0-.52-1.36q-.31-.42-.78-1a2.65,2.65,0,0,0-1.1-.87,10.69,10.69,0,0,0-1.5-.47,8,8,0,0,0-1.9-.21,7,7,0,0,0-3.13.63,5.43,5.43,0,0,0-2,1.57A6.82,6.82,0,0,0,212.47,89a18.91,18.91,0,0,0-.47,3q-.09,1.39-.09,3.5v34.83q0,5.69,1.43,8.37t5.34,2.68a8.35,8.35,0,0,0,2.63-.38,3.75,3.75,0,0,0,1.81-1.25,9.5,9.5,0,0,0,1.08-1.69,7.3,7.3,0,0,0,.56-2.33q.16-1.5.21-2.54t0-2.87v-6a1.6,1.6,0,0,1,1.6-1.6h12.26a1.6,1.6,0,0,1,1.6,1.6v5a37.82,37.82,0,0,1-1.06,9.47,21.35,21.35,0,0,1-3.46,7.33,14.88,14.88,0,0,1-6.77,5,29,29,0,0,1-10.58,1.72Z"/><path id="Fill-273" class="cls-4" d="M267.77,140.81a7.23,7.23,0,0,0,3.06.59,7.39,7.39,0,0,0,3.08-.59,5.47,5.47,0,0,0,2-1.48,6.59,6.59,0,0,0,1.15-2.35,14.64,14.64,0,0,0,.54-2.8q.12-1.34.12-3.22V94.49q0-1.88-.12-3.22a13.75,13.75,0,0,0-.54-2.75,6.35,6.35,0,0,0-1.15-2.28,5.37,5.37,0,0,0-2-1.43,7.67,7.67,0,0,0-3.08-.56,7.5,7.5,0,0,0-3.06.56,5.18,5.18,0,0,0-2,1.43,6.31,6.31,0,0,0-1.1,2.3,15.28,15.28,0,0,0-.52,2.75q-.12,1.32-.12,3.2V131q0,1.88.12,3.22a15.76,15.76,0,0,0,.52,2.8,6.56,6.56,0,0,0,1.1,2.35,5.28,5.28,0,0,0,2,1.48m3.06,12A30.25,30.25,0,0,1,260,151.11a16.13,16.13,0,0,1-7.12-5.12,21.78,21.78,0,0,1-3.86-8,43.44,43.44,0,0,1-1.2-10.86V98.35A43.15,43.15,0,0,1,249,87.51a21.11,21.11,0,0,1,3.86-7.92,16.2,16.2,0,0,1,7.12-5,30.61,30.61,0,0,1,10.81-1.69q12.37,0,17.75,6.44t5.38,19v28.76q0,12.6-5.38,19.15t-17.75,6.56"/><path id="Stroke-275" class="cls-5" d="M267.77,140.81a7.23,7.23,0,0,0,3.06.59,7.39,7.39,0,0,0,3.08-.59,5.47,5.47,0,0,0,2-1.48,6.59,6.59,0,0,0,1.15-2.35,14.64,14.64,0,0,0,.54-2.8q.12-1.34.12-3.22V94.49q0-1.88-.12-3.22a13.75,13.75,0,0,0-.54-2.75,6.35,6.35,0,0,0-1.15-2.28,5.37,5.37,0,0,0-2-1.43,7.67,7.67,0,0,0-3.08-.56,7.5,7.5,0,0,0-3.06.56,5.18,5.18,0,0,0-2,1.43,6.31,6.31,0,0,0-1.1,2.3,15.28,15.28,0,0,0-.52,2.75q-.12,1.32-.12,3.2V131q0,1.88.12,3.22a15.76,15.76,0,0,0,.52,2.8,6.56,6.56,0,0,0,1.1,2.35,5.28,5.28,0,0,0,2,1.48ZM260,151.11a16.13,16.13,0,0,1-7.12-5.12,21.78,21.78,0,0,1-3.86-8,43.44,43.44,0,0,1-1.2-10.86V98.35A43.15,43.15,0,0,1,249,87.51a21.11,21.11,0,0,1,3.86-7.92,16.2,16.2,0,0,1,7.12-5,30.61,30.61,0,0,1,10.81-1.69q12.37,0,17.75,6.44t5.38,19v28.76q0,12.6-5.38,19.15t-17.75,6.56A30.25,30.25,0,0,1,260,151.11Z"/><path id="Fill-277" class="cls-6" d="M301.95,150.16l1.22-74.72a1.6,1.6,0,0,1,1.61-1.58h13.79a1.61,1.61,0,0,1,1.57,1.29l8,40.67a1.61,1.61,0,0,0,3.15,0l8.47-40.7a1.6,1.6,0,0,1,1.57-1.28H354.7a1.6,1.6,0,0,1,1.6,1.58l1.22,74.72a1.61,1.61,0,0,1-1.61,1.63H347.5a1.6,1.6,0,0,1-1.6-1.57l-.74-35.83a1.6,1.6,0,0,0-3.18-.27l-7,36.37a1.6,1.6,0,0,1-1.58,1.3h-7a1.6,1.6,0,0,1-1.57-1.3l-7.24-36.83a1.6,1.6,0,0,0-3.18.28l-.68,36.27a1.61,1.61,0,0,1-1.61,1.57h-8.55a1.6,1.6,0,0,1-1.6-1.63"/><path id="Stroke-279" class="cls-5" d="M301.95,150.16l1.22-74.72a1.6,1.6,0,0,1,1.61-1.58h13.79a1.61,1.61,0,0,1,1.57,1.29l8,40.67a1.61,1.61,0,0,0,3.15,0l8.47-40.7a1.6,1.6,0,0,1,1.57-1.28H354.7a1.6,1.6,0,0,1,1.6,1.58l1.22,74.72a1.61,1.61,0,0,1-1.61,1.63H347.5a1.6,1.6,0,0,1-1.6-1.57l-.74-35.83a1.6,1.6,0,0,0-3.18-.27l-7,36.37a1.6,1.6,0,0,1-1.58,1.3h-7a1.6,1.6,0,0,1-1.57-1.3l-7.24-36.83a1.6,1.6,0,0,0-3.18.28l-.68,36.27a1.61,1.61,0,0,1-1.61,1.57h-8.55a1.6,1.6,0,0,1-1.6-1.63Z"/><path id="Fill-281" class="cls-4" d="M366.43,150.18V75.46a1.6,1.6,0,0,1,1.6-1.6h30.74a1.6,1.6,0,0,1,1.6,1.6v7.79a1.6,1.6,0,0,1-1.6,1.6H383.88a1.61,1.61,0,0,0-1.61,1.6v17.42a1.61,1.61,0,0,0,1.61,1.6h10.85a1.6,1.6,0,0,1,1.6,1.6V115a1.6,1.6,0,0,1-1.6,1.6H383.88a1.61,1.61,0,0,0-1.61,1.6v21.18a1.61,1.61,0,0,0,1.61,1.6H399a1.6,1.6,0,0,1,1.61,1.6v7.6a1.6,1.6,0,0,1-1.61,1.6H368a1.6,1.6,0,0,1-1.6-1.6"/><path id="Stroke-283" class="cls-5" d="M366.43,150.18V75.46a1.6,1.6,0,0,1,1.6-1.6h30.74a1.6,1.6,0,0,1,1.6,1.6v7.79a1.6,1.6,0,0,1-1.6,1.6H383.88a1.61,1.61,0,0,0-1.61,1.6v17.42a1.61,1.61,0,0,0,1.61,1.6h10.85a1.6,1.6,0,0,1,1.6,1.6V115a1.6,1.6,0,0,1-1.6,1.6H383.88a1.61,1.61,0,0,0-1.61,1.6v21.18a1.61,1.61,0,0,0,1.61,1.6H399a1.6,1.6,0,0,1,1.61,1.6v7.6a1.6,1.6,0,0,1-1.61,1.6H368a1.6,1.6,0,0,1-1.6-1.6Z"/><path id="Fill-285" class="cls-7" d="M11.58,94.14H19.7a4.93,4.93,0,0,1,1.24.12,1.86,1.86,0,0,1,1.35,2,1.83,1.83,0,0,1-1.43,1.81,7.36,7.36,0,0,1-1.55.17q-7.81,0-15.62,0a7.85,7.85,0,0,1-1.55-.17,1.91,1.91,0,0,1-1.5-1.89,1.94,1.94,0,0,1,1.56-2,6,6,0,0,1,1.14-.09h8.22"/><path id="Fill-287" class="cls-7" d="M22.37,111.75a2,2,0,0,1,2,1.74,2,2,0,0,1-1.3,2.15,6.1,6.1,0,0,1-1.32.28L9.23,117.4l-1.14.11a2.17,2.17,0,0,1-1.21-.25,2,2,0,0,1-.16-3.38,3.25,3.25,0,0,1,1.17-.41c1.27-.19,2.54-.33,3.81-.49l9-1.06c.62-.07,1.24-.12,1.69-.17"/><path id="Fill-289" class="cls-7" d="M24.68,128.17A1.75,1.75,0,0,1,26,129.74a1.87,1.87,0,0,1-.78,1.93,3.74,3.74,0,0,1-1,.48c-1.91.51-3.83,1-5.75,1.49a3.64,3.64,0,0,1-.82.12,1.9,1.9,0,0,1-1.85-1.49,2,2,0,0,1,.88-2.19,3.32,3.32,0,0,1,.87-.37q2.92-.78,5.85-1.53a2.06,2.06,0,0,1,1.28,0"/><path id="Fill-291" class="cls-7" d="M26.25,143.24a2,2,0,0,1,0,3.94,2,2,0,0,1,0-3.94"/><path id="Fill-293" class="cls-7" d="M246.68,168.53a1.2,1.2,0,0,1-.22-1.64,1.29,1.29,0,0,1,1.54-.43,5.86,5.86,0,0,1,.81.39,21.19,21.19,0,0,0,8.64,2.54l.89.07a1.63,1.63,0,0,1,.85.28c.84.55.17,2-1,2.27a3.38,3.38,0,0,1-1.08.1,20.56,20.56,0,0,1-3.08-.48,22.52,22.52,0,0,1-6.3-2.46c-.39-.22-.75-.47-1-.64"/><path id="Fill-295" class="cls-7" d="M217.48,47.55a2,2,0,0,1-2-1.72,16.59,16.59,0,0,1-.34-3.26c0-12.22-.06-24.67-.05-37a18.11,18.11,0,0,1,.33-3.29A2.22,2.22,0,0,1,217.59.4h.08a2.34,2.34,0,0,1,2.1,2,13.61,13.61,0,0,1,.16,2.33q0,7.48,0,15V29q0,7.21,0,14.42a10.9,10.9,0,0,1-.2,2.45,2.07,2.07,0,0,1-2.18,1.64Z"/><path id="Fill-297" class="cls-7" d="M186.43,55.63a2.18,2.18,0,0,1-2.09-1.49,13.79,13.79,0,0,1-.76-2.65q-2.67-13.09-5.29-26.18l-.6-3c-.17-.84-.31-1.68-.46-2.52v-.08a3.41,3.41,0,0,1,.19-1.83,2.17,2.17,0,0,1,2.09-1.4,2,2,0,0,1,1.66.8,6,6,0,0,1,.85,2c.59,2.5,1.11,5.08,1.61,7.57l.26,1.27q2.13,10.49,4.23,21c.2,1,.38,2,.54,2.9l.15.81c0,1.47-.73,2.57-1.74,2.77a3.21,3.21,0,0,1-.62.06"/><path id="Fill-299" class="cls-7" d="M250.51,56.67a3.48,3.48,0,0,1-.62-.06,2.42,2.42,0,0,1-1.75-2.19,4.59,4.59,0,0,1,0-.48c0-.14,0-.31,0-.51l4.33-26.18.29-1.79c.24-1.5.49-3,.76-4.49a9.46,9.46,0,0,1,.47-1.75,2.28,2.28,0,0,1,2.19-1.69,3.31,3.31,0,0,1,.59.06,2.51,2.51,0,0,1,1.78,2.62,24.5,24.5,0,0,1-.36,2.73l0,.21q-1.78,10.57-3.57,21.14l-.78,4.59c-.29,1.69-.57,3.38-.88,5.06a5.58,5.58,0,0,1-.35,1.2,2.12,2.12,0,0,1-2.08,1.54"/><path id="Fill-301" class="cls-7" d="M285.22,53.23a2.14,2.14,0,0,1-1.92-1.17,4.52,4.52,0,0,1-.25-.91l-.09-.41a4.88,4.88,0,0,1,.59-1.72c1-2,2.08-3.89,3.13-5.84l.76-1.41c.89-1.66,1.82-3.38,2.75-5A8.07,8.07,0,0,1,291.43,35a2.15,2.15,0,0,1,1.53-.62,2.26,2.26,0,0,1,1.16.32,2.21,2.21,0,0,1,1,2.54,9.63,9.63,0,0,1-.76,1.87C292,43.51,290.05,47.22,288,51a6.5,6.5,0,0,1-1.35,1.75,2.13,2.13,0,0,1-1.4.53"/><path id="Fill-303" class="cls-7" d="M149.84,53.44a1.72,1.72,0,0,1-1.25-.54,7.05,7.05,0,0,1-1.28-1.63c-2.26-4.08-4.5-8.26-6.68-12.3a7.4,7.4,0,0,1-.6-1.4,2.38,2.38,0,0,1,1.09-2.71,2.13,2.13,0,0,1,1.05-.27,2.33,2.33,0,0,1,1.67.71,6.05,6.05,0,0,1,1,1.32c2.06,3.74,4.23,7.71,6.82,12.51a3.42,3.42,0,0,1,.56,1.74v.25a1.9,1.9,0,0,1-1.25,2.07,2.83,2.83,0,0,1-1.1.25"/><path id="Fill-305" class="cls-7" d="M116.31,53.13a2.54,2.54,0,0,1-1.58-.92,3.45,3.45,0,0,1-.68-2.1c0-1.2,1-2.7,2.22-2.7h.07A2.57,2.57,0,0,1,118.61,50a3.13,3.13,0,0,1-.57,2c-.44.46-1.1,1.16-1.7,1.16Z"/><path id="Fill-307" class="cls-7" d="M318.84,52.32a2.38,2.38,0,0,1-1.67-.78,2.16,2.16,0,0,1-.53-1.59v-.27a1.77,1.77,0,0,1,.56-1.19,2.38,2.38,0,0,1,1.7-.78H319a2.38,2.38,0,0,1,2.14,2.37,2.32,2.32,0,0,1-2.23,2.24Z"/><path id="Fill-309" class="cls-2" d="M170.93,183.37l22.46.61,22-.61,1.75.26L218,186,217,187.62l-1.51.35-20.85-.15-20.85.09-20.85.33-20.85-.38-20.86-.25-20.85.21-20.85.47-20.85.08-1.45-1.06-.48-.37a1.54,1.54,0,0,1-.2-2.27l.65-.71,1.14-.39H68.75l20.43-.11,20.38-.07,20.5.79,20.44-.36Z"/><path id="Fill-311" class="cls-7" d="M586.19,210c-1.34,0-7.38-.6-16.88-1.23-4.8-.32-10.51-.29-16.93-.42-5.2-.11-10.86.27-16.92.42-5.4.05-11.1.4-17.07.68-5.49.26-11.2.41-17.07.82-5.55.38-11.29.19-17.09.66-5.59.45-11.26,1.18-17,1.68s-11.3,1.1-17,1.6-11.33,1.16-17,1.64-11.41.46-17.06.9-11.43.48-17.05.84-11.44,1-17,1.27c-5.81.28-11.5.67-17.05.81-5.87.15-11.58.83-17.08.79-6-.05-11.65-.9-17-1.22-6.43-.26-12.75-.47-18.64-1.1-6.82-.73-13.07-2-18.45-2.84-10.48-1.72-17.69-2.8-18.46-3.06-3.35-1.13-5.54-3.32-5.41-4.86s2.59-2.2,5.84-1.91c.81.07,6.86.86,15.87,2,4.62.56,10,1.4,15.87,1.89,5,.42,10.42.3,16,.52,5.23.21,10.59.25,16,.16,5,0,10.27.72,15.71.51,5.07-.19,10.3-.63,15.68-1,5.1-.34,10.36-.39,15.68-.86,5.13-.45,10.34-1.12,15.62-1.68s10.39-.87,15.64-1.49,10.3-1.84,15.52-2.52,10.37-1.38,15.57-2.11c5.38-.76,10.61-1.54,15.71-2.2,5.4-.7,10.66-1.27,15.76-1.86,5.43-.63,10.64-1.7,15.72-2.21,5.46-.55,10.77-.68,15.84-1.11,5.5-.46,10.77-.93,15.82-1.25,5.54-.36,10.84-.31,15.86-.52,5.6-.23,10.89.11,15.86.05,5.69-.07,11-.07,15.84.06,5.83.15,11.15-.54,15.89-.15,6.1.5,11.25,1.83,15.66,2.62,7.07,1.28,12.07,2.68,15.15,4.37a10.84,10.84,0,0,1,5.8,8.9c.14,4.53-2.59,7.84-6.07,7.93a19.73,19.73,0,0,1-4.22-.84c-5.18-1-10.52-1.07-15.7-1.86s-10.34-2.26-15.56-2.8"/><path id="Fill-313" class="cls-7" d="M247.34,197.82c0-.66.54-1.13,1.45-1.07s1.84.43,1.82,1.18a2.14,2.14,0,0,1-2,1.68,1.57,1.57,0,0,1-1.29-1.79"/><path id="Fill-315" class="cls-7" d="M256.35,202.16c.34-1.27,3.44-2.39,5.68-1.61a3.47,3.47,0,0,1,2.31,4.21c-.56,1.46-2.71,2.27-4.79,1.57-2.25-.76-3.86-2.78-3.2-4.17"/><path id="Fill-317" class="cls-1" d="M586.87,206.76c-1.35,0-7.41-.61-17-1.25-4.83-.32-10.51-1.26-17-1.39-5.22-.11-10.92.64-17,.8-5.43.05-11.17,0-17.17.26-5.52.26-11.25.54-17.15.95-5.57.38-11.3.79-17.13,1.26-5.61.45-11.32,1-17.11,1.5s-11.42.48-17.16,1-11.33,1.84-17,2.31-11.44.84-17.12,1.27-11.46,1-17.11,1.37-11.58-.36-17.19-.09q-8.76.42-17.13.62c-5.9.15-11.62.54-17.14.5-6-.05-11.73.07-17.15-.25-6.46-.27-12.77-1-18.69-1.6-6.85-.74-13.22-1.33-18.63-2.22a122.57,122.57,0,0,1-18.2-4.29c-3.37-1.13-5.09-2.4-5-3.95s1.86-2.69,5.13-2.39a116.58,116.58,0,0,0,15.81,3.2c4.64.56,10.18.07,16.09.57,5.05.42,10.4,1.75,16,2,5.26.21,10.68-.35,16.08-.44,5,0,10.32.3,15.78.1,5.09-.19,10.34-.81,15.74-1.16,5.13-.34,10.44,0,15.79-.48,5.15-.45,10.4-1,15.71-1.56s10.38-1.44,15.65-2.07,10.33-1.94,15.58-2.62,10.42-1.39,15.64-2.13c5.41-.76,10.8-.55,15.92-1.21,5.43-.7,10.64-1.86,15.76-2.46,5.46-.63,10.7-1.6,15.81-2.11,5.49-.56,10.84-.37,15.94-.8,5.53-.47,10.81-1.06,15.88-1.39,5.57-.36,10.86-1,15.9-1.23,5.63-.23,11,.26,15.95.2,5.72-.07,11,.1,15.92.23,5.86.16,11.15.2,15.92.59,6.13.5,11.49.47,15.92,1.27,7.11,1.28,12.15,3.13,15.25,4.83a11.45,11.45,0,0,1,5.91,9.23c.14,4.55-2.84,7.87-6.33,8a19.82,19.82,0,0,1-4.41,0c-5.2-1-10.37-2.07-15.58-2.86s-10.46-1.5-15.7-2.05"/><path id="Stroke-319" class="cls-5" d="M586.87,206.76c-1.35,0-7.41-.61-17-1.25-4.83-.32-10.51-1.26-17-1.39-5.22-.11-10.92.64-17,.8-5.43.05-11.17,0-17.17.26-5.52.26-11.25.54-17.15.95-5.57.38-11.3.79-17.13,1.26-5.61.45-11.32,1-17.11,1.5s-11.42.48-17.16,1-11.33,1.84-17,2.31-11.44.84-17.12,1.27-11.46,1-17.11,1.37-11.58-.36-17.19-.09q-8.76.42-17.13.62c-5.9.15-11.62.54-17.14.5-6-.05-11.73.07-17.15-.25-6.46-.27-12.77-1-18.69-1.6-6.85-.74-13.22-1.33-18.63-2.22a122.57,122.57,0,0,1-18.2-4.29c-3.37-1.13-5.09-2.4-5-3.95s1.86-2.69,5.13-2.39a116.58,116.58,0,0,0,15.81,3.2c4.64.56,10.18.07,16.09.57,5.05.42,10.4,1.75,16,2,5.26.21,10.68-.35,16.08-.44,5,0,10.32.3,15.78.1,5.09-.19,10.34-.81,15.74-1.16,5.13-.34,10.44,0,15.79-.48,5.15-.45,10.4-1,15.71-1.56s10.38-1.44,15.65-2.07,10.33-1.94,15.58-2.62,10.42-1.39,15.64-2.13c5.41-.76,10.8-.55,15.92-1.21,5.43-.7,10.64-1.86,15.76-2.46,5.46-.63,10.7-1.6,15.81-2.11,5.49-.56,10.84-.37,15.94-.8,5.53-.47,10.81-1.06,15.88-1.39,5.57-.36,10.86-1,15.9-1.23,5.63-.23,11,.26,15.95.2,5.72-.07,11,.1,15.92.23,5.86.16,11.15.2,15.92.59,6.13.5,11.49.47,15.92,1.27,7.11,1.28,12.15,3.13,15.25,4.83a11.45,11.45,0,0,1,5.91,9.23c.14,4.55-2.84,7.87-6.33,8a19.82,19.82,0,0,1-4.41,0c-5.2-1-10.37-2.07-15.58-2.86s-10.46-1.5-15.7-2.05Z"/><path id="Fill-321" class="cls-1" d="M246.59,193.86c0-.67.41-1.9,1.33-1.84a2.16,2.16,0,0,1,1.61,2,2,2,0,0,1-1.82,1.71c-.92,0-1.18-1-1.12-1.82"/><path id="Stroke-323" class="cls-5" d="M246.59,193.86c0-.67.41-1.9,1.33-1.84a2.16,2.16,0,0,1,1.61,2,2,2,0,0,1-1.82,1.71c-.92,0-1.18-1-1.12-1.82Z"/><path id="Fill-325" class="cls-1" d="M256.08,198.44c.34-1.28,2.53-1.73,4.78-.95,2,.69,2.83,1.78,2.29,3.2s-2.31,2.22-4.4,1.51c-2.26-.76-3.33-2.37-2.67-3.76"/><path id="Stroke-327" class="cls-5" d="M256.08,198.44c.34-1.28,2.53-1.73,4.78-.95,2,.69,2.83,1.78,2.29,3.2s-2.31,2.22-4.4,1.51c-2.26-.76-3.33-2.37-2.67-3.76Z"/><path id="Fill-329" class="cls-1" d="M173.81,180.31l22.46.61,22-.61,1.75.26.85,2.34-1.06,1.65-1.51.35-20.85-.15-20.85.08-20.85.33-20.85-.38-20.86-.25-20.85.21-20.85.47-20.85.08-1.45-1.06-.48-.37a1.54,1.54,0,0,1-.2-2.27l.65-.71,1.14-.39H71.63l20.43-.11,20.38-.07,20.5.79,20.44-.36Z"/><path id="Stroke-331" class="cls-5" d="M173.81,180.31l22.46.61,22-.61,1.75.26.85,2.34-1.06,1.65-1.51.35-20.85-.15-20.85.08-20.85.33-20.85-.38-20.86-.25-20.85.21-20.85.47-20.85.08-1.45-1.06-.48-.37a1.54,1.54,0,0,1-.2-2.27l.65-.71,1.14-.39H71.63l20.43-.11,20.38-.07,20.5.79,20.44-.36,20.43-.42Z"/><path id="Fill-333" class="cls-2" d="M366.47,183.37l12.66.61,12.43-.61,1,.26L393,186l-.6,1.65-.85.35-11.75-.15-11.75.09-11.75.33-11.76-.38-11.76-.25-11.76.21-11.76.47-11.75.08-.82-1.06-.27-.37a2.41,2.41,0,0,1-.12-2.27l.37-.71.64-.39h11.52l11.52-.11,11.49-.07,11.56.79,11.52-.36Z"/><path id="Fill-335" class="cls-1" d="M368.09,180.31l12.66.61,12.43-.61,1,.26.48,2.34-.6,1.65-.85.35-11.75-.15-11.75.08-11.75.33-11.76-.38-11.76-.25-11.76.21-11.76.47-11.75.08-.82-1.06-.27-.37a2.41,2.41,0,0,1-.12-2.27l.37-.71.64-.39h11.52l11.52-.11,11.49-.07,11.56.79,11.52-.36Z"/><path id="Stroke-337" class="cls-5" d="M368.09,180.31l12.66.61,12.43-.61,1,.26.48,2.34-.6,1.65-.85.35-11.75-.15-11.75.08-11.75.33-11.76-.38-11.76-.25-11.76.21-11.76.47-11.75.08-.82-1.06-.27-.37a2.41,2.41,0,0,1-.12-2.27l.37-.71.64-.39h11.52l11.52-.11,11.49-.07,11.56.79,11.52-.36,11.52-.42Z"/><path id="Fill-339" class="cls-1" d="M548.42,88.34a6.33,6.33,0,0,0-6.33,5.51l-5,29.1L525.43,108.4a5.8,5.8,0,0,0-4.78-2.15,5.88,5.88,0,0,0-4.86,2.15L504.16,123l-5-29.07a6.36,6.36,0,0,0-12.67.8,9.33,9.33,0,0,0,.24,1.64l7.4,43.17c.32,2.49,3.29,4.75,6.25,4.75a7.13,7.13,0,0,0,5.23-3l15.07-18.65,15,18.65a7.18,7.18,0,0,0,5.37,3c2.76,0,5.75-2.28,6.17-4.69l7.43-43.44c0-.07,0-.18,0-.38a8.91,8.91,0,0,0,.1-1,6.35,6.35,0,0,0-6.34-6.34"/><path id="Fill-341" class="cls-1" d="M588.26,88.33a27.93,27.93,0,1,0,27.94,27.93,27.94,27.94,0,0,0-27.94-27.93m0,12.09a15.84,15.84,0,1,1-15.85,15.84,15.86,15.86,0,0,1,15.85-15.84"/><path id="Fill-343" class="cls-1" d="M749.7,138.15a6,6,0,1,1-6-6,6,6,0,0,1,6,6"/><path id="Fill-345" class="cls-1" d="M856.32,100.34a6,6,0,1,0,0-11.94H833.19a6,6,0,0,0-6,6v43.71a6,6,0,0,0,6,6h0a6,6,0,0,0,6-6V122.27h11.53a6,6,0,0,0,6-6h0a6,6,0,0,0-6-6H839.24v-10Z"/><path id="Fill-347" class="cls-1" d="M900.89,132.11H884v-9.89h11.53a6,6,0,0,0,6-6h0a6,6,0,0,0-6-6H884v-9.84h16.93a6,6,0,1,0,0-12.09h-23a6,6,0,0,0-6,6V138.1a6,6,0,0,0,6,6h6v.05h16.93a6,6,0,1,0,0-12.09"/><path id="Fill-349" class="cls-1" d="M809.62,144.2h0a6,6,0,0,1-6-6V94.38a6,6,0,0,1,12.1,0v43.77a6,6,0,0,1-6,6"/><path id="Fill-351" class="cls-1" d="M725.95,133.82l-17-17,17-17a6,6,0,0,0-8.55-8.55l-25.11,25.1V94.38a6,6,0,0,0-12.1,0v43.77a6,6,0,0,0,12.1,0V133.4l8.07-8.06,17,17a6,6,0,1,0,8.55-8.55"/><path id="Fill-353" class="cls-1" d="M788.26,132.11H774.38a4.13,4.13,0,0,1-4.06-4.18V94.39a6,6,0,0,0-12.1,0V128a16.24,16.24,0,0,0,15.67,16.21h14.37a6,6,0,1,0,0-12.08"/><path id="Fill-355" class="cls-1" d="M638.18,122v-21.5h9a10.75,10.75,0,1,1,0,21.5ZM670,111.23a22.84,22.84,0,0,0-22.85-22.84h-9v0h-6a6,6,0,0,0-6,6v43.77a6,6,0,0,0,12.1,0v-4.11h9a22.89,22.89,0,0,0,5.29-.62l6.05,8.19a6.16,6.16,0,0,0,5.09,2.5,6.4,6.4,0,0,0,6.42-6.36,6.11,6.11,0,0,0-1.3-3.85l-5.06-6.9a22.75,22.75,0,0,0,6.36-15.8Z"/><path id="Fill-357" class="cls-1" d="M542.1,93.85l-5,29.1L525.43,108.4a5.8,5.8,0,0,0-4.78-2.15,5.88,5.88,0,0,0-4.86,2.15L504.16,123l-5-29.07a6.36,6.36,0,0,0-12.67.8,9.33,9.33,0,0,0,.24,1.64l7.4,43.17c.32,2.49,3.29,4.75,6.25,4.75a7.13,7.13,0,0,0,5.23-3l15.07-18.65,15,18.65a7.18,7.18,0,0,0,5.37,3c2.76,0,5.75-2.28,6.17-4.69l7.43-43.44c0-.07,0-.18,0-.38a8.91,8.91,0,0,0,.1-1,6.36,6.36,0,0,0-12.67-.83Z"/><path id="Fill-359" class="cls-1" d="M588.26,88.33a27.93,27.93,0,1,0,27.94,27.93,27.94,27.94,0,0,0-27.94-27.93m0,12.09a15.84,15.84,0,1,1-15.85,15.84,15.86,15.86,0,0,1,15.85-15.84"/><path id="Fill-361" class="cls-1" d="M749.7,138.15a6,6,0,1,1-6-6,6,6,0,0,1,6,6"/><path id="Fill-363" class="cls-1" d="M856.32,100.34a6,6,0,1,0,0-11.94H833.19a6,6,0,0,0-6,6v43.71a6,6,0,0,0,6,6h0a6,6,0,0,0,6-6V122.27h11.53a6,6,0,0,0,6-6h0a6,6,0,0,0-6-6H839.24v-10Z"/><path id="Fill-365" class="cls-1" d="M900.89,132.11H884v-9.89h11.53a6,6,0,0,0,6-6h0a6,6,0,0,0-6-6H884v-9.84h16.93a6,6,0,1,0,0-12.09h-23a6,6,0,0,0-6,6V138.1a6,6,0,0,0,6,6h6v.05h16.93a6,6,0,1,0,0-12.09"/><path id="Fill-367" class="cls-1" d="M809.62,144.2h0a6,6,0,0,1-6-6V94.38a6,6,0,0,1,12.1,0v43.77a6,6,0,0,1-6,6"/><path id="Fill-369" class="cls-1" d="M725.95,133.82l-17-17,17-17a6,6,0,0,0-8.55-8.55l-25.11,25.1V94.38a6,6,0,0,0-12.1,0v43.77a6,6,0,0,0,12.1,0V133.4l8.07-8.06,17,17a6,6,0,1,0,8.55-8.55"/><path id="Fill-371" class="cls-1" d="M788.26,132.11H774.38a4.13,4.13,0,0,1-4.06-4.18V94.39a6,6,0,0,0-12.1,0V128a16.24,16.24,0,0,0,15.67,16.21h14.37a6,6,0,1,0,0-12.08"/><path id="Fill-373" class="cls-1" d="M638.18,122v-21.5h9a10.75,10.75,0,1,1,0,21.5ZM670,111.23a22.84,22.84,0,0,0-22.85-22.84h-9v0h-6a6,6,0,0,0-6,6v43.77a6,6,0,0,0,12.1,0v-4.11h9a22.89,22.89,0,0,0,5.29-.62l6.05,8.19a6.16,6.16,0,0,0,5.09,2.5,6.4,6.4,0,0,0,6.42-6.36,6.11,6.11,0,0,0-1.3-3.85l-5.06-6.9a22.75,22.75,0,0,0,6.36-15.8Z"/></g></g></g></g></svg>