<?xml version="1.0" encoding="UTF-8"?>
<svg width="687px" height="182px" viewBox="0 0 687 182" version="1.1" xmlns="http://www.w3.org/2000/svg" xmlns:xlink="http://www.w3.org/1999/xlink">
    <!-- Generator: Sketch 39.1 (31720) - http://www.bohemiancoding.com/sketch -->
    <title>Artboard</title>
    <desc>Created with Sketch.</desc>
    <defs></defs>
    <g id="Page-1" stroke="none" stroke-width="1" fill="none" fill-rule="evenodd">
        <g id="Artboard" fill="#FFFFFF">
            <g id="london-fields-logo">
                <g id="Layer_2">
                    <g id="Main_Logo">
                        <path d="M425.34,65.3 C432.13,65.3 438.42,65.35 444.71,65.3 C449.48,65.25 454.25,64.89 459,65.07 C459.82,65.07 461,67.07 461.26,68.24 C461.73484,70.9953495 461.988981,73.7842064 462.02,76.58 C462.29,85.84 460.41,88.42 451.52,89.39 C443.02,90.32 434.45,90.62 425.25,91.24 C425.17,92.93 424.95,94.9 424.99,96.87 C425.43,118.87 425.74,140.94 426.49,162.96 C426.7,169.03 425.49,172.62 418.61,172.18 C416.928397,172.149564 415.249353,172.324185 413.61,172.7 C408.4,173.7 406.61,171.14 406.46,166.29 C406.07,149.29 405.16,132.29 405.2,115.29 C405.27,86.14 405.96,57 406.26,27.85 C406.32,22.5 405.84,17.14 405.51,11.79 C405.21,6.88 408.37,5.13 412.35,4.65 C421.57,3.54 430.81,2.48 440.08,1.88 C449.68,1.26 459.31,1.14 468.93,0.97 C470.233877,1.07097353 471.459775,1.63077679 472.39,2.55 C475.63,5.66 475.39,18.71 471.96,21.55 C470.861752,22.538314 469.437464,23.0866648 467.96,23.09 C454.78,21.54 441.96,23.68 429.25,26.78 C427.72,27.15 425.57,29.39 425.53,30.78 C425.21,42.27 425.34,53.66 425.34,65.3 L425.34,65.3 Z" id="Shape"></path>
                        <path d="M600.83,173.59 L599.95,167.26 C589.84,170.26 581.75,165.98 574.95,159.68 C567.52,152.84 563.89,143.44 561.55,133.83 C558.04,119.39 558.86,104.53 562.6,90.55 C566.34,76.57 585.14,61.74 600.6,65.62 C605.46,66.84 607.77,65.25 608.37,60.01 C609.81,47.47 611.94,35.01 613.37,22.45 C613.83,18.23 616.54,18.45 619.17,18.06 C628.03,16.69 629.75,18.73 628.78,27.39 C626.64,46.63 624.55,65.89 623.15,85.19 C621.87,102.85 621.7,120.58 620.69,138.27 C620.15,147.74 618.53,157.16 618.1,166.63 C617.9,171.03 616.31,173.22 612.25,173.54 C608.51,173.82 604.83,173.59 600.83,173.59 L600.83,173.59 Z M601.67,150.04 C602.2,144.47 603.09,139.14 603.13,133.81 C603.22,123.16 602.73,112.52 602.73,101.87 C602.73,96.28 603.31,90.7 603.53,85.11 C603.73,80.3 600.81,79.52 596.93,80.32 C589.25,81.89 581.09,90.27 580.39,98.08 C579.2,111.42 577.75,124.68 583.39,137.74 C587,146.07 590.94,149.89 601.67,150 L601.67,150.04 Z" id="Shape"></path>
                        <path d="M663.47,72.71 C658.77,78.39 658.47,82.71 661.68,88.43 C668.34,100.29 675.19,112.06 681.37,124.16 C685.402848,132.259836 686.92455,141.379602 685.74,150.35 C684.84,158.2 681.74,164.29 673.95,167.95 C666.979226,171.188546 659.231259,172.37814 651.61,171.38 C642.87,170.38 637.61,163.15 636.29,151.74 C636.177934,149.5343 635.739849,147.357354 634.99,145.28 C629.99,133.94 634.33,126.84 646.55,126.78 L650,126.78 C653.46,137.78 656.55,148.02 660,158.11 C660.32,159.04 662.84,159.23 664.79,159.92 C668.44,146.92 665.09,135.38 659.66,124.44 C654.800031,114.564074 649.429436,104.947738 643.57,95.63 C638.92,88.29 640.67,75.94 648.62,71.43 C653.44,68.7 658.27,65.6 663.5,64.05 C675.1,60.6 687.9,71.42 686,82 C685.09,87 687.1,92.73 680,94.7 C675.1,96.06 673.31,94.92 672.25,89.89 C670.85,83.59 669.77,77 663.47,72.71 L663.47,72.71 Z" id="Shape"></path>
                        <path d="M492.09,137.26 C491.53,152.83 492.46,153.66 507.58,150.84 C515.36,149.39 517.17,151.07 516.39,159.03 C515.47,168.43 515.39,168.46 506.19,169.38 C504.7,169.53 503.19,169.69 501.74,169.95 C483.24,173.22 474.61,159.11 474.74,144.64 C474.86,130.88 477.1,117.14 478.2,103.38 C478.72,96.87 478.99,90.32 478.96,83.79 C478.96,77.79 482.19,73.42 485.52,69.07 C493.66,58.44 514.63,63.4 520.17,73.17 C526.46,84.27 527.87,96.08 526,108.33 C525,114.66 520.08,117.73 514.12,118.57 C508.78,119.32 503.3,119.09 497.96,119.84 C496.39,120.06 494.14,121.92 493.82,123.38 C492.83,127.93 492.61,132.63 492.09,137.26 L492.09,137.26 Z M495.14,107.41 C498.51,107.41 501.28,107.48 504.04,107.41 C512.86,107.16 513.58,106.74 513.53,97.75 C513.47,88.18 509.33,78.52 497.21,77.8 L495.14,107.41 Z" id="Shape"></path>
                        <path d="M529.64,163 C529.64,147.5 529.14,132 529.75,116.51 C530.75,90.77 532.46,65.06 533.95,39.34 C534.14,36.02 534.81,32.74 535.28,29.44 C535.72,26.37 535.28,21.31 536.8,20.61 C541.22,18.61 546.42,18.04 551.38,17.61 C552.24,17.54 554.38,21.12 554.24,22.93 C553.77,30.93 552.44,38.88 551.93,46.88 C551.14,59.35 550.66,71.88 550.23,84.32 C549.23,111.9 548.75,139.51 547.36,167.07 C546.97,174.88 538.54,170.32 534.36,173.01 C531.84,174.62 529.25,172.23 529.36,168.52 C529.243425,166.666699 528.969099,164.826706 528.54,163.02 L529.64,163 Z" id="Shape"></path>
                        <path d="M463.51,107.28 C463.21,129.92 462.05,136.59 461.82,160.78 C461.74,169.4 455.08,170.9 446.1,170.61 C442.41,170.49 440.89,168.16 441.01,165.05 C441.74,146.69 443.01,145.86 443.93,127.51 C444.27,120.44 445.19,113.37 446.17,106.33 C446.563438,104.774737 447.679251,103.50271 449.17,102.91 C452.37473,102.074121 455.653797,101.554963 458.96,101.36 C462.62,101.06 464.71,102.37 463.51,107.28 L463.51,107.28 Z" id="Shape"></path>
                        <path d="M451.9,58.23 C445.37,58.33 443.48,56.61 443.23,50.91 C442.87,42.72 447.98,40.25 457.63,39.44 C462.25,39.05 463.18,41.96 463.22,45.84 C463.33,55.42 461,58.08 451.9,58.23 L451.9,58.23 Z" id="Shape"></path>
                        <path d="M211.52,181.13 L210.52,174.13 C198.92,177.13 189.38,172.05 182.96,163.74 C177.58,156.74 174.19,147.74 171.89,139.08 C168.24,125.34 169.45,110.93 173.01,97.49 C176.78,83.24 195.69,68.57 210.86,72.31 C216.02,73.58 218.4,71.89 218.91,66.41 C219.55,59.55 221.03,52.78 221.98,45.94 C222.9,39.36 223.6,32.74 224.4,26.16 C224.924407,25.8477352 225.480957,25.592929 226.06,25.4 C239.06,22.91 240.22,24.18 238.82,37.22 C236.82,56.28 234.93,75.37 233.46,94.49 C232.58,106 232.86,117.59 232.09,129.11 C231.09,144.73 229.59,160.32 228.09,175.9 C227.690613,177.496307 226.531371,178.79391 224.99,179.37 C220.75,180.28 216.35,180.56 211.52,181.13 L211.52,181.13 Z M212.31,156.72 C212.81,150.86 213.63,145.34 213.68,139.81 C213.77,129.35 213.28,118.89 213.29,108.43 C213.29,102.84 213.85,97.26 214.08,91.67 C214.26,87.21 211.54,86.35 207.87,86.95 C200.14,88.22 191.64,96.95 190.92,104.95 C189.72,118.3 188.38,131.55 194,144.61 C197.47,152.7 201.77,156.74 212.31,156.73 L212.31,156.72 Z" id="Shape"></path>
                        <path d="M25.84,152.44 C34.47,152.44 42.1,152.2 49.71,152.51 C57.01,152.8 64.28,153.65 72.38,154.33 C72.38,159.86 72.75,166.14 72.14,172.33 C71.97,174.02 68.94,176.6 67.09,176.72 C61.58,177.07 56,176.05 50.46,176.21 C38.54,176.56 26.6,176.93 14.72,178 C3.83,179 -2.35,173.25 0.84,162.66 C3.66,153.3 2.93,144.01 3.48,134.66 C5.43,101.32 7.74,68 9.63,34.7 C9.84162476,28.1800879 9.5440545,21.653603 8.74,15.18 C8.27,10.44 10.25,8.58 14.58,7.45 C23.78,5 27.9,5.39 30.52,10.51 C31.79,13 32.06,16.22 32.05,19.11 C32.05,26.9 31.79,34.7 31.29,42.48 C30.77,50.48 29.5,58.48 29.12,66.48 C27.89,92.55 26.9,118.63 25.85,144.71 C25.75,147.26 25.84,149.85 25.84,152.44 L25.84,152.44 Z" id="Shape"></path>
                        <path d="M98.33,178.74 C98.95,167.74 99.53,156.64 100.22,145.52 C101.513333,124.64 102.846667,103.763333 104.22,82.89 C104.22345,80.6500407 104.397285,78.4135889 104.74,76.2 C105.3,73.68 105.8,69.67 107.33,69.12 C111.6,67.6 116.33,67.38 120.97,67.12 C121.56,67.12 122.88,69.66 122.9,71.04 C122.95,75.3 122.54,79.56 122.3,83.82 C122.97,83.82 123.58,83.94 123.64,83.82 C129,72.2 139.57,72.49 149.9,72.52 C154.46,72.52 158.06,74.88 159.42,79.09 C161.29,84.88 163.48,90.94 163.51,96.89 C163.61,117.26 162.82,137.62 162.4,157.99 C162.33,161.49 162.4,164.99 162.4,170.18 C156.7,170.63 150.14,171.78 143.72,171.18 C142.06,171.04 139.63,165.54 139.72,162.54 C139.9,151.72 141.26,140.92 141.67,130.1 C142.16,117.05 142.37,103.97 142.13,90.92 C142.07,87.72 139.78,84.57 138.52,81.39 C135.82,83.66 132.84,85.7 130.52,88.3 C129.11,89.87 128.52,92.3 127.86,94.4 C121.45,116 117.7,138 117.66,160.52 C117.66,162.2 117.57,163.89 117.46,165.52 C116.61,178.2 112.31,181.36 98.33,178.74 L98.33,178.74 Z" id="Shape"></path>
                        <path d="M322.06,84.62 C327.21,72.01 338.06,72.57 348.5,72.52 C353.05,72.52 356.68,74.82 358.05,79.04 C359.93,84.83 362.13,90.88 362.16,96.83 C362.27,117.19 361.48,137.56 361.06,157.93 C360.99,161.43 361.06,164.93 361.06,170.16 C355.38,170.62 348.82,171.84 342.44,171.16 C340.72,170.99 338.32,165.21 338.34,162.02 C338.42,151.76 339.72,141.52 340.12,131.25 C340.63,118.2 341.05,105.13 340.79,92.08 C340.72,88.43 338.1,84.83 336.65,81.21 C333.86,84.02 329.65,86.35 328.53,89.72 C324.97,100.44 321.53,111.39 319.93,122.53 C317.58,139.13 316.74,155.96 315.54,172.71 C315.29,176.26 313.87,177.71 310.61,178.07 C306.44,178.55 302.29,179.19 297.61,179.82 C297.61,173.94 297.35,168.94 297.61,163.98 C299.28,136.38 301.09,108.8 302.85,81.21 L302.85,80.09 C303.41,68.81 305.85,66.7 317.22,66.71 C320.47,66.71 321.71,67.85 321.54,70.9 C321.313333,75.1666667 321.08,79.4366667 320.84,83.71 L322.06,84.62 Z" id="Shape"></path>
                        <path d="M95.27,82.79 C93.85,95.93 92.58,109.1 91,122.22 C90,130.53 85.37,136.27 77.2,138.78 C72.11,140.35 67,141.89 61.84,143.18 C56.68,144.47 45.27,138.33 42.7,132.18 C40.45,126.77 38.3,120.73 38.47,115.03 C38.92,99.18 40.34,83.34 41.84,67.55 C43.55,49.55 58.93,38.79 72.96,38.65 C79.39,38.58 87.57,43.11 90.39,50.21 C94.56,60.81 94.74,71.63 95.27,82.79 L95.27,82.79 Z M67.94,134.64 C68.85,130.45 69.94,127.14 70.24,123.76 C71.72,108.95 73.43,94.14 74.17,79.29 C74.55,71.62 73.37,63.81 72.27,56.16 C71.9,53.58 69.58,51.28 68,48.6 C61.92,53.15 60.3,58.86 59.6,64.82 C58.52,74.06 57.72,83.35 56.96,92.62 C56.3577455,98.1691209 56.0772762,103.748457 56.12,109.33 C56.45,118.81 57.14,128.35 67.94,134.64 L67.94,134.64 Z" id="Shape"></path>
                        <path d="M294.78,90.6 C293.36,103.75 292.09,116.91 290.45,130.03 C289.45,138.34 284.81,144.03 276.63,146.57 C271.54,148.13 266.43,149.69 261.26,150.97 C256.09,152.25 244.62,146.04 242.14,139.91 C239.88,134.31 237.78,128.09 237.93,122.2 C238.33,106.73 239.85,91.27 241.2,75.83 C242.559986,59.4808517 256.028978,46.7881712 272.43,46.4 C278.87,46.33 287.02,50.86 289.84,57.98 C294.07,68.63 294.24,79.45 294.78,90.6 L294.78,90.6 Z M267,142 C267.88,139.43 269.11,137.26 269.33,135 C271.17,116.11 273.33,97.22 274.33,78.28 C274.73,70.77 273.71,62.68 267.02,56.72 C261.67,60.78 259.74,66.23 259.2,71.99 C257.73,87.55 256.01,103.14 255.72,118.74 C255.57,127.42 256.82,136.78 267,142 L267,142 Z" id="Shape"></path>
                    </g>
                </g>
            </g>
        </g>
    </g>
</svg>