<svg xmlns="http://www.w3.org/2000/svg" viewBox="0 0 686.16 180.13"><defs><style>.cls-1{fill:#67baaf;}</style></defs><title>Asset 1</title><g id="Layer_2" data-name="Layer 2"><g id="Main_Logo" data-name="Main Logo"><path class="cls-1" d="M425.34,64.3c6.79,0,13.08.05,19.37,0,4.77-.05,9.54-.41,14.29-.23.82,0,2,2,2.26,3.17a52.54,52.54,0,0,1,.76,8.34c.27,9.26-1.61,11.84-10.5,12.81-8.5.93-17.07,1.23-26.27,1.85-.08,1.69-.3,3.66-.26,5.63.44,22,.75,44.07,1.5,66.09.21,6.07-1,9.66-7.88,9.22a20.7,20.7,0,0,0-5,.52c-5.21,1-7-1.56-7.15-6.41-.39-17-1.3-34-1.26-51,.07-29.15.76-58.29,1.06-87.44.06-5.35-.42-10.71-.75-16.06-.3-4.91,2.86-6.66,6.84-7.14,9.22-1.11,18.46-2.17,27.73-2.77,9.6-.62,19.23-.74,28.85-.91a5.53,5.53,0,0,1,3.46,1.58c3.24,3.11,3,16.16-.43,19a6,6,0,0,1-4,1.54c-13.18-1.55-26,.59-38.71,3.69-1.53.37-3.68,2.61-3.72,4C425.21,41.27,425.34,52.66,425.34,64.3Z"/><path class="cls-1" d="M600.83,172.59l-.88-6.33c-10.11,3-18.2-1.28-25-7.58-7.43-6.84-11.06-16.24-13.4-25.85-3.51-14.44-2.69-29.3,1.05-43.28s22.54-28.81,38-24.93c4.86,1.22,7.17-.37,7.77-5.61,1.44-12.54,3.57-25,5-37.56.46-4.22,3.17-4,5.8-4.39,8.86-1.37,10.58.67,9.61,9.33-2.14,19.24-4.23,38.5-5.63,57.8-1.28,17.66-1.45,35.39-2.46,53.08-.54,9.47-2.16,18.89-2.59,28.36-.2,4.4-1.79,6.59-5.85,6.91C608.51,172.82,604.83,172.59,600.83,172.59Zm.84-23.55c.53-5.57,1.42-10.9,1.46-16.23.09-10.65-.4-21.29-.4-31.94,0-5.59.58-11.17.8-16.76.2-4.81-2.72-5.59-6.6-4.79-7.68,1.57-15.84,9.95-16.54,17.76-1.19,13.34-2.64,26.6,3,39.66C587,145.07,590.94,148.89,601.67,149Z"/><path class="cls-1" d="M663.47,71.71c-4.7,5.68-5,10-1.79,15.72,6.66,11.86,13.51,23.63,19.69,35.73a45.42,45.42,0,0,1,4.37,26.19c-.9,7.85-4,13.94-11.79,17.6a40.53,40.53,0,0,1-22.34,3.43c-8.74-1-14-8.23-15.32-19.64a22.37,22.37,0,0,0-1.3-6.46c-5-11.34-.66-18.44,11.56-18.5H650c3.46,11,6.55,21.24,10,31.33.32.93,2.84,1.12,4.79,1.81,3.65-13,.3-24.54-5.13-35.48a317.28,317.28,0,0,0-16.09-28.81c-4.65-7.34-2.9-19.69,5.05-24.2,4.82-2.73,9.65-5.83,14.88-7.38C675.1,59.6,687.9,70.42,686,81c-.91,5,1.1,10.73-6,12.7-4.9,1.36-6.69.22-7.75-4.81C670.85,82.59,669.77,76,663.47,71.71Z"/><path class="cls-1" d="M492.09,136.26c-.56,15.57.37,16.4,15.49,13.58,7.78-1.45,9.59.23,8.81,8.19-.92,9.4-1,9.43-10.2,10.35-1.49.15-3,.31-4.45.57-18.5,3.27-27.13-10.84-27-25.31.12-13.76,2.36-27.5,3.46-41.26.52-6.51.79-13.06.76-19.59,0-6,3.23-10.37,6.56-14.72,8.14-10.63,29.11-5.67,34.65,4.1,6.29,11.1,7.7,22.91,5.83,35.16-1,6.33-5.92,9.4-11.88,10.24-5.34.75-10.82.52-16.16,1.27-1.57.22-3.82,2.08-4.14,3.54C492.83,126.93,492.61,131.63,492.09,136.26Zm3.05-29.85c3.37,0,6.14.07,8.9,0,8.82-.25,9.54-.67,9.49-9.66-.06-9.57-4.2-19.23-16.32-19.95Z"/><path class="cls-1" d="M529.64,162c0-15.5-.5-31,.11-46.49,1-25.74,2.71-51.45,4.2-77.17.19-3.32.86-6.6,1.33-9.9.44-3.07,0-8.13,1.52-8.83,4.42-2,9.62-2.57,14.58-3,.86-.07,3,3.51,2.86,5.32-.47,8-1.8,15.95-2.31,23.95-.79,12.47-1.27,25-1.7,37.44-1,27.58-1.48,55.19-2.87,82.75-.39,7.81-8.82,3.25-13,5.94-2.52,1.61-5.11-.78-5-4.49a32.68,32.68,0,0,0-.82-5.5Z"/><path class="cls-1" d="M463.51,106.28c-.3,22.64-1.46,29.31-1.69,53.5-.08,8.62-6.74,10.12-15.72,9.83-3.69-.12-5.21-2.45-5.09-5.56.73-18.36,2-19.19,2.92-37.54.34-7.07,1.26-14.14,2.24-21.18a5,5,0,0,1,3-3.42,50.59,50.59,0,0,1,9.79-1.55C462.62,100.06,464.71,101.37,463.51,106.28Z"/><path class="cls-1" d="M451.9,57.23c-6.53.1-8.42-1.62-8.67-7.32-.36-8.19,4.75-10.66,14.4-11.47,4.62-.39,5.55,2.52,5.59,6.4C463.33,54.42,461,57.08,451.9,57.23Z"/><path class="cls-1" d="M211.52,180.13l-1-7c-11.6,3-21.14-2.08-27.56-10.39-5.38-7-8.77-16-11.07-24.66-3.65-13.74-2.44-28.15,1.12-41.59,3.77-14.25,22.68-28.92,37.85-25.18,5.16,1.27,7.54-.42,8.05-5.9.64-6.86,2.12-13.63,3.07-20.47.92-6.58,1.62-13.2,2.42-19.78a8.49,8.49,0,0,1,1.66-.76c13-2.49,14.16-1.22,12.76,11.82-2,19.06-3.89,38.15-5.36,57.27-.88,11.51-.6,23.1-1.37,34.62-1,15.62-2.5,31.21-4,46.79a5,5,0,0,1-3.1,3.47C220.75,179.28,216.35,179.56,211.52,180.13Zm.79-24.41c.5-5.86,1.32-11.38,1.37-16.91.09-10.46-.4-20.92-.39-31.38,0-5.59.56-11.17.79-16.76.18-4.46-2.54-5.32-6.21-4.72-7.73,1.27-16.23,10-16.95,18-1.2,13.35-2.54,26.6,3.08,39.66C197.47,151.7,201.77,155.74,212.31,155.73Z"/><path class="cls-1" d="M25.84,151.44c8.63,0,16.26-.24,23.87.07,7.3.29,14.57,1.14,22.67,1.82,0,5.53.37,11.81-.24,18-.17,1.69-3.2,4.27-5.05,4.39-5.51.35-11.09-.67-16.63-.51-11.92.35-23.86.72-35.74,1.79C3.83,178-2.35,172.25.84,161.66c2.82-9.36,2.09-18.65,2.64-28C5.43,100.32,7.74,67,9.63,33.7a125.37,125.37,0,0,0-.89-19.52c-.47-4.74,1.51-6.6,5.84-7.73C23.78,4,27.9,4.39,30.52,9.51c1.27,2.49,1.54,5.71,1.53,8.6,0,7.79-.26,15.59-.76,23.37-.52,8-1.79,16-2.17,24-1.23,26.07-2.22,52.15-3.27,78.23C25.75,146.26,25.84,148.85,25.84,151.44Z"/><path class="cls-1" d="M98.33,177.74c.62-11,1.2-22.1,1.89-33.22q1.94-31.32,4-62.63a44.17,44.17,0,0,1,.52-6.69c.56-2.52,1.06-6.53,2.59-7.08,4.27-1.52,9-1.74,13.64-2,.59,0,1.91,2.54,1.93,3.92.05,4.26-.36,8.52-.6,12.78.67,0,1.28.12,1.34,0C129,71.2,139.57,71.49,149.9,71.52c4.56,0,8.16,2.36,9.52,6.57,1.87,5.79,4.06,11.85,4.09,17.8.1,20.37-.69,40.73-1.11,61.1-.07,3.5,0,7,0,12.19-5.7.45-12.26,1.6-18.68,1-1.66-.14-4.09-5.64-4-8.64.18-10.82,1.54-21.62,1.95-32.44.49-13.05.7-26.13.46-39.18-.06-3.2-2.35-6.35-3.61-9.53-2.7,2.27-5.68,4.31-8,6.91-1.41,1.57-2,4-2.66,6.1C121.45,115,117.7,137,117.66,159.52c0,1.68-.09,3.37-.2,5C116.61,177.2,112.31,180.36,98.33,177.74Z"/><path class="cls-1" d="M322.06,83.62c5.15-12.61,16-12.05,26.44-12.1,4.55,0,8.18,2.3,9.55,6.52,1.88,5.79,4.08,11.84,4.11,17.79.11,20.36-.68,40.73-1.1,61.1-.07,3.5,0,7,0,12.23-5.68.46-12.24,1.68-18.62,1-1.72-.17-4.12-5.95-4.1-9.14.08-10.26,1.38-20.5,1.78-30.77.51-13.05.93-26.12.67-39.17-.07-3.65-2.69-7.25-4.14-10.87-2.79,2.81-7,5.14-8.12,8.51-3.56,10.72-7,21.67-8.6,32.81-2.35,16.6-3.19,33.43-4.39,50.18-.25,3.55-1.67,5-4.93,5.36-4.17.48-8.32,1.12-13,1.75,0-5.88-.26-10.88,0-15.84,1.67-27.6,3.48-55.18,5.24-82.77,0-.37,0-.75,0-1.12.56-11.28,3-13.39,14.37-13.38,3.25,0,4.49,1.14,4.32,4.19q-.34,6.4-.7,12.81Z"/><path class="cls-1" d="M95.27,81.79C93.85,94.93,92.58,108.1,91,121.22c-1,8.31-5.63,14.05-13.8,16.56-5.09,1.57-10.2,3.11-15.36,4.4s-16.57-4.85-19.14-11c-2.25-5.41-4.4-11.45-4.23-17.15.45-15.85,1.87-31.69,3.37-47.48,1.71-18,17.09-28.76,31.12-28.9,6.43-.07,14.61,4.46,17.43,11.56C94.56,59.81,94.74,70.63,95.27,81.79ZM67.94,133.64c.91-4.19,2-7.5,2.3-10.88,1.48-14.81,3.19-29.62,3.93-44.47.38-7.67-.8-15.48-1.9-23.13-.37-2.58-2.69-4.88-4.27-7.56-6.08,4.55-7.7,10.26-8.4,16.22-1.08,9.24-1.88,18.53-2.64,27.8a144.61,144.61,0,0,0-.84,16.71C56.45,117.81,57.14,127.35,67.94,133.64Z"/><path class="cls-1" d="M294.78,89.6c-1.42,13.15-2.69,26.31-4.33,39.43-1,8.31-5.64,14-13.82,16.54-5.09,1.56-10.2,3.12-15.37,4.4s-16.64-4.93-19.12-11.06c-2.26-5.6-4.36-11.82-4.21-17.71.4-15.47,1.92-30.93,3.27-46.37a32.1,32.1,0,0,1,31.23-29.43c6.44-.07,14.59,4.46,17.41,11.58C294.07,67.63,294.24,78.45,294.78,89.6ZM267,141c.88-2.57,2.11-4.74,2.33-7,1.84-18.89,4-37.78,5-56.72.4-7.51-.62-15.6-7.31-21.56-5.35,4.06-7.28,9.51-7.82,15.27-1.47,15.56-3.19,31.15-3.48,46.75C255.57,126.42,256.82,135.78,267,141Z"/></g></g></svg>