<?xml version="1.0" encoding="UTF-8" standalone="no"?>
<svg width="54px" height="39px" viewBox="0 0 54 39" version="1.1" xmlns="http://www.w3.org/2000/svg" xmlns:xlink="http://www.w3.org/1999/xlink">
    <!-- Generator: Sketch 3.8.3 (29802) - http://www.bohemiancoding.com/sketch -->
    <title>Artboard 21</title>
    <desc>Created with Sketch.</desc>
    <defs></defs>
    <g id="Page-1" stroke="none" stroke-width="1" fill="none" fill-rule="evenodd">
        <g id="Artboard-21" stroke="#FBB040" stroke-width="2">
            <g id="Group-6" transform="translate(3.000000, 4.000000)">
                <path d="M9.98753176,23 L0,23 L0,20.3293646 C0,16.2868109 3.36079607,13 7.5,13 C10.4506625,13 13.0028247,14.6653812 14.2273018,17.0873096 M12,5.5 C12,3.01471863 9.98528137,1 7.5,1 C5.01471863,1 3,3.01471863 3,5.5 C3,7.98528137 5.01471863,10 7.5,10 C9.98528137,10 12,7.98528137 12,5.5 L12,5.5 L12,5.5 L12,5.5 L12,5.5 L12,5.5 Z" id="Rectangle-876-Copy" stroke-linecap="round"></path>
                <path d="M43.9875318,23 L34,23 L34,20.3293646 C34,16.2868109 37.3607961,13 41.5,13 C44.4506625,13 47.0028247,14.6653812 48.2273018,17.0873096 M46,5.5 C46,3.01471863 43.9852814,1 41.5,1 C39.0147186,1 37,3.01471863 37,5.5 C37,7.98528137 39.0147186,10 41.5,10 C43.9852814,10 46,7.98528137 46,5.5 L46,5.5 L46,5.5 L46,5.5 L46,5.5 L46,5.5 Z" id="Rectangle-876-Copy-2" stroke-linecap="round" transform="translate(41.113651, 12.000000) scale(-1, 1) translate(-41.113651, -12.000000) "></path>
                <path d="M13,32 L13,27.9940469 C13,21.9302163 17.9291676,17 24,17 C30.0760676,17 35,21.9243418 35,27.999991 L35,32 L13,32 Z M31,7 C31,3.13400675 27.8659932,0 24,0 C20.1340068,0 17,3.13400675 17,7 C17,10.8659932 20.1340068,14 24,14 C27.8659932,14 31,10.8659932 31,7 L31,7 L31,7 Z" id="Rectangle-876"></path>
            </g>
        </g>
    </g>
</svg>