<?xml version="1.0" encoding="utf-8"?>
<!-- Generator: Adobe Illustrator 19.2.1, SVG Export Plug-In . SVG Version: 6.00 Build 0)  -->
<!DOCTYPE svg PUBLIC "-//W3C//DTD SVG 1.1//EN" "http://www.w3.org/Graphics/SVG/1.1/DTD/svg11.dtd">
<svg version="1.1" id="Layer_1" xmlns="http://www.w3.org/2000/svg" xmlns:xlink="http://www.w3.org/1999/xlink" x="0px" y="0px"
	 viewBox="0 0 271.9 50.8" style="enable-background:new 0 0 271.9 50.8;" xml:space="preserve">
<style type="text/css">
	.st0{display:none;}
	.st1{display:inline;fill:#343141;}
	.st2{fill:#FFFFFF;}
</style>
<g id="Clerkenwell" class="st0">
	<path class="st1" d="M9.5,16.4v-5.3H5.6c-3.3,0-5.6,2.3-5.6,5.6v17.4c0,3.3,2.3,5.6,5.6,5.6h3.9v-5.3H7c-0.9,0-1.3-0.5-1.3-1.3
		V17.8c0-0.9,0.5-1.3,1.3-1.3h2.5V16.4z M10.6,11.1v5.3h2.5c0.9,0,1.3,0.5,1.3,1.3v3.5H20v-4.6c0-3.3-2.3-5.6-5.6-5.6h-3.8V11.1z
		 M10.6,34.3v5.3h3.9c3.3,0,5.6-2.3,5.6-5.6v-4.6h-5.6V33c0,0.9-0.5,1.3-1.3,1.3H10.6z M25.1,39.5h5.6V11.2h-5.6V39.5z M42.6,34.2
		H32v5.3h10.7v-5.3H42.6z M52.6,11.2H47v28.3h5.6V11.2z M65.4,11.2H53.7v5.3h11.7V11.2z M63,22.4h-9.2v5.3H63V22.4z M65.4,34.2H53.7
		v5.3h11.7V34.2z M70.4,39.5H76V11.2h-5.6V39.5z M91.2,39.5l-4.7-10.7c2.4-0.7,3.8-2.7,3.8-5.3v-6.6c0-3.3-2.3-5.6-5.6-5.6h-7.6v5.3
		h6.2c0.9,0,1.3,0.5,1.3,1.3v4.5c0,0.9-0.5,1.3-1.3,1.3h-6.2V29h3.4l4.6,10.5H91.2z M101.5,11.2h-5.6v28.3h5.6V11.2z M102.6,23v7.9
		l15.2-19.6h-6.6L102.6,23z M106,28.3l5.9,11.2h6.4l-8.6-16.1L106,28.3z M127.6,11.2H122v28.3h5.6V11.2z M140.5,11.2h-11.7v5.3h11.7
		V11.2z M138,22.4h-9.2v5.3h9.2V22.4z M140.5,34.2h-11.7v5.3h11.7V34.2z M161.2,39.5h5.6l-15.2-28.3H146L161.2,39.5z M167.3,38.1
		V11.2H162v17L167.3,38.1z M150.8,22.5l-5.3-9.9v26.9h5.3V22.5z M182.4,39.5l-5.3-28.3h-6l7,28.3H182.4z M197.5,39.5l-6.9-28.3h-4.5
		l-4.5,18.1l2,10.1h0.2l4.6-18.6l4.6,18.6L197.5,39.5L197.5,39.5z M198.4,39.1l6.9-27.9h-5.8l-3.4,18.2L198.4,39.1z M214.7,11.2
		h-5.6v28.3h5.6V11.2z M227.6,11.2h-11.7v5.3h11.7V11.2z M225.2,22.4H216v5.3h9.2V22.4z M227.6,34.2h-11.7v5.3h11.7V34.2z
		 M232.6,39.5h5.6V11.2h-5.6V39.5z M250.1,34.2h-10.7v5.3h10.7V34.2z M254.4,39.5h5.6V11.2h-5.6V39.5z M271.9,34.2h-10.7v5.3h10.7
		V34.2z"/>
</g>
<g id="London_Fields" class="st0">
	<path class="st1" d="M157.9,17.5c1.8,0,3.5,0,5.2,0c1.3,0,2.5-0.1,3.8-0.1c0.2,0,0.5,0.5,0.6,0.8c0.1,0.7,0.2,1.5,0.2,2.2
		c0.1,2.5-0.4,3.2-2.8,3.4c-2.3,0.2-4.6,0.3-7,0.5c0,0.4-0.1,1-0.1,1.5c0.1,5.9,0.2,11.7,0.4,17.6c0.1,1.6-0.3,2.6-2.1,2.5
		c-0.4,0-0.9,0.1-1.3,0.1c-1.4,0.3-1.9-0.4-1.9-1.7c-0.1-4.5-0.3-9.1-0.3-13.6c0-7.8,0.2-15.5,0.3-23.3c0-1.4-0.1-2.9-0.2-4.3
		c-0.1-1.3,0.8-1.8,1.8-1.9c2.5-0.3,4.9-0.6,7.4-0.7c2.6-0.2,5.1-0.2,7.7-0.2c0.3,0,0.7,0.2,0.9,0.4c0.9,0.8,0.8,4.3-0.1,5.1
		c-0.3,0.2-0.7,0.4-1.1,0.4c-3.5-0.4-6.9,0.2-10.3,1c-0.4,0.1-1,0.7-1,1.1C157.8,11.4,157.9,14.4,157.9,17.5"/>
	<path class="st1" d="M204.6,46.4c-0.1-0.6-0.1-1.1-0.2-1.7c-2.7,0.8-4.9-0.3-6.7-2c-2-1.8-2.9-4.3-3.6-6.9
		c-0.9-3.8-0.7-7.8,0.3-11.5s6-7.7,10.1-6.6c1.3,0.3,1.9-0.1,2.1-1.5c0.4-3.3,1-6.7,1.3-10c0.1-1.1,0.8-1.1,1.5-1.2
		c2.4-0.4,2.8,0.2,2.6,2.5c-0.6,5.1-1.1,10.3-1.5,15.4c-0.3,4.7-0.4,9.4-0.7,14.1c-0.1,2.5-0.6,5-0.7,7.6c-0.1,1.2-0.5,1.8-1.6,1.8
		C206.7,46.4,205.7,46.4,204.6,46.4 M204.8,40.1c0.1-1.5,0.4-2.9,0.4-4.3c0-2.8-0.1-5.7-0.1-8.5c0-1.5,0.2-3,0.2-4.5
		c0.1-1.3-0.7-1.5-1.8-1.3c-2,0.4-4.2,2.7-4.4,4.7c-0.3,3.6-0.7,7.1,0.8,10.6C200.9,39,202,40.1,204.8,40.1"/>
	<path class="st1" d="M221.3,19.5c-1.3,1.5-1.3,2.7-0.5,4.2c1.8,3.2,3.6,6.3,5.2,9.5c1.1,2.2,1.4,4.5,1.2,7
		c-0.2,2.1-1.1,3.7-3.1,4.7c-1.9,0.9-3.9,1.1-6,0.9c-2.3-0.3-3.7-2.2-4.1-5.2c-0.1-0.6-0.1-1.2-0.3-1.7c-1.3-3-0.2-4.9,3.1-4.9
		c0.4,0,0.9,0,0.9,0c0.9,2.9,1.7,5.7,2.7,8.3c0.1,0.2,0.8,0.3,1.3,0.5c1-3.5,0.1-6.5-1.4-9.5c-1.3-2.6-2.7-5.2-4.3-7.7
		c-1.2-2-0.8-5.2,1.3-6.4c1.3-0.7,2.6-1.6,4-2c3.1-0.9,6.5,2,6,4.8c-0.2,1.3,0.3,2.9-1.6,3.4c-1.3,0.4-1.8,0.1-2.1-1.3
		C223.3,22.4,223,20.6,221.3,19.5"/>
	<path class="st1" d="M175.6,36.7c-0.2,4.1,0.1,4.4,4.1,3.6c2.1-0.4,2.6,0.1,2.3,2.2c-0.2,2.5-0.3,2.5-2.7,2.8
		c-0.4,0-0.8,0.1-1.2,0.2c-4.9,0.9-7.2-2.9-7.2-6.7c0-3.7,0.6-7.3,0.9-11c0.1-1.7,0.2-3.5,0.2-5.2c0-1.6,0.9-2.8,1.7-3.9
		c2.2-2.8,7.8-1.5,9.2,1.1c1.7,3,2.1,6.1,1.6,9.4c-0.3,1.7-1.6,2.5-3.2,2.7c-1.4,0.2-2.9,0.1-4.3,0.3c-0.4,0.1-1,0.6-1.1,0.9
		C175.8,34.2,175.8,35.5,175.6,36.7 M176.4,28.7c0.9,0,1.6,0,2.4,0c2.3-0.1,2.5-0.2,2.5-2.6c0-2.5-1.1-5.1-4.3-5.3
		C176.8,23.4,176.6,26.1,176.4,28.7"/>
	<path class="st1" d="M185.6,43.5c0-4.1-0.1-8.3,0-12.4c0.3-6.9,0.7-13.7,1.1-20.6c0.1-0.9,0.2-1.8,0.4-2.6c0.1-0.8,0-2.2,0.4-2.4
		c1.2-0.5,2.6-0.7,3.9-0.8c0.2,0,0.8,0.9,0.8,1.4c-0.1,2.1-0.5,4.2-0.6,6.4c-0.2,3.3-0.3,6.6-0.5,10c-0.3,7.3-0.4,14.7-0.8,22
		c-0.1,2.1-2.4,0.9-3.5,1.6c-0.7,0.4-1.4-0.2-1.3-1.2c0-0.5-0.1-1-0.2-1.5C185.4,43.6,185.5,43.5,185.6,43.5"/>
	<path class="st1" d="M168,28.7c-0.1,6-0.4,7.8-0.5,14.3c0,2.3-1.8,2.7-4.2,2.6c-1,0-1.4-0.7-1.4-1.5c0.2-4.9,0.5-5.1,0.8-10
		c0.1-1.9,0.3-3.8,0.6-5.6c0-0.3,0.4-0.8,0.8-0.9c0.8-0.2,1.7-0.3,2.6-0.4C167.8,27,168.3,27.4,168,28.7"/>
	<path class="st1" d="M100.9,48.4c-0.1-0.8-0.2-1.2-0.3-1.9c-3.1,0.8-5.6-0.6-7.3-2.8c-1.4-1.9-2.3-4.3-2.9-6.6
		c-1-3.7-0.6-7.5,0.3-11.1c1-3.8,6-7.7,10.1-6.7c1.4,0.3,2-0.1,2.1-1.6c0.2-1.8,0.6-3.6,0.8-5.5c0.2-1.8,0.4-3.5,0.6-5.3
		c0.2-0.1,0.3-0.2,0.4-0.2c3.5-0.7,3.8-0.3,3.4,3.1c-0.5,5.1-1,10.2-1.4,15.3c-0.2,3.1-0.2,6.2-0.4,9.2c-0.3,4.2-0.7,8.3-1.1,12.5
		c0,0.3-0.5,0.9-0.8,0.9C103.3,48.1,102.2,48.2,100.9,48.4 M101.1,41.9c0.1-1.6,0.4-3,0.4-4.5c0-2.8-0.1-5.6-0.1-8.4
		c0-1.5,0.1-3,0.2-4.5c0-1.2-0.7-1.4-1.7-1.3c-2.1,0.3-4.3,2.7-4.5,4.8c-0.3,3.6-0.7,7.1,0.8,10.6C97.1,40.8,98.3,41.9,101.1,41.9"
		/>
	<path class="st1" d="M51.4,40.7c2.3,0,4.3-0.1,6.4,0c1.9,0.1,3.9,0.3,6,0.5c0,1.5,0.1,3.1-0.1,4.8c0,0.4-0.9,1.1-1.3,1.2
		c-1.5,0.1-3-0.2-4.4-0.1c-3.2,0.1-6.4,0.2-9.5,0.5c-2.9,0.3-4.6-1.3-3.7-4.1c0.8-2.5,0.6-5,0.7-7.5c0.5-8.9,1.1-17.8,1.6-26.6
		c0.1-1.7-0.1-3.5-0.2-5.2c-0.1-1.3,0.4-1.8,1.6-2.1c2.5-0.6,3.6-0.6,4.2,0.8c0.3,0.7,0.4,1.5,0.4,2.3c0,2.1-0.1,4.2-0.2,6.2
		c-0.1,2.1-0.5,4.3-0.6,6.4c-0.3,6.9-0.6,13.9-0.9,20.8C51.4,39.4,51.4,40,51.4,40.7"/>
	<path class="st1" d="M70.7,47.7c0.2-2.9,0.3-5.9,0.5-8.9c0.3-5.6,0.7-11.1,1.1-16.7c0-0.6,0-1.2,0.1-1.8c0.2-0.7,0.3-1.7,0.7-1.9
		c1.1-0.4,2.4-0.5,3.6-0.5c0.2,0,0.5,0.7,0.5,1c0,1.1-0.1,2.3-0.2,3.4c0.2,0,0.3,0,0.4,0c1.4-3.1,4.2-3,7-3c1.2,0,2.2,0.6,2.5,1.8
		c0.5,1.5,1.1,3.2,1.1,4.7c0,5.4-0.2,10.9-0.3,16.3c0,0.9,0,1.9,0,3.2c-1.5,0.1-3.3,0.4-5,0.3c-0.4,0-1.1-1.5-1.1-2.3
		c0-2.9,0.4-5.8,0.5-8.6c0.1-3.5,0.2-7,0.1-10.4c0-0.9-0.6-1.7-1-2.5c-0.7,0.6-1.5,1.1-2.1,1.8c-0.4,0.4-0.5,1.1-0.7,1.6
		c-1.7,5.7-2.7,11.6-2.7,17.6c0,0.4,0,0.9-0.1,1.3C75.6,47.6,74.4,48.4,70.7,47.7"/>
	<path class="st1" d="M130.3,22.7c1.4-3.4,4.3-3.2,7-3.2c1.2,0,2.2,0.6,2.5,1.7c0.5,1.5,1.1,3.2,1.1,4.7c0,5.4-0.2,10.9-0.3,16.3
		c0,0.9,0,1.9,0,3.3c-1.5,0.1-3.3,0.4-5,0.3c-0.5,0-1.1-1.6-1.1-2.4c0-2.7,0.4-5.5,0.5-8.2c0.1-3.5,0.2-7,0.2-10.4
		c0-1-0.7-1.9-1.1-2.9c-0.7,0.7-1.9,1.4-2.2,2.3c-0.9,2.9-1.9,5.8-2.3,8.7c-0.6,4.4-0.9,8.9-1.2,13.4c-0.1,0.9-0.4,1.3-1.3,1.4
		c-1.1,0.1-2.2,0.3-3.5,0.5c0-1.6-0.1-2.9,0-4.2c0.4-7.4,0.9-14.7,1.4-22.1c0-0.1,0-0.2,0-0.3c0.2-3,0.8-3.6,3.8-3.6
		c0.9,0,1.2,0.3,1.2,1.1c-0.1,1.1-0.1,2.3-0.2,3.4C130.1,22.5,130.2,22.6,130.3,22.7"/>
	<path class="st1" d="M69.9,22.2c-0.4,3.5-0.7,7-1.2,10.5c-0.3,2.2-1.5,3.7-3.7,4.4c-1.4,0.4-2.7,0.8-4.1,1.2
		c-1.4,0.3-4.4-1.3-5.1-2.9c-0.6-1.4-1.2-3.1-1.1-4.6c0.1-4.2,0.5-8.4,0.9-12.7c0.5-4.8,4.6-7.7,8.3-7.7c1.7,0,3.9,1.2,4.6,3.1
		C69.7,16.3,69.8,19.2,69.9,22.2 M62.6,36c0.2-1.1,0.5-2,0.6-2.9c0.4-3.9,0.9-7.9,1-11.8c0.1-2-0.2-4.1-0.5-6.2
		c-0.1-0.7-0.7-1.3-1.1-2c-1.6,1.2-2.1,2.7-2.2,4.3c-0.3,2.5-0.5,4.9-0.7,7.4c-0.1,1.5-0.3,3-0.2,4.5C59.6,31.8,59.7,34.3,62.6,36"
		/>
	<path class="st1" d="M123.1,24.3c-0.4,3.5-0.7,7-1.2,10.5c-0.3,2.2-1.5,3.7-3.7,4.4c-1.4,0.4-2.7,0.8-4.1,1.2
		c-1.3,0.3-4.4-1.3-5.1-2.9c-0.6-1.5-1.2-3.2-1.1-4.7c0.1-4.1,0.5-8.2,0.9-12.4c0.4-4.9,4.5-7.8,8.3-7.8c1.7,0,3.9,1.2,4.6,3.1
		C122.9,18.4,122.9,21.3,123.1,24.3 M115.7,37.9c0.2-0.7,0.6-1.3,0.6-1.9c0.5-5,1.1-10.1,1.3-15.1c0.1-2-0.2-4.2-1.9-5.7
		c-1.4,1.1-1.9,2.5-2.1,4.1c-0.4,4.1-0.9,8.3-0.9,12.5C112.6,34.1,112.9,36.6,115.7,37.9"/>
</g>
<g id="Camden" class="st0">
	<path class="st1" d="M128.2,22.3c-2.3,3-3.2,6.1-4,9.3c-1,4-1.6,8.1-2.5,12.1c-0.3,1.4-0.9,3.1-1.9,4.1c-2.7,2.6-4.9,0.9-5.8-1.8
		c-0.3-0.8-0.3-1.8-0.3-2.7c-0.3-7,0.9-13.8,3.2-20.4c0.7-1.9,1.5-2.5,3.5-2s2.7,1.6,2.4,3.5c-0.3,1.7-0.8,3.4-1.1,5.1
		c-0.1,0.7-0.2,1.4,0.1,2.2c0.3-0.8,0.5-1.7,0.9-2.5c1.3-2.7,2.6-5.5,4-8.1c0.7-1.3,2.1-1.7,3.5-1.3c1.5,0.4,2.4,1.2,2.5,2.8
		c0.1,2.6,0.1,5.2,0.2,7.7c0,1.1,0,2.2,0.3,3.4c0.2-0.5,0.4-0.9,0.6-1.4c1.6-3.9,3.1-7.9,4.8-11.8c1.2-2.8,2.6-3.4,5-2.9
		c3,0.7,4.2,2,3.9,5c-0.3,5-2.4,12.4-1.2,19.6c0.1,1.3,0.8,2.6,1.2,3.6c-0.8,1.2-1.5,2.6-2.5,3.4c-0.5,0.4-2,0-2.7-0.6
		c-2.1-1.8-3.1-4.2-3.4-7c-0.3-3.8,0.1-4.7,1.3-10.9c0.5-2.7,1.4-5.4,1.9-8.1c0.2-0.8-0.3-1.7-0.5-2.6c-0.6,0.5-1.6,1-1.8,1.7
		c-1.5,3.9-2.9,7.9-4.2,11.8c-1.1,3.3-1.8,6.8-3.2,9.9c-0.6,1.3-2.6,2.1-4.1,2.8c-0.2,0.1-1.7-1.2-1.8-1.9
		c-0.3-3.7-0.5-7.5-0.2-11.2C126.6,29.7,127.5,26.2,128.2,22.3"/>
	<path class="st1" d="M181.4,25.8c-1.6,3.7-3,7.2-4.6,10.7c-1.3,3-2.7,5.9-4.1,8.8c-0.8,1.8-1.9,3.3-3.7,4.5
		c-1.9,1.3-3.3,1.2-4.8-0.6c-2.4-2.8-3.1-6.2-3.4-9.8c-0.1-1.1,0-2.3,0-3.4c-0.2,0-0.3-0.1-0.5-0.1c-0.5,1-0.8,2.1-1.4,3.1
		c-0.8,1.4-1.7,2.8-2.9,3.8c-1.3,1.1-3,2.1-5,1.2c-2-0.9-2.8-2.7-3-4.6c-0.3-3.7,0.4-7.2,2-10.6c0.6-1.2,1.2-2.4,1.9-3.6
		c2.2-3.6,4.7-6.9,9.6-5.9c1.9-4.7,2.2-6.9,4.3-11.3c1.2-2.6,3.2-4.9,4.9-7.2c1-1.3,2.4-1.1,3.9-0.7c1.4,0.4,1.8,1.3,2,2.5
		c0.5,3.8-1.3,7.1-3.1,10.2c-1.7,2.9-2.7,3.2-4.2,6.2c-1,2-1.4,4.3-1.5,6.6c-0.4,4.3-0.5,8.7-0.5,13c0,2.1,0.7,4.3,1.1,6.4
		c0.2,0.1,0.4,0.1,0.6,0.2c0.5-0.6,1.1-1.2,1.5-1.9c2.8-5.3,5.6-10.7,8.5-16.1C179.3,26.7,179.7,25.5,181.4,25.8 M154.8,39.3
		c0.3-0.1,0.4-0.1,0.4-0.1c4.3-4.7,6.2-10.2,6.2-16.3c0-0.4-0.4-1-0.7-1.1s-0.9,0.3-1.1,0.6c-2.6,4.4-4.2,9.2-5,14.2
		C154.4,37.4,154.7,38.3,154.8,39.3 M169.8,14.1c1.4-3.9,4.8-7.3,3.8-12.3C170.4,5.6,170.5,10,169.8,14.1"/>
	<path class="st1" d="M70.4,39.7c2.5,3.1,5.4,4.4,9.2,2c2.2-1.4,4.1-3.1,6.2-4.7c0.4-0.3,1.1-0.4,1.6-0.6c0.2,0.5,0.5,0.9,0.5,1.4
		c0,0.3-0.2,0.7-0.5,1c-1.6,1.9-3,4-5,5.7c-6,5.1-16.4,2.9-19.2-3.8c-3.1-7.7-2-15.3,1-22.8c2-4.8,4.6-9.4,8.8-13.3
		C74.4,3.3,75.9,2,77.7,1c4-2.4,10.3,0,11.1,3.9c0.8,3.7-0.6,6.9-2.9,10c-0.4,0.6-1.4,1.1-2.2,1.3c-0.6,0.2-1.8-0.1-2.1-0.5
		c-0.4-0.5-0.4-1.5,0-1.9c2.5-2.1,2.9-4.8,3.5-7.5c0.1-0.5,0.2-1.1-0.1-1.5c-0.5-0.6-1.1-1.2-1.9-1.5c-0.4-0.1-1.5,0.3-1.8,0.8
		c-1.2,1.6-2.4,3.3-3.4,4.9c-3.2,5.3-6.9,10.4-8.3,16.2C69.1,27.6,66.4,34.7,70.4,39.7"/>
	<path class="st1" d="M100.6,39.9c-0.3,0.6-1.1,1.7-1.6,2.9c-1.1,2.4-2.9,3.6-5.5,4c-2.4,0.4-4.2-0.3-4.4-2.7c-0.2-2.9,0-6,0.8-8.7
		c1.2-4,3.2-7.7,6.5-10.5c2.1-1.8,4.3-2.1,6.8-0.9c0.6,0.3,1.3,0.5,2,0.6c3.4,0.5,4.6,2.3,3.7,5.8c-0.7,2.8-1.6,5.6-2.2,8.4
		c-0.4,2-0.5,4.2-0.8,6.2c0.2,0.1,0.5,0.2,0.7,0.3c1.3-2.1,2.6-4.1,3.8-6.2c1.4-2.4,2.8-4.8,4.3-7.1c0.3-0.5,1.1-0.8,1.7-1.2
		c0.1,0.2,0.2,0.3,0.3,0.5c-2.3,4.7-4.5,9.5-7,14.1c-0.8,1.5-2.4,2.7-3.9,3.6c-1.8,1-4,0.1-4.5-1.9C100.9,44.6,100.8,42,100.6,39.9
		 M94.6,41.7c0.2,0.1,0.4,0.1,0.6,0.2c2.2-4.3,4.3-8.6,6.5-12.9c0.5-1.1,1.4-2.5,0-3.2c-1.5-0.8-2.4,0.8-2.8,1.9
		c-1.5,3.8-2.7,7.8-4,11.7C94.6,40,94.7,40.9,94.6,41.7"/>
	<path class="st1" d="M181.5,43.8c1.7-1.3,3.2-2.3,4.4-3.6c2.7-3.2,5.3-6.5,8-9.8c0.4-0.5,1.2-0.8,1.8-1.2c0.1,0.2,0.2,0.3,0.4,0.5
		c-0.1,0.3-0.1,0.6-0.3,0.9c-2.9,4.1-5.7,8.3-8.6,12.3c-1.5,2-3.3,3.6-5.9,4.1c-2.7,0.5-4.9-0.6-5.4-3.3c-1.2-7.1-0.2-13.8,4.6-19.5
		c1.1-1.3,2.3-2.4,3.6-3.6c1.5-1.4,3.2-1,4.8-0.1c1.5,0.9,1.2,2.5,0.8,3.7c-1,3.4-3,6.1-6.3,7.6c-0.5,0.2-1,0.6-1.2,1.1
		C180.9,36.2,180.1,39.6,181.5,43.8 M183.3,29.3c0.2,0.1,0.3,0.2,0.5,0.3c2.1-1.6,4-3.3,4.5-6.1c0.1-0.4-0.3-1.1-0.7-1.3
		c-0.2-0.1-1.1,0.2-1.2,0.5C185.3,24.9,184.3,27.1,183.3,29.3"/>
	<path class="st1" d="M205.1,23c0.3,0.2,0.3,0.1,0.5,0.3c-0.3,1.1-0.6,2.2-0.9,3.3c-1,4.2-2.3,8.3-3,12.6c-0.4,2.3-0.6,4.7-0.4,7
		c0.1,0.6,0.6,1,1.2,0.9c1.3-0.2,3.6-0.4,4.8-2.2l0,0c1-6.5,2.1-13.1,3.1-19.6c0.4-2.4-0.7-4-3-4.5c-2.5-0.6-4.2,0.4-5.4,2.4
		c-1.2,1.9-2.1,3.9-3.2,5.9c-0.1,0-0.1,0-0.2-0.1c0.1-0.9,0.3-1.8,0.4-2.7c0.2-1.4-0.1-2.4-1.6-2.9c-1.6-0.4-2.5,0.2-2.9,1.7
		c-0.9,3.6-2.1,7.2-2.6,10.9c-0.4,2.8-0.1,5.8,0.2,8.6c0.1,0.9,1.5,2.3,2.2,2.2c1.2-0.2,2.4-1.2,3.5-2c0.4-0.3,0.5-1.2,0.6-1.8
		c0.3-1.7,0.5-3.5,0.8-5.2c0.8-4.3,1.6-8.7,3.9-12.5C203.5,24.5,204.4,23.8,205.1,23"/>
</g>
<g id="Bermondsey" class="st0">
	<path class="st1" d="M217.9,43.8V31.1l6-26.1h-5.3l-3.1,19l-3.1-19h-5.3l5.9,26.1v12.7H217.9z M193.6,43.8h12.2v-4.2h-7.3V26.2h6.3
		V22h-6.3V9.2h7.2V5h-12.1L193.6,43.8L193.6,43.8z M185.7,16.2h4.9V8l-3.1-3H180l-3,3v15.1l3.1,3.1h4.8l1,1v11.4l-1,1h-2l-1-1v-6.1
		H177v8.1l3.1,3.1h7.8l3.1-3.1V25.1l-3.1-3.1h-4.8l-1-1V10.1l1-1h1.8l1,1v6.1H185.7z M168.2,39.6h-3.7V9.2h3.7l1,1v28.4L168.2,39.6z
		 M171,5h-11.5v38.8H171l3.1-3.1V8L171,5z M140.8,43.8h4.4V17.3l5.6,26.5h5.3V5h-4.4v26.9L146.1,5h-5.3V43.8z M131.7,9.2l1,1v28.4
		l-1,1h-2.8l-1-1V10.2l1-1H131.7z M137.6,8l-3-3H126l-3,3v32.7l3.1,3.1h8.5l3.1-3.1V8H137.6z M111.3,43.8l3.8-30.4v30.4h4.6V5h-7.2
		l-3.6,31.3L105.3,5h-7.1v38.8h4.4V13.4l3.8,30.4H111.3z M88.8,23.3h-3.6V9.1h3.6l1,1v12.1L88.8,23.3z M80.3,43.8h4.9V27.2h2.1
		l3,16.5H95l-3-16.8l2.7-2.7V8l-3.1-3H80.3V43.8z M65.5,43.8h12.2v-4.2h-7.3V26.2h6.3V22h-6.3V9.2h7.2V5H65.5V43.8z M56.5,26.1l1,1
		v11.4l-1,1h-3.6V26.1H56.5z M56.5,22h-3.6V9h3.6l1,1v11L56.5,22z M59.3,5H48v38.8h11.3l3.1-3.1V27l-3.1-3l3.1-3.1V8L59.3,5z"/>
</g>
<path class="st2" d="M54.5,21.3c0,0.3-0.1,0.6-0.4,0.8c-0.1,0.2-0.3,0.4-0.4,0.7c-0.1,0.2-0.2,0.4-0.4,0.5c-0.2,0.2-0.4,0.3-0.5,0.5
	c-0.2,0.2-0.4,0.3-0.6,0.4c-0.2,0-0.4,0.2-0.6,0.4c-0.2,0.1-0.3,0.2-0.5,0.3C51,25,50.8,25,50.6,25.1c-0.2,0-0.3,0-0.5,0
	c-0.1,0-0.3,0-0.5,0c-0.6,0.2-1.2,0.2-1.8,0.1c-0.3-0.1-0.6-0.1-1,0c-0.3,0.1-0.5,0-0.6-0.1c-0.1-0.2-0.2-0.3-0.2-0.5
	c0-0.2,0-0.4,0-0.7c0-0.2,0-0.5,0-0.7c0-0.1,0-0.2,0-0.2c0-0.1,0-0.2,0-0.2c0-0.2,0-0.4,0-0.6c0-0.1,0-0.2,0-0.3c0-0.1,0-0.2,0-0.3
	c0-0.1,0.1-0.2,0-0.4c0-0.1,0-0.2,0-0.4v-0.7c0-0.1,0-0.2,0-0.2c0-0.1,0-0.1,0-0.2c-0.1-0.2-0.1-0.5-0.1-0.8c0-0.3,0-0.5,0-0.8
	c0-0.2,0-0.5,0.1-1c0-0.2,0-0.4-0.1-0.5v-0.1c0-0.2,0-0.3,0-0.5c0-0.1,0-0.3,0-0.5c0-0.1,0-0.3,0-0.4c0-0.1,0-0.3,0-0.4
	c0-0.4,0.2-0.6,0.7-0.6h0.5c0.1,0,0.2,0,0.4,0.1c0.3,0,0.6,0.1,0.9,0c0.3,0,0.6-0.1,0.9-0.1c0.2,0,0.4,0,0.6,0
	c0.2,0,0.4,0.1,0.6,0.2l1.1,0.4l0.2,0.2l1.1,1c0.1,0.1,0.2,0.2,0.2,0.1c0.1,0.3,0.2,0.5,0.4,0.7c0.2,0.2,0.4,0.4,0.5,0.7
	c0.1,0.3,0.2,0.5,0.3,0.8c0.1,0.2,0.2,0.5,0.2,0.8c0,0.1,0,0.1,0,0.2c0,0,0,0.1,0,0.2c0,0.3,0,0.5-0.1,0.6
	C54.7,20.5,54.6,20.8,54.5,21.3 M62.4,44.7v-0.2c-0.1-0.2-0.2-0.4-0.2-0.6c-0.1-0.2-0.2-0.4-0.3-0.6c-0.2-0.2-0.3-0.4-0.4-0.6
	c-0.2-0.3-0.3-0.6-0.5-0.7c-0.2-0.3-0.3-0.5-0.4-0.7c-0.2-0.4-0.4-0.7-0.6-1c-0.2-0.2-0.2-0.3-0.2-0.4c0-0.2-0.2-0.5-0.4-0.8
	c-0.1-0.2-0.3-0.4-0.4-0.6c-0.1-0.2-0.3-0.4-0.3-0.6c-0.1-0.2-0.2-0.4-0.4-0.5c-0.2-0.2-0.3-0.3-0.4-0.5c-0.1-0.1-0.2-0.3-0.2-0.5
	l-0.5-0.8c-0.2-0.2-0.2-0.4-0.2-0.5c0.1-0.2,0-0.4-0.2-0.6c-0.2-0.1-0.4-0.3-0.5-0.5c-0.1-0.2-0.2-0.4-0.3-0.7
	c0-0.2-0.2-0.4-0.4-0.7c-0.2-0.3-0.4-0.6-0.5-0.7c-0.2-0.3-0.3-0.5-0.2-0.8l0.5-0.5l0.6-0.4c0.2-0.1,0.3-0.2,0.5-0.3
	c0.2-0.1,0.3-0.2,0.4-0.4c0-0.1,0-0.1,0.1-0.1c0.4-0.2,0.7-0.4,1-0.8c0.2-0.2,0.3-0.3,0.4-0.3c0.4-0.3,0.7-0.6,0.9-1.1l0.1-0.1
	c0.2-0.1,0.3-0.3,0.4-0.4c0.1-0.2,0.2-0.3,0.3-0.5c0-0.2,0.1-0.3,0.3-0.5c0.2-0.2,0.3-0.4,0.4-0.7c0.1-0.2,0.2-0.5,0.3-0.7
	c0.1-0.4,0.2-0.7,0.3-1c0.1-0.3,0.2-0.7,0.3-1l0.2-0.5c0-0.1,0-0.2,0-0.2c0-0.1,0-0.1,0-0.2c0-0.2,0-0.5,0-0.7c0-0.2,0-0.5,0-0.7
	c0-0.1,0-0.3,0.1-0.6c0.1-0.2,0.1-0.4,0-0.7c-0.2-0.5-0.3-1-0.3-1.3c0-0.4-0.1-0.8-0.2-1.2c-0.1-0.4-0.2-0.8-0.4-1.2l-0.2-0.4
	L60.3,14c-0.1-0.2-0.2-0.4-0.2-0.5c-0.1-0.2-0.2-0.3-0.4-0.4c-0.1-0.1-0.2-0.2-0.3-0.4c-0.1-0.2-0.1-0.4-0.2-0.4
	c-0.2-0.1-0.3-0.2-0.4-0.3c-0.1-0.1-0.2-0.3-0.2-0.4c-0.1-0.1-0.1-0.2-0.2-0.2c-0.3-0.2-0.6-0.4-0.7-0.7l-0.2-0.2
	c-0.3-0.2-0.6-0.4-0.9-0.6c-0.3-0.2-0.6-0.4-0.9-0.6c-0.1,0-0.2-0.1-0.2-0.1c-0.1,0-0.1-0.1-0.2-0.1c-0.3-0.3-0.6-0.4-0.9-0.5
	l-0.5-0.1c-0.2,0-0.3-0.1-0.5-0.2c-0.3-0.2-0.7-0.3-1.2-0.4c-0.1,0-0.2,0-0.4-0.1l-0.4-0.1c-0.3-0.1-0.6-0.1-0.8-0.2
	c-0.3,0-0.5,0-0.8,0c-0.3,0-0.6,0-0.8,0c-0.3,0-0.5,0-0.8,0c-0.2,0-0.5-0.1-0.7-0.1h-0.7c-0.3,0-0.6,0-0.9,0c-0.3,0-0.6,0-0.9-0.1
	h-0.1c-0.3,0-0.6,0-1,0c-0.3,0-0.6,0-1,0h-0.2c-0.3-0.1-0.6-0.1-0.9-0.1c-0.3,0-0.6,0-0.9,0c-0.2,0-0.3,0-0.4,0.1h-0.6
	c-0.4-0.1-0.7,0.1-0.7,0.5V8c0.1,0.2,0.1,0.5,0,0.8c-0.1,0.2-0.1,0.3,0,0.4c0.1,0.3,0.1,0.6,0,0.9c-0.1,0.3-0.1,0.6,0,0.9
	c0,0.2,0,0.3-0.1,0.4V12c0.1,0.4,0.1,0.7,0.1,1.1c0,0.3,0,0.7,0,1.1l-0.1,0.1v0.1c0,0-0.1,0.1-0.1,0.2c0.1,0.2,0.1,0.4,0.1,0.6
	c0,0.2,0,0.4-0.1,0.6v0.3c0,0.2,0.1,0.4,0,0.5c0,0.2,0,0.3,0,0.5c0,0.2,0,0.4,0,0.5c0.1,0.2,0.1,0.3,0,0.5c-0.1,0.2-0.1,0.5,0,0.7
	c0,0.2,0,0.4,0,0.5c-0.1,0.1-0.1,0.3,0,0.5c0,0.2,0,0.4,0,0.5c0,0.1,0,0.3,0,0.5v0.5c0,0.1,0,0.1,0,0.2c0,0,0,0.1,0,0.2
	c-0.1,0.5-0.1,1,0,1.4c0,0.2,0,0.4,0,0.6c0,0.2,0,0.4,0,0.6c0,0.1,0,0.2,0,0.2c0,0.1,0,0.2,0,0.2c0,0.1,0,0.1,0,0.2c0,0,0,0.1,0,0.2
	c0,0.4,0,0.7,0,1.1V27c0,0.1,0.1,0.2,0.1,0.4c0,0.2-0.1,0.4,0,0.7c0,0.2,0,0.5,0,0.7c0,0.2,0,0.5,0,0.7c0,0.2,0,0.5,0,0.7
	c0,0.2,0,0.3-0.1,0.4c0,0.1-0.1,0.2,0,0.2c0,0.1,0,0.2,0,0.2c0,0.1,0.1,0.2,0,0.4c0,0.1,0,0.3,0,0.4c0,0.1,0,0.2,0,0.3
	c0,0.1,0,0.2,0,0.3c0,0.4,0,0.7-0.1,0.9c0,0.1,0,0.1,0,0.2c0,0,0,0.1,0,0.2c0,0.4,0,0.7,0,1c0,0.2,0,0.4,0,0.5c0,0.2,0,0.3,0,0.5
	c0,0,0,0.1,0,0.1c0,0,0,0.1,0,0.1c0,0.2,0,0.3,0,0.5v0.4c0,0.2,0.1,0.4,0.1,0.7c0,0.3,0,0.5,0,0.8c0,0.2,0,0.4,0,0.4
	c0,0.1-0.1,0.2,0,0.2c0,0.1,0,0.2,0,0.2c0.1,0.3,0.1,0.7,0.1,1c0,0.4-0.1,0.7-0.1,1.1v0.2c0,0.1-0.1,0.2-0.1,0.2
	c0.1,0.3,0.1,0.7,0.1,1.2v0.2c0,0.4,0,0.7,0,1c-0.1,0.3,0,0.5,0.3,0.7c0.2,0.1,0.4,0.2,0.6,0.1c0.2,0,0.3,0,0.4,0
	c0.1,0,0.3,0.1,0.4,0.1c0.1,0,0.1,0,0.2,0c0,0,0.1,0,0.2,0c0.4-0.1,0.9-0.1,1.5-0.1c0.1,0,0.2,0.1,0.4,0c0.1,0,0.2,0,0.4,0
	c0.3,0.1,0.6,0.1,1-0.1c0.2,0,0.3,0,0.5,0c0.2,0.1,0.4,0.1,0.7,0c0.3-0.1,0.5-0.3,0.5-0.6c0-0.2,0-0.3-0.1-0.4c0-0.1,0-0.2,0-0.2
	c0-0.1,0-0.1,0-0.2c0.1-0.4,0.1-0.8-0.1-1.1c0,0,0-0.1,0-0.1c0,0,0-0.1,0-0.1c0-0.2,0.1-0.4,0.1-0.6c0-0.2,0-0.4-0.1-0.6
	c-0.1-0.1-0.1-0.2,0-0.2c0-0.2,0.1-0.3,0-0.4c0-0.1,0-0.3,0-0.4c-0.1-0.1-0.1-0.3,0-0.4c0-0.4,0-0.8,0-1.2c0-0.1,0-0.2,0-0.4
	c0-0.1,0.1-0.2,0.1-0.4c-0.1-0.4-0.1-0.6-0.1-0.8c0-0.1,0-0.2,0-0.3c0-0.1,0-0.2,0-0.3c0-0.2-0.1-0.4-0.1-0.6c0-0.2,0-0.4,0.1-0.6
	c0,0,0-0.1-0.1-0.1c0-0.3,0-0.7,0-1c0-0.2,0-0.5,0-0.8c0,0,0-0.1,0-0.1c0,0,0-0.1,0-0.2c0-0.2,0.1-0.3,0.4-0.4
	c0.2-0.1,0.4,0,0.5,0.2c0.1,0,0.1,0.1,0.1,0.2c0,0.1,0,0.1,0.1,0.2c0.2,0.2,0.3,0.3,0.4,0.5c0.1,0.2,0.2,0.3,0.3,0.5l0.2,0.5
	l0.1,0.2c0,0.1,0.1,0.2,0.2,0.2c0.3,0.2,0.5,0.5,0.7,0.8c0.1,0.2,0.2,0.4,0.2,0.5c0.4,0.6,0.7,1.3,1.1,2.1c0,0.1,0,0.2,0.1,0.2
	c0.2,0.2,0.4,0.3,0.5,0.5c0.1,0.2,0.2,0.4,0.3,0.6c0.2,0.5,0.5,0.9,0.8,1.3c0.2,0.2,0.4,0.4,0.5,0.6c0.1,0.2,0.2,0.5,0.3,0.7
	c0,0.2,0.2,0.4,0.4,0.5c0.4,0.3,0.6,0.7,0.7,1.1l0.2,0.6c0.2,0.4,0.5,0.5,1,0.5h0.7c0.4,0,0.7,0,1.1,0.1c0.4,0,0.8,0,1.2-0.1
	c0.1-0.1,0.2-0.1,0.3,0c0.3,0,0.6,0,0.8,0c0.3,0,0.6,0,0.8,0.1c0.1,0,0.1,0.1,0.2,0c0,0,0.1,0,0.2,0c0.4-0.1,0.7-0.1,0.9-0.1
	C61.8,45,62.1,45,62.4,44.7 M84.7,11.4v-0.8c0-0.2,0-0.3,0.1-0.5V9.7c-0.1-0.3-0.1-0.7-0.1-1.1V7.9c0-0.4-0.2-0.6-0.6-0.7
	c-0.1,0-0.3-0.1-0.4,0c-0.1,0-0.3,0-0.5,0c-0.1,0-0.2,0-0.3,0c-0.1,0-0.2,0-0.3,0c-0.3,0-0.6-0.1-0.9,0c-0.3,0-0.5,0-0.8,0
	c-0.1,0-0.2,0-0.2,0c-0.1,0-0.2,0-0.2,0c-0.1,0-0.2,0-0.3,0c-0.1,0-0.2,0-0.3,0c-0.3,0-0.6-0.1-0.9,0c-0.3,0-0.6,0-0.8,0H78
	c-0.3,0.1-0.6,0.1-0.8,0c-0.3-0.1-0.6-0.1-0.9,0h-1.6c-0.2,0-0.4,0-0.5-0.1c-0.2,0-0.3,0-0.5,0.1c-0.2-0.1-0.5-0.1-0.7-0.1
	c-0.2,0-0.5,0.1-0.7,0.1c-0.2,0-0.4,0.1-0.7,0c-0.2,0-0.5,0-0.7,0c-0.2,0-0.4,0-0.6,0c-0.2,0-0.4,0-0.6,0c-0.2,0-0.5,0-0.8,0
	c-0.3,0-0.5,0-0.8,0c-0.2,0-0.3,0-0.5,0c-0.2,0-0.3,0-0.5,0c-0.2,0-0.5,0-0.8,0c-0.3-0.1-0.5-0.1-0.8,0h-0.2c0,0-0.1,0-0.1,0
	c0,0-0.1,0-0.2,0c-0.1,0-0.2,0-0.2,0.1c-0.2,0-0.2,0-0.2,0.1c-0.2,0.2-0.3,0.5-0.3,0.9l0.1,0.5c0,0.2,0,0.4,0,0.5c0,0.2,0,0.3,0,0.5
	c0,0.1,0,0.3-0.1,0.4c0,0.1-0.1,0.3-0.1,0.4c0,0.2,0,0.3,0,0.4c0,0.1,0.1,0.3,0.1,0.4v1.1c-0.1,0.3-0.1,0.6-0.1,0.8
	c0,0.2,0,0.5,0.1,0.8v0.6c0,0.2,0,0.3-0.1,0.5c0,0.5,0,1,0,1.6c0,0.2,0.1,0.4,0.1,0.6v0.6c-0.1,0.3-0.1,0.6-0.1,0.7
	c0,0.2,0,0.5,0.1,0.8c0,0.2,0,0.4,0,0.6c0,0.2,0,0.4,0,0.6c0,0.2,0,0.3-0.1,0.4c0,0.1-0.1,0.2-0.1,0.4c0,0.2,0,0.3,0.1,0.5
	c0,0.1,0.1,0.3,0.1,0.5c0,0.2-0.1,0.3,0,0.5c0,0.2,0,0.3,0,0.5c-0.1,0.3-0.1,0.6-0.1,0.8c0,0.2,0,0.5,0.1,0.8v1.1
	c-0.1,0.3-0.1,0.6-0.1,0.8c0,0.2,0,0.5,0.1,0.8v1.1c0,0.2-0.1,0.3-0.1,0.4c0,0.1,0,0.2,0,0.4c0,0.2,0,0.5,0.1,0.8v1.1
	c-0.1,0.3-0.1,0.6-0.1,0.8c0,0.2,0,0.5,0.1,0.8v1.1c-0.1,0.3-0.1,0.6-0.1,0.8s0,0.5,0.1,0.8c0,0.2,0,0.4,0,0.5c0,0.2,0,0.3,0,0.5
	c0,0.2,0,0.3-0.1,0.5c0,0.1-0.1,0.3-0.1,0.5c0,0.2,0,0.5,0.1,0.9c0,0.2,0,0.3,0,0.5c0,0.1,0,0.3,0,0.5c0,0.2,0,0.3-0.1,0.5
	c0,0.1-0.1,0.3-0.1,0.4c0,0.2,0,0.4,0,0.5c0.1,0.1,0.1,0.3,0.1,0.5c0,0.1-0.1,0.3,0,0.4c0,0.1,0,0.3,0,0.4c0,0.4,0,0.7-0.1,0.9
	c-0.1,0.1-0.1,0.2,0,0.2c0.1,0.2,0.1,0.3,0.1,0.5v0.5c0,0.3,0.1,0.5,0.4,0.5c0.4,0.1,0.7,0.1,1,0.1c0.2-0.1,0.3-0.1,0.5-0.1
	c0.3,0.1,0.6,0.1,0.9,0.1c0.3,0,0.6,0,0.9,0.1c0.1,0,0.2,0,0.2-0.1c0.3-0.1,0.6-0.1,1,0h0.2c0.2,0,0.3,0,0.5,0c0.1,0,0.3,0,0.5,0
	c0.1,0,0.2,0.1,0.3,0.1c0.2-0.1,0.5-0.1,0.7-0.1s0.5,0,0.8,0.1H73c0.2,0.1,0.5,0.1,0.8,0c0.2-0.1,0.4-0.1,0.7-0.1
	c0.1,0,0.2,0.1,0.4,0.1c0.2,0,0.3,0,0.5,0c0.1,0,0.3,0,0.5,0c0,0,0.1,0.1,0.3,0.1c0.6-0.1,1-0.1,1.4-0.1c0.1,0,0.3,0.1,0.4,0
	c0.1,0,0.3,0,0.5,0c0.4,0.1,0.7,0.1,1-0.1c0.1,0,0.2-0.1,0.2,0c0.1,0,0.1,0,0.2,0l1.7,0.1c0.1,0,0.2,0,0.3-0.1
	c0.3-0.1,0.6-0.1,0.8-0.1c0.1,0,0.2,0.1,0.3,0.1c0.2,0,0.4,0,0.5,0c0.1,0,0.3,0,0.5,0c0.1,0,0.3,0,0.4,0c0.2,0,0.4-0.1,0.4-0.4
	c0.1-0.4,0.1-0.7,0.1-0.9c0-0.3,0-0.7,0-1c0.1-0.3,0-0.7-0.1-1v-0.2c0-0.4,0.1-0.9,0.1-1.3c0-0.4,0-0.8-0.1-1.3v-0.3v-0.1l0.1-0.1
	c0-0.2-0.1-0.3-0.3-0.4c-0.1,0-0.2-0.1-0.4-0.1c-0.3,0.1-0.5,0.1-0.7-0.1c-0.2-0.1-0.4-0.1-0.5,0c-0.2,0.1-0.5,0.1-0.8,0.1h-0.7
	c-0.3,0.1-0.5,0.1-0.7-0.1c-0.1,0-0.2,0-0.2,0c-0.1,0-0.1,0-0.2,0c-0.2,0-0.4,0.1-0.5,0.1c-0.1,0-0.3,0-0.5,0
	c-0.2-0.1-0.4-0.1-0.6,0c-0.3,0.1-0.5,0.1-0.7-0.1c-0.2,0-0.3,0-0.5,0c-0.2,0.1-0.4,0.1-0.7,0.1h-0.7c-0.3,0.1-0.5,0.1-0.7-0.1
	c-0.2-0.1-0.4-0.1-0.6,0.1c-0.2,0-0.5,0-0.7,0c-0.3-0.1-0.5-0.1-0.8,0c-0.3,0.1-0.5,0.1-0.7-0.1c-0.2,0-0.3,0-0.5,0
	c0,0-0.1,0.1-0.2,0.1c-0.3,0.1-0.5,0-0.5-0.3c-0.1-0.4-0.1-0.7-0.1-1c0-0.3,0-0.6,0-0.9c0-0.2,0-0.5,0-0.7c0-0.2,0-0.5,0-0.8
	c0-0.1,0-0.2,0.1-0.2c0-0.3,0-0.7,0-1c0-0.3-0.1-0.5-0.1-0.8v-0.7c0-0.2,0.1-0.4,0.1-0.6c0-0.2,0-0.4,0-0.6c0-0.3,0.1-0.4,0.4-0.4
	c0.1,0,0.2,0,0.2,0.1c0.1,0,0.2,0,0.5-0.1c0.3-0.2,0.6-0.2,1-0.1c0.2,0.1,0.4,0.1,0.7,0.1c0.2,0,0.5,0,0.7,0.1c0.1,0,0.2,0,0.2-0.1
	c0.2-0.1,0.4-0.1,0.6-0.1c0.2,0,0.4,0,0.6,0.1c0.1,0,0.3,0.1,0.5,0.1c0.3,0,0.5,0,0.6,0.1c0.2,0,0.4,0,0.6-0.1
	c0.2-0.2,0.5-0.2,0.8-0.1c0.3,0.1,0.6,0.1,0.8,0.1h0.4c0.3,0.1,0.6,0,1.1-0.2c0.2-0.1,0.3-0.3,0.4-0.5c0.1-0.2,0.1-0.4,0.1-0.7
	c0-0.2,0-0.5,0-0.7c0-0.3-0.1-0.6-0.1-0.8c0-0.3,0-0.5,0.1-0.8v-0.4c0-0.2,0-0.3,0-0.5c0-0.2,0-0.3,0-0.5c0-0.2,0-0.4,0-0.6
	c0-0.2,0-0.4,0.1-0.6c0-0.4-0.1-0.6-0.4-0.7c-0.1,0-0.3-0.1-0.6-0.1c-0.2,0.1-0.5,0.1-0.7,0c-0.2-0.1-0.4-0.1-0.5-0.1
	c-0.2,0.1-0.5,0.1-0.7,0.1h-0.7C77.3,23,77,23,76.8,22.8c-0.1,0-0.2,0-0.3,0c-0.1,0-0.2,0-0.3,0c-0.2,0.1-0.4,0.1-0.7,0.1H75
	c-0.3,0.1-0.6,0.1-0.9,0c-0.2-0.1-0.5-0.1-0.8-0.1c-0.2,0-0.5,0.1-0.7,0.1c-0.2,0-0.5,0-0.7,0c-0.4,0-0.6-0.2-0.6-0.5
	c-0.1-0.3-0.1-0.6-0.1-0.9c0-0.3,0-0.6,0-0.9v-0.1l0.1-0.1c0.1-0.3,0.1-0.6,0-0.8c0-0.3,0-0.7-0.1-1c0-0.4,0-0.7,0.1-1v-0.4
	l-0.1-1.3c0-0.2,0-0.5,0-0.7c0.1-0.2,0.1-0.5,0.2-0.8h0.5l1.3-0.1c0.3,0,0.5,0,0.7,0.1c0.6,0.1,1.2,0.1,1.8,0c0.2,0,0.4-0.1,0.8-0.1
	c0.5,0.1,1.1,0.1,1.9,0.1c0.1,0,0.2-0.1,0.4-0.1h0.4c0.6,0.1,1.3,0.1,2,0.1c0.3,0,0.6,0,0.8,0c0.4,0.1,0.8,0.1,1.2,0.1
	c0.4,0,0.8-0.1,1.2-0.2c0.2,0,0.4-0.1,0.4-0.4c0-0.4,0-0.7,0.1-0.9c0-0.2,0-0.4-0.1-0.5C84.7,12.1,84.7,11.7,84.7,11.4 M122.1,45
	c0.4,0,0.5-0.2,0.3-0.6l-0.1-0.1c-0.2-0.2-0.4-0.5-0.5-0.9l-0.4-0.7l-0.2-0.4c-0.1-0.3-0.2-0.6-0.2-0.8c-0.1-0.3-0.2-0.5-0.4-0.8
	c0,0-0.1-0.1-0.1-0.1l-0.7-1.5l-0.2-0.6c0-0.2-0.1-0.3-0.1-0.4s-0.1-0.2-0.3-0.3c-0.2-0.2-0.4-0.5-0.4-0.7c0-0.1-0.1-0.2-0.1-0.3
	c0-0.1-0.1-0.2-0.2-0.3l-0.2-0.6c-0.1-0.2-0.2-0.4-0.2-0.5c-0.1-0.1-0.2-0.3-0.2-0.5c-0.2-0.2-0.2-0.3-0.2-0.5
	c0-0.2-0.2-0.5-0.4-0.8l-0.5-0.8c-0.1-0.4-0.3-0.7-0.5-1l-0.1-0.5c-0.1-0.2-0.2-0.4-0.2-0.6c-0.1-0.2-0.2-0.4-0.3-0.6
	c-0.2-0.2-0.3-0.4-0.4-0.6s-0.2-0.4-0.3-0.6c-0.2-0.3-0.3-0.6-0.4-0.9c-0.1-0.4-0.3-0.8-0.5-1.1c-0.2-0.1-0.3-0.2-0.3-0.4
	c-0.1-0.4-0.3-0.7-0.5-1.1c-0.1-0.1-0.1-0.2-0.1-0.3c-0.1-0.2-0.2-0.4-0.2-0.5c-0.1-0.2-0.2-0.3-0.2-0.5c0-0.1-0.1-0.1-0.1-0.2
	c0,0-0.1-0.1-0.1-0.2c-0.1-0.4-0.3-0.7-0.6-1.1c-0.1-0.1-0.2-0.2-0.2-0.3c-0.1-0.1-0.1-0.2-0.2-0.3c-0.1-0.2-0.2-0.4-0.2-0.5
	c-0.1-0.2-0.2-0.3-0.2-0.5l-0.1-0.4c-0.1-0.3-0.2-0.5-0.2-0.8c-0.1-0.2-0.2-0.5-0.4-0.7c-0.5-0.7-0.8-1.4-1-2.2
	c-0.1-0.4-0.2-0.6-0.4-0.8c-0.2-0.1-0.3-0.3-0.4-0.5c-0.1-0.3-0.3-0.6-0.5-0.8c0-0.1-0.1-0.1-0.1-0.2c0,0-0.1-0.1-0.1-0.2
	c-0.1-0.2-0.2-0.5-0.3-0.7c-0.1-0.2-0.2-0.4-0.3-0.6c-0.1-0.1-0.1-0.2-0.1-0.3c-0.1-0.3-0.3-0.6-0.4-0.8c-0.1-0.1-0.2-0.2-0.3-0.4
	l-0.5-1c0,0,0,0,0,0l-0.1-0.2c-0.1-0.2-0.2-0.4-0.3-0.8c-0.1-0.4-0.3-0.8-0.5-1.3c-0.1-0.1-0.1-0.1-0.2-0.2c0-0.2-0.1-0.4-0.3-0.5
	c-0.1-0.1-0.2-0.1-0.3-0.1c-0.1,0-0.2,0-0.3,0.1c-0.2,0.1-0.3,0.3-0.3,0.5c-0.1,0.1-0.1,0.1-0.2,0.2c-0.2,0.4-0.4,0.9-0.5,1.3
	c-0.1,0.4-0.2,0.6-0.3,0.8l-0.1,0.2c0,0,0,0,0,0l-0.5,1c-0.1,0.1-0.2,0.3-0.3,0.4c-0.2,0.2-0.3,0.5-0.4,0.8c0,0.1,0,0.2-0.1,0.3
	c-0.1,0.2-0.2,0.4-0.3,0.6s-0.2,0.4-0.3,0.7c0,0.1,0,0.1-0.1,0.2c0,0-0.1,0.1-0.1,0.2c-0.2,0.3-0.4,0.6-0.5,0.8
	c-0.1,0.2-0.2,0.4-0.4,0.5c-0.2,0.2-0.3,0.5-0.4,0.8c-0.1,0.7-0.4,1.4-1,2.2c-0.2,0.2-0.3,0.4-0.4,0.7c-0.1,0.2-0.2,0.5-0.2,0.8
	L97.3,21c-0.1,0.2-0.2,0.4-0.2,0.5c-0.1,0.2-0.2,0.3-0.2,0.5c0,0.1-0.1,0.2-0.2,0.3c-0.1,0.1-0.1,0.2-0.2,0.3
	c-0.3,0.4-0.5,0.7-0.6,1.1c0,0.1,0,0.1-0.1,0.2c0,0-0.1,0.1-0.1,0.2c-0.1,0.2-0.2,0.4-0.2,0.5c-0.1,0.2-0.2,0.3-0.2,0.5
	c0,0.1,0,0.2-0.1,0.3c-0.2,0.4-0.4,0.7-0.5,1.1c0,0.2-0.1,0.3-0.3,0.4c-0.3,0.3-0.5,0.7-0.5,1.1c0,0.3-0.2,0.6-0.4,0.9
	c-0.1,0.2-0.2,0.4-0.3,0.6c-0.1,0.2-0.2,0.4-0.4,0.6c-0.2,0.2-0.3,0.4-0.3,0.6c-0.1,0.2-0.1,0.4-0.2,0.6L92,31.8
	c-0.2,0.2-0.4,0.6-0.5,1l-0.5,0.8c-0.2,0.3-0.4,0.6-0.4,0.8c0,0.2-0.1,0.3-0.2,0.5c-0.1,0.2-0.2,0.3-0.2,0.5
	c-0.1,0.1-0.2,0.3-0.2,0.5l-0.2,0.6c-0.1,0.1-0.1,0.2-0.2,0.3c0,0.1-0.1,0.2-0.1,0.3c0,0.2-0.2,0.4-0.4,0.7
	c-0.2,0.1-0.3,0.2-0.3,0.3c0,0.1-0.1,0.3-0.1,0.4l-0.2,0.6l-0.7,1.5c0,0,0,0.1-0.1,0.1c-0.2,0.2-0.3,0.5-0.4,0.8
	c-0.1,0.3-0.2,0.5-0.2,0.8l-0.2,0.4l-0.4,0.7c-0.1,0.4-0.3,0.7-0.5,0.9l-0.1,0.1c-0.2,0.4-0.1,0.6,0.3,0.6h0.2c0.2,0,0.3,0,0.5,0
	c0,0,0,0,0.1,0h0.2c0.1,0,0.2,0,0.3,0.1h0.2c0.1,0,0.3,0,0.5-0.1c0.2,0.1,0.4,0.1,0.6,0c0.1,0,0.1,0,0.2,0c0.1,0,0.2,0,0.3,0h0.3
	h0.3c0.1,0,0.2,0,0.2,0c0.1,0,0.1,0,0.2,0c0.1,0,0.3,0,0.4,0c0.1,0,0.3,0,0.4,0.1c0.2,0,0.4,0,0.6-0.1h0.9c0,0,0,0,0,0c0,0,0,0,0,0
	H93c0.3,0,0.5-0.1,0.7-0.2c0,0,0,0,0,0c0.1-0.3,0.1-0.4,0.2-0.5c0.2-0.3,0.4-0.6,0.5-0.9c0.1-0.3,0.2-0.6,0.4-0.9
	c0.2-0.3,0.4-0.7,0.5-1c0.1-0.3,0.3-0.7,0.5-1c0.1-0.2,0.2-0.4,0.2-0.5c0.1-0.2,0.2-0.3,0.2-0.5c0.1-0.2,0.1-0.3,0.2-0.3
	c0.1-0.1,0.2-0.3,0.2-0.5c0-0.1,0.1-0.3,0.2-0.5l0.7-1.3c0.1-0.4,0.3-0.8,0.5-1.1c0.1-0.2,0.2-0.3,0.2-0.5c0-0.3,0.1-0.5,0.3-0.7
	c0.1-0.1,0.2-0.2,0.2-0.3c0.1-0.1,0.1-0.3,0.2-0.4c0.1-0.3,0.2-0.6,0.4-0.8l0.2-0.4l0.2-0.6l0.2-0.3c0-0.3,0.2-0.5,0.4-0.8l0.2-0.5
	c0-0.1,0.1-0.2,0.1-0.2c0-0.1,0-0.1,0.1-0.2c0.2-0.3,0.4-0.6,0.5-0.8c0.1-0.3,0.2-0.6,0.4-0.9l0.4-0.7c0.1-0.1,0.1-0.2,0.2-0.3
	c0.1-0.2,0.2-0.5,0.3-0.7l0.3-0.6c0,0,0-0.1,0.1-0.1c0.1-0.5,0.3-0.9,0.5-1.1c0.1-0.1,0.1-0.2,0.1-0.5c0,0,0-0.1,0-0.1
	c0,0,0.1-0.1,0.1-0.1c0.1-0.1,0.2-0.2,0.2-0.3c0.1-0.1,0.2-0.2,0.2-0.2c0.1,0,0.2,0.1,0.3,0.2c0.1,0.1,0.2,0.2,0.2,0.3
	c0,0,0.1,0.1,0.1,0.1c0,0,0,0.1,0,0.1c0,0.2,0,0.4,0.1,0.5c0.3,0.2,0.5,0.6,0.5,1.1c0,0,0.1,0.1,0.1,0.1l0.3,0.6
	c0.1,0.3,0.2,0.5,0.3,0.7c0.1,0.1,0.1,0.2,0.2,0.3l0.4,0.7c0.2,0.3,0.3,0.6,0.4,0.9c0.1,0.3,0.3,0.6,0.5,0.8
	c0.1,0.1,0.1,0.2,0.1,0.2c0,0.1,0,0.1,0.1,0.2l0.2,0.5c0.2,0.2,0.3,0.5,0.4,0.8l0.2,0.3l0.2,0.6l0.2,0.4c0.2,0.2,0.3,0.5,0.4,0.8
	c0.1,0.1,0.2,0.3,0.2,0.4c0.1,0.1,0.1,0.3,0.2,0.3c0.2,0.2,0.3,0.4,0.3,0.7c0,0.2,0.1,0.4,0.2,0.5c0.2,0.3,0.4,0.7,0.5,1.1l0.7,1.3
	c0.2,0.2,0.2,0.4,0.2,0.5c0.1,0.3,0.2,0.5,0.2,0.5c0,0,0.1,0.1,0.2,0.3c0.1,0.2,0.2,0.4,0.2,0.5c0.1,0.2,0.2,0.3,0.2,0.5
	c0.2,0.3,0.3,0.7,0.5,1c0.1,0.3,0.3,0.7,0.5,1c0.2,0.3,0.3,0.6,0.4,0.9c0.1,0.3,0.3,0.6,0.5,0.9c0,0,0.1,0.2,0.2,0.5c0,0,0,0,0,0
	c0.2,0.1,0.4,0.2,0.7,0.2h0.7c0,0,0,0,0,0c0,0,0,0,0,0h0.9c0.2,0.1,0.4,0.1,0.6,0.1c0.1,0,0.3,0,0.4-0.1c0.1,0,0.3,0,0.4,0
	c0.1,0,0.2,0,0.2,0c0.1,0,0.1,0,0.2,0h0.3h0.3c0.1,0,0.2,0,0.3,0c0.1,0,0.1,0,0.2,0c0.2,0.1,0.4,0.1,0.6,0c0.2,0,0.3,0,0.5,0.1h0.2
	c0.1,0,0.2,0,0.3-0.1h0.2c0,0,0,0,0.1,0c0.2,0,0.3,0,0.5,0H122.1z M146.3,27.2c0,0.2,0,0.5-0.1,0.8c-0.1,0.2-0.1,0.3-0.1,0.5
	c0,0.1,0,0.3-0.1,0.5c0,0.1-0.1,0.2,0,0.2c0,0.1,0,0.1,0,0.2c-0.1,0.2-0.2,0.5-0.3,0.7c-0.1,0.2-0.2,0.5-0.3,0.7
	c-0.1,0.1-0.1,0.2-0.2,0.3c0,0.1-0.1,0.3-0.1,0.4c-0.1,0.1-0.2,0.2-0.2,0.3c-0.1,0.1-0.2,0.2-0.2,0.3l-0.1,0.4
	c-0.1,0.2-0.2,0.4-0.4,0.5c-0.3,0.2-0.5,0.5-0.5,0.8c0,0.1-0.2,0.3-0.4,0.4c-0.3,0.1-0.4,0.3-0.5,0.5c-0.1,0.2-0.3,0.3-0.5,0.4
	c-0.3,0.1-0.5,0.3-0.7,0.5c-0.1,0.2-0.3,0.3-0.6,0.4c-0.3,0.1-0.6,0.2-0.7,0.4c-0.1,0.2-0.2,0.3-0.4,0.3c-0.3,0-0.5,0.1-0.7,0.2
	c-0.2,0.1-0.4,0.2-0.7,0.3l-0.7,0.3l-1.2,0.3c-0.3,0.1-0.6,0.1-0.7,0c-0.2,0-0.3,0-0.5,0.1c-0.2,0.1-0.5,0.1-0.8,0.1
	c-0.1-0.1-0.3-0.1-0.5,0c-0.2,0-0.3,0-0.5,0c-0.2,0-0.3,0-0.5-0.1c-0.2,0-0.3,0-0.5,0c-0.1,0-0.1,0-0.2,0c0,0-0.1,0-0.2,0
	c-0.2-0.1-0.5-0.1-0.7-0.1c-0.2,0-0.5,0.1-0.7,0.1c-0.3,0-0.5-0.2-0.7-0.5v-0.7c0-0.1,0-0.3,0-0.4c0-0.1,0-0.3,0-0.4v-0.6
	c0-0.1,0-0.2,0-0.3c0-0.1,0-0.2,0-0.3v-0.8c0-0.3,0-0.6,0.1-0.9c0-0.2,0-0.3-0.1-0.4c-0.1-0.7-0.1-1.4,0-2.2c0-0.1,0.1-0.2,0-0.3
	c0-0.1,0-0.2,0-0.3c0-0.1,0-0.2,0-0.3c0-0.1,0-0.2,0-0.3v-0.8c0-0.3,0-0.6,0.1-0.9c0-0.2,0-0.3-0.1-0.4c-0.1-0.7-0.1-1.4,0-2.2
	c0-0.2,0-0.3,0-0.5c-0.1-0.7-0.1-1.4,0-2.2v-0.6c-0.1-0.7-0.1-1.4,0-2.1c0-0.2,0-0.4,0-0.7c-0.1-0.6-0.1-1.3,0-2v-0.8
	c0-0.2-0.1-0.5-0.1-0.7v-0.7c0-0.4,0.3-0.5,0.7-0.5c0.3,0,0.6-0.1,0.8-0.1c0.3,0,0.5,0,0.8,0.1c0.2,0,0.5,0.1,0.7,0
	c0.2,0,0.5,0,0.7-0.1c0.3,0,0.6,0,0.8,0c0.3,0,0.5,0.1,0.8,0.1c0.1,0,0.2,0,0.3,0c0.1,0,0.2,0,0.3,0l0.4,0.1
	c0.4,0.1,0.7,0.1,0.9,0.1c0.2,0,0.5,0,0.7,0.1c0.2,0.1,0.4,0.2,0.6,0.3c0.1,0,0.1,0.1,0.2,0.1c0,0,0.1,0.1,0.2,0.1
	c0.2,0,0.4,0.1,0.5,0.2c0.2,0.1,0.3,0.2,0.5,0.3l0.3,0.2c0.2,0.1,0.4,0.2,0.5,0.3l0.5,0.4c0.3,0.3,0.6,0.6,1,0.7
	c0.2,0,0.3,0.2,0.5,0.4c0,0.1,0.1,0.2,0.1,0.2c0,0.1,0.1,0.1,0.2,0.2c0.2,0.2,0.4,0.3,0.5,0.5c0.1,0.2,0.3,0.4,0.5,0.6
	c0.1,0.1,0.2,0.2,0.2,0.3c0.1,0.1,0.2,0.2,0.2,0.3l0.5,1c0.1,0.2,0.1,0.3,0.2,0.5c0,0.1,0.1,0.3,0.2,0.5c0.1,0.1,0.1,0.2,0.1,0.3
	c0,0.2,0,0.4,0.1,0.5c0.1,0.2,0.1,0.3,0.2,0.5c0.1,0.2,0.1,0.4,0.2,0.6l0.1,0.6c0,0.1,0,0.2,0,0.4C146.2,25.7,146.2,26.5,146.3,27.2
	 M153.3,27.8c0.2-0.6,0.2-1.1,0.1-1.6c-0.1-0.2-0.1-0.4-0.1-0.6c0-0.2,0.1-0.4,0.1-0.6v-0.7c0-0.2-0.1-0.3-0.1-0.5
	c0-0.1,0-0.3-0.1-0.5c0,0,0-0.1,0-0.2c0-0.1,0-0.1,0-0.2c-0.1-0.4-0.2-0.9-0.3-1.3c-0.1-0.4-0.2-0.8-0.4-1.3l-0.2-0.7
	c0-0.2-0.1-0.4-0.2-0.6c-0.2-0.2-0.3-0.6-0.4-1c0-0.1-0.1-0.2-0.1-0.2c0-0.1-0.1-0.1-0.2-0.2c-0.2-0.2-0.3-0.4-0.5-0.7
	c-0.1-0.2-0.3-0.5-0.3-0.7l-0.1-0.1c-0.2-0.2-0.3-0.5-0.5-0.7c-0.2-0.2-0.3-0.5-0.4-0.7c0-0.1-0.1-0.2-0.2-0.2
	c-0.2-0.2-0.4-0.5-0.6-0.8c-0.1-0.1-0.2-0.2-0.2-0.3l-0.2-0.2c-0.1,0-0.2-0.1-0.2-0.1l-0.2-0.2c-0.1-0.2-0.2-0.3-0.2-0.3
	c-0.4-0.3-0.8-0.6-1.1-1c-0.2-0.2-0.4-0.3-0.6-0.4c-0.2-0.1-0.4-0.3-0.6-0.4l-0.4-0.3l-0.3-0.2c-0.2-0.1-0.4-0.2-0.6-0.4
	c-0.2-0.1-0.4-0.2-0.6-0.3l-0.8-0.4l-0.5-0.2c-0.2-0.2-0.5-0.4-0.8-0.5c-0.3-0.1-0.6-0.2-0.9-0.4c-0.1,0-0.2-0.1-0.4-0.1
	c-0.2,0-0.4-0.1-0.6-0.2c-0.4-0.2-0.7-0.3-0.9-0.3L137,7.7l-0.9-0.1c-0.6-0.1-1.3-0.1-2.1-0.1c-0.3,0-0.6,0-0.8,0
	c-0.3,0-0.5,0-0.8-0.1c0,0-0.1-0.1-0.1-0.1l-1.1,0.1h-0.7c-0.2,0-0.4,0-0.6-0.1c-0.1,0-0.2-0.1-0.4-0.1c-0.3,0-0.6,0-1,0
	c-0.3,0-0.6,0-1,0.1l-0.1,0.1l-0.1-0.1c-0.2-0.1-0.3-0.1-0.5-0.1c-0.2,0-0.3,0-0.5,0h-0.5c-0.2,0-0.3,0-0.5,0.1c-0.2,0-0.3,0-0.4,0
	c-0.1,0-0.3,0-0.4-0.1c-0.2,0-0.5,0-0.8,0.1c-0.2,0.1-0.3,0.3-0.3,0.5v0.4c0,0.1,0,0.2,0.1,0.4c0,0.2,0,0.3,0.1,0.4
	c0.1,0.3,0.1,0.6-0.1,0.8c-0.1,0.2-0.1,0.4-0.1,0.5c0.1,0.3,0.1,0.5,0.1,0.8c0,0.2,0,0.5,0.1,0.7c0,0.1,0,0.2,0,0.4
	c-0.2,0.4-0.2,0.9-0.1,1.4v0.2c0,0.2,0,0.4,0.1,0.5c0.1,0.3,0.1,0.6-0.1,0.8c-0.1,0.2-0.1,0.4-0.1,0.5l0.2,1.6c0,0.1,0,0.2-0.1,0.3
	c-0.2,0.4-0.2,0.9-0.1,1.4v0.1c0,0.1,0,0.3,0,0.4c0,0.1,0,0.3,0,0.4c0,0.1,0,0.2,0,0.2c0,0.1,0,0.1,0,0.2c-0.2,0.4-0.2,0.8-0.1,1.3
	v0.2c0,0.3,0,0.5,0.1,0.6c0.1,0.4,0.1,0.6-0.1,0.8c-0.1,0.2-0.1,0.4-0.1,0.7c0,0.1,0.1,0.3,0.1,0.5c0,0.1,0,0.2,0,0.4
	c0,0.1,0,0.2,0,0.3c0,0.1,0,0.2,0,0.3c0,0.1,0,0.2,0,0.3c-0.2,0.4-0.2,0.8-0.1,1.1v0.3c0,0.3,0,0.6,0.1,0.7c0.1,0.3,0.1,0.5-0.1,0.7
	c-0.1,0.2-0.1,0.5-0.1,0.8c0,0.1,0.1,0.2,0.1,0.4c0,0.2,0,0.3,0,0.5c0,0.1,0,0.3,0,0.4c0,0.1,0,0.2,0,0.2c0,0.1,0,0.1,0,0.2
	c-0.2,0.4-0.2,0.9-0.1,1.4V33c0,0.1,0,0.3,0,0.4c0,0.1,0,0.3,0,0.5c0,0.1,0,0.2,0,0.2c0,0.1,0,0.2,0,0.2c-0.2,0.4-0.2,0.7-0.1,1.1
	v0.3c0,0.1,0,0.2,0,0.4c0,0.1,0,0.3,0,0.4c0,0.1,0,0.2,0,0.2c0,0.1,0,0.2,0,0.2c-0.2,0.4-0.2,0.8-0.1,1.3v0.1c0,0.1,0,0.3,0,0.4
	c0,0.1,0,0.3,0,0.5c0.1,0.2,0.1,0.3,0,0.4c-0.2,0.4-0.2,0.8-0.1,1.3v0.2c0,0.1,0,0.2,0,0.4c0,0.1,0,0.3,0,0.4c0,0.1,0,0.2,0,0.2
	c0,0.1,0,0.2,0,0.2c-0.2,0.4-0.2,0.8-0.1,1.3v0.4c0,0.2,0,0.3,0.1,0.4c0.1,0.2,0.1,0.4,0.2,0.4c0,0,0.2,0.1,0.4,0.1h0.4
	c0.1,0,0.2,0.1,0.4,0.1c0.3,0,0.6,0,0.8,0.1c0.2,0,0.5,0,0.9-0.1c0.1,0,0.2-0.1,0.5-0.1c0.3,0,0.6,0.1,0.9,0.1c0.3,0,0.6,0,0.9,0
	c0.2,0,0.3,0,0.4-0.1h1.1c0.2,0,0.5,0.1,0.9,0.1h0.7c0.1,0,0.3-0.1,0.7-0.1h0.5c0.2,0,0.5,0.1,0.8,0.1h0.7l0.7-0.1l0.1,0.1h1
	l0.7-0.1c0.2,0,0.3-0.1,0.4-0.1c0.1,0,0.3,0,0.4,0c0.1,0,0.3,0,0.5-0.1c0.2,0,0.4-0.1,0.5-0.1c0.1,0,0.3-0.1,0.5-0.2
	c0.2,0,0.4-0.1,0.6-0.1c0.2,0,0.4-0.1,0.6-0.2c0.2-0.1,0.3-0.2,0.5-0.2c0.1-0.1,0.3-0.1,0.5-0.2c0.3-0.1,0.6-0.2,0.8-0.3
	c0.2-0.1,0.5-0.3,0.8-0.3l0.4-0.3l0.2-0.1c0.1,0,0.2-0.1,0.3-0.1c0.2-0.1,0.4-0.2,0.6-0.3c0.2-0.1,0.4-0.3,0.6-0.4
	c0.2-0.1,0.4-0.3,0.6-0.4c0.2-0.2,0.4-0.3,0.6-0.4l0.2-0.2c0.1-0.2,0.1-0.2,0.2-0.2c0.3-0.2,0.6-0.5,0.9-0.8
	c0.3-0.3,0.5-0.6,0.8-0.9l0.7-0.7c0.3-0.3,0.5-0.6,0.7-0.9c0-0.1,0-0.1,0.1-0.1c0.1-0.2,0.2-0.3,0.3-0.4c0.1-0.1,0.2-0.2,0.3-0.4
	c0.1-0.2,0.2-0.5,0.4-0.7c0.1-0.2,0.2-0.4,0.3-0.7v-0.1l0.1-0.1c0.2-0.2,0.4-0.6,0.5-1c0-0.1,0.1-0.2,0.2-0.3
	c0.1-0.2,0.2-0.4,0.2-0.7c0-0.1,0.1-0.2,0.2-0.4c0.1-0.1,0.1-0.2,0.2-0.4c0.1-0.4,0.2-0.7,0.2-0.9c0.1-0.3,0.1-0.6,0.1-0.8
	c0-0.2,0.1-0.4,0.2-0.7c0.1-0.1,0.2-0.3,0.2-0.7c-0.1-0.2-0.1-0.4-0.1-0.6C153.2,28.2,153.3,28,153.3,27.8 M162.1,38.4
	c-0.1-0.3-0.1-0.6,0.1-0.9v-0.2c0-0.2-0.1-0.4-0.1-0.5v-0.6c0-0.3,0-0.5-0.1-0.6v-0.4c0.1-0.2,0.1-0.3,0.1-0.5c0-0.1,0-0.3-0.1-0.5
	v-0.7c0-0.3,0-0.6-0.1-0.7v-0.4c0.1-0.3,0.1-0.6,0.1-0.8v-0.8c0-0.3,0-0.5-0.1-0.7c0-0.2,0-0.4,0.1-0.5c0-0.1,0-0.1,0-0.2
	c0,0,0-0.1,0-0.2c0-0.2-0.1-0.4-0.1-0.6c0-0.2,0-0.4,0-0.6c0-0.2,0-0.4,0-0.7c-0.1-0.2,0-0.5,0.1-0.7c0,0,0-0.1,0-0.2
	c0-0.1-0.1-0.1-0.1-0.2v-0.9c0-0.1,0-0.1,0-0.2c0,0,0-0.1,0-0.2c0-0.2-0.1-0.4-0.1-0.5c0-0.2,0-0.3,0.1-0.5v-0.1
	c0-0.2-0.1-0.5-0.1-0.7v-0.8c0-0.1,0-0.2,0-0.2c0-0.1,0-0.1,0-0.2v-0.3c0.1-0.2,0.1-0.5,0.1-0.8v-0.8c0-0.3,0-0.5-0.1-0.7
	c0-0.2,0-0.4,0.1-0.5c0-0.1,0.1-0.3,0.1-0.4c0-0.2-0.1-0.4-0.1-0.6c0-0.2,0-0.4,0-0.6c0-0.2,0-0.3-0.1-0.5c0-0.2,0-0.4,0.1-0.5
	c0-0.1,0.1-0.3,0.1-0.5c0-0.2-0.1-0.5-0.1-0.9c0-0.4,0-0.6-0.1-0.8v-0.4c0.1-0.2,0.1-0.4,0.1-0.7v-1c0-0.2,0-0.4-0.1-0.5v-0.4
	c0.1-0.3,0.1-0.6,0.1-0.9V7.7c-0.2-0.2-0.6-0.3-1-0.3c-0.4,0-0.9,0-1.3,0.1c-0.4,0-0.9,0-1.3-0.1h-0.2c-0.4,0-0.8,0-1.2,0
	c-0.4,0.1-0.8,0.1-1.2,0c-0.3,0-0.6,0.1-0.7,0.2c-0.1,0.1-0.2,0.3-0.2,0.5c0.1,0.2,0.1,0.5,0.1,0.8c0,0.3,0,0.5,0.1,0.8
	c0,0.1,0,0.3-0.1,0.4c-0.1,0.4-0.1,0.7-0.1,1c0.1,0.1,0.1,0.2,0,0.3c0,0.1,0,0.2,0,0.4c0,0.1,0.1,0.2,0.1,0.4
	c0.1,0.2,0.1,0.4,0.1,0.5c-0.2,0.4-0.2,0.9-0.1,1.5c0,0.2,0,0.4,0.1,0.7c0.1,0.3,0.1,0.6,0,0.7c-0.1,0.4-0.1,0.7-0.1,1
	c0.1,0.1,0.1,0.2,0,0.3c0,0.1,0,0.3,0.1,0.5c0.1,0.4,0.1,0.7-0.1,1c0,0.2-0.1,0.4-0.1,0.7c0.1,0.2,0.1,0.5,0.1,0.7
	c0,0.2,0,0.5,0.1,0.7c0,0.1,0,0.2-0.1,0.4c0,0.2-0.1,0.4-0.1,0.5c0,0.2,0,0.3,0.1,0.5c0,0.1,0,0.1,0,0.2c0,0.2,0,0.5,0.1,0.8
	c0.1,0.3,0.1,0.5,0,0.8c-0.2,0.4-0.2,0.7-0.1,0.9c0,0.1,0,0.1,0,0.2c0,0,0,0.1,0,0.2c0,0.1,0,0.3,0.1,0.5c0.1,0.4,0.1,0.7,0,1
	c-0.1,0.2-0.1,0.5-0.1,0.8c0,0.1,0,0.1,0,0.2c0,0,0,0.1,0,0.2c0,0.1,0,0.2,0,0.4c0,0.1,0.1,0.2,0.1,0.4c0.1,0.2,0.1,0.4,0.1,0.5
	c-0.2,0.4-0.2,0.9-0.1,1.4c0,0.1,0.1,0.3,0,0.4c0,0.1,0,0.3,0,0.4c0.1,0.3,0.1,0.5,0,0.8c-0.2,0.4-0.2,0.7-0.1,0.9
	c0,0.1,0,0.2,0,0.3c0,0.1,0,0.2,0,0.4c0,0.1,0.1,0.2,0.1,0.4c0.1,0.2,0.1,0.4,0.1,0.5c-0.1,0.2-0.1,0.5-0.2,0.8c0,0.3,0,0.5,0,0.8
	c0,0.2,0,0.4,0.1,0.7c0.1,0.3,0.1,0.6,0.1,0.7c-0.2,0.3-0.2,0.7-0.1,1.1c0,0.1,0,0.1,0,0.2c0,0.2,0,0.4,0.1,0.6c0.1,0.3,0.1,0.6,0,1
	c-0.1,0.2-0.1,0.5-0.1,0.8c0,0.1,0,0.2,0,0.2c0,0.1,0,0.1,0,0.2c0,0.1,0,0.3,0.1,0.5c0.1,0.4,0.1,0.7,0,1c-0.1,0.2-0.1,0.4-0.1,0.7
	v0.6c0,0.1,0,0.2,0,0.3c0,0.1,0.1,0.2,0.2,0.3c0.1,0.1,0.2,0.2,0.2,0.2c0.4,0.1,0.7,0.1,0.9,0.1c0.4,0,0.7,0,0.9,0.1
	c0.1,0,0.1,0,0.2,0c0,0,0.1,0,0.2,0c0.4-0.1,0.8-0.1,1.4-0.1c0.2,0,0.3,0,0.5,0c0.2,0,0.3,0,0.5,0c0.4,0,0.7,0,0.9-0.1
	c0.2,0,0.4,0,0.5,0.1c0.4,0,0.6-0.1,0.7-0.4c0.1-0.4,0.1-0.7,0.1-0.9c-0.1-0.2-0.1-0.3-0.1-0.4c0.1-0.2,0.1-0.3,0.1-0.5
	c0-0.2,0-0.3,0-0.5v-0.7c0-0.4,0-0.6-0.1-0.8v-0.4c0.1-0.3,0.1-0.5,0.1-0.8c0-0.1,0-0.2,0-0.3c0-0.1,0-0.2,0-0.3
	C162.2,39,162.2,38.7,162.1,38.4 M190.9,41.3c0-0.1,0-0.2,0-0.3c0.1-0.2,0.1-0.4,0.2-0.6c0-0.2,0-0.5-0.1-0.7c0.1-0.2,0.1-0.4,0-0.5
	c-0.1-0.1-0.1-0.3-0.1-0.5c0-0.1-0.1-0.2-0.1-0.4c0.2-0.4,0.2-0.9,0.1-1.2c0.1-0.2,0.1-0.4,0-0.6c-0.1-0.2-0.1-0.4-0.2-0.6
	c0-0.1,0-0.2,0-0.3c0-0.1,0-0.2,0.1-0.3c0.1-0.4,0.1-0.7,0.1-0.9v-0.1c0.1-0.2,0.1-0.4,0-0.6c-0.1-0.2-0.1-0.4-0.2-0.6
	c0-0.2,0-0.4,0.1-0.5c0.1-0.4,0.1-0.7,0.1-1v-0.1c0.1-0.2,0.1-0.3,0-0.5c-0.1-0.2-0.1-0.3-0.1-0.5c-0.1-0.2-0.1-0.3-0.1-0.4
	c0.2-0.4,0.2-0.9,0.1-1.3c0.1-0.2,0.1-0.4,0.1-0.5c0-0.2-0.1-0.3-0.2-0.5c0-0.2,0-0.4,0-0.5c0.1-0.4,0.1-0.7,0-1L191,26
	c0-0.2,0-0.4-0.1-0.7c0-0.1,0-0.2-0.1-0.4c-0.1-0.1-0.1-0.2,0-0.3c0.1-0.2,0.2-0.4,0.2-0.7c0-0.2,0-0.5-0.1-0.7
	c0.1-0.2,0.1-0.4,0-0.5c-0.1-0.1-0.1-0.3-0.1-0.5c-0.1-0.2-0.1-0.4,0-0.5c0.1-0.4,0.1-0.8,0.1-1.1v-0.1c0.1-0.2,0.1-0.4,0-0.5
	c-0.1-0.2-0.1-0.3-0.2-0.5c0-0.1,0-0.2,0-0.2c0-0.1,0-0.1,0-0.2c0.2-0.4,0.2-0.9,0.1-1.3c0.1-0.2,0.1-0.4,0.1-0.5
	c0-0.1-0.1-0.3-0.2-0.5c0-0.3,0-0.5,0-0.6c0.1-0.4,0.1-0.7,0-0.9l0.1-0.2c0.1-0.1,0.1-0.2,0.1-0.4l-0.1-0.4c0-0.1,0-0.2-0.1-0.3
	c0-0.1,0-0.2,0-0.3c0.1-0.2,0.1-0.4,0.2-0.6c0-0.2,0-0.5-0.1-0.7c0.1-0.2,0.1-0.3,0.1-0.5l-0.1-0.5c-0.1-0.2-0.1-0.5,0-0.7
	c0.1-0.3,0.1-0.5,0-0.8l0.1-0.3c0-0.1,0.1-0.2,0-0.3c0-0.1,0-0.2,0-0.3c-0.2-0.4-0.2-0.8,0-1.1c0.1-0.2,0.1-0.3-0.2-0.5
	c-0.1-0.1-0.3-0.1-0.7-0.1c-0.4,0-0.9,0.1-1.2,0.1c-0.4,0-0.8,0-1.2-0.1h-0.3c-0.4,0-0.8,0.1-1.2,0.1c-0.4,0-0.8,0-1.1-0.1
	c-0.7-0.1-1.1,0.2-1.2,0.9c0,0.1,0,0.2,0,0.3c0,0.1,0,0.2,0,0.3c0,0.2-0.1,0.4,0,0.5c0,0.1,0,0.3,0.1,0.5c0.1,0.3,0.1,0.5,0.1,0.6
	c-0.1,0.2-0.1,0.5-0.1,0.7c0,0.2,0,0.4,0,0.6c0,0.3,0,0.6,0.1,0.8c0.1,0.3,0.1,0.5,0.1,0.6c-0.1,0.2-0.1,0.4-0.1,0.6
	c0,0.2,0,0.4,0,0.6c0,0.4,0,0.7,0.1,0.9c0.1,0.3,0.1,0.5,0.1,0.6c-0.1,0.2-0.1,0.4-0.1,0.7c0,0.2,0,0.5,0,0.7c0,0.3,0,0.6,0.1,0.7
	c0.1,0.3,0.1,0.5,0.1,0.7l-0.1,1.2c0,0.4,0,0.7,0.1,0.8c0.1,0.3,0.1,0.6,0.1,0.7l-0.1,1.1V23c0,0.2,0,0.3,0.1,0.5
	c0.1,0.2,0.1,0.4,0.1,0.5c-0.1,0.2-0.1,0.4-0.1,0.7v0.6c0,0.3,0,0.5,0.1,0.7c0.1,0.5,0.1,1-0.1,1.7l-0.4-0.1
	c-0.3-0.2-0.5-0.4-0.7-0.7c-0.2-0.3-0.5-0.6-0.9-1c-0.3-0.2-0.5-0.5-0.8-0.7c-0.2-0.2-0.4-0.5-0.6-0.8c-0.1-0.2-0.3-0.4-0.5-0.5
	c-0.2-0.1-0.4-0.3-0.5-0.5c-0.1-0.2-0.3-0.4-0.6-0.5c-0.3-0.2-0.5-0.4-0.7-0.6c-0.2-0.2-0.4-0.4-0.7-0.6l-0.1-0.2
	c-0.2-0.4-0.4-0.7-0.8-1c-0.3-0.2-0.5-0.4-0.7-0.7c-0.1-0.2-0.2-0.3-0.3-0.4c-0.2-0.2-0.4-0.4-0.5-0.6c-0.2-0.2-0.3-0.3-0.5-0.5
	l-0.4-0.4c-0.1-0.2-0.2-0.3-0.2-0.3l-1.3-1.1c-0.1-0.1-0.2-0.1-0.2-0.2c-0.1,0-0.1-0.1-0.2-0.2c-0.2-0.4-0.5-0.7-0.9-1.1
	c-0.2-0.1-0.3-0.3-0.4-0.4c-0.1-0.1-0.2-0.3-0.3-0.5l-0.2-0.3c-0.2-0.2-0.3-0.4-0.5-0.5c-0.2-0.1-0.3-0.2-0.5-0.4
	c-0.1,0-0.2-0.1-0.4-0.3c-0.2-0.2-0.3-0.3-0.4-0.5c-0.1-0.2-0.3-0.3-0.4-0.5c-0.1-0.1-0.2-0.2-0.2-0.3c-0.1-0.1-0.2-0.2-0.4-0.2
	c-0.2-0.1-0.3-0.3-0.4-0.5c0-0.1,0-0.2-0.1-0.2l-0.2-0.2c-0.2-0.1-0.4-0.2-0.5-0.3c-0.1-0.1-0.3-0.3-0.4-0.4
	c-0.1-0.1-0.2-0.2-0.3-0.3c-0.1-0.1-0.2-0.2-0.2-0.3L164.7,8l-0.3-0.2c-0.1,0-0.2,0-0.2,0c-0.1,0-0.1,0.1-0.1,0.2
	c0,0.2-0.1,0.4-0.2,0.6c-0.1,0.2-0.1,0.4,0,0.6c0,0.2,0,0.4,0,0.6c-0.1,0.2-0.1,0.4,0,0.5c0.1,0.4,0.1,0.7,0,1
	c-0.1,0.2-0.1,0.5,0,0.7c0.1,0.2,0.1,0.5-0.1,0.7c0,0.1,0,0.1,0.1,0.2v0.1c0.1,0.3,0.1,0.7,0,1c-0.1,0.2-0.1,0.4,0,0.5
	c0.1,0.2,0.1,0.5,0,0.7c-0.1,0.2-0.1,0.4,0,0.5c0.1,0.3,0.1,0.6,0.1,1c-0.1,0.2-0.1,0.4,0,0.8c0,0.1,0,0.2,0,0.4
	c0,0.1-0.1,0.3-0.1,0.4l0.1,0.2c0.1,0.3,0.1,0.7,0,1c-0.1,0.1-0.1,0.3,0,0.5c0,0.2,0,0.5,0,0.7c-0.1,0.2-0.1,0.3,0,0.4
	c0.1,0.4,0.1,0.7,0,1.1c0,0.2,0,0.4,0,0.7c0,0.2,0,0.5-0.1,0.7c0,0.1,0,0.1,0.1,0.2v0.1c0.1,0.4,0.1,0.7,0,1c-0.1,0.2-0.1,0.4,0,0.5
	c0,0.2,0,0.5,0,0.7c-0.1,0.2-0.1,0.4,0,0.5c0.1,0.3,0.1,0.6,0.1,1c-0.1,0.2-0.1,0.4,0,0.7c0,0.2,0,0.3,0,0.4c0,0.1-0.1,0.3-0.1,0.4
	l0.1,0.1c0.1,0.4,0.1,0.7,0,1c-0.1,0.2-0.1,0.4,0,0.5c0,0.2,0,0.5,0,0.7c-0.1,0.2-0.1,0.3,0,0.4c0.1,0.4,0.1,0.7,0,1.1
	c0,0.2,0,0.4,0,0.7c0,0.2,0,0.5-0.1,0.7c0,0.1,0,0.1,0.1,0.2v0.1c0.1,0.4,0.1,0.7,0,1.1c-0.1,0.2-0.1,0.4,0,0.5c0,0.2,0,0.5,0,0.7
	c-0.1,0.2-0.1,0.3,0,0.4c0.1,0.4,0.1,0.7,0,1.1c0,0.2,0,0.4,0,0.7c0,0.2,0,0.5-0.1,0.7c0,0.1,0,0.1,0.1,0.2c0,0.1,0,0.1,0.1,0.2
	c0.1,0.4,0.1,0.6-0.1,0.8c0,0.2,0,0.5,0,0.7c0,0.2,0,0.4,0,0.6c-0.1,0.2-0.1,0.3,0,0.4c0.1,0.4,0.1,0.8,0,1.2
	c-0.1,0.5,0.1,0.8,0.7,0.9h0.5c0.1-0.1,0.3-0.1,0.4-0.1c0.1,0,0.3,0,0.5,0c0.2,0,0.5,0.1,0.7,0.1h1.1c0.2-0.1,0.3-0.1,0.5-0.1
	c0.1,0,0.3,0,0.5,0c0.2,0,0.5,0.1,0.7,0.1h0.7c0.3,0.1,0.5,0,0.5-0.4c0.1-0.2,0.2-0.4,0.2-0.5c0.1-0.2,0.1-0.3,0-0.5v-0.2
	c0-0.4,0-0.7,0-1.1c-0.1-0.2-0.1-0.4,0-0.6c0-0.2,0-0.3,0-0.4c0-0.1,0-0.2,0-0.4c0-0.2,0-0.3,0-0.4c0-0.1,0-0.3,0-0.4v-0.2
	c-0.2-0.4-0.2-0.8,0-1.1v-0.2c-0.1-0.1-0.1-0.3-0.1-0.4c0-0.1,0-0.3,0.1-0.4V37l-0.1-0.5c0-0.2,0-0.3,0.1-0.4c0.1-0.2,0.1-0.4,0-0.5
	c-0.1-0.1-0.1-0.3,0-0.5v-0.8c0-0.1,0-0.2-0.1-0.2s-0.1-0.2-0.1-0.2l0.1-1.4v-0.5c0-0.2,0-0.3-0.1-0.5c0-0.1-0.1-0.2,0-0.4
	c0-0.1,0-0.2,0-0.4c0-0.1,0-0.2,0-0.3c0-0.1,0-0.2,0-0.3c0-0.1,0-0.2,0.1-0.3v-0.5c0-0.3-0.1-0.5-0.1-0.8c0-0.2,0-0.5,0.1-0.8
	c-0.1-0.2-0.1-0.3-0.1-0.5c0-0.2,0.1-0.3,0.1-0.5c0-0.1,0-0.2,0-0.4s0-0.2,0-0.4c0-0.1,0-0.2,0-0.3c0-0.1,0-0.2,0-0.3
	c0-0.2,0.1-0.4,0.2-0.5c0.1,0,0.2,0,0.3,0.1c0.1,0.2,0.2,0.4,0.4,0.5c0.2,0.1,0.3,0.3,0.4,0.5l0.4,0.3c0.4,0.2,0.6,0.4,0.8,0.8
	c0.1,0.2,0.2,0.3,0.2,0.4l0.4,0.3c0.3,0.2,0.5,0.5,0.8,0.7c0.2,0.2,0.5,0.5,0.7,0.8c0.2,0.2,0.4,0.4,0.6,0.5
	c0.2,0.2,0.5,0.4,0.7,0.6c0.2,0.2,0.3,0.4,0.4,0.5l0.5,0.6l0.2,0.2c0.1,0,0.2,0.1,0.2,0.1c0.2,0,0.4,0.2,0.5,0.5
	c0.1,0.3,0.3,0.5,0.5,0.6c0.2,0.1,0.4,0.3,0.6,0.5c0.1,0.1,0.1,0.1,0.2,0.2c0,0,0.1,0.1,0.2,0.1c0.2,0.1,0.3,0.2,0.4,0.3l0.2,0.4
	c0.2,0.4,0.4,0.7,0.8,1c0.2,0.1,0.4,0.3,0.5,0.4c0.1,0.1,0.3,0.3,0.4,0.4l0.4,0.4c0.1,0.1,0.2,0.3,0.3,0.5l0.2,0.2
	c0.1,0,0.2,0.1,0.2,0.1c0.2,0.1,0.4,0.3,0.5,0.4c0.1,0.1,0.2,0.2,0.2,0.4l0.3,0.2c0.2,0.1,0.3,0.3,0.4,0.4l0.2,0.2
	c0.1,0.1,0.2,0.2,0.3,0.2c0.1,0.1,0.1,0.1,0.2,0.2c0,0,0.1,0.1,0.1,0.2c0.1,0.2,0.2,0.4,0.4,0.6c0.2,0.2,0.3,0.3,0.5,0.5
	c0.2,0.2,0.4,0.3,0.5,0.4l0.4,0.3l1,1c0.2,0.2,0.3,0.4,0.5,0.6l0.6,0.5c0.2,0.2,0.4,0.4,0.5,0.7c0,0.1,0.1,0.2,0.3,0.2
	c0.2,0.2,0.4,0.1,0.4-0.2c0-0.2,0-0.3-0.1-0.4c0-0.1,0-0.3,0.1-0.5c0.1-0.4,0.1-0.7,0-0.9l0.1-0.2c0.1-0.1,0.1-0.2,0.1-0.3l-0.1-0.4
	C190.9,41.5,190.9,41.4,190.9,41.3 M232.9,27.4c0-0.2,0-0.4,0-0.5c0-0.2-0.1-0.3-0.1-0.5c-0.1-0.2-0.2-0.3-0.3-0.3
	c-0.2-0.1-0.4-0.1-0.5-0.2c-0.2,0-0.3,0-0.5,0c-0.2,0.1-0.3,0.1-0.4,0c-0.2,0-0.4,0-0.7,0.1c-0.2,0-0.3,0.1-0.5,0.1
	c-0.2,0-0.3,0-0.5-0.1c-0.1,0-0.3-0.1-0.5-0.1c-0.1,0-0.2,0-0.2,0c-0.1,0-0.2,0-0.2,0c-0.2,0-0.4,0-0.7,0.1c-0.2,0-0.4,0.1-0.6,0.1
	c-0.2,0-0.4,0-0.6-0.1c0,0-0.2-0.1-0.4-0.1c-0.1,0-0.2,0-0.2,0c-0.1,0-0.2,0-0.2,0c-0.2,0-0.5,0-0.8,0.1c-0.2,0-0.3,0.1-0.5,0.1
	c-0.1,0-0.3,0-0.5-0.1c-0.1,0-0.3-0.1-0.5-0.1c-0.1,0-0.2,0-0.2,0c-0.1,0-0.1,0-0.2,0c-0.2,0-0.5,0-0.8,0.1c-0.2,0-0.4,0.1-0.5,0.1
	c-0.1,0-0.3,0-0.5-0.1c-0.1,0-0.2-0.1-0.4-0.1c-0.1,0-0.2,0-0.3,0c-0.1,0-0.2,0-0.3,0c-0.2,0-0.5,0-0.8,0.1c-0.2,0-0.3,0.1-0.5,0.1
	c-0.2,0-0.3,0-0.5-0.1c-0.1,0-0.2-0.1-0.5-0.1c-0.1,0-0.2,0-0.2,0c-0.1,0-0.2,0-0.2,0c-0.2,0-0.4,0-0.8,0.1c-0.1,0-0.3,0.1-0.4,0.1
	c-0.1,0-0.3,0-0.4,0c-0.2-0.1-0.5-0.1-0.8-0.1h-0.4c-0.2,0-0.4,0-0.5,0c-0.4,0.2-0.8,0.2-1.1,0.1c-0.2-0.1-0.4-0.1-0.5,0
	c-0.1,0.1-0.3,0.2-0.4,0.3s-0.1,0.3-0.1,0.4c0,0.1,0,0.2,0,0.3c0,0.1,0,0.2,0,0.3c0,0.2,0,0.5-0.1,0.7c0,0.2,0,0.5,0.1,0.7v0.1
	c-0.1,0.2-0.1,0.5,0,0.9v0.5c0,0.2-0.1,0.4-0.1,0.6c0,0.2,0,0.4,0.1,0.6c0,0.2,0,0.3-0.1,0.3c0,0.2,0,0.5,0.1,0.8
	c0.1,0.2,0.2,0.3,0.2,0.4c0.1,0.1,0.2,0.1,0.4,0h0.6c0.2,0,0.4,0,0.6,0.1c0.2,0,0.4,0,0.6-0.1c0.1-0.1,0.2-0.1,0.3,0
	c0.3,0.1,0.6,0.1,1,0.1c0.3,0,0.6,0,1,0.1c0.2-0.1,0.4-0.1,0.7-0.1c0.2,0,0.5,0,0.7,0c0.2,0,0.4,0,0.5,0c0.1,0,0.3,0,0.5,0
	c0.2,0.1,0.3,0.1,0.5,0c0.2,0,0.5,0,0.7,0h0.6c0.2,0,0.3,0.1,0.5,0c0.1,0,0.3,0,0.5,0c0.1,0,0.2,0,0.3,0c0.1,0,0.2,0,0.3-0.1
	c0.1,0,0.3,0,0.4,0c0.2,0,0.5,0,0.9,0.1c0.1,0.2,0.1,0.4-0.1,0.5c-0.1,0.2-0.2,0.3-0.3,0.4l-0.4,0.4c-0.2,0.2-0.3,0.4-0.4,0.5
	c-0.1,0.2-0.3,0.4-0.5,0.5c-0.2,0-0.3,0.2-0.4,0.4c-0.4,0.4-1,0.9-1.6,1.3c-0.1,0-0.3,0.1-0.5,0.3l-0.6,0.3
	c-0.3,0.1-0.6,0.2-0.7,0.4c-0.2,0.2-0.4,0.3-0.7,0.2c-0.2,0-0.3,0-0.5,0.1c-0.5,0.3-1,0.5-1.6,0.5c-0.5,0-0.9,0.1-1.2,0.2
	c-0.2,0.1-0.4,0.1-0.5,0h-0.9l-0.4-0.1c-0.1,0-0.2,0-0.4,0c-0.1,0-0.3,0-0.4,0c-0.1,0-0.2,0.1-0.5,0.1c-0.2-0.1-0.4-0.2-0.7-0.2
	c-0.2-0.1-0.5-0.1-0.7-0.2c0,0-0.1,0-0.3-0.1c-0.2-0.2-0.4-0.3-0.7-0.2c-0.1,0-0.2,0-0.5-0.1l-0.8-0.4l-0.4-0.2
	c-0.2-0.1-0.4-0.2-0.5-0.3c-0.2-0.1-0.3-0.2-0.5-0.3l-1-0.6l-0.2-0.2c-0.1-0.2-0.2-0.3-0.3-0.4c-0.1-0.1-0.3-0.2-0.5-0.3
	c-0.2-0.2-0.4-0.3-0.4-0.5c-0.2-0.5-0.5-0.9-1-1.3c-0.2-0.2-0.3-0.4-0.4-0.5c-0.2-0.5-0.4-0.8-0.7-1.1c-0.1-0.1-0.2-0.3-0.2-0.4
	c0-0.2-0.1-0.4-0.3-0.7c-0.1-0.1-0.2-0.3-0.2-0.4c-0.1-0.2-0.1-0.3-0.2-0.5c-0.1-0.3-0.2-0.7-0.2-1c0-0.4-0.1-0.7-0.2-1
	c0-0.1-0.1-0.3-0.1-0.7v-0.4c0-0.2,0-0.3-0.1-0.5v-0.2c0.1-0.2,0.1-0.4,0.1-0.5v-0.5c0-0.4,0-0.7,0.1-0.9c0,0,0-0.1,0-0.1
	c0,0,0-0.1,0-0.2c0-0.1,0-0.2,0-0.4l0.4-1.3c0.1-0.4,0.2-0.7,0.4-0.8c0,0,0.1-0.1,0.1-0.2l0.5-1.3l0.1-0.1c0.3-0.5,0.6-0.9,0.9-1.4
	c0.3-0.4,0.7-0.9,1.1-1.3l0.8-0.8c0.3-0.2,0.6-0.5,0.8-0.7c0.3-0.2,0.6-0.4,0.9-0.6c0.3-0.2,0.6-0.3,0.9-0.5
	c0.3-0.1,0.6-0.3,0.9-0.4c0.2,0,0.4-0.1,0.5-0.2c0.2-0.1,0.3-0.1,0.5-0.2c0,0,0.1-0.1,0.2-0.2c0.2-0.1,0.4-0.2,0.6-0.1
	c0.2,0,0.5,0,0.7-0.1c0.2,0,0.5-0.1,0.7-0.1c0.1-0.1,0.3-0.1,0.4-0.1h1.7c0.2-0.2,0.3-0.6,0.3-1c0-0.4,0-0.9-0.1-1.3
	c0-0.4,0-0.9,0.1-1.3V9.5c0-0.4,0-0.8,0-1.2c-0.1-0.4-0.1-0.8,0-1.2c0-0.3-0.1-0.6-0.2-0.7c-0.1-0.1-0.3-0.2-0.5-0.2
	c-0.2,0.1-0.4,0.1-0.6,0.1c-0.3,0-0.5,0-0.8,0.1c-0.3,0.1-0.5,0.1-0.6,0.1c-0.3,0-0.6,0-0.9,0c-0.3,0.1-0.6,0.1-0.9,0.2
	c-0.3,0.1-0.6,0.1-0.7,0.1c-0.2,0-0.3,0-0.4,0.1c-0.3,0.2-0.6,0.3-1,0.4c-0.2,0.1-0.4,0.1-0.5,0.1L206,7.6c-0.2,0-0.3,0.1-0.5,0.2
	c-0.3,0.2-0.5,0.3-0.8,0.3c-0.3,0-0.6,0.1-0.7,0.4c-0.1,0.1-0.3,0.2-0.5,0.3c-0.4,0.1-0.8,0.3-1.1,0.6l-0.2,0.2l-0.5,0.4
	c-0.2,0.1-0.4,0.3-0.6,0.4c-0.2,0.2-0.4,0.3-0.6,0.5l-0.8,0.7l-1.1,1c-0.2,0.2-0.4,0.4-0.5,0.6l-0.5,0.6l-0.1,0.1
	c-0.2,0.2-0.3,0.4-0.4,0.5c-0.1,0.2-0.2,0.3-0.4,0.5c-0.2,0.2-0.3,0.4-0.5,0.6c-0.2,0.2-0.3,0.4-0.4,0.7c0,0,0,0.1-0.1,0.2
	c-0.2,0.2-0.3,0.5-0.4,0.8c0,0.2-0.1,0.4-0.2,0.5c-0.3,0.3-0.5,0.7-0.5,1.1l-0.1,0.2c-0.1,0.4-0.3,0.7-0.4,1c-0.2,0.3-0.2,0.7-0.2,1
	c-0.2,0.5-0.3,1.1-0.4,1.8c0,0.5-0.1,0.9-0.2,1.3c-0.1,0.2-0.1,0.4,0,0.6c0.1,0.2,0.1,0.4,0,0.6v1c0,0.1,0,0.2,0,0.3
	c0,0.1,0,0.2-0.1,0.3c0,0.2,0,0.4,0.1,0.7c0.1,0.2,0.1,0.4,0.1,0.5c-0.1,0.5,0,0.9,0.2,1.4c0,0,0,0.1,0,0.1c0,0,0,0.1,0,0.1
	c0,0.2,0,0.4,0.1,0.5c0,0.2,0.1,0.3,0.1,0.5c0.1,0.3,0.2,0.6,0.3,1c0.1,0.3,0.2,0.7,0.3,1c0,0.2,0.1,0.4,0.2,0.5
	c0.1,0.2,0.2,0.3,0.2,0.5c0.1,0.2,0.2,0.5,0.2,0.7c0.1,0.2,0.2,0.4,0.2,0.6c0.1,0.1,0.1,0.2,0.1,0.3s0,0.2,0.1,0.3l0.7,1
	c0.1,0.1,0.2,0.2,0.2,0.3c0.1,0.1,0.1,0.2,0.2,0.3c0.2,0.4,0.5,0.7,0.9,1.1c0.2,0.2,0.3,0.4,0.4,0.5c0,0.2,0.2,0.3,0.4,0.5
	c0.2,0.1,0.3,0.2,0.4,0.3c0.1,0.1,0.2,0.2,0.2,0.3c0.2,0.3,0.4,0.5,0.6,0.7c0.2,0.2,0.4,0.4,0.6,0.6l0.2,0.1
	c0.2,0.2,0.4,0.3,0.5,0.4c0.4,0.3,0.7,0.5,1.1,0.8c0.4,0.2,0.8,0.5,1.1,0.7l0.4,0.2c0.2,0.1,0.4,0.2,0.5,0.2c0.9,0.6,1.8,1,2.7,1.2
	l0.4,0.2c0.4,0.2,0.9,0.3,1.3,0.4c0.2,0,0.3,0,0.4,0.1c0.2,0.1,0.5,0.1,0.8,0.2c0.3,0,0.5,0.1,0.8,0.2l1.2,0.2c0.1,0,0.2,0,0.2-0.1
	c0.4-0.1,0.8-0.1,1.1,0.1c0.2,0.1,0.5,0.1,0.7,0.1c0.2,0,0.5,0,0.7,0l0.1-0.1c0.2-0.1,0.4-0.1,0.5-0.1h0.5c0.3,0,0.6-0.1,0.9-0.2
	l0.5-0.1h0.4l1.3-0.3c0.2-0.1,0.5-0.2,0.7-0.2c0.2-0.1,0.5-0.2,0.7-0.2c0,0,0.1,0,0.1-0.1c0.1,0,0.2-0.1,0.4-0.2
	c0.1-0.1,0.2-0.1,0.4-0.2c0.3-0.1,0.7-0.3,1-0.4c0.3-0.1,0.7-0.3,1-0.5l0.2-0.1c0.3-0.1,0.5-0.2,0.6-0.4c0.2-0.2,0.4-0.3,0.6-0.4
	c0.3-0.1,0.6-0.3,0.8-0.5l0.5-0.4c0.3-0.2,0.6-0.4,0.8-0.7c0.1-0.2,0.3-0.3,0.5-0.4c0.2-0.1,0.4-0.3,0.5-0.5c0-0.1,0.2-0.3,0.4-0.4
	c0.3-0.1,0.4-0.3,0.5-0.5c0.2-0.2,0.3-0.4,0.5-0.5c0.3-0.2,0.5-0.5,0.6-0.8l0.3-0.4c0.2-0.2,0.4-0.5,0.6-0.8
	c0.1-0.3,0.3-0.5,0.5-0.7c0-0.1,0.1-0.1,0.1-0.2c0,0,0.1,0,0.1-0.1l0.4-1.1l0.2-0.4c0.1-0.2,0.2-0.4,0.3-0.8
	c0.1-0.2,0.2-0.4,0.2-0.7c0.2-0.3,0.3-0.6,0.3-0.9c0-0.1,0-0.2,0.1-0.2c0.1-0.2,0.2-0.3,0.2-0.5c0-0.2,0-0.3,0.1-0.5
	c0-0.3,0.1-0.5,0.1-0.8c0-0.2,0.1-0.5,0.1-0.8v-0.2c0-0.1,0.1-0.2,0.1-0.4C232.9,28.1,232.9,27.8,232.9,27.4"/>
</svg>
