<?xml version="1.0" encoding="utf-8"?>
<!-- Generator: Adobe Illustrator 19.2.1, SVG Export Plug-In . SVG Version: 6.00 Build 0)  -->
<!DOCTYPE svg PUBLIC "-//W3C//DTD SVG 1.1//EN" "http://www.w3.org/Graphics/SVG/1.1/DTD/svg11.dtd">
<svg version="1.1" id="Layer_1" xmlns="http://www.w3.org/2000/svg" xmlns:xlink="http://www.w3.org/1999/xlink" x="0px" y="0px"
	 viewBox="0 0 2000 560" style="enable-background:new 0 0 2000 560;" xml:space="preserve">
<style type="text/css">
	.st0{clip-path:url(#SVGID_2_);fill:#FBD632;}
</style>
<g>
	<defs>
		<rect id="SVGID_1_" x="259.2" y="33.4" width="1481.1" height="494"/>
	</defs>
	<clipPath id="SVGID_2_">
		<use xlink:href="#SVGID_1_"  style="overflow:visible;"/>
	</clipPath>
	<path class="st0" d="M376.8,337.2c0,2.5-0.9,4.6-2.8,6.5c-0.9,1.2-2,3.1-3.2,5.5c-0.6,1.8-1.5,3.1-2.8,3.7
		c-1.8,1.2-3.1,2.5-3.7,3.7c-1.2,1.5-2.8,2.6-4.6,3.2c-1.5,0.3-3.1,1.2-4.6,2.8c-1.2,0.9-2.5,1.6-3.9,2.1c-1.4,0.5-2.8,0.9-4.4,1.2
		c-1.2,0-2.4,0.1-3.5,0.2c-1.1,0.2-2.2,0.2-3.5,0.2c-4.9,1.2-9.4,1.4-13.4,0.5c-2.2-0.9-4.6-0.9-7.4,0c-2.2,0.6-3.8,0.3-4.9-0.9
		c-1.1-1.2-1.5-2.6-1.2-4.1c0-1.5-0.1-3.2-0.2-5.1c-0.2-1.8-0.2-3.5-0.2-5.1c0-0.6,0.1-1.2,0.2-1.8c0.2-0.6,0.2-1.2,0.2-1.8
		c0.3-1.8,0.3-3.4,0-4.6c0-0.6-0.1-1.3-0.2-2.1c-0.2-0.8-0.1-1.5,0.2-2.1c0.3-0.9,0.4-1.8,0.2-2.8c-0.2-0.9-0.2-1.8-0.2-2.8v-5.1
		c0-0.6,0.1-1.2,0.2-1.6c0.1-0.5,0.2-1,0.2-1.6c-0.6-1.8-0.8-3.8-0.5-5.8c0.3-2,0.3-4.1,0-6.2c-0.3-1.5-0.2-4,0.5-7.4
		c0-1.8-0.2-3.2-0.5-4.1v-0.9c0-1.2,0.1-2.4,0.2-3.5c0.1-1.1,0.1-2.2-0.2-3.5c0-0.9-0.1-1.9-0.2-3c-0.2-1.1-0.1-2.1,0.2-3
		c0-3.1,1.7-4.6,5.1-4.6h3.7c0.9,0,1.8,0.2,2.8,0.5c2.5,0.3,4.8,0.4,7.2,0.2c2.3-0.1,4.7-0.4,7.1-0.7c1.5-0.3,3.1-0.3,4.6,0
		c1.5,0.3,3.1,0.8,4.6,1.4l8.3,2.8l1.8,1.4l8.8,7.8c0.9,0.9,1.4,1.2,1.4,0.9c0.6,2.2,1.7,4,3.2,5.5c1.5,1.5,2.8,3.4,3.7,5.5
		c0.6,2.2,1.3,4.1,2.1,6c0.8,1.8,1.2,4,1.2,6.5c0,0.6,0.1,1.1,0.2,1.4c0.2,0.3,0.2,0.8,0.2,1.4c0,2.2-0.2,3.7-0.5,4.6
		C378,330.6,377.4,333.5,376.8,337.2 M437.2,516.1v-1.8c-0.6-1.5-1.2-3.1-1.6-4.6c-0.5-1.5-1.3-3.1-2.5-4.6
		c-1.2-1.2-2.3-2.8-3.2-4.6c-1.2-2.5-2.6-4.3-4.1-5.5c-1.5-2.2-2.5-4-2.8-5.5c-1.2-3.1-2.8-5.7-4.6-7.8c-1.2-1.2-1.8-2.3-1.8-3.2
		c-0.3-1.5-1.4-3.5-3.2-6c-0.9-1.5-1.9-3-3-4.4c-1.1-1.4-1.9-2.8-2.5-4.4c-0.6-1.8-1.5-3.2-2.8-4.2c-1.2-1.2-2.2-2.4-2.8-3.5
		c-0.6-1.1-1.2-2.2-1.8-3.5l-3.7-6c-1.2-1.8-1.8-3.2-1.8-4.2c0.6-1.8,0-3.4-1.8-4.6c-1.8-0.9-3.2-2.2-3.9-3.7
		c-0.8-1.5-1.5-3.2-2.1-5.1c-0.3-1.5-1.4-3.2-3.2-5.1c-1.8-2.5-3.1-4.3-3.7-5.5c-1.5-2.1-2.2-4.1-1.8-6l4.1-3.7l4.6-2.8
		c1.2-0.6,2.5-1.3,3.7-2.1c1.2-0.8,2.3-1.8,3.2-3c0-0.6,0.3-0.9,0.9-0.9c2.8-1.2,5.2-3.4,7.4-6.5c1.2-1.2,2.1-2,2.8-2.3
		c2.8-2.2,5.1-4.9,6.9-8.3l0.5-0.5c1.2-0.9,2.2-2,3-3.2c0.8-1.2,1.5-2.5,2.1-3.7c0.3-1.2,1.1-2.5,2.3-3.7c1.5-1.5,2.5-3.2,3-5.1
		c0.5-1.8,1.2-3.5,2.1-5.1c0.6-2.8,1.4-5.4,2.5-7.9c1.1-2.5,1.8-5.1,2.1-7.8l1.8-3.7c0-0.6,0.1-1.2,0.2-1.6c0.2-0.5,0.2-1,0.2-1.6
		c0-1.8-0.1-3.7-0.2-5.5c-0.2-1.8-0.2-3.7-0.2-5.5c0-0.6,0.3-2.1,0.9-4.6c0.6-1.5,0.6-3.2,0-5.1c-1.2-4-2-7.4-2.3-10.1
		c-0.3-3.1-0.9-6.1-1.8-9c-0.9-2.9-1.8-5.9-2.8-9l-1.4-3.2l-2.8-6c-0.6-1.5-1.2-2.9-1.6-4.2c-0.5-1.2-1.5-2.3-3-3.2
		c-0.9-0.6-1.7-1.7-2.3-3.2c-0.6-1.8-1.1-2.9-1.4-3.2c-1.2-0.6-2.2-1.5-2.8-2.5c-0.6-1.1-1.2-2.1-1.8-3c-0.6-0.9-1.1-1.4-1.4-1.4
		c-2.5-1.2-4.3-3.1-5.5-5.5l-1.4-1.4c-2.5-1.5-4.8-3.2-6.9-4.8c-2.2-1.7-4.5-3.2-6.9-4.4c-0.6-0.3-1.2-0.6-1.6-0.9
		c-0.5-0.3-1-0.6-1.6-0.9c-2.2-2.1-4.5-3.4-6.9-3.7l-3.7-0.9c-1.2-0.3-2.5-0.8-3.7-1.4c-2.5-1.5-5.5-2.6-9.2-3.2
		c-0.9,0-1.8-0.1-2.8-0.5l-2.8-0.9c-2.2-0.6-4.2-1.1-6.2-1.4c-2-0.3-4.1-0.3-6.2,0c-2.2,0-4.3,0.1-6.5,0.2c-2.2,0.2-4.2,0.1-6-0.2
		c-1.8-0.3-3.7-0.5-5.5-0.5h-5.5c-2.5,0-4.8,0.1-7.1,0.2c-2.3,0.2-4.7-0.1-7.2-0.7h-0.9c-2.5,0-4.9,0.1-7.4,0.2
		c-2.5,0.2-4.9,0.2-7.4,0.2h-1.4c-2.5-0.6-4.8-0.8-7.1-0.5c-2.3,0.3-4.7,0.3-7.2,0c-1.2,0-2.2,0.2-2.8,0.5h-4.6
		c-3.4-0.6-5.1,0.8-5.1,4.2v1.8c0.6,1.8,0.6,4,0,6.5c-0.6,1.2-0.6,2.3,0,3.2c0.6,2.5,0.7,4.8,0.2,6.9c-0.5,2.2-0.4,4.5,0.2,6.9
		c0,1.5-0.2,2.6-0.5,3.2v3.7c0.6,2.8,0.8,5.5,0.5,8.1c-0.3,2.6-0.3,5.3,0,8.1l-0.5,0.9v0.9c-0.3,0.3-0.5,0.8-0.5,1.4
		c0.6,1.5,0.9,3.2,0.9,4.8c0,1.7-0.2,3.3-0.5,4.8v2.3c0.3,1.5,0.4,2.9,0.2,4.2c-0.2,1.2-0.2,2.5-0.2,3.7c-0.3,1.5-0.2,2.9,0.2,4.2
		c0.5,1.2,0.5,2.6,0.2,4.1c-0.6,1.8-0.6,3.7,0,5.5c0.3,1.5,0.2,2.8-0.2,3.9c-0.5,1.1-0.5,2.4-0.2,3.9c0,1.5,0.1,2.8,0.2,3.9
		c0.2,1.1,0.1,2.4-0.2,3.9v4.2c0,0.6,0.1,1.1,0.2,1.4c0.2,0.3,0.2,0.8,0.2,1.4c-0.6,3.7-0.6,7.4,0,11.1c0,1.5-0.1,3.2-0.2,4.8
		c-0.2,1.7-0.1,3.3,0.2,4.9c0,0.6-0.1,1.2-0.2,1.8c-0.2,0.6-0.2,1.2-0.2,1.8c0,0.6-0.1,1.1-0.2,1.4c-0.2,0.3-0.1,0.8,0.2,1.4
		c0.3,2.8,0.3,5.5,0,8.3v3.2c0.3,0.6,0.5,1.7,0.5,3.2c-0.3,1.5-0.4,3.2-0.2,5.1c0.2,1.8,0.2,3.5,0.2,5.1c0,1.8-0.1,3.6-0.2,5.3
		c-0.2,1.7-0.1,3.5,0.2,5.3c0,1.5-0.2,2.6-0.5,3.2c-0.3,0.6-0.4,1.2-0.2,1.8c0.2,0.6,0.2,1.2,0.2,1.8c0.3,0.9,0.4,1.8,0.2,2.8
		c-0.2,0.9-0.1,2,0.2,3.2c0,0.6-0.1,1.4-0.2,2.3c-0.2,0.9-0.1,1.7,0.2,2.3c0,3.1-0.2,5.4-0.5,6.9c0,0.6-0.1,1-0.2,1.2
		c-0.2,0.2-0.1,0.5,0.2,1.2c0.3,2.8,0.3,5.4,0,7.8c0,1.5,0.1,2.9,0.2,4.1c0.2,1.2,0.2,2.6,0.2,4.2c0,0.3-0.1,0.6-0.2,0.9
		c-0.2,0.3-0.2,0.6-0.2,0.9c-0.3,1.2-0.3,2.5,0,3.7v2.8c0.3,1.5,0.5,3.4,0.5,5.5c0,2.2-0.1,4.1-0.2,5.8c-0.2,1.7-0.2,2.7-0.2,3
		c-0.3,0.6-0.4,1.2-0.2,1.8c0.2,0.6,0.2,1.2,0.2,1.8c0.6,2.5,0.8,5.1,0.5,7.9c-0.3,2.8-0.5,5.5-0.5,8.3v1.4
		c-0.3,0.6-0.5,1.2-0.5,1.8c0.9,2.5,1.1,5.5,0.5,9.2v1.8c0.3,2.8,0.3,5.2,0,7.4c-0.6,2.5,0.2,4.1,2.3,5.1c1.5,0.9,3.1,1.2,4.6,0.9
		c1.2-0.3,2.3-0.4,3.2-0.2c0.9,0.2,2,0.4,3.2,0.7c0.6,0,1.1,0.1,1.4,0.2c0.3,0.2,0.8,0.1,1.4-0.2c3.1-0.9,6.9-1.1,11.5-0.5
		c0.9,0.3,1.8,0.4,2.8,0.2c0.9-0.2,1.8-0.2,2.8-0.2c2.1,0.6,4.6,0.5,7.4-0.5c1.2-0.3,2.6-0.3,4.2,0c1.2,0.6,3.1,0.6,5.5,0
		c2.5-0.9,3.7-2.5,3.7-4.6c0-1.5-0.2-2.6-0.5-3.2c0-0.6-0.1-1.2-0.2-1.6c-0.2-0.5-0.1-1,0.2-1.6c0.6-3.1,0.5-5.8-0.5-8.3
		c0-0.3,0.1-0.6,0.2-0.9c0.2-0.3,0.2-0.6,0.2-0.9c0.3-1.5,0.5-3.1,0.7-4.6c0.2-1.5-0.1-3.1-0.7-4.6c-0.6-0.6-0.6-1.2,0-1.8
		c0.3-1.2,0.4-2.3,0.2-3.2c-0.2-0.9-0.2-2-0.2-3.2c-0.6-0.9-0.6-2,0-3.2c0.3-3.1,0.3-6.1,0-9.2c-0.3-0.9-0.3-1.8,0-2.8
		c0.3-0.9,0.5-1.8,0.5-2.8c-0.6-2.8-0.8-4.9-0.5-6.5c0-0.6,0.1-1.4,0.2-2.3c0.1-0.9,0.2-1.7,0.2-2.3c-0.3-1.5-0.5-3.1-0.7-4.6
		c-0.2-1.5,0.1-3.1,0.7-4.6c0-0.3-0.2-0.6-0.5-0.9c-0.3-2.5-0.3-5.1,0-7.8c0.3-1.8,0.3-3.8,0-6c0-0.3-0.1-0.6-0.2-0.9
		c-0.2-0.3-0.1-0.8,0.2-1.4c0-1.5,1.1-2.6,3.2-3.2c1.5-0.6,2.8,0,3.7,1.8c0.6,0.3,0.9,0.7,0.9,1.2c0,0.5,0.3,0.9,0.9,1.1
		c1.2,1.2,2.2,2.5,3,3.7c0.8,1.2,1.4,2.6,2.1,4.2l1.8,4.2l0.9,1.8c0.3,0.6,0.8,1.2,1.4,1.8c2.5,1.6,4.2,3.7,5.1,6.5
		c0.6,1.8,1.2,3.2,1.8,4.2c2.8,4.6,5.7,9.8,8.8,15.7c0,0.6,0.3,1.2,0.9,1.8c1.5,1.2,2.7,2.5,3.5,3.9c0.8,1.4,1.5,2.8,2.1,4.4
		c1.5,3.7,3.5,7.1,6,10.1c1.5,1.6,2.7,3.2,3.5,4.9c0.8,1.7,1.6,3.5,2.5,5.3c0.3,1.6,1.2,2.9,2.8,4.2c2.8,2.5,4.6,5.4,5.5,8.8
		l1.4,4.6c1.2,2.8,3.7,4,7.4,3.7h5.1c2.8,0,5.6,0.2,8.5,0.5c2.9,0.3,5.9,0.2,9-0.5c0.6-0.6,1.4-0.6,2.3,0c2.2,0.3,4.3,0.3,6.5,0
		c2.1-0.3,4.3-0.2,6.5,0.5c0.6,0.3,1.1,0.4,1.4,0.2c0.3-0.2,0.8-0.2,1.4-0.2c3.1-0.6,5.4-0.8,6.9-0.5
		C432.3,518.1,434.7,517.7,437.2,516.1 M607.9,261.1v-6c0-1.2,0.2-2.6,0.5-4.2v-2.3c-0.9-2.5-1.1-5.4-0.5-8.8v-5.1
		c0-3.1-1.5-4.8-4.6-5.1c-0.9-0.3-1.9-0.4-3-0.2c-1.1,0.2-2.2,0.2-3.5,0.2c-0.6,0-1.4,0.1-2.3,0.2c-0.9,0.2-1.7,0.1-2.3-0.2
		c-2.5-0.3-4.7-0.4-6.7-0.2c-2,0.2-4.1,0.1-6.2-0.2c-0.6,0-1.2,0.1-1.8,0.2c-0.6,0.2-1.2,0.2-1.8,0.2c-0.6,0-1.3,0.1-2.1,0.2
		c-0.8,0.2-1.5,0.1-2.1-0.2c-2.5-0.3-4.8-0.4-6.9-0.2c-2.2,0.2-4.3,0.1-6.5-0.2h-1.8c-2.2,0.6-4.3,0.7-6.5,0.2
		c-2.2-0.5-4.5-0.4-6.9,0.2h-12c-1.5,0-2.9-0.1-4.2-0.5c-1.2-0.3-2.6-0.2-4.1,0.5c-1.8-0.6-3.7-0.8-5.5-0.5
		c-1.8,0.3-3.7,0.5-5.5,0.5c-1.5,0.3-3.2,0.4-5.1,0.2c-1.8-0.1-3.5-0.2-5.1-0.2c-1.5,0-3.2-0.1-4.8-0.2c-1.7-0.2-3.3-0.1-4.8,0.2
		c-1.8,0.3-3.8,0.3-5.8,0c-2-0.3-4.1-0.3-6.2,0c-1.2,0-2.5-0.1-3.7-0.2c-1.2-0.2-2.6-0.1-4.2,0.2c-1.8,0.3-3.8,0.2-5.8-0.2
		c-2-0.5-3.9-0.4-5.8,0.2h-1.8c-0.3,0-0.6-0.1-0.9-0.2c-0.3-0.2-0.8-0.2-1.4-0.2c-0.9,0-1.5,0.2-1.8,0.5c-1.2,0-1.8,0.3-1.8,0.9
		c-1.8,1.8-2.6,4.1-2.3,6.9l0.9,4.2c0,1.5-0.1,2.9-0.2,4.1c-0.2,1.2-0.1,2.6,0.2,4.1c0,0.9-0.2,1.9-0.5,3c-0.3,1.1-0.5,2.1-0.5,3
		c-0.3,1.2-0.3,2.3,0,3.2c0.3,0.9,0.6,2,0.9,3.2v8.3c-0.6,2.5-0.9,4.5-0.9,6c0,1.5,0.3,3.5,0.9,6v4.6c0,1.2-0.2,2.6-0.5,4.1
		c-0.3,4-0.3,8,0,12c0.3,1.5,0.5,3.1,0.5,4.6v4.6c-0.6,2.5-0.9,4.3-0.9,5.5c0,1.6,0.3,3.5,0.9,6c0,1.5-0.1,3-0.2,4.4
		c-0.2,1.4-0.1,2.8,0.2,4.4c0,1.2-0.2,2.3-0.5,3.2c-0.3,0.9-0.5,1.8-0.5,2.8c0,1.2,0.2,2.4,0.5,3.5c0.3,1.1,0.5,2.2,0.5,3.5
		c-0.3,1.2-0.4,2.5-0.2,3.7c0.2,1.2,0.2,2.6,0.2,4.1c-0.6,2.5-0.9,4.5-0.9,6c0,1.5,0.3,3.5,0.9,6v8.8c-0.6,2.5-0.9,4.5-0.9,6
		c0,1.5,0.3,3.5,0.9,6v8.8c-0.3,1.2-0.5,2.3-0.7,3.2c-0.2,0.9-0.2,1.8-0.2,2.8c0,1.5,0.3,3.5,0.9,6v8.8c-0.6,2.5-0.9,4.5-0.9,6
		c0,1.5,0.3,3.5,0.9,6v8.8c-0.6,2.5-0.9,4.5-0.9,6c0,1.5,0.3,3.5,0.9,6c0,1.5-0.1,2.9-0.2,4.2c-0.2,1.2-0.1,2.5,0.2,3.7
		c0,1.2-0.2,2.4-0.5,3.5c-0.3,1.1-0.5,2.2-0.5,3.5c0,1.5,0.3,3.9,0.9,6.9c0,1.2-0.1,2.4-0.2,3.5c-0.2,1.1-0.1,2.2,0.2,3.5
		c0,1.2-0.2,2.4-0.5,3.5c-0.3,1.1-0.5,2.1-0.5,3c-0.3,1.6-0.2,2.8,0.2,3.7c0.5,0.9,0.7,2.2,0.7,3.7c-0.3,0.9-0.4,1.9-0.2,3
		c0.2,1.1,0.2,2.1,0.2,3c0,3.1-0.3,5.4-0.9,6.9c-0.6,0.6-0.6,1.2,0,1.8c0.6,1.2,0.9,2.5,0.9,3.7v4.2c-0.3,2.2,0.8,3.5,3.2,4.1
		c2.8,0.9,5.2,1.1,7.4,0.5c1.2-0.6,2.5-0.8,3.7-0.5c2.5,0.6,4.8,0.8,7.1,0.5c2.3-0.3,4.7-0.2,7.2,0.5c0.6,0,1.2-0.2,1.8-0.5
		c2.5-0.9,4.9-0.9,7.4,0h1.8c1.2-0.3,2.4-0.4,3.5-0.2c1.1,0.2,2.2,0.2,3.5,0.2c0.6,0.3,1.4,0.5,2.3,0.5c1.8-0.6,3.7-0.9,5.5-0.9
		c1.8,0,3.8,0.2,6,0.5h6.5c1.8,0.6,3.8,0.6,6,0c1.5-0.9,3.4-1.1,5.5-0.5c0.6,0.3,1.5,0.5,2.8,0.5c1.2-0.3,2.4-0.4,3.5-0.2
		c1.1,0.2,2.2,0.2,3.5,0.2c0.3,0.3,1.1,0.5,2.3,0.5c4.3-0.9,8-1.1,11.1-0.5c0.9,0.3,1.9,0.4,3,0.2c1.1-0.2,2.2-0.2,3.5-0.2
		c2.8,0.6,5.4,0.5,7.8-0.5c0.6-0.3,1.2-0.4,1.6-0.2c0.5,0.2,1,0.2,1.6,0.2l12.9,0.9c0.9,0,1.7-0.2,2.3-0.5c2.5-0.6,4.6-0.8,6.5-0.5
		c0.6,0.3,1.4,0.5,2.3,0.5c1.5-0.3,2.8-0.4,3.9-0.2c1.1,0.2,2.2,0.2,3.5,0.2c0.9,0.3,2,0.3,3.2,0c1.8,0,2.8-0.9,2.8-2.8
		c0.6-3.1,0.8-5.4,0.5-6.9c-0.3-2.5-0.2-5,0.2-7.6c0.5-2.6,0.2-5.1-0.7-7.6v-1.4c0.3-3.4,0.5-6.6,0.7-9.7c0.1-3.1-0.1-6.3-0.7-9.7
		v-2.3v-0.9l0.5-0.9c0-1.5-0.8-2.6-2.3-3.2c-0.6-0.3-1.7-0.5-3.3-0.5c-2.2,0.6-4.1,0.5-5.6-0.5c-1.6-0.6-2.8-0.6-3.7,0
		c-1.6,0.9-3.6,1.1-6.1,0.5h-5.1c-2.2,0.6-4,0.5-5.6-0.5c-0.6,0-1.2-0.1-1.6-0.2c-0.5-0.2-1-0.1-1.6,0.2c-1.5,0.3-2.8,0.5-3.9,0.7
		c-1.1,0.2-2.4,0.1-3.9-0.2c-1.5-0.6-3.1-0.6-4.6,0c-2.1,0.6-4,0.5-5.5-0.5c-1.2-0.3-2.4-0.3-3.7,0c-1.5,0.9-3.4,1.1-5.5,0.5h-5.5
		c-2.1,0.6-4,0.5-5.5-0.5c-1.8-0.6-3.4-0.5-4.6,0.5c-1.8,0.3-3.5,0.3-5,0c-2.1-0.6-4.1-0.6-6,0c-2.1,0.6-4,0.5-5.5-0.5
		c-1.2-0.3-2.4-0.3-3.7,0c-0.3,0.3-0.8,0.5-1.4,0.5c-2.4,0.6-3.8-0.2-4.1-2.3c-0.9-3.1-1.1-5.7-0.5-7.8c0.3-2.1,0.3-4.4,0-6.9
		c0-1.8-0.1-3.7-0.2-5.5c-0.2-1.8-0.2-3.8-0.2-6c0-0.9,0.2-1.5,0.5-1.8c0.3-2.5,0.3-5.1,0-7.8c-0.3-2.1-0.5-4.1-0.5-6v-5.5
		c0.3-1.5,0.5-3.1,0.7-4.6c0.2-1.5,0.2-3.1,0.2-4.6c0-2.1,0.9-3.2,2.8-3.2c0.9,0,1.5,0.2,1.8,0.5c0.6,0.3,1.8,0.2,3.7-0.5
		c2.2-1.2,4.8-1.4,7.9-0.5c1.5,0.6,3.2,0.8,5.1,0.5c1.8-0.3,3.7-0.2,5.5,0.5c0.9,0,1.5-0.1,1.8-0.5c1.5-0.6,3-0.9,4.4-0.9
		c1.4,0,2.8,0.2,4.4,0.5c0.9,0.3,2.1,0.5,3.7,0.5c2.1,0,3.7,0.2,4.6,0.5c1.8,0,3.4-0.1,4.6-0.5c1.8-1.2,4-1.4,6.5-0.5
		c2.5,0.6,4.5,0.8,6,0.5h2.8c2.1,0.6,4.9,0.2,8.3-1.4c1.5-0.9,2.5-2.1,2.8-3.7c0.6-1.5,0.8-3.2,0.7-5.1c-0.2-1.8-0.2-3.5-0.2-5.1
		c-0.3-2.2-0.5-4.2-0.7-6.2c-0.2-2,0.1-4.1,0.7-6.2v-2.8c0-1.2-0.1-2.5-0.2-3.7c-0.2-1.2-0.2-2.6-0.2-4.2c0-1.5-0.1-3.1-0.2-4.8
		c-0.2-1.7,0.1-3.3,0.7-4.8c0.3-3.1-0.8-4.8-3.2-5.1c-0.9-0.3-2.5-0.5-4.6-0.5c-1.8,0.6-3.7,0.6-5.5,0c-1.8-0.6-3.2-0.9-4.2-0.9
		c-1.8,0.6-3.7,0.9-5.5,0.9H553c-1.8,0.6-3.8,0.5-6-0.5c-0.6,0-1.3-0.1-2.1-0.2c-0.8-0.2-1.5-0.2-2.1-0.2c-1.5,0.6-3.2,0.9-5.1,0.9
		h-4.6c-2.5,0.6-4.8,0.6-6.9,0c-1.5-0.9-3.5-1.1-6-0.5c-1.8,0.3-3.7,0.5-5.5,0.7c-1.8,0.2-3.7,0.2-5.5,0.2c-2.8,0-4.3-1.2-4.6-3.7
		c-0.6-2.5-0.9-4.8-0.7-6.9c0.2-2.2,0.1-4.5-0.2-6.9v-0.9l0.5-0.9c0.6-2.5,0.6-4.6,0-6.5c0-2.5-0.2-5.1-0.5-7.8
		c-0.3-2.8,0-5.4,0.9-7.9v-3.2l-0.9-10.2c-0.3-1.8-0.2-3.6,0.2-5.3c0.5-1.7,1-3.6,1.6-5.8h3.7l10.1-0.9c2.2,0,3.8,0.2,5.1,0.5
		c4.6,0.6,9.2,0.6,13.8,0c1.2-0.3,3.4-0.5,6.5-0.5c4,0.9,8.8,1.1,14.3,0.5c0.9-0.3,1.8-0.5,2.8-0.5h3.2c4.6,0.9,9.7,1.1,15.2,0.5
		c2.2-0.3,4.3-0.3,6.5,0c3.1,0.6,6.1,0.8,9.2,0.5c3.1-0.3,6.1-0.8,9.2-1.4c1.8,0,2.8-0.9,2.8-2.8c0-3.1,0.2-5.4,0.5-6.9
		c0-1.8-0.2-3.2-0.5-4.2C607.6,266.3,607.6,263.8,607.9,261.1 M893,518c3.1,0,3.8-1.5,2.3-4.6l-0.5-0.9c-1.5-1.2-2.8-3.5-3.7-6.9
		l-2.8-5.1l-1.8-2.8c-0.6-2.2-1.2-4.2-1.8-6.2c-0.6-2-1.7-3.9-3.2-5.8c-0.3-0.3-0.5-0.6-0.5-0.9l-5.5-11.5l-1.4-4.6
		c-0.3-1.2-0.6-2.3-0.9-3.2s-1.1-1.7-2.3-2.3c-1.8-1.8-2.9-3.5-3.2-5.1c-0.3-0.9-0.6-1.8-0.9-2.5c-0.3-0.8-0.8-1.6-1.4-2.5l-1.8-4.6
		c-0.6-1.5-1.2-2.8-1.8-3.9c-0.6-1.1-1.2-2.2-1.8-3.5c-1.2-1.2-1.8-2.5-1.8-3.7c-0.3-1.5-1.4-3.5-3.2-6l-4.1-6.5
		c-0.9-3.1-2.1-5.5-3.7-7.4l-0.9-3.7c-0.6-1.5-1.2-3.1-1.6-4.6c-0.5-1.5-1.3-3.1-2.5-4.6c-1.2-1.5-2.2-3.2-3-4.8
		c-0.8-1.7-1.5-3.3-2.1-4.9c-1.5-2.1-2.4-4.4-2.7-6.9c-0.6-3.1-2-5.8-4.1-8.3c-1.2-0.6-2-1.5-2.3-2.8c-0.9-2.8-2.3-5.5-4.1-8.3
		c-0.6-0.6-0.9-1.4-0.9-2.3c-0.6-1.5-1.2-2.9-1.8-4.1c-0.6-1.2-1.2-2.6-1.8-4.1c-0.3-0.6-0.6-1.1-0.9-1.4c-0.3-0.3-0.4-0.8-0.4-1.4
		c-0.6-2.8-2.2-5.5-4.6-8.3c-0.6-0.6-1.2-1.3-1.6-2.1c-0.5-0.8-0.8-1.5-1.2-2.1c-0.6-1.5-1.2-2.9-1.8-4.2c-0.6-1.2-1.2-2.6-1.8-4.2
		l-0.9-2.8c-0.6-2.1-1.2-4.1-1.8-6c-0.6-1.8-1.7-3.5-3.2-5.1c-4-5.5-6.4-11.1-7.3-16.6c-0.6-2.8-1.7-4.9-3.2-6.5
		c-1.2-0.9-2.2-2.3-2.8-4.1c-0.9-2.2-2.1-4.3-3.7-6.5c-0.3-0.6-0.6-1.1-0.9-1.4c-0.3-0.3-0.4-0.8-0.4-1.4c-0.6-1.8-1.3-3.5-2.1-5.1
		c-0.8-1.5-1.6-3.1-2.5-4.6c-0.6-0.6-0.9-1.4-0.9-2.3c-0.9-2.5-2-4.5-3.2-6c-0.7-0.9-1.3-1.9-2-2.8l-3.9-7.6c0-0.1-0.1-0.1-0.1-0.2
		l-0.4-1.4c-0.9-1.2-1.7-3.2-2.3-6c-0.9-3.1-2.3-6.3-4.1-9.7c-0.4-0.6-0.8-1.1-1.2-1.6c-0.2-1.7-0.8-3.1-2.2-3.9
		c-0.8-0.8-1.5-1.1-2.2-1c-0.7-0.1-1.5,0.2-2.2,1c-1.3,0.8-2,2.2-2.2,3.9c-0.4,0.5-0.8,1-1.2,1.6c-1.8,3.4-3.2,6.6-4.1,9.7
		c-0.6,2.8-1.4,4.8-2.3,6l-0.4,1.4c0,0.1-0.1,0.1-0.1,0.2l-3.9,7.6c-0.7,0.9-1.3,1.9-2,2.8c-1.2,1.5-2.3,3.5-3.2,6
		c0,0.9-0.3,1.7-0.9,2.3c-0.9,1.5-1.8,3.1-2.5,4.6c-0.8,1.5-1.5,3.2-2.1,5.1c0,0.6-0.1,1.1-0.4,1.4c-0.3,0.3-0.6,0.8-0.9,1.4
		c-1.5,2.2-2.8,4.3-3.7,6.5c-0.6,1.8-1.5,3.2-2.8,4.1c-1.5,1.5-2.6,3.7-3.2,6.5c-0.9,5.5-3.4,11.1-7.3,16.6
		c-1.5,1.5-2.6,3.2-3.2,5.1c-0.6,1.8-1.2,3.9-1.8,6l-0.9,2.8c-0.6,1.5-1.2,2.9-1.8,4.2c-0.6,1.2-1.2,2.6-1.8,4.2
		c-0.3,0.6-0.7,1.3-1.2,2.1c-0.5,0.8-1,1.5-1.6,2.1c-2.4,2.8-4,5.5-4.6,8.3c0,0.6-0.1,1.1-0.4,1.4c-0.3,0.3-0.6,0.8-0.9,1.4
		c-0.6,1.5-1.2,2.9-1.8,4.1c-0.6,1.2-1.2,2.6-1.8,4.1c0,0.9-0.3,1.7-0.9,2.3c-1.8,2.8-3.2,5.5-4.1,8.3c-0.3,1.2-1.1,2.2-2.3,2.8
		c-2.1,2.5-3.5,5.2-4.1,8.3c-0.3,2.5-1.2,4.8-2.8,6.9c-0.6,1.5-1.3,3.2-2.1,4.9c-0.8,1.7-1.8,3.3-3,4.8c-1.2,1.5-2.1,3.1-2.5,4.6
		c-0.5,1.5-1,3.1-1.6,4.6l-0.9,3.7c-1.5,1.8-2.8,4.3-3.7,7.4l-4.1,6.5c-1.8,2.5-2.9,4.5-3.2,6c0,1.2-0.6,2.5-1.8,3.7
		c-0.6,1.2-1.2,2.4-1.8,3.5c-0.6,1.1-1.2,2.4-1.8,3.9l-1.8,4.6c-0.6,0.9-1.1,1.8-1.4,2.5c-0.3,0.8-0.6,1.6-0.9,2.5
		c-0.3,1.5-1.4,3.2-3.2,5.1c-1.2,0.6-2,1.4-2.3,2.3s-0.6,2-0.9,3.2l-1.4,4.6l-5.5,11.5c0,0.3-0.2,0.6-0.5,0.9
		c-1.5,1.8-2.6,3.8-3.2,5.8c-0.6,2-1.2,4.1-1.8,6.2l-1.8,2.8l-2.8,5.1c-0.9,3.4-2.1,5.7-3.7,6.9l-0.5,0.9c-1.5,3.1-0.8,4.6,2.3,4.6
		h1.4c1.3-0.3,2.6-0.4,3.8-0.3c0.2,0.1,0.2,0.3,0.5,0.3h1.4c0.7,0.1,1.5,0.2,2.2,0.5h1.8c1.1-0.4,2.3-0.3,3.5-0.4
		c1.5,0.5,2.9,0.6,4.4,0c0.5,0,0.9-0.1,1.4-0.1c0.9,0,1.7,0.1,2.6,0.1h2.4h2.6c0.6,0,1.2,0.1,1.6,0.2c0.5,0.2,1,0.2,1.6,0.2
		c1-0.1,2.1-0.1,3.1-0.2c1,0.2,2,0.4,3,0.5c1.5,0.2,3.1-0.1,4.6-0.7h6.7c0,0,0,0,0.1,0c0,0,0.1,0,0.1,0h5.1c2.2,0,3.7-0.7,5-1.7
		c0-0.1,0-0.1,0-0.2c0.6-2.1,1.1-3.4,1.4-3.7c1.5-2.5,2.7-4.8,3.5-6.9c0.8-2.2,1.8-4.5,3-6.9c1.5-2.5,2.8-5,3.9-7.6
		c1.1-2.6,2.2-5.2,3.5-7.6c0.6-1.5,1.2-2.9,1.8-4.2c0.6-1.2,1.2-2.6,1.8-4.2c0.6-1.5,1.1-2.3,1.4-2.3c0.6-0.6,1.2-2,1.8-4.1
		c0-0.9,0.6-2.3,1.8-4.1l5.1-10.2c0.9-3.1,2.3-5.8,4.2-8.3c0.9-1.2,1.4-2.6,1.4-4.1c0-2.1,0.8-3.8,2.3-5.1c0.6-0.6,1.2-1.5,1.6-2.5
		c0.5-1.1,1-2.1,1.6-3c0.6-2.5,1.5-4.6,2.8-6.5l1.4-2.8l1.8-4.6l1.4-2.3c0.3-2.2,1.2-4.2,2.8-6l1.4-3.7c0.3-0.6,0.5-1.2,0.5-1.6
		c0-0.5,0.3-1,0.9-1.6c1.5-2.1,2.7-4.3,3.5-6.5c0.8-2.1,1.8-4.4,3-6.9l2.9-5.6c0.5-0.7,1-1.3,1.5-2c1-1.6,1.8-3.5,2.4-5.5l2.5-4.8
		c0-0.3,0.2-0.6,0.5-0.9c0.6-4,2-6.9,4.1-8.8c0.6-0.6,0.9-1.8,0.9-3.7c0-0.3,0.1-0.5,0.1-0.7c0.2-0.3,0.4-0.6,0.7-0.9
		c0.6-0.8,1.2-1.6,1.8-2.5c0.6-0.9,1.2-1.4,1.9-1.5c0.7,0.1,1.3,0.6,1.9,1.5c0.6,0.9,1.2,1.8,1.8,2.5c0.2,0.3,0.4,0.6,0.7,0.9
		c0,0.3,0.1,0.4,0.1,0.7c0,1.8,0.3,3.1,0.9,3.7c2.2,1.8,3.5,4.8,4.1,8.8c0.3,0.3,0.5,0.6,0.5,0.9l2.5,4.8c0.6,2.1,1.4,3.9,2.4,5.5
		c0.5,0.7,1,1.4,1.5,2l2.9,5.6c1.2,2.5,2.2,4.8,3,6.9c0.8,2.2,1.9,4.3,3.5,6.5c0.6,0.6,0.9,1.1,0.9,1.6c0,0.5,0.2,1,0.5,1.6l1.4,3.7
		c1.5,1.8,2.5,3.9,2.8,6l1.4,2.3l1.8,4.6l1.4,2.8c1.2,1.8,2.2,4,2.8,6.5c0.6,0.9,1.2,1.9,1.6,3c0.5,1.1,1,1.9,1.6,2.5
		c1.5,1.2,2.3,2.9,2.3,5.1c0,1.5,0.5,2.9,1.4,4.1c1.8,2.5,3.2,5.2,4.2,8.3l5.1,10.2c1.2,1.8,1.8,3.2,1.8,4.1
		c0.6,2.2,1.2,3.5,1.8,4.1c0.3,0,0.8,0.8,1.4,2.3c0.6,1.5,1.2,2.9,1.8,4.2c0.6,1.2,1.2,2.6,1.8,4.2c1.2,2.5,2.4,5,3.5,7.6
		c1.1,2.6,2.4,5.1,3.9,7.6c1.2,2.5,2.2,4.8,3,6.9c0.8,2.2,1.9,4.5,3.5,6.9c0.3,0.3,0.8,1.5,1.4,3.7c0,0.1,0,0.1,0,0.2
		c1.3,1,2.9,1.7,5,1.7h5.1c0,0,0.1,0,0.1,0c0,0,0,0,0.1,0h6.7c1.5,0.6,3.1,0.8,4.6,0.7c1-0.1,2-0.3,3-0.5c1,0.1,2.1,0.1,3.1,0.2
		c0.6,0,1.2-0.1,1.6-0.2c0.5-0.2,1-0.2,1.6-0.2h2.6h2.4c0.9,0,1.8-0.1,2.6-0.1c0.5,0,0.9,0.1,1.4,0.1c1.5,0.6,3,0.6,4.4,0
		c1.2,0.1,2.4,0,3.5,0.4h1.8c0.7-0.3,1.4-0.3,2.2-0.5h1.4c0.2-0.1,0.3-0.2,0.5-0.3c1.2,0,2.5,0,3.8,0.3H893z M1078.3,381.9
		c0.3,1.5,0.2,3.5-0.5,6c-0.6,1.2-0.9,2.4-0.9,3.5c0,1.1-0.2,2.2-0.5,3.5c-0.3,0.6-0.4,1.2-0.2,1.6c0.2,0.5,0.1,1-0.2,1.6
		c-0.9,1.8-1.6,3.7-2.1,5.5c-0.5,1.8-1.1,3.7-2.1,5.5c-0.6,0.6-1,1.5-1.2,2.5c-0.2,1.1-0.4,2.1-0.7,3c-0.6,0.9-1.2,1.8-1.8,2.5
		c-0.6,0.8-1.2,1.6-1.8,2.5l-0.9,2.8c-0.6,1.8-1.5,3.2-2.8,4.1c-2.5,1.8-3.8,3.9-4.1,6c-0.3,0.9-1.4,2-3.2,3.2
		c-2.2,0.9-3.4,2.3-3.7,4.1c-0.9,1.5-2.2,2.6-3.7,3.2c-2.2,0.9-3.9,2.3-5.1,4.2c-0.9,1.5-2.5,2.6-4.6,3.2c-2.5,0.6-4.3,1.7-5.5,3.2
		c-0.6,1.5-1.5,2.3-2.8,2.3c-2.2,0.3-4,0.9-5.5,1.8c-1.5,0.9-3.2,1.6-5.1,2.2l-5.5,2.2l-9.2,2.2c-2.5,0.6-4.3,0.6-5.5,0
		c-1.2-0.3-2.5-0.1-3.7,0.4c-1.5,0.6-3.7,0.9-6.5,0.9c-0.9-0.6-2.2-0.6-3.7,0c-1.2,0-2.5,0.1-3.7,0.2c-1.2,0.2-2.5-0.1-3.7-0.7
		c-1.2-0.3-2.5-0.3-3.7,0c-0.6,0-1.1,0.1-1.4,0.2c-0.3,0.2-0.8,0.2-1.4,0.2c-1.8-0.6-3.6-0.8-5.3-0.5c-1.7,0.3-3.5,0.5-5.3,0.5
		c-2.5,0-4.1-1.4-5.1-4.1v-5.5c0-0.9,0.1-1.9,0.2-3c0.1-1.1,0.2-2.1,0.2-3v-4.6c0-0.6-0.1-1.3-0.2-2.1c-0.2-0.8-0.2-1.5-0.2-2.1
		v-6.5c0-2.2,0.3-4.5,0.9-6.9c0-1.2-0.2-2.1-0.5-2.8c-0.9-5.5-0.9-11.1,0-16.6c0.3-0.6,0.4-1.4,0.2-2.3c-0.2-0.9-0.2-1.7-0.2-2.3
		c0-0.6-0.1-1.3-0.2-2.1c-0.2-0.8-0.2-1.5-0.2-2.1v-6.5c0-2.1,0.3-4.5,0.9-6.9c0-1.2-0.2-2.2-0.5-2.8c-0.9-5.5-0.9-11.1,0-16.6
		c0.3-1.2,0.3-2.6,0-4.1c-0.9-5.5-0.9-11.1,0-16.6v-4.6c-0.9-5.5-0.9-10.8,0-15.7c0.3-1.5,0.3-3.2,0-5.1c-0.9-4.9-0.9-10,0-15.2v-6
		c-0.3-1.8-0.5-3.5-0.5-5.1v-5.5c0.3-2.8,2-4.1,5.1-4.1c2.2-0.3,4.2-0.5,6.2-0.7c2-0.1,4.1,0.1,6.2,0.7c1.8,0.3,3.6,0.4,5.3,0.2
		c1.7-0.2,3.5-0.4,5.3-0.7c2.1-0.3,4.2-0.3,6.2,0c2,0.3,4.1,0.6,6.2,0.9c0.9,0,1.8,0.1,2.5,0.2c0.8,0.2,1.6,0.2,2.5,0.2l3.2,0.9
		c3.1,0.6,5.4,0.9,6.9,0.9c1.8-0.3,3.5-0.2,5.1,0.5c1.5,0.6,3.1,1.4,4.6,2.3c0.6,0.3,1.1,0.6,1.4,0.9c0.3,0.3,0.8,0.5,1.4,0.5
		c1.5,0.3,2.9,0.9,4.1,1.6c1.2,0.8,2.6,1.6,4.1,2.5l2.3,1.4c1.5,0.6,2.9,1.4,4.1,2.3l3.7,2.8c2.5,2.5,4.9,4.3,7.4,5.5
		c1.2,0.3,2.5,1.4,3.7,3.2c0.3,0.6,0.5,1.1,0.7,1.6c0.2,0.5,0.5,1,1.2,1.6c1.5,1.2,2.8,2.6,3.9,4.2c1.1,1.5,2.2,3.1,3.5,4.6
		c0.6,0.9,1.2,1.8,1.8,2.5c0.6,0.8,1.2,1.6,1.8,2.5l3.7,7.4c0.6,1.2,1.1,2.4,1.4,3.5c0.3,1.1,0.8,2.2,1.4,3.5
		c0.6,0.6,0.9,1.4,0.9,2.3c0,1.5,0.2,2.9,0.7,4.1c0.5,1.2,1,2.6,1.6,4.2c0.6,1.5,1.1,3.1,1.4,4.6l0.9,4.6c0.3,0.9,0.3,1.8,0,2.8
		C1077.7,370.8,1077.7,376.4,1078.3,381.9 M1131.8,387c1.2-4.3,1.4-8.3,0.5-12c-0.6-1.8-0.8-3.4-0.5-4.6c0.3-1.5,0.5-3.1,0.5-4.6
		v-5.1c-0.3-1.2-0.5-2.4-0.5-3.5c0-1.1-0.3-2.2-0.9-3.5c0-0.3-0.1-0.7-0.2-1.2c-0.2-0.5-0.2-1-0.2-1.6c-0.9-3.4-1.7-6.6-2.3-9.7
		c-0.6-3.1-1.6-6.3-2.8-9.7l-1.4-5.1c0-1.5-0.5-3.1-1.4-4.6c-1.3-1.8-2.3-4.3-3.3-7.4c-0.3-0.6-0.5-1.2-0.7-1.6
		c-0.2-0.5-0.5-1-1.2-1.6c-1.3-1.5-2.4-3.2-3.5-5.1c-1.1-1.8-1.9-3.7-2.6-5.5l-0.5-0.9c-1.2-1.8-2.5-3.6-3.7-5.3
		c-1.2-1.7-2.3-3.5-3.3-5.3c-0.3-0.9-0.9-1.5-1.9-1.8c-1.9-1.8-3.3-3.8-4.2-6c-0.6-0.9-1.2-1.7-1.9-2.3l-1.8-1.8
		c-0.6-0.3-1.2-0.6-1.8-0.9l-1.4-1.8c-0.6-1.2-1.2-2-1.8-2.3c-3.4-2.2-6.3-4.6-8.8-7.4c-1.5-1.2-3.1-2.3-4.6-3.2
		c-1.5-0.9-3.1-2-4.6-3.2l-2.8-2.3l-2.3-1.8c-1.5-0.9-3.2-1.8-4.8-2.8c-1.7-0.9-3.3-1.7-4.8-2.3l-6-2.8l-3.7-1.8
		c-1.8-1.5-3.8-2.8-6-3.7c-2.2-0.9-4.5-1.8-6.9-2.8c-0.6-0.3-1.7-0.5-3.2-0.5c-1.8,0-3.4-0.5-4.6-1.4c-3.1-1.2-5.4-2-6.9-2.3
		l-11.5-0.9l-6.9-0.9c-4.9-0.9-10.3-1.1-16.1-0.5c-2.2,0-4.2,0.1-6.2,0.2c-2,0.2-4.1-0.1-6.2-0.7c-0.3-0.3-0.6-0.5-0.9-0.5l-8.3,0.9
		H957c-1.5,0-3.1-0.1-4.6-0.5c-0.6-0.3-1.5-0.5-2.8-0.5c-2.5,0.3-4.9,0.3-7.4,0c-2.5-0.3-4.9-0.2-7.4,0.5l-0.9,0.5l-0.9-0.5
		c-1.2-0.6-2.5-0.8-3.7-0.7c-1.2,0.2-2.6,0.2-4.1,0.2h-4.1c-1.2,0-2.6,0.2-4.2,0.5c-1.2,0-2.3,0.1-3.2,0.2c-0.9,0.2-2-0.1-3.2-0.7
		c-1.8-0.3-3.8,0-6,0.9c-1.8,0.6-2.6,2-2.3,4.1v3.2c0,0.9,0.2,1.8,0.5,2.8c0,1.5,0.2,2.6,0.5,3.2c0.6,2.5,0.5,4.6-0.5,6.5
		c-0.6,1.8-0.8,3.2-0.5,4.1c0.6,2.2,0.8,4.1,0.5,6c-0.3,1.8-0.2,3.7,0.5,5.5c0.3,0.9,0.3,1.8,0,2.8c-1.2,3.4-1.4,7.1-0.5,11.1v1.4
		c0,1.8,0.2,3.2,0.5,4.2c0.6,2.5,0.5,4.6-0.5,6.5c-0.6,1.8-0.8,3.2-0.5,4.2l1.4,12c0,0.9-0.2,1.7-0.5,2.3c-1.2,3.1-1.4,6.6-0.5,10.6
		v0.9c0,0.9,0.1,1.9,0.2,3c0.2,1.1,0.2,2.1,0.2,3c0,0.6,0.1,1.2,0.2,1.6c0.2,0.5,0.1,1-0.2,1.6c-1.2,3.1-1.4,6.5-0.5,10.1v1.8
		c0,2.2,0.2,3.7,0.5,4.6c0.6,2.8,0.5,4.9-0.5,6.5c-0.9,1.5-1.1,3.4-0.5,5.5c0.3,0.9,0.5,2.3,0.5,4.2c0,0.9,0.1,1.8,0.2,2.8
		c0.2,0.9,0.2,1.7,0.2,2.3c0,0.9,0.1,1.8,0.2,2.5c0.2,0.8,0.1,1.5-0.2,2.1c-1.2,3.4-1.4,6.2-0.5,8.3v2.3c0,2.5,0.2,4.3,0.5,5.5
		c0.6,2.2,0.5,4-0.5,5.5c-0.9,1.5-1.1,3.5-0.5,6c0.3,0.6,0.5,1.7,0.5,3.2c0,1.2,0.1,2.4,0.2,3.5c0.2,1.1,0.2,2.1,0.2,3
		c0,0.6,0.1,1.2,0.2,1.6c0.2,0.5,0.1,1-0.2,1.6c-1.2,3.1-1.4,6.6-0.5,10.6v0.5c0,0.9,0.1,1.9,0.2,3c0.2,1.1,0.2,2.2,0.2,3.5
		c0,0.6,0.1,1.2,0.2,1.8c0.2,0.6,0.1,1.2-0.2,1.8c-1.2,2.8-1.4,5.7-0.5,8.8v2.3c0,0.9,0.1,1.8,0.2,2.8c0.2,0.9,0.2,2,0.2,3.2
		c0,0.6,0.1,1.2,0.2,1.8c0.2,0.6,0.1,1.2-0.2,1.8c-1.2,3.1-1.4,6.5-0.5,10.2v0.5c0,0.9,0.1,1.9,0.2,3c0.2,1.1,0.2,2.2,0.2,3.5
		c0.6,1.2,0.6,2.3,0,3.2c-1.2,3.1-1.4,6.5-0.5,10.2v1.4c0,0.9,0.1,1.8,0.2,2.8c0.2,0.9,0.2,2,0.2,3.2c0,0.6,0.1,1.2,0.2,1.8
		c0.2,0.6,0.1,1.2-0.2,1.8c-1.2,3.1-1.4,6.3-0.5,9.7v2.8c0,1.5,0.2,2.6,0.5,3.2c0.6,1.8,1.1,2.9,1.4,3.2c0.3,0.3,1.4,0.6,3.2,0.9
		h2.8c0.6,0.3,1.7,0.5,3.2,0.5c2.5,0,4.5,0.1,6,0.5c1.5,0.3,3.8,0.2,6.9-0.5c0.6-0.3,1.8-0.5,3.7-0.5c2.5,0.3,4.7,0.5,6.7,0.7
		c2,0.2,4.2,0.2,6.7,0.2c1.2,0,2.1-0.2,2.8-0.5h8.8c1.5,0.3,3.8,0.5,6.9,0.5h5.1c0.9-0.3,2.6-0.5,5.1-0.5h4.2c1.5,0.3,3.5,0.5,6,0.5
		h5.5l5.1-0.9l0.5,0.5h7.4l5.5-0.9c1.2-0.3,2.3-0.5,3.2-0.7c0.9-0.2,2-0.2,3.2-0.2c0.9,0,2.3-0.3,4.2-0.9c1.5-0.3,2.8-0.6,3.9-0.9
		c1.1-0.3,2.4-0.8,3.9-1.4c1.5-0.3,3-0.6,4.4-0.9c1.4-0.3,2.8-0.8,4.4-1.4c1.2-0.6,2.4-1.2,3.5-1.6c1.1-0.5,2.2-0.8,3.5-1.1
		c2.5-0.6,4.6-1.5,6.5-2.5c1.8-1.1,3.8-1.9,6-2.5l3.2-2.3l1.8-0.9c0.6-0.3,1.4-0.6,2.3-0.9c1.5-0.6,3.1-1.4,4.6-2.3
		c1.5-0.9,3.1-2,4.6-3.2c1.5-0.9,3-2,4.4-3.2c1.4-1.2,2.8-2.3,4.4-3.2l1.8-1.4c0.6-1.2,1.1-1.8,1.4-1.8c2.5-1.8,4.7-3.9,6.7-6
		c2-2.1,4.1-4.5,6.2-6.9l5.5-5.5c2.1-2.1,3.8-4.5,5.1-6.9c0-0.6,0.3-0.9,0.9-0.9c0.6-1.2,1.3-2.3,2.1-3.2c0.8-0.9,1.5-1.8,2.1-2.8
		c0.9-1.8,1.8-3.5,2.8-5.1c0.9-1.5,1.7-3.2,2.3-5.1v-0.9l0.5-0.9c1.8-1.8,3.2-4.5,4.2-7.8c0-0.9,0.5-1.7,1.4-2.3
		c0.6-1.2,1.2-3.1,1.8-5.5c0.3-0.9,0.7-1.8,1.1-2.8c0.5-0.9,0.8-1.8,1.2-2.8c0.6-3.1,1.2-5.4,1.8-6.9c0.6-2.5,0.9-4.4,0.9-6
		c0-1.5,0.5-3.2,1.6-5.1c1.1-0.9,1.6-2.6,1.6-5.1c-0.6-1.5-0.8-3-0.5-4.4C1131.2,390,1131.5,388.5,1131.8,387 M1199.2,467.7
		c-0.6-2.1-0.5-4.5,0.5-6.9v-1.4c-0.3-1.5-0.5-2.9-0.5-4.1v-4.6c0-2.1-0.2-3.7-0.5-4.6v-3.2c0.6-1.2,0.9-2.4,0.9-3.5
		c0-1.1-0.2-2.2-0.5-3.5v-5.1c0-2.5-0.2-4.3-0.5-5.5v-2.8c0.9-2.2,1.1-4.3,0.5-6.5v-6.5c0-2.1-0.2-3.8-0.5-5.1
		c0-1.8,0.2-3.2,0.5-4.2c0-0.6,0.1-1.1,0.2-1.4c0.2-0.3,0.2-0.8,0.2-1.4c-0.3-1.5-0.5-3.1-0.7-4.8c-0.2-1.7-0.1-3.3,0.2-4.8
		c0.3-1.5,0.2-3.2-0.2-5.1c-0.5-1.8-0.2-3.5,0.7-5.1c0.3-0.3,0.3-0.7,0-1.2c-0.3-0.5-0.5-1-0.5-1.6v-6.9c0-0.6,0.1-1.1,0.2-1.4
		c0.2-0.3,0.1-0.8-0.2-1.4c-0.3-1.5-0.5-2.9-0.5-4.2c0-1.2,0.3-2.5,0.9-3.7v-0.9c-0.3-1.8-0.5-3.7-0.5-5.5v-6c0-0.6-0.1-1.2-0.2-1.6
		c-0.2-0.5-0.2-1-0.2-1.6v-2.3c0.9-1.8,1.1-4,0.5-6.5v-6.5c0-2.2-0.2-3.8-0.5-5.1c0-1.8,0.2-3.2,0.5-4.1c0.3-0.9,0.5-2,0.5-3.2
		c-0.3-1.5-0.5-3.1-0.7-4.6c-0.2-1.5-0.1-3.1,0.2-4.6c0.3-1.2,0.2-2.5-0.5-3.7c0-1.8,0.2-3.2,0.5-4.1c0.3-0.9,0.5-2.3,0.5-4.2
		c-0.3-1.5-0.5-3.8-0.5-6.9c0-2.8-0.2-4.9-0.5-6.5v-2.8c0.9-1.5,1.1-3.4,0.5-5.5v-7.8c0-1.8-0.2-3.2-0.5-4.2v-2.8
		c0.9-2.1,1.1-4.5,0.5-6.9v-16.6c-1.8-1.5-4.3-2.3-7.4-2.3c-3.4,0-6.8,0.2-10.2,0.5c-3.4,0.3-6.8,0.2-10.1-0.5h-1.8
		c-3.1-0.3-6.1-0.2-9,0.2c-2.9,0.5-5.9,0.4-9-0.2c-2.5,0-4.3,0.6-5.5,1.8c-0.9,0.9-1.4,2.3-1.4,4.2c0.6,1.8,0.8,3.8,0.7,5.8
		c-0.2,2,0.1,3.9,0.7,5.8c0.3,0.9,0.2,2-0.5,3.2c-0.9,3.1-1.1,5.5-0.5,7.4c0.6,0.9,0.6,1.7,0,2.3c-0.3,0.9-0.3,1.8,0,2.8
		c0.3,0.9,0.5,1.8,0.5,2.8c0.6,1.8,0.8,3.1,0.5,3.7c-1.2,3.4-1.5,7.2-0.9,11.5c-0.3,1.2-0.2,3.1,0.5,5.5c0.6,2.5,0.6,4.3,0,5.5
		c-0.9,3.1-1.1,5.7-0.5,7.8c0.6,0.6,0.6,1.4,0,2.3c-0.3,0.9-0.2,2.3,0.5,4.1c0.9,3.1,0.8,5.7-0.5,7.8c-0.3,1.2-0.5,2.9-0.5,5.1
		c0.6,1.8,0.8,3.7,0.7,5.5c-0.2,1.8,0.1,3.7,0.7,5.5c0.3,0.6,0.2,1.5-0.5,2.8c-0.3,1.6-0.6,2.9-0.9,4.2c-0.3,1.2-0.2,2.6,0.5,4.1
		c0.3,0.6,0.3,1.1,0,1.4c-0.3,1.5-0.2,3.5,0.5,6c0.9,2.2,0.9,4.1,0,6c-1.2,2.8-1.4,5.1-0.5,6.9c0,0.6,0.1,1.1,0.2,1.4
		c0.2,0.3,0.1,0.8-0.2,1.4c-0.3,0.9-0.2,2.3,0.5,4.2c0.9,2.8,0.9,5.2,0,7.4c-0.9,1.5-1.1,3.5-0.5,6c0,0.6,0.1,1.1,0.2,1.4
		c0.2,0.3,0.1,0.8-0.2,1.4c-0.3,0.9-0.3,1.8,0,2.8c0.3,0.9,0.5,1.8,0.5,2.8c0.6,1.5,0.8,2.8,0.5,3.7c-1.2,3.1-1.5,6.8-0.9,11.1
		c0.3,0.9,0.4,1.9,0.2,3c-0.2,1.1-0.1,2.1,0.2,3c0.9,2.2,0.9,4.2,0,6c-1.2,2.8-1.4,5.1-0.5,6.9c0.3,0.9,0.3,1.7,0,2.3
		c-0.3,0.9-0.3,1.8,0,2.8s0.5,1.8,0.5,2.8c0.6,1.8,0.8,3.1,0.5,3.7c-0.6,1.8-1,3.8-1.2,5.8c-0.2,2-0.1,3.9,0.2,5.8
		c-0.3,1.5-0.2,3.2,0.5,5.1c0.6,2.5,0.8,4.3,0.5,5.5c-1.2,2.2-1.5,5.1-0.9,8.8c0.3,0.6,0.3,1.1,0,1.4c-0.3,1.2-0.2,2.8,0.5,4.6
		c0.9,2.5,0.9,4.9,0,7.4c-0.9,1.8-1.1,3.9-0.5,6c0,0.6,0.1,1.2,0.2,1.6c0.2,0.5,0.1,1-0.2,1.6c-0.3,0.9-0.2,2.3,0.5,4.2
		c0.9,2.8,0.9,5.2,0,7.4c-0.9,1.5-1.1,3.4-0.5,5.5v4.6c-0.3,0.9-0.3,1.8,0,2.5c0.3,0.8,0.8,1.6,1.4,2.5c0.9,0.9,1.5,1.4,1.8,1.4
		c3.1,0.6,5.4,0.9,6.9,0.9c3.1,0,5.4,0.1,6.9,0.5c0.6,0,1.1,0.1,1.4,0.2c0.3,0.2,0.8,0.1,1.4-0.2c2.8-0.9,6.3-1.1,10.6-0.5
		c1.2,0.3,2.5,0.4,3.7,0.2c1.2-0.2,2.5-0.1,3.7,0.2c3.1,0,5.4-0.3,6.9-0.9c1.8,0,3.1,0.2,3.7,0.5c2.8,0,4.5-1.1,5.1-3.2
		c0.6-3.1,0.8-5.4,0.5-6.9c-0.6-1.2-0.8-2.3-0.5-3.2c0.6-1.2,0.8-2.5,0.7-3.7c-0.2-1.2-0.2-2.5-0.2-3.7v-5.1c0-2.8-0.2-4.8-0.5-6
		v-2.8c0.9-2.2,1.1-4.2,0.5-6c0-0.6-0.1-1.3-0.2-2.1c-0.2-0.8-0.1-1.5,0.2-2.1C1199.8,472,1199.8,469.9,1199.2,467.7 M1418.8,490
		c-0.3-0.8-0.3-1.5,0-2.1c0.6-1.5,1.1-3.2,1.4-4.9c0.3-1.7,0.2-3.5-0.5-5.4c0.6-1.5,0.7-2.9,0.2-4c-0.5-1.1-0.7-2.4-0.7-4
		c-0.3-0.6-0.5-1.7-0.5-3.3c1.5-3.4,1.8-6.5,0.9-9.3c0.6-1.6,0.7-3,0.2-4.4c-0.5-1.4-0.8-2.9-1.1-4.4c0-0.6-0.1-1.3-0.2-2.1
		c-0.2-0.8,0.1-1.5,0.7-2.1c0.9-2.8,1.1-5.1,0.5-6.9v-0.9c0.6-1.5,0.7-3,0.2-4.4c-0.5-1.4-0.8-2.8-1.1-4.4c0-1.8,0.1-3.1,0.5-3.7
		c0.9-3.1,1.1-5.7,0.5-7.8v-0.9c0.6-1.2,0.7-2.5,0.2-3.7c-0.5-1.2-0.7-2.6-0.7-4.1c-0.6-1.2-0.8-2.3-0.5-3.2
		c1.5-3.4,1.8-6.6,0.9-9.7c0.6-1.5,0.8-2.9,0.5-4.1c-0.3-1.2-0.8-2.6-1.4-4.2c0-1.5,0.1-2.8,0.2-3.7c0.8-3.1,0.8-5.5,0.2-7.4
		l0.5-1.8c0.3-1.5,0.1-3.2-0.7-5.1c0-0.9-0.2-1.8-0.6-2.8c-0.4-0.9-0.4-1.7-0.1-2.3c0.9-1.5,1.5-3.2,1.8-5.1
		c0.3-1.8,0.2-3.5-0.5-5.1c0.6-1.5,0.7-2.8,0.2-3.9c-0.5-1.1-0.7-2.4-0.7-3.9c-0.6-1.5-0.6-2.8,0-3.7c0.9-3.1,1.1-5.8,0.5-8.3v-0.5
		c0.6-1.5,0.7-2.9,0.2-4.1c-0.5-1.2-0.8-2.6-1.1-4.2c0-0.6-0.1-1.2-0.2-1.6c-0.2-0.5-0.1-0.8,0.2-1.2c1.5-3.4,1.8-6.8,0.9-10.1
		c0.6-1.5,0.8-2.8,0.5-3.9c-0.3-1.1-0.8-2.4-1.4-3.9c0-2.2,0.1-3.7,0.2-4.6c0.8-2.8,0.8-5.1,0.2-6.9l0.5-1.8
		c0.6-0.9,0.8-1.8,0.5-2.8l-0.9-2.8c0-0.6-0.2-1.4-0.5-2.3c-0.3-0.9-0.3-1.7,0-2.3c0.6-1.5,1.1-3.2,1.4-4.8c0.3-1.7,0.2-3.5-0.5-5.3
		c0.6-1.2,0.8-2.5,0.5-3.7l-0.9-3.7c-0.6-1.8-0.6-3.7,0-5.5c0.9-2.2,0.9-4.2,0-6l0.5-2.3c0.3-0.9,0.4-1.8,0.2-2.5
		c-0.2-0.8-0.2-1.6-0.2-2.5c-1.2-3.4-1.2-6.1,0-8.3c0.9-1.2,0.5-2.5-1.4-3.7c-0.9-0.6-2.6-0.9-5.1-0.9c-3.4,0.3-6.6,0.5-9.5,0.7
		c-3,0.2-6.1-0.1-9.5-0.7h-2.3c-3.1,0.3-6.1,0.5-9.1,0.7c-3,0.2-5.8-0.1-8.6-0.7c-5.3-0.6-8.2,1.7-8.8,6.9c0,0.9,0.1,1.8,0.2,2.5
		c0.1,0.8,0.1,1.5-0.2,2.1c-0.3,1.5-0.4,2.8-0.2,3.9c0.2,1.1,0.4,2.2,0.7,3.5c0.6,2.2,0.8,3.7,0.5,4.6c-0.6,1.8-0.9,3.6-0.7,5.3
		c0.1,1.7,0.1,3.3-0.2,4.8c0,2.5,0.1,4.5,0.5,6c0.6,2.2,0.8,3.7,0.5,4.6c-0.6,1.6-0.9,3.1-0.7,4.6c0.1,1.5,0.1,3.1-0.2,4.6
		c0,3.1,0.1,5.4,0.5,6.9c0.6,2.2,0.8,3.7,0.5,4.6c-0.6,1.6-0.9,3.2-0.7,5.1c0.1,1.8,0.1,3.5-0.2,5.1c0,2.5,0.1,4.3,0.5,5.5
		c0.6,2.5,0.8,4.1,0.5,5.1l-0.9,9.2c0,3.1,0.1,5.2,0.5,6.5c0.6,2.5,0.8,4.3,0.5,5.5l-0.9,8.8v3.7c0,1.2,0.1,2.5,0.5,3.7
		c0.6,1.8,0.8,3.2,0.5,4.2c-0.6,1.5-0.9,3.2-0.9,5.1v4.6c0,2.5,0.1,4.1,0.5,5.1c0.9,3.7,0.6,8-0.9,12.9l-3.2-0.9
		c-2.2-1.5-3.8-3.4-5.1-5.5c-1.5-2.5-3.8-4.9-6.9-7.4c-2.2-1.8-4.1-3.7-5.8-5.5c-1.7-1.8-3.3-4-4.8-6.5c-0.9-1.5-2.2-2.8-3.7-3.7
		c-1.8-0.9-3.2-2.3-4.1-4.2c-0.9-1.5-2.5-2.9-4.6-4.1c-2.2-1.2-4-2.7-5.5-4.4c-1.5-1.7-3.2-3.3-5.1-4.8l-0.5-1.4
		c-1.2-2.8-3.4-5.2-6.5-7.4c-2.5-1.5-4.2-3.4-5.1-5.5c-0.6-1.5-1.4-2.5-2.3-2.8c-1.5-1.5-2.9-3-4.1-4.4c-1.2-1.4-2.6-2.5-4.2-3.5
		l-2.8-3.2c-0.6-1.2-1.2-2-1.8-2.3l-10.1-8.3c-0.6-0.6-1.2-1.1-1.6-1.4c-0.5-0.3-0.9-0.8-1.2-1.4c-1.2-2.8-3.5-5.5-6.9-8.3
		c-1.2-0.9-2.3-1.9-3.2-3c-0.9-1.1-1.7-2.4-2.3-3.9l-1.4-2.3c-1.2-1.5-2.5-2.8-3.7-3.7c-1.2-0.9-2.6-1.8-4.2-2.8
		c-0.6-0.3-1.5-1.1-2.8-2.3c-1.2-1.2-2.3-2.5-3.2-3.7c-0.9-1.2-2-2.6-3.2-4.2c-0.6-0.6-1.2-1.3-1.8-2.1c-0.6-0.8-1.5-1.3-2.8-1.6
		c-1.5-0.9-2.6-2.1-3.2-3.7c0-0.9-0.3-1.5-0.9-1.8l-1.4-1.8c-1.5-0.6-2.8-1.5-3.7-2.5s-2-2.1-3.2-3c-0.9-0.6-1.7-1.4-2.3-2.3
		c-0.6-0.9-1.2-1.7-1.8-2.3l-4.6-6l-2.3-1.4c-0.6-0.3-1.2-0.3-1.8,0c-0.6,0.3-0.9,0.8-0.9,1.4c-0.3,1.5-0.7,3-1.2,4.4
		c-0.5,1.4-0.4,2.8,0.2,4.4c0.3,1.8,0.3,3.4,0,4.6c-0.6,1.5-0.6,2.9,0,4.2c0.9,2.8,0.9,5.4,0,7.8c-0.6,1.8-0.6,3.7,0,5.5
		c0.6,1.8,0.5,3.5-0.5,5.1c0,0.6,0.2,1.1,0.5,1.4v0.9c0.9,2.5,0.9,5.1,0,7.9c-0.6,1.5-0.6,2.8,0,3.7c0.6,1.8,0.6,3.5,0,5.1
		c-0.6,1.5-0.6,2.9,0,4.1c0.9,2.2,1.1,4.6,0.5,7.4c-0.6,1.2-0.6,3.2,0,6c0,0.9-0.1,1.8-0.2,2.8c-0.2,0.9-0.4,2-0.7,3.2l0.5,1.4
		c0.9,2.5,0.9,5.1,0,7.8c-0.6,0.9-0.6,2.2,0,3.7c0.3,1.8,0.3,3.7,0,5.5c-0.6,1.2-0.6,2.3,0,3.2c0.9,2.8,0.9,5.7,0,8.8
		c-0.3,1.5-0.3,3.2,0,5.1c0.3,1.8,0.2,3.5-0.5,5.1c0,0.6,0.2,1.1,0.5,1.4v0.9c0.9,2.8,0.9,5.2,0,7.4c-0.6,1.6-0.6,2.9,0,4.2
		c0.3,1.8,0.3,3.5,0,5.1c-0.6,1.5-0.6,2.9,0,4.2c0.9,2.2,1.1,4.6,0.5,7.4c-0.6,1.2-0.6,3.1,0,5.5c0,1.2-0.1,2.3-0.2,3.2
		c-0.2,0.9-0.4,2-0.7,3.2l0.5,0.9c0.9,2.8,0.9,5.4,0,7.8c-0.6,1.5-0.6,2.9,0,4.1c0.3,1.8,0.3,3.7,0,5.5c-0.6,1.2-0.6,2.3,0,3.2
		c0.9,2.8,0.9,5.7,0,8.8c-0.3,1.5-0.3,3.2,0,5.1c0.3,1.8,0.2,3.5-0.5,5.1c0,0.6,0.2,1.1,0.5,1.4v0.5c0.9,2.8,0.9,5.5,0,8.3
		c-0.6,1.5-0.6,2.8,0,3.7c0.3,1.8,0.3,3.7,0,5.5c-0.6,1.2-0.6,2.3,0,3.2c0.9,2.8,0.9,5.7,0,8.8c-0.3,1.5-0.3,3.2,0,5.1
		c0.3,1.8,0.2,3.5-0.5,5.1c0,0.6,0.2,1.1,0.5,1.4c0,0.6,0.2,1.1,0.5,1.4c0.6,2.8,0.5,4.9-0.5,6.5c-0.3,1.8-0.3,3.5,0,5.1
		c0.3,1.2,0.3,2.8,0,4.6c-0.6,1.2-0.6,2.3,0,3.2c0.9,3.1,0.9,6.2,0,9.2c-0.9,4,0.8,6.3,5.1,6.9h4.2c0.9-0.6,1.9-0.8,3-0.7
		c1.1,0.2,2.2,0.2,3.5,0.2c1.8,0.3,3.7,0.5,5.5,0.5h8.8c1.2-0.6,2.4-0.8,3.5-0.7c1.1,0.2,2.2,0.2,3.5,0.2c1.8,0.3,3.7,0.5,5.5,0.5
		h5.5c2.2,0.6,3.5-0.3,4.2-2.8c0.6-1.5,1.2-2.9,1.6-4.2c0.5-1.2,0.4-2.6-0.2-4.1v-1.8c0.3-2.8,0.3-5.5,0-8.3c-0.6-1.5-0.6-3.1,0-4.6
		c0-1.2,0.1-2.3,0.2-3.2c0.2-0.9,0.1-1.8-0.2-2.8c0-1.2,0.1-2.3,0.2-3.2c0.2-0.9,0.2-2,0.2-3.2v-1.8c-1.2-3.4-1.2-6.3,0-8.8v-1.4
		c-0.6-0.9-0.9-1.9-0.7-3c0.2-1.1,0.4-2.1,0.7-3v-4.6l-0.9-3.7c-0.3-1.2-0.2-2.3,0.5-3.2c0.6-1.5,0.7-2.8,0.2-3.9
		c-0.5-1.1-0.4-2.2,0.2-3.5v-6.5c0-0.6-0.2-1.2-0.5-1.8c-0.3-0.6-0.5-1.2-0.5-1.8l0.9-10.6v-4.2c0-1.2-0.2-2.6-0.5-4.1
		c-0.3-0.9-0.4-1.8-0.2-2.8c0.2-0.9,0.2-1.8,0.2-2.8c0-0.6,0.1-1.3,0.2-2.1c0.2-0.8,0.1-1.6-0.2-2.5c0-0.9,0.1-1.7,0.5-2.3v-4.2
		c-0.3-2.1-0.5-4.1-0.7-6c-0.2-1.8,0.1-3.8,0.7-6c-0.6-1.2-0.8-2.5-0.5-3.7c0.3-1.2,0.5-2.5,0.5-3.7c0-0.9-0.1-1.8-0.2-2.8
		c-0.2-0.9-0.2-1.8-0.2-2.8c0-0.6-0.1-1.4-0.2-2.3c-0.2-0.9-0.1-1.7,0.2-2.3c0-1.8,0.6-3.2,1.9-4.1c0.9,0,1.7,0.3,2.3,0.9
		c0.6,1.5,1.5,2.8,2.8,3.7c1.2,0.9,2.3,2.2,3.2,3.7l3.2,2.3c2.8,1.2,4.9,3.4,6.5,6.5c0.6,1.2,1.2,2.3,1.8,3.2l2.8,2.3
		c2.2,1.8,4.2,3.7,6,5.5c1.8,1.8,3.5,4,5.1,6.5c1.5,1.8,3.1,3.2,4.6,4.2c1.8,1.2,3.5,2.8,5.1,4.6c1.2,1.8,2.3,3.2,3.2,4.1l4.2,4.6
		l1.4,1.8c0.6,0.3,1.2,0.6,1.8,0.9c1.8,0.3,3.2,1.5,4.2,3.7c0.9,2.5,2.2,4,3.7,4.6c1.5,0.9,3.1,2.3,4.6,4.2c0.6,0.6,1,1.1,1.2,1.4
		c0.1,0.3,0.5,0.6,1.2,0.9c1.2,0.6,2.2,1.4,2.8,2.3l1.8,2.8c1.2,2.8,3.4,5.2,6.5,7.4c1.5,0.9,2.8,1.9,3.7,3c0.9,1.1,2,2.1,3.2,3
		l2.8,2.8c0.9,0.9,1.7,2.2,2.3,3.7l1.4,1.8c0.6,0.3,1.2,0.6,1.9,0.9c1.5,0.9,2.8,2,3.7,3.2c0.6,0.9,1.2,1.8,1.9,2.8l2.3,1.8
		c1.2,0.9,2.3,2,3.2,3.2l1.8,1.8c0.6,0.6,1.4,1.2,2.3,1.8c0.6,0.6,1.1,1,1.4,1.2c0.3,0.2,0.6,0.5,0.9,1.2c0.6,1.8,1.5,3.4,2.8,4.6
		c1.2,1.2,2.5,2.6,3.7,4.1c1.8,1.2,3.2,2.3,4.2,3.2l2.8,2.3l7.4,7.8c1.2,1.5,2.5,3.1,3.7,4.6l4.6,4.2c1.6,1.5,2.8,3.2,3.7,5.1
		c0.3,0.6,1.1,1.2,2.3,1.8c1.8,1.2,2.8,0.6,2.8-1.8c0-1.2-0.2-2.1-0.5-2.8c-0.3-0.9-0.2-2.3,0.5-4.1c0.6-2.8,0.6-5.1,0-6.9l0.5-1.7
		c0.6-0.8,0.8-1.7,0.5-2.5l-0.9-2.8C1419.2,491.6,1419.1,490.8,1418.8,490 M1740.3,383.8c0-1.5-0.1-2.9-0.2-4.2
		c-0.2-1.2-0.4-2.6-0.7-4.1c-0.6-1.5-1.4-2.3-2.3-2.3c-1.5-0.6-2.9-1.1-4.2-1.4c-1.2-0.3-2.6-0.3-4.1,0c-1.2,0.6-2.3,0.6-3.2,0
		c-1.2-0.3-3.1-0.1-5.5,0.5c-1.2,0.3-2.5,0.5-3.7,0.7c-1.2,0.2-2.5-0.1-3.7-0.7c-0.9-0.3-2.2-0.5-3.7-0.5c-0.6,0-1.2,0.1-1.8,0.2
		c-0.6,0.2-1.2,0.1-1.8-0.2c-1.2-0.3-3.1-0.1-5.5,0.5c-1.5,0.3-3,0.5-4.4,0.7c-1.4,0.2-2.8-0.1-4.4-0.7c-0.3-0.3-1.2-0.5-2.8-0.5
		c-0.6,0-1.2,0.1-1.8,0.2c-0.6,0.2-1.2,0.1-1.8-0.2c-1.5-0.3-3.5-0.1-6,0.5c-1.2,0.3-2.4,0.5-3.5,0.7c-1.1,0.2-2.4-0.1-3.9-0.7
		c-0.6-0.3-2-0.5-4.1-0.5c-0.6,0-1.2,0.1-1.6,0.2c-0.5,0.2-1,0.1-1.6-0.2c-1.5-0.3-3.5-0.1-6,0.5c-1.5,0.3-2.8,0.5-3.9,0.7
		c-1.1,0.2-2.4-0.1-3.9-0.7c-0.6-0.3-1.5-0.5-2.8-0.5c-0.6,0-1.3,0.1-2.1,0.2c-0.8,0.2-1.5,0.1-2.1-0.2c-1.5-0.3-3.5-0.1-6,0.5
		c-1.2,0.3-2.5,0.5-3.7,0.7c-1.2,0.2-2.5-0.1-3.7-0.7c-0.6-0.3-1.8-0.5-3.7-0.5c-0.6,0-1.2,0.1-1.8,0.2c-0.6,0.2-1.2,0.1-1.8-0.2
		c-1.2-0.3-3.2-0.1-6,0.5c-0.9,0.3-1.9,0.5-3,0.7c-1.1,0.2-2.1,0.1-3-0.2c-1.5-0.6-3.7-0.9-6.5-0.9h-3.2c-1.5-0.3-2.9-0.3-4.1,0
		c-3.4,1.2-6.2,1.4-8.3,0.5c-1.5-0.6-2.8-0.5-3.9,0.2c-1.1,0.8-2.1,1.6-3,2.5c-0.9,0.9-1.1,2-0.5,3.2c0,0.6,0.1,1.3,0.2,2.1
		c0.2,0.8,0.2,1.5,0.2,2.1c0,1.8-0.2,3.7-0.5,5.5c-0.3,1.8-0.2,3.7,0.5,5.5v0.9c-0.6,1.5-0.6,3.9,0,6.9v3.7c-0.3,1.5-0.5,3-0.7,4.4
		c-0.2,1.4,0.1,2.8,0.7,4.4c0,1.2-0.2,2-0.5,2.3c-0.3,1.5-0.2,3.7,0.5,6.5c0.6,1.5,1.2,2.5,1.8,3c0.6,0.5,1.7,0.5,3.2,0.2h4.6
		c1.5,0,3,0.2,4.4,0.5c1.4,0.3,2.8,0.2,4.4-0.5c0.6-0.6,1.4-0.6,2.3,0c2.5,0.6,4.9,0.8,7.4,0.5c2.5-0.3,4.9-0.2,7.4,0.5
		c1.5-0.6,3.2-0.8,5.1-0.7c1.8,0.2,3.7,0.2,5.5,0.2c1.5,0,2.8-0.1,3.9-0.2c1.1-0.1,2.4-0.1,3.9,0.2c1.2,0.6,2.6,0.6,4.2,0
		c1.8-0.3,3.7-0.3,5.5,0h4.6c1.2,0.3,2.4,0.4,3.5,0.2c1.1-0.2,2.2-0.1,3.5,0.2c0.6,0,1.4,0.1,2.3,0.2c0.9,0.2,1.7-0.1,2.3-0.7
		c0.9-0.3,2-0.3,3.2,0c1.5,0,3.8,0.3,6.9,0.9c0.6,1.5,0.5,2.8-0.5,3.7c-0.6,1.2-1.4,2.3-2.3,3.2l-2.8,2.8c-1.5,1.5-2.6,2.9-3.2,4.1
		c-0.9,1.8-2.3,3.2-4.2,4.1c-1.2,0.3-2.3,1.2-3.2,2.8c-3.4,3.4-7.4,6.6-12,9.7c-0.9,0.3-2.3,1.1-4.2,2.3l-4.6,2.3
		c-2.5,0.6-4.3,1.6-5.5,2.8c-1.5,1.5-3.2,2-5.1,1.4c-1.2-0.3-2.6,0-4.2,0.9c-3.7,2.5-7.8,3.9-12.4,4.1c-3.7,0-6.8,0.6-9.2,1.8
		c-1.5,0.6-2.9,0.6-4.2,0h-6.9l-3.2-0.5c-0.9-0.3-1.8-0.4-2.8-0.2c-0.9,0.2-2,0.2-3.2,0.2c-0.6,0.3-1.8,0.5-3.7,0.5
		c-1.5-0.6-3.2-1.2-5.1-1.6c-1.8-0.5-3.5-1-5.1-1.6c-0.3,0-1.1-0.3-2.3-0.9c-1.5-1.5-3.2-2-5.1-1.4c-0.6,0.3-1.8,0.2-3.7-0.5
		l-6.5-3.2l-3.2-1.8c-1.5-0.6-2.9-1.3-4.1-2.1c-1.2-0.8-2.5-1.5-3.7-2.1l-7.8-4.6l-1.8-1.4c-0.6-1.2-1.5-2.2-2.5-3
		c-1.1-0.8-2.2-1.4-3.5-2.1c-1.8-1.2-2.9-2.6-3.2-4.1c-1.5-3.7-4.1-7.1-7.8-10.2c-1.5-1.5-2.5-2.8-2.8-3.7c-1.5-3.7-3.2-6.5-5.1-8.3
		c-0.9-0.9-1.4-2-1.4-3.2c0-1.5-0.8-3.4-2.3-5.5c-0.6-0.9-1.2-2-1.6-3.2c-0.5-1.2-1-2.5-1.6-3.7c-0.9-2.5-1.5-5.1-1.8-7.8
		c-0.3-2.8-0.8-5.4-1.4-7.8c-0.3-0.9-0.5-2.6-0.5-5.1V381c0-1.2-0.3-2.6-0.9-4.1V375c0.6-1.5,0.9-2.8,0.9-3.7v-4.2
		c0-3.1,0.3-5.4,0.9-6.9c0-0.3,0.1-0.6,0.2-0.9c0.2-0.3,0.1-0.8-0.2-1.4c-0.3-0.9-0.3-1.8,0-2.8l3.2-9.7c0.6-3.1,1.5-5.2,2.8-6.5
		c0.3-0.3,0.5-0.9,0.5-1.8l3.7-9.7l0.5-0.9c2.5-3.7,4.8-7.2,7.1-10.6c2.3-3.4,5-6.6,8.1-9.7l6.5-6c2.1-1.8,4.3-3.6,6.5-5.3
		c2.2-1.7,4.5-3.3,6.9-4.9c2.4-1.2,4.7-2.4,6.7-3.5c2-1.1,4.2-2.1,6.7-3c1.5-0.3,2.9-0.7,4.1-1.2c1.2-0.5,2.6-1,4.1-1.6
		c0.3,0,0.9-0.5,1.8-1.4c1.5-0.9,3.1-1.2,4.6-0.9c1.8,0,3.6-0.2,5.3-0.5c1.7-0.3,3.5-0.6,5.3-0.9c1-0.4,2.2-0.6,3.3-0.9h13
		c1.5-1.8,2.3-4.3,2.3-7.4c0-3.4-0.2-6.8-0.5-10.2c-0.3-3.4-0.2-6.8,0.5-10.1v-1.8c0.3-3.1,0.2-6.1-0.2-9c-0.5-2.9-0.4-5.9,0.2-9
		c0-2.5-0.6-4.3-1.8-5.5c-0.9-0.9-2.3-1.4-4.1-1.4c-1.4,0.5-2.9,0.5-4.4,0.5c-2-0.1-4.1,0-6.3,0.8c-2.2,0.6-3.7,0.8-4.6,0.5
		c-2.5-0.3-4.8-0.2-6.9,0.2c-2.2,0.5-4.5,1-6.9,1.6c-2.5,0.6-4.3,0.9-5.5,0.9c-1.5,0-2.6,0.2-3.2,0.5c-2.2,1.2-4.8,2.2-7.8,2.8
		c-1.8,0.6-3.1,0.9-3.7,0.9l-3.7,1.4c-1.2,0-2.5,0.6-3.7,1.8c-2.2,1.5-4.1,2.3-6,2.3c-2.5,0-4.3,0.9-5.5,2.8c-0.6,0.9-2,1.7-4.2,2.3
		c-3.4,0.9-6.1,2.5-8.3,4.6l-1.8,1.4l-4.2,2.8c-1.5,0.9-3,2-4.4,3.2c-1.4,1.2-2.8,2.5-4.4,3.7l-6.5,5.5l-8.3,7.8
		c-1.5,1.5-2.9,3.1-4.2,4.6l-3.7,4.6l-0.5,0.5c-1.2,1.5-2.3,2.9-3.2,4.2c-0.9,1.2-1.8,2.6-2.8,4.2c-1.2,1.5-2.5,3-3.7,4.4
		c-1.2,1.4-2.2,3.2-2.8,5.3c0,0.3-0.3,0.8-0.9,1.4c-1.5,1.5-2.6,3.7-3.2,6.5c0,1.8-0.5,3.2-1.4,4.1c-2.2,2.2-3.5,5.1-4.1,8.8
		l-0.5,1.4c-0.9,2.8-2,5.4-3.2,7.8c-1.2,2.5-1.8,5.1-1.8,7.8c-1.6,4-2.6,8.6-3.2,13.8c0,3.7-0.6,6.9-1.8,9.7
		c-0.6,1.5-0.7,3.1-0.2,4.6c0.5,1.5,0.4,3.1-0.2,4.6v7.4c0,0.6,0.1,1.3,0.2,2.1c0.2,0.8-0.1,1.5-0.7,2.1c-0.3,1.2-0.2,2.9,0.5,5.1
		c0.6,1.8,0.9,3.1,0.9,3.7c-0.6,3.7-0.1,7.2,1.4,10.6c0,0.3,0.1,0.6,0.2,0.9c0.2,0.3,0.2,0.6,0.2,0.9c0,1.5,0.2,2.9,0.5,4.2
		c0.3,1.2,0.6,2.6,0.9,4.2c0.6,2.5,1.5,4.9,2.5,7.4c1.1,2.5,1.8,5.1,2.1,7.8c0.3,1.5,0.8,2.9,1.4,4.1c0.6,1.2,1.2,2.6,1.8,4.2
		c0.6,1.8,1.2,3.6,1.8,5.3c0.6,1.7,1.2,3.3,1.8,4.8c0.6,0.6,0.9,1.3,0.9,2.1c0,0.8,0.3,1.5,0.9,2.1l5.5,7.8c0.6,0.6,1.2,1.3,1.6,2.1
		c0.5,0.8,0.8,1.5,1.1,2.1c1.5,2.8,3.8,5.7,6.9,8.8c1.5,1.5,2.5,2.9,2.8,4.2c0.3,1.2,1.4,2.5,3.2,3.7c1.2,0.6,2.1,1.3,2.8,2.1
		c0.6,0.8,1.2,1.5,1.8,2.1c1.2,2.2,2.7,3.9,4.4,5.3c1.7,1.4,3.3,2.8,4.8,4.4l1.8,0.9c1.8,1.2,3.2,2.3,4.2,3.2c2.8,2.2,5.6,4.1,8.5,6
		c2.9,1.8,5.8,3.7,8.5,5.5l3.2,1.4c1.8,0.6,3.1,1.2,3.7,1.8c6.8,4.9,13.7,8,20.8,9.2l2.8,1.4c3.4,1.5,6.8,2.5,10.1,2.8
		c1.2,0,2.2,0.2,2.8,0.5c1.8,0.6,3.8,1.1,5.8,1.4c2,0.3,3.9,0.8,5.8,1.4l9.2,1.4c0.9,0,1.5-0.2,1.8-0.5c3.4-0.6,6.3-0.5,8.8,0.5
		c1.8,0.6,3.6,0.8,5.3,0.5c1.7-0.3,3.5-0.3,5.3,0l0.9-0.5c1.5-0.6,2.8-0.9,3.7-0.9h4.1c2.2,0,4.5-0.5,6.9-1.4l3.7-0.9h3.2l9.7-2.3
		c1.8-0.6,3.6-1.2,5.3-1.8c1.7-0.6,3.5-1.2,5.3-1.8c0.3,0,0.6-0.2,0.9-0.5c0.9-0.3,1.8-0.7,2.8-1.2c0.9-0.5,1.8-0.8,2.8-1.1
		c2.5-0.9,5-1.9,7.6-3c2.6-1.1,5.2-2.4,7.6-3.9l1.4-0.5c2.2-0.6,3.7-1.7,4.6-3.2c1.5-1.5,3.1-2.5,4.6-2.8c2.5-0.9,4.6-2.3,6.5-4.1
		l3.7-2.8c2.5-1.5,4.6-3.4,6.5-5.5c0.9-1.2,2.1-2.1,3.7-2.8c1.8-0.9,3.2-2.3,4.1-4.1c0.3-0.9,1.4-2,3.2-3.2c2.2-0.9,3.4-2.3,3.7-4.2
		c1.2-1.8,2.5-3.2,3.7-4.1c2.5-1.8,4-3.8,4.6-6l2.3-3.2c1.8-1.5,3.4-3.7,4.6-6.5c0.9-2.1,2.2-4,3.7-5.5c0.3-0.6,0.6-1,0.9-1.2
		c0.3-0.2,0.6-0.4,0.9-0.7l3.2-8.8l1.4-2.8c0.9-1.2,1.7-3.4,2.3-6.5c0.6-1.2,1.2-3.1,1.8-5.5c1.5-2.5,2.3-4.8,2.3-6.9
		c0-0.9,0.1-1.5,0.5-1.8c0.9-1.2,1.5-2.5,1.6-3.7c0.1-1.2,0.4-2.6,0.7-4.1c0.3-2.2,0.6-4.2,0.9-6s0.5-3.8,0.5-6v-1.4
		c0.3-0.6,0.5-1.7,0.5-3.2C1740.1,389.1,1740.3,386.8,1740.3,383.8"/>
	<path class="st0" d="M585.2,45c0.3-0.8,0.6-1.7,0.9-2.6c0.3-0.9-0.1-1.5-1.1-1.8c-0.3-0.1-0.8-0.2-1.6-0.2c-0.5,0-0.9,0.1-1.5,0.2
		c-0.5,0.2-0.9,0.1-1.2-0.2c-0.8-0.2-1.4-0.3-1.9-0.3c-0.5-0.1-1.2,0-1.9,0.3H576c-0.6,0-1.2,0-1.7,0.1c-0.5,0.1-1.1,0.1-1.7,0.1
		c-1.5,0-2.6-0.1-3.2-0.4c-0.3,0-0.6,0-0.8-0.1c-0.2-0.1-0.4-0.1-0.6-0.1c-0.6,0.3-1.1,0.4-1.6,0.3c-0.5-0.1-1,0-1.6,0.1
		c-0.8,0-1.4,0-2,0.1c-0.6,0.1-1.3,0.1-2,0.1c-1.7,0.3-2.6,1.2-2.7,2.7c0,0.3-0.2,0.9-0.4,1.8l-2.7,7c-0.3,0.8-0.6,1.4-0.9,2
		c-0.3,0.6-0.5,1.3-0.7,2c-0.3,0.9-0.6,1.8-1,2.7c-0.4,0.9-0.7,1.8-1,2.7c0,0.2-0.2,0.5-0.5,1.1c-0.4,2-1.3,3.9-2.5,5.9
		c-0.6,0.6-0.8,1.2-0.5,1.8c0.2,0.4,0.2,0.9,0,1.2c-0.2,0.4-0.3,0.7-0.4,1c-0.3,0.3-0.5,0.6-0.7,0.9l-0.5,0.9c-0.3,1.1-0.6,2-1,2.9
		c-0.4,0.9-0.7,1.9-1,2.9v0.5l-0.7,1.4c-0.6,0.6-0.9,1.4-0.9,2.5c0,0.6-0.1,1-0.2,1.1c-0.6,0.8-0.9,1.5-1.1,2.1
		c-0.1,0.7-0.3,1.4-0.4,2.1c-0.3,0.3-0.4,0.7-0.4,1.1c-0.3,0.6-0.5,1.2-0.8,1.8c-0.2,0.6-0.5,1.2-0.8,1.8c-0.3,0.8-0.6,1.4-0.9,2
		c-0.3,0.6-0.5,1.3-0.7,2l-0.2,0.2c-0.6,0.8-0.9,1.8-0.9,3.2c0,1.1-0.4,2.1-1.2,3.2c-0.8,0.8-1.2,1.5-1.2,2.3
		c-0.1,0.8-0.4,1.5-0.7,2.3l-0.9,2.3c-0.2,0.6-0.3,1.2-0.6,1.7c-0.2,0.5-0.5,1-0.8,1.5c-0.6,1.2-1.2,1.2-1.8,0
		c-0.3-0.6-0.6-1.4-0.9-2.3c-0.2-0.3-0.2-0.6-0.2-0.9s-0.2-0.6-0.4-0.9c-0.9-1.4-1.6-2.7-2-4.1c-0.2-0.3-0.3-0.6-0.3-0.8
		c-0.1-0.2-0.3-0.5-0.6-0.8c-0.7-0.7-1.3-1.6-1.7-2.5c-0.4-0.9-0.8-1.8-1.2-2.7c-0.3-0.9-0.7-1.8-1.1-2.6c-0.4-0.8-0.8-1.6-1.1-2.4
		l-0.9-1.4c-0.7-0.7-1.4-1.6-1.9-2.6c-0.5-1-0.9-2-1.2-3c-0.3-0.6-0.5-1.2-0.6-1.8c-0.1-0.6-0.3-1.1-0.6-1.6l-2.7-4.7
		c-0.5-0.7-0.9-1.4-1.3-2c-0.4-0.6-0.8-1.3-1.1-2c-0.7-1.4-1.2-2.6-1.3-3.8c-0.3-0.6-0.5-1.1-0.7-1.6c-0.2-0.4-0.4-0.8-0.7-1.1
		c-0.6-0.9-1-1.6-1.1-2c-0.5-1.7-1.3-3.1-2.5-4.3c-0.3-0.3-0.5-0.6-0.6-0.8c-0.1-0.2-0.2-0.5-0.3-0.8c-0.4-1.7-1.1-3.2-2-4.5
		c-0.3-0.3-0.5-0.5-0.5-0.7c-0.5-1.6-1.2-3-2.3-4.1l-0.7-1.1c-0.5-1.1-0.9-2.1-1.5-3c-0.5-1-0.9-2.1-1.2-3.3
		c-0.2-0.7-0.4-1.4-0.8-1.9s-0.8-1-1.2-1.5c-0.3-0.6-0.8-0.6-1.4,0l-0.7,0.9c-0.3,0.9-0.7,1.7-1.1,2.4c-0.5,0.7-0.9,1.4-1.4,2.1
		c-0.3,0.5-0.5,0.9-0.6,1.5c-0.1,0.5-0.3,1.1-0.6,1.7c-0.3,0.6-0.6,1.1-0.9,1.6l-0.9,1.4l-0.4,0.9c-0.3,1.2-0.8,2.1-1.4,2.7
		c-0.3,0.6-0.6,1.2-0.8,1.7c-0.2,0.5-0.5,1.1-0.8,1.7l-2.7,5l-0.2,0.5c-0.5,0.3-0.8,1-1.1,2c0,0.6-0.3,1.4-0.9,2.3l-0.7,1.1
		c-0.6,1.2-1.3,2.4-2.1,3.6c-0.8,1.2-1.3,2.5-1.6,3.8c-0.3,0.3-0.5,0.5-0.5,0.7l-1.4,2.5c-0.3,0.5-0.5,0.9-0.7,1.5
		c-0.2,0.5-0.4,0.9-0.7,1.2c-0.6,1.1-1.2,2-1.7,2.9c-0.5,0.9-1,1.9-1.3,2.9l-0.5,0.7c-0.9,0.9-1.5,2.2-1.8,3.8
		c-0.3,0.4-0.5,0.9-0.7,1.4c-0.2,0.5-0.5,0.9-0.9,1.4c-0.8,0.8-1.2,1.7-1.4,2.7c-0.2,0.3-0.3,0.6-0.4,1c-0.2,0.4-0.3,0.8-0.5,1.2
		l-2.7,4.3c0,0.2,0,0.3-0.1,0.5c-0.1,0.2-0.1,0.3-0.1,0.5c-0.2,0.6-0.3,1.1-0.5,1.5c-0.2,0.4-0.4,0.8-0.7,1.2l-1.4,2
		c-0.2,0.5-0.3,0.9-0.5,1.2c-0.2,0.4-0.4,0.8-0.7,1.2c-0.4,0.4-0.8,0.7-0.9,0.7c-0.8,0.3-1.2,0.1-1.4-0.7c-0.3-0.7-0.5-1.4-0.7-2
		c-0.2-0.6-0.4-1.3-0.7-2l-1.1-3.4c-0.3-0.7-0.6-1.5-0.9-2.4c-0.3-0.8-0.4-1.7-0.4-2.6c-0.3-0.9-0.6-1.7-0.9-2.5
		c-0.6-0.9-1-1.6-1.1-2c-0.5-1.2-1-2.2-1.6-2.9c-0.2-0.3-0.3-0.7-0.3-1.1c-0.1-0.4-0.3-0.8-0.6-1.1c-0.2-0.3-0.2-0.6-0.2-1
		c0-0.4-0.2-0.7-0.4-1c-0.6-0.9-1.1-1.9-1.3-2.9l-0.9-3.2c-0.2-0.5-0.3-0.9-0.3-1.5c-0.1-0.5-0.3-1-0.6-1.5c-0.3-0.9-0.6-1.8-1-2.7
		c-0.4-0.9-0.7-1.8-1-2.7c-0.3-1.4-0.7-2.7-1.2-3.9c-0.5-1.3-1-2.5-1.5-3.7c-0.6-1.5-1-2.6-1.1-3.4c0-0.3-0.1-0.6-0.2-0.9l-0.4-0.9
		c-0.3-0.7-0.6-1.5-0.9-2.1c-0.3-0.7-0.6-1.4-0.9-2.1c-0.6-1.4-1.1-2.7-1.6-4.1l-1.3-4.1l-0.7-1.1c-0.3-0.3-0.5-0.6-0.5-0.9
		c-0.3-0.8-0.6-1.5-0.9-2.4c-0.3-0.8-0.6-1.6-0.9-2.4c-0.3-0.9-0.4-1.7-0.4-2.3c-0.2-0.8-0.7-1.3-1.8-1.6h-1.1
		c-1.3,0.3-2.6,0.2-3.8-0.2h-1.3c-1.2,0-2.4,0-3.5,0.1c-1.1,0.1-2.3,0.2-3.5,0.3h-0.2l-1.3-0.4c-0.4-0.1-0.9-0.2-1.3-0.2
		c-1.2,0.3-2.1,0.5-2.7,0.5c-1.1,0-2,0-2.9,0.1c-0.9,0.1-1.9,0.1-2.9,0.1h-0.2c-0.6,0.2-0.9,0.6-0.9,1.4l0.2,0.7
		c0.4,0.8,0.8,1.4,1,2c0.2,0.6,0.5,1.3,0.8,2l0.7,1.4c0.6,1.1,1,2.1,1.1,3.2c0,0.3,0.1,0.7,0.2,1.1c0.1,0.5,0.3,0.8,0.5,1.1
		c0.1,0.3,0.3,0.6,0.4,0.8c0.2,0.2,0.2,0.5,0.2,0.8c0.6,1.7,1.1,3.2,1.6,4.6c0.5,1.4,0.9,3,1.4,4.6l0.9,2c0.4,0.8,0.7,1.4,0.7,2
		c0,0.9,0.3,1.6,0.9,2c0.3,0.6,0.6,1.2,0.9,1.7c0.3,0.5,0.6,1.1,0.9,1.7l0.9,2c0.1,0.3,0.3,0.6,0.4,0.8c0.2,0.2,0.2,0.5,0.2,0.8
		c0.1,1.1,0.4,2,0.7,2.8c0.3,0.8,0.6,1.7,0.9,2.6c0.3,0.8,0.5,1.4,0.7,1.9c0.1,0.5,0.3,1.2,0.4,1.9c0.3,1.2,0.6,2.4,1,3.5
		c0.4,1.1,0.9,2.2,1.7,3.3c0.5,0.8,0.7,1.5,0.7,2.3c0,1.1,0.2,1.9,0.7,2.5c0.3,0.3,0.6,0.9,0.9,1.8c0.3,0.5,0.5,0.9,0.7,1.4
		c0.2,0.5,0.4,0.9,0.7,1.4c0.3,0.5,0.5,0.9,0.7,1.5c0.2,0.5,0.3,1,0.5,1.5c0.1,1.5,0.6,2.9,1.4,4.3c0.3,0.8,0.6,1.5,0.9,2.1
		c0.3,0.7,0.5,1.4,0.7,2.1c0,0.3,0.1,0.8,0.5,1.4c0.3,0.5,0.5,0.9,0.7,1.2c0.2,0.4,0.3,0.8,0.5,1.2c0.3,1.2,0.7,2,1.1,2.5
		c0.3,0.8,0.6,1.6,0.9,2.5c0.1,1.7,0.6,3.3,1.4,5c1.2,2.4,2,4.8,2.5,7.2c0,0.8,0.1,1.3,0.4,1.6c1.2,1.4,2,3,2.4,5v0.2
		c0.6,1.1,1.1,2.5,1.6,4.3c0.3,0.9,0.6,1.6,0.9,2c0.6,1.1,1,2.3,1.3,3.8c0.3,1.2,0.7,2.4,1.1,3.7c0.4,1.3,0.9,2.5,1.3,3.7l1.3,3.2
		c0.3,1.4,0.7,2.3,1.1,2.7c0.7,1.1,1.1,1.9,1.1,2.7c0.1,0.4,0.3,0.9,0.5,1.5c0.1,0.5,0.4,1,0.7,1.5l0.2,0.7c0.1,1.2,0.5,2.3,1,3.4
		c0.5,1.1,1,2.1,1.5,3.2c0.6,1.2,1.4,1.3,2.3,0.2v-0.5l0.2-0.5c0.3-0.7,0.6-1.4,1-1.8c0.4-0.4,0.7-1,1-1.8l2.3-5
		c0.2-0.5,0.5-1.1,1.1-2c0.6-0.9,1-1.7,1.1-2.5c0.3-1,0.7-1.8,1.1-2.3c0.5-0.5,0.8-1,1-1.6c0.2-0.6,0.5-1.2,0.8-1.8
		c0.3-1,0.6-1.7,0.9-2c0.8-0.7,1.2-1.5,1.5-2.3c0.2-0.7,0.6-1.5,1.2-2.3c0.2-0.9,0.4-1.7,0.8-2.4c0.4-0.7,0.8-1.4,1.2-2.1
		c0.3-0.3,0.4-0.6,0.4-0.8c0-0.2,0.2-0.5,0.5-0.8c0.3-0.9,0.6-1.6,0.9-2c0.5-1,0.9-2,1.5-2.9c0.5-0.9,1.1-1.9,1.7-2.9l2-3.8l1.1-2
		c0.1-0.6,0.5-1.5,1.1-2.7c0.3-0.7,0.6-1.4,1-2c0.4-0.6,0.8-1.3,1.2-2c0.2-0.1,0.2-0.3,0.2-0.4s0.1-0.4,0.2-0.7
		c0.1-1.1,0.7-2,1.6-2.9c0.6-0.7,1-1.6,1.1-2.5c0.3-0.7,0.6-1.4,0.8-2c0.2-0.6,0.7-1.2,1.5-1.8l0.2-0.2c0.1-0.8,0.4-1.4,0.7-1.9
		c0.3-0.5,0.6-1.2,0.9-1.9l1.4-2.9c0.3-0.3,0.5-0.5,0.6-0.8c0.1-0.3,0.3-0.5,0.6-0.8l3.4-7.2l0.5-0.9c0.1-0.5,0.6-0.7,1.4-0.7
		c0.6,0.2,1,0.4,1.1,0.9c0.3,1.1,0.7,2,1.1,2.8c0.5,0.8,0.9,1.8,1.4,2.8c0.3,0.8,0.7,1.5,1.1,2.1c0.5,0.7,1,1.4,1.6,2.1
		c0.1,0.2,0.2,0.3,0.2,0.6c0,0.2,0.1,0.5,0.2,0.8c0.3,0.5,0.6,0.9,0.8,1.5c0.2,0.5,0.5,1,0.8,1.5c1.1,1.2,1.8,2.6,2.3,4.3l1.8,3.6
		l0.9,2.7c0.3,0.8,0.6,1.4,0.9,1.9c0.3,0.5,0.6,1.1,0.9,1.7c0.6,0.6,0.9,1.1,0.9,1.6c0,1.1,0.4,2,1.1,2.7c0.4,0.5,1,1.1,1.6,2
		c0.4,0.9,0.9,1.8,1.2,2.6c0.4,0.8,0.9,1.6,1.4,2.4c0.3,0.9,0.6,1.7,1,2.5c0.4,0.8,0.8,1.5,1.2,2.3c0.3,0.5,0.5,1,0.8,1.6
		c0.2,0.6,0.5,1.2,0.8,1.8l0.9,2c0.3,0.3,0.6,0.6,0.8,1c0.2,0.4,0.4,0.8,0.6,1.2c0.4,1.2,1.1,2.3,2,3.4l0.7,1.1
		c0.7,1.3,1.4,2.7,1.9,4.1c0.5,1.4,1.1,2.8,1.7,4.3c0.3,0.9,0.7,1.8,1.2,2.6c0.5,0.8,1.2,1.6,1.9,2.4v0.7c0,1.4,0.4,2.3,1.1,2.9
		c0.5,0.3,0.8,0.9,1.1,1.8l1.1,2.3c0.1,0.5,0.5,1.1,1.1,2c0.9,1.2,1.6,1.1,2.3-0.2c0.3-0.9,0.6-1.8,1-2.7c0.4-0.9,0.7-1.9,1-2.9
		c0.3-0.8,0.6-1.5,1-2.4c0.4-0.8,0.7-1.6,1-2.4c0.1-0.6,0.3-1.1,0.6-1.5c0.2-0.4,0.3-0.9,0.3-1.5c0-0.3,0.1-0.6,0.2-0.8
		c0.1-0.2,0.3-0.5,0.4-0.8c0.3-0.6,0.6-1.2,0.8-1.8c0.2-0.6,0.3-1.3,0.3-2l0.4-0.9c0.5-0.6,0.8-1.2,1-1.9c0.2-0.7,0.4-1.4,0.6-2.1
		l0.5-0.9c0.3-1.1,0.7-2.1,1.2-3c0.5-1,0.9-2.1,1.2-3.3c0.3-1.2,0.6-2.3,1-3.4c0.4-1.1,0.8-2.1,1.2-3.2v-0.2c0.6-0.9,1-1.8,1.4-2.8
		c0.3-1,0.6-1.9,0.9-2.8c0.3-0.9,0.6-1.7,0.9-2.3c0.3-0.7,0.6-1.6,1-2.5c0.4-0.9,0.6-1.8,0.8-2.7c0-0.3,0.1-0.7,0.5-1.4
		c0.7-1.2,1.3-2.4,1.7-3.7c0.4-1.3,0.9-2.5,1.7-3.7l0.5-1.4c0-0.5,0.1-0.8,0.2-1.1l2.1-5.4c0.2-0.5,0.3-0.9,0.5-1.2
		c0.2-0.4,0.2-0.8,0.2-1.2c0.3-0.4,0.5-0.9,0.7-1.5c0.2-0.5,0.4-1,0.7-1.5c0.3-0.1,0.5-0.3,0.5-0.6c0-0.2,0.1-0.5,0.2-0.8
		c0-0.6,0.1-1.2,0.4-1.8c0.3-1.2,0.6-2,0.8-2.5l0.4-1.6c0.6-0.9,1-1.9,1.3-3.2c0-1.1,0.3-1.9,0.9-2.7c0.3-0.3,0.6-0.9,0.9-1.8
		c0-0.8,0.2-1.5,0.7-2.3c0.3-0.3,0.4-0.5,0.4-0.7c0-0.1,0.1-0.4,0.2-0.7c0.3-1.2,0.7-2.4,1.1-3.7c0.4-1.3,0.9-2.5,1.4-3.7
		c0.1-0.1,0.2-0.3,0.2-0.4c0.6-0.9,1-1.8,1.2-2.8c0.2-1,0.6-1.9,1.2-2.8v-0.2c0.3-1.4,0.7-2.6,1.1-3.8c0.5-1.2,1-2.4,1.6-3.6l0.7-2
		c0.3-1.7,0.8-2.8,1.4-3.4l0.7-2c0.3-0.7,0.6-1.5,0.8-2.1c0.2-0.7,0.6-1.4,1-2.1l0.4-0.9c0.2-0.3,0.2-0.6,0.2-0.9
		c0.5-1.7,1-3.2,1.6-4.5C584.6,46.7,584.9,45.9,585.2,45 M668.7,52.8v-2.9c0-0.6,0.1-1.3,0.2-2v-1.1c-0.5-1.2-0.5-2.6-0.2-4.3V40
		c0-1.5-0.8-2.3-2.3-2.5c-0.5-0.2-0.9-0.2-1.5-0.1c-0.5,0.1-1.1,0.1-1.7,0.1c-0.3,0-0.7,0-1.1,0.1c-0.5,0.1-0.8,0-1.1-0.1
		c-1.2-0.2-2.3-0.2-3.3-0.1c-1,0.1-2,0-3-0.1c-0.3,0-0.6,0-0.9,0.1c-0.3,0.1-0.6,0.1-0.9,0.1s-0.6,0-1,0.1c-0.4,0.1-0.7,0-1-0.1
		c-1.2-0.2-2.3-0.2-3.4-0.1c-1.1,0.1-2.1,0-3.2-0.1h-0.9c-1.1,0.3-2.1,0.3-3.2,0.1c-1.1-0.2-2.2-0.2-3.4,0.1h-5.9
		c-0.8,0-1.4-0.1-2-0.2c-0.6-0.1-1.3-0.1-2,0.2c-0.9-0.3-1.8-0.4-2.7-0.2c-0.9,0.2-1.8,0.2-2.7,0.2c-0.8,0.2-1.6,0.2-2.5,0.1
		c-0.9-0.1-1.7-0.1-2.5-0.1s-1.5,0-2.4-0.1c-0.8-0.1-1.6,0-2.4,0.1c-0.9,0.2-1.8,0.2-2.8,0c-1-0.2-2-0.2-3,0c-0.6,0-1.2,0-1.8-0.1
		c-0.6-0.1-1.3,0-2,0.1c-0.9,0.2-1.8,0.1-2.8-0.1c-1-0.2-1.9-0.2-2.8,0.1h-0.9c-0.2,0-0.3,0-0.5-0.1c-0.2-0.1-0.4-0.1-0.7-0.1
		c-0.5,0-0.8,0.1-0.9,0.2c-0.6,0-0.9,0.2-0.9,0.4c-0.9,0.9-1.3,2-1.1,3.4l0.4,2c0,0.8,0,1.4-0.1,2c-0.1,0.6,0,1.3,0.1,2
		c0,0.5-0.1,0.9-0.2,1.5c-0.2,0.5-0.2,1-0.2,1.5c-0.2,0.6-0.2,1.1,0,1.6c0.1,0.4,0.3,1,0.4,1.6v4.1c-0.3,1.2-0.4,2.2-0.4,2.9
		c0,0.8,0.1,1.7,0.4,2.9v2.3c0,0.6-0.1,1.3-0.2,2c-0.2,2-0.2,3.9,0,5.9c0.1,0.8,0.2,1.5,0.2,2.3V78c-0.3,1.2-0.4,2.1-0.4,2.7
		c0,0.8,0.1,1.7,0.4,2.9c0,0.8,0,1.5-0.1,2.1c-0.1,0.7,0,1.4,0.1,2.1c0,0.6-0.1,1.1-0.2,1.6c-0.2,0.5-0.2,0.9-0.2,1.4
		c0,0.6,0.1,1.2,0.2,1.7c0.1,0.5,0.2,1.1,0.2,1.7c-0.2,0.6-0.2,1.2-0.1,1.8c0.1,0.6,0.1,1.3,0.1,2c-0.3,1.2-0.4,2.2-0.4,2.9
		c0,0.8,0.1,1.7,0.4,2.9v4.3c-0.3,1.2-0.4,2.2-0.4,2.9c0,0.8,0.1,1.7,0.4,2.9v4.3c-0.2,0.6-0.3,1.1-0.3,1.6
		c-0.1,0.5-0.1,0.9-0.1,1.4c0,0.8,0.1,1.7,0.4,2.9v4.3c-0.3,1.2-0.4,2.2-0.4,2.9c0,0.8,0.1,1.7,0.4,2.9v4.3
		c-0.3,1.2-0.4,2.2-0.4,2.9c0,0.8,0.1,1.7,0.4,2.9c0,0.8,0,1.4-0.1,2c-0.1,0.6,0,1.2,0.1,1.8c0,0.6-0.1,1.2-0.2,1.7
		c-0.2,0.5-0.2,1.1-0.2,1.7c0,0.8,0.1,1.9,0.4,3.4c0,0.6,0,1.2-0.1,1.7c-0.1,0.5,0,1.1,0.1,1.7c0,0.6-0.1,1.2-0.2,1.7
		c-0.2,0.5-0.2,1-0.2,1.5c-0.2,0.8-0.1,1.4,0.1,1.8c0.2,0.5,0.3,1.1,0.3,1.8c-0.2,0.4-0.2,0.9-0.1,1.5c0.1,0.5,0.1,1,0.1,1.5
		c0,1.5-0.2,2.6-0.4,3.4c-0.3,0.3-0.3,0.6,0,0.9c0.3,0.6,0.4,1.2,0.4,1.8v2c-0.2,1.1,0.4,1.7,1.6,2c1.4,0.4,2.6,0.5,3.6,0.2
		c0.6-0.3,1.2-0.4,1.8-0.2c1.2,0.3,2.4,0.4,3.5,0.2c1.1-0.1,2.3-0.1,3.5,0.2c0.3,0,0.6-0.1,0.9-0.2c1.2-0.4,2.4-0.4,3.6,0h0.9
		c0.6-0.1,1.2-0.2,1.7-0.1c0.5,0.1,1.1,0.1,1.7,0.1c0.3,0.2,0.7,0.2,1.1,0.2c0.9-0.3,1.8-0.4,2.7-0.4c0.9,0,1.9,0.1,2.9,0.2h3.2
		c0.9,0.3,1.9,0.3,2.9,0c0.7-0.4,1.6-0.5,2.7-0.2c0.3,0.2,0.7,0.2,1.4,0.2c0.6-0.1,1.2-0.2,1.7-0.1c0.5,0.1,1.1,0.1,1.7,0.1
		c0.2,0.2,0.5,0.2,1.1,0.2c2.1-0.4,3.9-0.5,5.4-0.2c0.5,0.2,0.9,0.2,1.5,0.1c0.5-0.1,1.1-0.1,1.7-0.1c1.4,0.3,2.6,0.2,3.8-0.2
		c0.3-0.2,0.6-0.2,0.8-0.1c0.2,0.1,0.5,0.1,0.8,0.1l6.3,0.4c0.4,0,0.8-0.1,1.1-0.2c1.2-0.3,2.3-0.4,3.2-0.2c0.3,0.2,0.7,0.2,1.1,0.2
		c0.7-0.1,1.4-0.2,1.9-0.1c0.5,0.1,1.1,0.1,1.7,0.1c0.5,0.2,1,0.2,1.6,0c0.9,0,1.4-0.4,1.4-1.4c0.3-1.5,0.4-2.6,0.2-3.4
		c-0.2-1.2-0.1-2.4,0.1-3.7c0.2-1.3,0.1-2.5-0.3-3.7v-0.7c0.2-1.6,0.3-3.2,0.3-4.7c0.1-1.5,0-3.1-0.3-4.7v-1.1v-0.5l0.2-0.5
		c0-0.7-0.4-1.3-1.1-1.6c-0.3-0.1-0.8-0.2-1.6-0.2c-1.1,0.3-2,0.2-2.7-0.2c-0.8-0.3-1.4-0.3-1.8,0c-0.8,0.4-1.8,0.5-3,0.2H656
		c-1.1,0.3-2,0.2-2.7-0.2c-0.3,0-0.6,0-0.8-0.1c-0.2-0.1-0.5,0-0.8,0.1c-0.7,0.2-1.4,0.3-1.9,0.3c-0.5,0.1-1.2,0-1.9-0.1
		c-0.7-0.3-1.5-0.3-2.2,0c-1,0.3-1.9,0.2-2.7-0.2c-0.6-0.2-1.2-0.2-1.8,0c-0.7,0.4-1.6,0.5-2.7,0.2h-2.7c-1,0.3-1.9,0.2-2.7-0.2
		c-0.9-0.3-1.6-0.2-2.2,0.2c-0.9,0.2-1.7,0.2-2.5,0c-1-0.3-2-0.3-2.9,0c-1,0.3-1.9,0.2-2.7-0.2c-0.6-0.2-1.2-0.2-1.8,0
		c-0.2,0.2-0.4,0.2-0.7,0.2c-1.2,0.3-1.9-0.1-2-1.1c-0.4-1.5-0.5-2.8-0.2-3.8c0.2-1.1,0.2-2.2,0-3.4c0-0.9,0-1.8-0.1-2.7
		c-0.1-0.9-0.1-1.9-0.1-2.9c0-0.4,0.1-0.7,0.2-0.9c0.2-1.2,0.2-2.5,0-3.8c-0.2-1.1-0.2-2-0.2-2.9V128c0.1-0.8,0.3-1.5,0.3-2.3
		c0.1-0.7,0.1-1.5,0.1-2.3c0-1.1,0.5-1.6,1.4-1.6c0.5,0,0.7,0.1,0.9,0.2c0.3,0.2,0.9,0.1,1.8-0.2c1-0.6,2.3-0.7,3.8-0.2
		c0.7,0.3,1.6,0.4,2.5,0.2c0.9-0.2,1.8-0.1,2.7,0.2c0.5,0,0.7-0.1,0.9-0.2c0.7-0.3,1.5-0.5,2.1-0.5c0.7,0,1.4,0.1,2.1,0.2
		c0.4,0.2,1,0.2,1.8,0.2c1.1,0,1.8,0.1,2.3,0.2c0.9,0,1.6-0.1,2.3-0.2c0.9-0.6,1.9-0.7,3.2-0.2c1.2,0.3,2.2,0.4,2.9,0.2h1.4
		c1.1,0.3,2.4,0.1,4.1-0.7c0.7-0.5,1.2-1,1.4-1.8c0.3-0.7,0.4-1.6,0.3-2.5c-0.1-0.9-0.1-1.7-0.1-2.5c-0.2-1.1-0.3-2.1-0.3-3
		c-0.1-1,0-2,0.3-3v-1.4c0-0.6,0-1.2-0.1-1.8c-0.1-0.6-0.1-1.3-0.1-2c0-0.7,0-1.5-0.1-2.4c-0.1-0.8,0-1.6,0.3-2.4
		c0.1-1.5-0.4-2.3-1.6-2.5c-0.5-0.1-1.2-0.2-2.3-0.2c-0.9,0.3-1.8,0.3-2.7,0c-0.9-0.3-1.6-0.5-2-0.5c-0.9,0.3-1.8,0.5-2.7,0.5h-2.7
		c-0.9,0.3-1.9,0.2-2.9-0.2c-0.3,0-0.6,0-1-0.1c-0.4-0.1-0.7-0.1-1-0.1c-0.8,0.3-1.6,0.5-2.5,0.5h-2.3c-1.2,0.3-2.3,0.3-3.4,0
		c-0.8-0.5-1.7-0.5-2.9-0.2c-0.9,0.2-1.8,0.3-2.7,0.3c-0.9,0.1-1.8,0.1-2.7,0.1c-1.4,0-2.1-0.6-2.3-1.8c-0.3-1.2-0.4-2.3-0.3-3.4
		c0.1-1,0-2.2-0.1-3.4v-0.5l0.2-0.5c0.3-1.2,0.3-2.3,0-3.2c0-1.2-0.1-2.5-0.2-3.8c-0.2-1.4,0-2.6,0.4-3.8v-1.6l-0.4-5
		c-0.2-0.9-0.1-1.8,0.1-2.6c0.2-0.8,0.5-1.8,0.8-2.8h1.8l5-0.4c1.1,0,1.9,0.1,2.5,0.2c2.3,0.3,4.5,0.3,6.8,0
		c0.6-0.2,1.6-0.2,3.2-0.2c1.9,0.4,4.3,0.5,7,0.2c0.4-0.2,0.9-0.2,1.4-0.2h1.6c2.3,0.4,4.7,0.5,7.4,0.2c1-0.2,2.1-0.2,3.2,0
		c1.5,0.3,3,0.4,4.5,0.2c1.5-0.1,3-0.4,4.5-0.7c0.9,0,1.4-0.5,1.4-1.4c0-1.5,0.1-2.6,0.2-3.4c0-0.9-0.1-1.6-0.2-2
		C668.6,55.4,668.6,54.2,668.7,52.8 M746.4,160.3c0.3-1.1,0.3-2,0.1-2.9c-0.2-0.9-0.3-1.9-0.1-2.9c0.1-1.2-0.5-1.9-1.8-2.3h-2
		c-0.3,0-0.6,0-0.9,0.1s-0.6,0-0.9-0.1c-1.4-0.5-2.9-0.5-4.5,0H730c-0.8-0.5-1.7-0.5-2.7-0.2c-0.3,0.2-0.8,0.2-1.4,0.2h-5.9
		c-0.9-0.5-1.9-0.5-2.9-0.2c-0.2,0.2-0.4,0.2-0.9,0.2h-5c-0.9,0-1.6-0.1-2-0.2c-0.3,0-0.6,0-0.8-0.1c-0.2-0.1-0.5,0-0.8,0.1
		c-0.6,0-1.2,0-1.8,0.1c-0.6,0.1-1.3,0.1-2,0.1h-2.5c-0.9-0.2-1.4-0.7-1.6-1.6v-2c0.2-0.6,0.2-1.3,0-2c-0.3-0.6-0.3-1.5,0-2.7
		c0.2-0.9,0.2-1.9,0-2.9v-2.3c0.2-0.9,0.2-1.6,0-2.3c-0.3-0.9-0.3-1.8,0-2.7c0.2-0.9,0.2-1.8,0-2.7v-2.7c0.2-0.6,0.2-1.3,0-2
		c-0.3-0.6-0.3-1.5,0-2.7c0.2-0.9,0.2-1.9,0-2.9v-2.3c0.2-0.9,0.2-1.6,0-2.3c-0.3-0.9-0.3-1.8,0-2.7c0.2-0.9,0.2-1.8,0-2.7V108
		c0.2-0.6,0.2-1.3,0-2c-0.3-0.6-0.3-1.5,0-2.7c0.2-0.9,0.2-1.9,0-2.9v-2.3c0.2-0.9,0.2-1.6,0-2.3c-0.3-0.6-0.3-1.5,0-2.7
		c0.2-0.9,0.2-1.9,0-2.9v-2.5c0.2-0.6,0.2-1.3,0-2c-0.3-0.6-0.3-1.5,0-2.7c0.2-0.9,0.2-1.8,0-2.7v-2.5c0.2-0.9,0.2-1.7,0-2.3
		c-0.3-0.9-0.3-1.8,0-2.7c0.2-0.9,0.2-1.8,0-2.7v-2.7c0.2-0.6,0.2-1.3,0-2c-0.3-0.6-0.3-1.5,0-2.7c0.2-0.9,0.2-1.8,0-2.7v-2.5
		c0.2-0.9,0.2-1.7,0-2.3c-0.3-0.9-0.3-1.8,0-2.7c0.2-0.6,0.2-1.5,0.2-2.7c-0.2-0.9-0.2-1.9,0-2.9v-1.4c-0.3-0.6-0.5-1.2-0.5-1.8
		c0-0.6,0.1-1.3,0.2-2c0.8-2.1,0-3.4-2.3-3.8c-1.1-0.4-2.1-0.5-3.2-0.2h-5c-1.1,0.3-2,0.3-2.9,0c-0.2,0-0.3,0-0.5-0.1
		c-0.2-0.1-0.3-0.1-0.5-0.1l-7.4,0.4c-0.3,0-0.5,0-0.7-0.1c-0.2-0.1-0.4-0.1-0.7-0.1h-1.1c-0.9,0-1.4,0.4-1.6,1.1
		c-0.2,0.6-0.3,1.1-0.4,1.6c-0.2,0.4-0.2,1,0,1.6c0.3,0.8,0.4,1.4,0.3,2c-0.1,0.6-0.2,1.3-0.3,2c-0.2,0.4-0.2,1.1-0.2,2
		c0.1,1.1,0.3,2.1,0.3,3c0.1,1,0.1,2.1,0.1,3.3c0,0.5-0.1,0.9-0.2,1.5c-0.2,0.5-0.2,1-0.2,1.5c0,0.6,0.1,1.2,0.2,1.7
		c0.1,0.5,0.1,1,0,1.5v2c0.4,1.2,0.4,2.5-0.2,3.8v1.6c0.1,1.2,0.3,2.3,0.3,3.4c0.1,1.1,0.1,2.1,0.1,3.2v0.2c0,0.5-0.1,0.9-0.2,1.4
		c-0.2,0.4-0.2,1-0.2,1.6c0,0.4,0,0.9,0.1,1.5c0.1,0.5,0.1,1,0.1,1.5v2c0.4,1.2,0.4,2.6-0.2,4.3v1.6c0.1,1.1,0.3,2.1,0.3,3.2
		c0.1,1.1,0.1,2.2,0.1,3.4c-0.3,1.1-0.4,2-0.3,2.9c0.1,0.9,0.1,1.8,0.1,2.7v2.3c0.3,0.8,0.4,1.4,0.3,2c-0.1,0.6-0.2,1.3-0.3,2
		c-0.2,0.5-0.2,1-0.2,1.6c0.1,1.2,0.3,2.3,0.3,3.3c0.1,1,0.1,2.1,0.1,3.3v0.7c-0.4,1.2-0.5,2.7-0.2,4.5c0.1,0.3,0.2,0.5,0.1,0.7
		c-0.1,0.2-0.1,0.4-0.1,0.7v1.6c0.3,1.1,0.2,2.5-0.2,4.3v1.6c0.1,1.1,0.3,2.1,0.3,3.2c0.1,1.1,0.1,2.1,0.1,3.2v0.2
		c-0.3,1.1-0.4,2-0.4,2.9c0,0.9,0.1,1.8,0.2,2.7v0.9c0,0.8,0.1,1.4,0.2,1.8c0.2,0.6,0.1,1.5-0.2,2.7c-0.2,0.6-0.3,1.2-0.3,1.7
		c-0.1,0.5,0,1.2,0.3,1.9c0.1,0.3,0.2,0.6,0.1,0.9c-0.1,0.3-0.1,0.6-0.1,0.9c0,0.8,0.1,1.4,0.2,1.8c0.2,0.8,0.2,1.4,0.1,1.9
		c-0.1,0.5-0.2,1.2-0.3,1.9c-0.2,0.5-0.2,1.1-0.2,2c0.1,0.9,0.3,1.8,0.3,2.8c0.1,1,0.1,2,0.1,3c0,0.5-0.1,0.8-0.2,1.1
		c-0.2,0.8-0.3,1.4-0.3,1.9c-0.1,0.5,0,1.2,0.3,1.9c0.3,0.5,0.3,0.8,0,1.1c-0.2,0.8-0.2,1.5,0,2.3l0.4,2.3c0,0.8,0.2,1.2,0.7,1.4
		c1,0.8,2,1.1,2.9,1.1c0.6-0.1,1.2-0.2,1.7-0.1c0.5,0.1,1.2,0.1,1.9,0.1c0.6,0.3,1.3,0.3,2,0c0.6-0.1,1.2-0.3,1.8-0.3
		c0.6-0.1,1.3,0,2,0.3h0.7c0.6,0,1.1,0,1.6-0.1c0.4-0.1,1,0,1.6,0.1c1.2,0.3,2.3,0.2,3.2-0.2c0.3-0.2,0.6-0.2,1-0.1
		c0.4,0.1,0.8,0.1,1.2,0.1h6.3c0.5,0,0.8-0.1,1.1-0.2c0.3,0,0.6,0,0.9-0.1c0.3-0.1,0.6-0.1,0.9-0.1l5.2,0.5c1.2,0.3,2.3,0.2,3.2-0.2
		c0.3,0,0.6,0,1-0.1c0.4-0.1,0.7-0.1,1-0.1c0.9,0.3,1.8,0.4,2.7,0.2c0.9-0.2,1.8-0.1,2.7,0.2c0.9,0.3,1.9,0.2,2.9-0.2
		c0.3-0.2,0.7-0.2,1.4-0.2l5.2,0.5c1.2,0.3,2.3,0.2,3.4-0.2c0.3,0,0.6,0,0.8-0.1c0.2-0.1,0.5-0.1,0.8-0.1c0.7,0.3,1.6,0.4,2.5,0.2
		c0.9-0.2,1.7-0.1,2.5,0.2h2c1.2,0,2.1-0.4,2.7-1.1c0.8-1,1.1-2.1,0.9-3.2v-2.3c0-0.9,0.1-1.7,0.2-2.5v-0.7
		c-0.3-1.2-0.4-2.4-0.2-3.7c0.1-1.3,0.1-2.5,0-3.7V160.3z M885.9,150.3c0.3-0.5,0.2-0.9-0.2-1.4c-0.9-0.7-1.8-1.5-2.6-2.3
		c-0.8-0.8-1.8-1.4-2.8-1.8c-0.6-0.3-1.1-0.6-1.6-0.9c-0.5-0.3-0.9-0.7-1.4-1.1c-0.3-0.5-0.7-0.8-1.1-1.1c-0.5-0.3-1-0.6-1.6-0.9
		l-2.3-1.1c-0.6-0.1-1.1-0.6-1.6-1.4c-0.4-0.7-1.1-1.3-1.9-1.7c-0.8-0.4-1.6-0.7-2.4-1c-0.9-0.4-1.6-0.3-2,0.5
		c-0.6,0.3-1,0.6-1.1,0.9c-0.9,1.7-2.1,3.1-3.6,4.3l-1.8,2c-0.8,0.8-1.5,1.4-2.4,1.9c-0.8,0.5-1.6,1.1-2.4,1.7
		c-1.2,0.9-2.4,1.7-3.7,2.3c-1.3,0.6-2.5,1.3-3.7,2c-0.8,0.5-1.4,0.7-1.8,0.7c-0.8,0-1.6,0.3-2.5,0.9l-0.9,0.7
		c-1.1,0.3-2,0.6-2.9,0.9c-0.9,0.3-1.9,0.5-2.9,0.7c-1.2,0-2.3,0.2-3.2,0.7c-0.9,0.5-1.9,0.5-2.9,0.2h-6.3c-1.2,0.6-2.8,0.6-4.7,0
		c-0.2-0.1-0.3-0.2-0.4-0.2c-0.2,0-0.4-0.1-0.7-0.2l-4.5-0.9c-1.5-0.3-2.9-0.7-4.3-1.4l-2.9-0.7c-1.4-0.3-2.3-0.8-2.9-1.6
		c-0.4-0.7-1.4-1.4-2.7-1.8c-0.6-0.1-1.4-0.7-2.3-1.6c-0.3-0.3-0.6-0.6-1-0.8c-0.4-0.2-0.7-0.4-1-0.6c-1-0.3-1.9-0.8-2.6-1.6
		c-0.7-0.7-1.4-1.5-2.1-2.3c-0.8-1.2-1.6-2.1-2.5-2.7c-0.9-0.6-1.6-1.4-2-2.5l-1.4-2.5c-0.8-0.9-1.4-1.8-2-2.6
		c-0.6-0.8-1.1-1.8-1.4-3l-0.5-0.5c-0.6-1.2-1.1-2.5-1.5-3.8c-0.4-1.4-0.8-2.7-1.2-4.1c-0.2-0.3-0.2-0.7-0.2-1.4
		c-0.3-1.5-0.6-2.8-0.9-3.8c-0.3-0.9-0.5-1.8-0.6-2.7c-0.1-0.9-0.2-1.8-0.3-2.7c0-0.5,0-0.9,0.1-1.4c0.1-0.5,0.1-0.9,0.1-1.4
		c0.3-0.6,0.5-1.2,0.5-1.8c-0.2-0.5-0.2-0.9-0.1-1.5c0.1-0.5,0.1-1.1,0.1-1.7c0-0.7,0-1.5,0.1-2.1c0.1-0.7,0.3-1.4,0.6-2.1
		c0.3-0.4,0.4-1.3,0.4-2.5c0.2-0.1,0.2-0.3,0.1-0.5c-0.1-0.1,0-0.3,0.1-0.4c0.3-0.6,0.5-1.2,0.7-1.8l0.4-1.8c0-0.3,0.1-0.5,0.2-0.7
		c0.6-1.1,1.1-2.3,1.4-3.6c0.2-0.3,0.3-0.6,0.3-0.8c0.1-0.2,0.3-0.5,0.6-0.8c0.4-0.4,0.8-1,1.1-1.6l0.9-1.8c0.3-0.6,0.7-1.2,1.1-1.7
		c0.5-0.5,0.9-1.1,1.4-1.7l0.5-0.5l2-2.7c0.4-0.6,0.9-1.1,1.5-1.6c0.5-0.4,1-0.9,1.5-1.4l1.6-1.1c0.7-0.3,1.2-0.7,1.4-1.4
		c0.6-0.9,1.4-1.6,2.5-2c0.7-0.3,1.4-0.6,1.9-1c0.5-0.4,1.1-0.7,1.7-1c1.4-0.7,2.6-1.4,3.8-1.8l0.2-0.2l2-0.9
		c0.7-0.1,1.5-0.4,2.4-0.8c0.8-0.4,1.7-0.6,2.6-0.6c0.3,0,0.5-0.1,0.6-0.2c0.1-0.1,0.3-0.3,0.6-0.5c0.7-0.4,1.6-0.6,2.5-0.4
		c1.4,0,2.6-0.2,3.8-0.7c0.4-0.1,1-0.2,1.8-0.2c3.5,0,6.8,0.2,9.9,0.7c0.3,0.2,0.5,0.2,0.7,0.1c0.1-0.1,0.4-0.1,0.7-0.1
		c1.8-0.3,3.5,0,5,0.9c0.7,0.6,1.8,0.9,3.2,0.9c0.3,0,0.5,0,0.7,0.1c0.2,0.1,0.3,0.1,0.5,0.1c0.9,0.5,1.8,0.9,2.7,1.2
		c0.9,0.4,1.7,0.9,2.5,1.5c0.6,0.6,1.5,1.1,2.7,1.6c1.6,0.8,3,1.7,4.1,2.9c0.7,0.8,1.6,1.4,2.7,1.8c0.9,0.2,1.6,0.8,2,1.8l0.5,0.7
		c0.5,1.1,1,1.9,1.8,2.6c0.7,0.7,1.5,1.4,2.3,2.1c0.6,0.8,1.2,0.8,1.8,0.2c1-0.3,1.9-0.7,2.5-1.4l3.6-2.5c0.9-0.6,1.6-1.1,2-1.6
		c0.3-0.3,0.6-0.5,0.9-0.7c0.3-0.1,0.6-0.4,0.9-0.7c0.6-0.2,1.2-0.5,1.8-1.1c0.9-0.9,1.9-1.6,2.9-2l4.5-3.6c0.9-0.6,1-1.5,0.2-2.7
		c-0.2,0-0.4-0.1-0.7-0.5c-1.1-0.7-2.1-1.9-3.2-3.4l-0.5-0.5c-0.6-0.3-1.1-1-1.6-2c-0.6-0.9-1.2-1.5-1.8-1.8c-0.5-0.1-1-0.7-1.6-1.6
		c-0.5-0.9-1.1-1.6-2-2c-0.2,0-0.5-0.1-1.1-0.4l-1.4-0.9c-0.5-0.3-0.8-0.6-1.1-0.9c-1.2-1.4-2.9-2.6-5.2-3.6
		c-0.8-0.3-1.5-0.7-2.4-1.4c-0.8-0.6-1.7-1-2.6-1.4c-0.3,0-0.5-0.1-0.6-0.2c-0.1-0.1-0.3-0.3-0.6-0.4c-0.8-0.7-1.6-1.4-2.5-1.8
		c-0.9-0.5-1.8-0.8-2.7-1.1c-0.8-0.3-1.5-0.5-2.4-0.7c-0.8-0.1-1.6-0.4-2.4-0.7c-1.7-0.6-3.3-1-4.8-1.2c-1.6-0.2-3.1-0.7-4.6-1.5
		h-0.7c-1.2-0.2-2.3-0.3-3.4-0.6c-1.1-0.2-2.2-0.2-3.4,0.1c-0.3,0.2-0.5,0.2-0.7,0.1c-0.2-0.1-0.4-0.1-0.7-0.1l-4.1-0.7h-4.3
		l-2.9,0.5c-1,0-2.1,0-3.2,0.1c-1.1,0.1-2.1,0.3-3.2,0.8c-0.3,0.2-0.7,0.2-1.1,0.2c-1.8,0-3.3,0.3-4.5,0.9l-1.6,0.4l-2.5,0.7
		l-1.4,0.4l-6.8,2.5l-0.9,0.4c-0.5,0.5-1.1,0.8-2,1.1c-0.6,0-1.2,0.2-1.8,0.5c-0.4,0.6-1,1.1-1.6,1.4c-0.6,0.3-1.2,0.7-1.8,1.1
		c-1.1,0.8-2.1,1.5-3.2,2.2c-1.1,0.7-2.1,1.4-3.2,2.2l-1.8,1.4c-0.6,0.5-1.1,0.9-1.6,1.4c-0.4,0.5-0.9,0.9-1.4,1.3
		c-0.4,0.4-1,0.7-1.6,1c-0.8,0.4-1.2,0.9-1.4,1.6c-0.4,0.8-1,1.4-1.8,1.8c-0.6,0.2-1.1,0.5-1.4,1.1c-0.6,1.2-1.5,2.4-2.7,3.6
		l-0.7,0.7l-2.9,4.5l-2,3.2c-0.3,0.6-0.6,1.2-1,1.8c-0.4,0.6-0.8,1.2-1.2,1.8c-0.6,0.8-1,1.6-1.1,2.5c0,0.9-0.3,1.6-0.9,2
		c-0.6,0.6-0.9,1.4-0.9,2.5l-0.9,2.7l-1.1,2.7c0,0.3-0.2,0.8-0.4,1.4c-0.5,0.8-0.6,1.6-0.5,2.5c0,1.1-0.2,1.9-0.7,2.5
		c-0.4,0.8-0.7,1.5-0.7,2.3c0.3,0.9,0.4,1.8,0.2,2.7c-0.1,0.9-0.4,1.8-0.7,2.7c-0.1,0.8-0.3,1.4-0.3,2c-0.1,0.6,0,1.3,0.1,2
		c0.2,0.3,0.2,0.8,0.2,1.4l-0.4,5c-0.3,1.2-0.2,2.2,0.2,2.9c0.2,0.8,0.3,1.4,0.5,2c0.2,0.6,0.2,1.3,0.2,2c0,0.8,0.1,1.3,0.2,1.6
		c0.6,1.2,0.8,2.3,0.7,3.4c-0.3,1.1-0.1,2.3,0.7,3.6c0.5,0.8,0.6,1.4,0.5,2c0,0.9,0.2,1.7,0.7,2.3c0.3,0.3,0.5,0.5,0.5,0.7
		c0.3,1.2,0.7,2.3,1.4,3.4c0.6,1.1,1.1,2.2,1.6,3.4c0.4,1.5,1,2.9,1.7,4.2c0.7,1.3,1.4,2.5,2.1,3.7c0,0.3,0.1,0.5,0.2,0.6
		c0.1,0.1,0.3,0.3,0.5,0.6l2.7,4.3c0.4,0.8,1.1,1.5,2,2.3l1.1,1.6l3.6,4.5l0.9,0.7c1.1,0.6,2,1.3,2.8,2c0.8,0.8,1.6,1.5,2.4,2.3
		l2.3,1.6l1.6,1.4c1.8,1.5,3.5,2.6,5.2,3.4c0.5,0,1,0.3,1.6,0.9c0.8,0.8,1.5,1.4,2.4,1.9c0.8,0.5,1.8,0.9,3,1c0.3,0,0.5,0.1,0.7,0.2
		l5.9,2.5l1.8,0.7l5.2,1.4l2.3,0.7c0.7,0,1.5,0.1,2.1,0.2c0.7,0.1,1.4,0.3,2.1,0.4c0.7,0.3,1.5,0.5,2.4,0.7c0.8,0.1,1.7,0.2,2.6,0.2
		c0.9,0,1.8,0.1,2.7,0.2c0.9,0.1,1.7,0.1,2.5-0.2c0.4-0.3,1-0.3,1.6,0c1.4,0.3,2.8,0.3,4.3,0c1.4,0,2.3-0.1,2.9-0.2
		c0.3-0.2,0.8-0.2,1.4-0.2c0.7,0,1.5-0.1,2.4-0.2c0.8-0.2,1.6-0.3,2.4-0.4c1.2-0.3,2.3-0.6,3.4-0.8c1.1-0.2,2.1-0.5,3.2-0.8
		c0.6-0.3,1.2-0.5,1.7-0.6c0.5-0.1,1-0.3,1.5-0.6l2.7-0.7c0.7,0,1.4-0.3,2-0.9c0.3-0.2,0.5-0.3,0.7-0.5c0.1-0.1,0.4-0.2,0.7-0.2
		c0.7-0.3,1.5-0.6,2.4-1c0.8-0.4,1.6-0.8,2.4-1.2c0.9-0.6,2.1-1.1,3.6-1.6c1.2-0.5,2.3-1.1,3.2-2c0.6-0.3,1.1-0.7,1.6-1.1
		c0.5-0.5,1-0.7,1.8-0.9l0.5-0.5l2.9-2.5c1.4-0.9,2.7-2,4.1-3.4l1.8-1.8c0.3-0.3,0.5-0.5,0.7-0.6c0.1-0.1,0.3-0.3,0.5-0.6
		c0.3-0.6,0.7-1.1,1.1-1.6l1.4-1.4c0.9-0.9,1.5-1.6,1.8-2.3c0.4-0.6,0.9-1.1,1.4-1.4C885.1,151.8,885.6,151.1,885.9,150.3
		 M1018.1,107c0,1.5-0.1,2.5-0.2,3.1l-0.5,2.2c-0.2,0.7-0.1,1.5,0.2,2.2c0,0.5-0.1,0.8-0.2,0.9l-0.7,3.1c0,0.6-0.1,1-0.2,1.3
		c-0.6,0.9-0.8,1.9-0.7,2.9c0,0.3-0.1,0.6-0.2,0.8c-0.2,0.2-0.3,0.5-0.5,0.8c-0.8,0.9-1.2,2-1.4,3.4c-0.3,0.9-0.6,1.5-0.9,1.8
		c-0.8,1.2-1.4,2.4-2,3.5c-0.6,1.1-1.4,2.2-2.3,3.3l-0.9,0.9c-0.3,0.3-0.6,0.7-0.9,1.1c-0.6,0.7-1.2,1.5-1.9,2.2
		c-0.7,0.7-1.5,1.4-2.4,2c-0.3,0.7-0.8,1.3-1.4,1.7c-0.6,0.4-1.2,0.8-1.8,1.2c-0.6,0.6-1.1,1.1-1.6,1.5c-0.5,0.4-1,0.7-1.8,1
		l-1.1,0.7c-0.6,0.6-1.7,1.2-3.2,1.8c-0.8,0.1-1.5,0.6-2.3,1.3c-1.2,0.6-2.1,0.8-2.7,0.7c-0.5-0.3-0.9-0.2-1.4,0.2
		c-1.2,0.7-2.5,1.3-3.8,1.6c-1.4,0.3-2.7,0.5-4.1,0.7l-2.7,0.7c-0.8,0.5-1.7,0.5-2.7,0.2c-1.2-0.3-2.5-0.5-3.8-0.5h-3.6
		c-2.9,0.2-5.6-0.4-8.1-1.8c-0.9-0.6-1.7-0.8-2.3-0.7c-1.1,0.2-2-0.1-2.9-0.7l-3.4-1.8l-4.1-2c-0.8-0.5-1.4-0.9-2-1.5
		c-0.6-0.5-1.3-0.9-2-1.2c-0.3-0.1-0.8-0.5-1.4-1.1c-0.4-0.6-1.1-1.1-2-1.6c-0.5-0.3-0.8-0.6-1-1c-0.2-0.4-0.5-0.7-0.8-1
		c-0.6-1-1.2-2-1.8-2.8c-0.6-0.8-1.4-1.6-2.3-2.4c-0.5-0.3-0.8-0.8-0.9-1.6c-0.3-0.7-0.6-1.5-1-2.1c-0.4-0.7-0.9-1.3-1.5-1.9
		c-0.4-0.5-0.7-1-0.7-1.6c-0.3-1.1-0.8-1.9-1.4-2.7c-0.3-0.5-0.5-0.9-0.7-1.4c-0.2-0.5-0.4-0.9-0.7-1.4c-0.3-0.9-0.6-1.8-0.8-2.8
		c-0.2-1-0.3-2-0.3-3l-0.7-3.6c-0.2-0.4-0.2-1-0.2-1.6c0-0.3,0-0.6,0.1-0.8c0.1-0.2,0.1-0.4,0.1-0.6c-0.5-1.4-0.6-2.7-0.3-3.9
		c0.2-1.3,0.3-2.6,0.1-3.9c0-0.6,0.1-1.1,0.2-1.4c0.3-0.9,0.4-1.7,0.2-2.3c0-0.4,0.1-1.1,0.4-2c0.6-1.7,1-3.1,1.1-4.3
		c0.3-1.1,0.6-1.7,0.9-2l0.7-0.9c0.3-0.7,0.6-1.5,0.8-2.1c0.2-0.7,0.5-1.4,0.8-2.1c0.2-0.3,0.2-0.6,0.2-0.8c0-0.2,0.1-0.4,0.2-0.6
		c0.6-0.7,1.1-1.6,1.5-2.5c0.4-0.9,0.9-1.7,1.7-2.5l0.5-0.4c1.2-1.8,2.6-3.5,4.2-5c1.6-1.5,3.2-2.9,4.8-4.3c1.4-1.2,2.8-2.3,4.3-3.2
		c1.5-0.9,3-1.7,4.5-2.5l1.4-0.7l2.3-0.7l1.1-0.7c0.9-0.3,1.6-0.6,2.3-0.9c0.9-0.5,1.8-0.7,2.7-0.7c2.4,0,4.5-0.3,6.3-0.9
		c0.6-0.1,1.4-0.2,2.5-0.2c1.4,0.2,2.8,0.2,4.3,0c2.4-0.1,4.8,0.1,7.2,0.7c0.9,0.5,1.9,0.7,2.9,0.7c0.9,0.3,1.7,0.6,2.3,0.9
		c0.4,0.3,0.9,0.5,1.4,0.6c0.4,0.1,0.8,0.2,1.1,0.3c1,0.3,2,0.6,2.9,0.8c0.9,0.2,1.7,0.7,2.5,1.5l0.7,0.2c0.9,0.3,1.7,0.7,2.5,1.2
		c0.7,0.5,1.5,1.1,2.3,1.7c0.5,0.3,0.9,0.6,1.5,0.9c0.5,0.3,0.9,0.6,1.2,0.9c0.4,0.3,0.8,0.7,1.1,1.1c0.3,0.5,0.7,0.8,1.1,1.1
		c0.9,0.6,1.7,1.3,2.4,2c0.7,0.8,1.4,1.4,2.1,2c0.6,0.6,1,1.1,1.1,1.4c0.3,0.8,0.6,1.4,0.9,1.8c0.3,0.5,0.7,1,1.1,1.6
		c0.3,0.6,0.6,1.2,1,1.7c0.4,0.5,0.7,1.2,1,1.9c0.3,0.9,0.6,1.5,0.9,1.8c0.4,0.5,0.8,0.9,1,1.5c0.2,0.5,0.5,1,0.8,1.5
		c0.2,0.4,0.3,0.9,0.5,1.2c0.1,0.4,0.3,0.7,0.5,1c0.6,1.2,0.9,2.1,0.9,2.7c0,0.8,0.1,1.4,0.2,2l0.5,1.8c0.3,1.2,0.3,2.2,0,2.9
		c0,0.6,0.1,1.1,0.2,1.3c0.5,0.7,0.7,1.5,0.7,2.2V107z M1044,106.4c0-0.6,0.1-1.3,0.2-2c-0.2-0.9-0.2-1.8-0.2-2.6
		c0-0.8-0.2-1.6-0.5-2.4c-0.2-0.3-0.2-0.5-0.1-0.7c0.1-0.2,0.1-0.4,0.1-0.7l-0.5-2.5c-0.3-1.5-0.6-3-0.8-4.5
		c-0.2-1.5-0.7-2.9-1.5-4.3c-0.3-0.3-0.5-0.7-0.5-1.1c0-0.4-0.1-0.9-0.2-1.3c-0.3-1.2-0.6-2.3-1-3.4c-0.4-1.1-0.9-2.2-1.5-3.4
		l-2.7-5.4c0-0.2-0.2-0.4-0.5-0.7l-2.7-4.5l-1.6-2.5c-1.4-1.2-2.2-2.4-2.5-3.6c-0.5-0.7-1.1-1.4-1.8-2c-1.2-0.9-2-1.6-2.3-2.2
		c-0.5-0.9-1.1-1.5-1.8-1.8c-1.1-0.6-2-1.3-2.7-2c-0.8-0.7-1.6-1.4-2.5-2c-0.8-0.9-1.5-1.6-2.4-2.2c-0.8-0.6-1.7-1.2-2.6-1.8
		l-0.4-0.4c-1.2-0.9-2.3-1.6-3.4-2c-1.1-0.1-2.1-0.7-3.2-1.8c-0.6-1-1.5-1.6-2.7-1.6c-1.2-0.3-2.3-0.8-3.2-1.4
		c-1.2-0.6-2.1-1-2.7-1.2c-0.9-0.2-1.7-0.6-2.5-1.2c-0.8-0.5-1.5-0.7-2.3-0.7c-1.1,0-1.8-0.1-2.3-0.2l-2.7-0.9
		c-0.9-0.3-1.9-0.5-2.9-0.5h-0.5c-1.2-0.4-2.5-0.7-3.8-0.9c-1.4-0.1-2.6-0.4-3.8-0.7h-1.4c-0.8,0.3-1.6,0.4-2.5,0.3
		c-0.9-0.1-1.8-0.2-2.7-0.3c-1.4-0.2-2.9,0-4.7,0.4c-0.9,0.3-1.6,0.4-2,0.2c-1.1-0.1-2-0.1-2.9,0l-2.7,0.5l-1.8,0.7
		c-1.4,0-2.4,0.1-3.2,0.2c-0.4,0.2-0.9,0.4-1.4,0.7c-0.4,0.3-1,0.4-1.6,0.4l-5.2,1.6l-1.8,0.9c-0.8,0.7-1.6,1.1-2.5,1.1
		c-0.9,0-1.7,0.4-2.5,1.1c-0.9,0.9-1.7,1.4-2.5,1.6c-1.2,0.3-2.3,0.8-3.2,1.4c-0.9,0.7-2,1.3-3.2,1.9c-0.5,0.3-0.9,0.6-1.4,1
		c-0.5,0.4-1,0.8-1.6,1.2l-2,1.8c-1.4,1-2.6,2.2-3.8,3.3l-3.6,3.6c-0.8,1-1.5,1.9-2.4,2.7c-0.8,0.7-1.6,1.7-2.4,2.9
		c-0.3,0.5-0.7,0.9-1.1,1.4c-0.4,0.5-0.8,1-1.1,1.6c-0.6,0.8-1.1,1.4-1.6,2c-0.4,0.6-0.8,1.4-1.1,2.3c0,0.5-0.2,0.7-0.5,0.7
		c-0.9,0.9-1.5,2.3-1.8,4.1c-0.3,0.9-0.6,1.5-0.9,1.8c-0.9,0.9-1.4,2-1.6,3.2c0,0.3-0.2,0.8-0.4,1.4c-0.3,0.8-0.6,1.5-0.9,2.4
		c-0.3,0.8-0.6,1.6-0.9,2.4c-0.3,0.9-0.5,1.7-0.5,2.3c-0.2,0.5-0.2,0.9-0.2,1.2c0,0.4-0.2,0.7-0.4,1c-0.3,0.5-0.5,0.9-0.5,1.4
		c0,0.5-0.1,1-0.2,1.6c-0.3,1.4-0.5,2.7-0.7,4c-0.2,1.3-0.5,2.5-0.9,3.7c-0.1,0.6-0.1,1.1,0,1.6c0.5,0.8,0.5,1.8,0.2,3.2
		c-0.3,0.8-0.3,1.6,0,2.5c0,1.2-0.1,2.1-0.4,2.7c-0.3,0.8-0.2,1.4,0.2,1.8c0.5,0.6,0.7,1.6,0.7,2.9c-0.1,1.4,0,2.9,0.5,4.5
		c0.2,0.2,0.2,0.4,0.2,0.7c0.2,2.1,0.6,4.1,1.5,6c0.8,1.9,1.4,3.9,1.7,6c0.6,1.2,1.2,2.4,1.7,3.5c0.5,1.1,0.9,2.3,1.2,3.5
		c0.3,0.8,0.7,1.5,1.1,2.4c0.5,0.8,0.8,1.6,1.1,2.4c0.7,1.2,1.5,2.3,2.3,3.4c0.7,1.1,1.5,2.2,2.3,3.4l0.2,0.2c0.6,0.8,1.2,1.4,1.7,2
		c0.5,0.6,1,1.3,1.5,2l1.6,1.8c0.9,0.6,1.5,1.1,1.8,1.6c0.1,0.8,0.7,1.4,1.6,2c0.7,0.4,1.4,1.1,1.8,1.8c0.5,0.8,1.2,1.4,2.3,1.8
		c0.3,0,0.5,0.1,0.7,0.2c0.2,0.2,0.4,0.3,0.7,0.5c1.6,1.7,3.5,2.9,5.4,3.8l1.4,0.9c0.6,0.5,1.2,0.9,1.8,1.2c0.6,0.4,1.3,0.7,2,1
		c0.3,0.3,0.6,0.5,0.9,0.6c0.3,0.1,0.6,0.3,0.9,0.6c1.2,0.9,2.4,1.6,3.6,2c1.2,0.4,2.4,1.1,3.6,1.8c1.2,0.3,2.3,0.6,3.3,1
		c1,0.4,2.1,0.7,3.3,1l2.7,0.5c0.3,0.1,0.5,0.2,0.7,0.1c0.2-0.1,0.3,0,0.5,0.1c1.7,0.8,3.3,1.2,5.1,1.4c1.7,0.2,3.4,0.4,5.1,0.7
		c0.3,0.1,0.5,0.2,0.7,0.1c0.1-0.1,0.4-0.1,0.7-0.1c0.7-0.3,1.6-0.4,2.5-0.2c0.6,0.3,1.2,0.5,1.8,0.5h2.3c0.9,0,1.7,0.1,2.5,0.2
		l0.7-0.2c0.6-0.3,1.2-0.5,1.7-0.6c0.5-0.1,1.2-0.1,1.9-0.1c1,0.2,2.3,0,3.8-0.4c0.3-0.3,0.7-0.5,1.4-0.5c1.2,0,2.4-0.2,3.5-0.5
		c1.1-0.3,2.3-0.6,3.5-0.9c0.7-0.3,1.5-0.6,2.1-0.8c0.7-0.2,1.4-0.5,2.1-0.8h0.2c0.1-0.1,0.4-0.2,0.7-0.2l1.8-0.9
		c0.6-0.3,1.3-0.5,2-0.7c0.9-0.3,1.8-0.7,2.6-1.1c0.8-0.5,1.6-0.8,2.4-1.1c0.4-0.3,0.9-0.6,1.2-0.8c0.4-0.2,0.9-0.4,1.5-0.6
		c0.3,0,0.7-0.2,1.1-0.7c0.6-0.9,1.6-1.6,2.9-2.3c1.1-0.5,1.9-1.1,2.5-1.8l1.6-1.4c0.7-0.3,1.4-0.7,1.9-1.1c0.5-0.5,1-1,1.5-1.6
		l1.6-1.4c1-0.5,1.8-1.1,2.3-2c0.1-0.6,0.7-1.2,1.6-1.8c1-0.4,1.7-1.1,2-2c0.2-0.7,0.7-1.4,1.6-2c1.1-0.9,1.8-1.8,2.3-2.7
		c0.6-1.2,1.1-2,1.6-2.5c0.7-0.7,1.2-1.4,1.4-2c0.4-1.2,1.1-2.3,2-3.2c0.6-0.6,1-1.1,1.1-1.4c0.2-0.7,0.3-1.4,0.6-1.9
		c0.2-0.5,0.5-1.2,0.8-1.9l1.1-2.3c0.3-0.7,0.6-1.4,0.8-1.9c0.2-0.5,0.4-1.2,0.6-1.9c0-0.4,0.1-0.8,0.2-1.1c0.9-0.9,1.4-2.1,1.4-3.6
		c0-0.2,0.1-0.3,0.2-0.5c0.6-1.2,0.9-2.4,1-3.6c0.1-1.2,0.3-2.4,0.6-3.6v-0.7c0-0.3,0-0.6,0.1-0.8c0.1-0.2,0.1-0.5,0.1-0.8
		c0-0.6,0.2-1.3,0.5-2.3c0-1.2,0.1-2.3,0.2-3.3c0.1-1,0.1-2.1,0-3.3V106.4z M1236.1,176c-0.3-1.8-0.8-3.4-1.4-4.7
		c-0.2-0.3-0.3-0.6-0.5-1c-0.2-0.4-0.2-0.7-0.2-1c-0.3-1.2-0.6-2.3-1-3.3c-0.4-1-0.8-2.1-1.2-3.3l-0.7-1.8l-0.9-1.6
		c-0.2-0.5-0.2-1,0-1.6c0-0.5-0.1-0.7-0.2-0.9l-1.4-3.4c-0.5-0.7-0.8-1.6-0.9-2.5c-0.2-0.7-0.4-1.4-0.7-2c-0.3-0.6-0.6-1.3-0.9-2
		c-1.1-2.1-1.9-4.1-2.5-5.9c-0.3-1.2-0.7-2.4-1.2-3.5s-0.9-2.3-1-3.5c-0.6-1.5-1.1-3-1.4-4.5c-0.3-1.5-0.8-2.9-1.6-4.3l-0.5-1.1
		c-0.3-1.4-0.8-2.6-1.4-3.8c-0.6-1.2-1.1-2.4-1.4-3.6c0-0.3-0.1-0.4-0.2-0.4v-0.5c-0.6-0.7-0.9-1.7-0.9-2.9c0-1.4-0.4-2.6-1.1-3.8
		c-0.2-0.3-0.3-0.5-0.4-0.7c-0.2-0.1-0.2-0.4-0.2-0.7l-0.9-2.7c-0.3-0.9-0.7-1.7-1.3-2.5c-0.2-0.9-0.4-1.8-0.9-2.7
		c-0.4-0.9-0.8-1.9-1.1-2.9c-0.7-1.6-1.3-3.3-1.8-5.1c-0.4-1.7-1-3.4-1.6-5.1c-0.3-1.2-0.6-2.3-0.8-3.4c-0.2-1.1-0.7-2-1.4-2.9v-0.7
		c-0.3-1.2-0.7-2.3-1.3-3.2c-0.3-0.6-0.6-1.5-0.9-2.7c0-0.4-0.1-0.9-0.2-1.2c-0.1-0.4-0.3-0.7-0.4-1c-0.6-1.1-1-2.3-1.3-3.8
		c0-1.2-0.4-2.4-1.2-3.6c-0.3-0.3-0.6-0.9-1-1.8c-0.3-0.6-0.5-1.2-0.6-1.8c-0.1-0.6-0.4-1.2-0.8-1.8c-0.2-0.2-0.2-0.5-0.2-0.9
		c0-1.4-0.3-2.4-0.9-3.2c-0.8-1.2-1.3-2.4-1.7-3.6c-0.4-1.2-0.9-2.4-1.5-3.6v-0.9l-1.2-4.3c-0.4-0.6-0.6-1.4-0.6-2.3
		c0-0.3,0-0.5-0.1-0.6c-0.1-0.1-0.1-0.3-0.1-0.6c-0.5-0.8-1.1-0.9-1.8-0.5c-1.1,1.1-1.7,2-1.8,2.9c-0.2,0.9-0.6,2-1.4,3.2l-2,3.8
		c-0.6,1.5-1.4,3.1-2.5,4.7c-0.2,0.3-0.3,0.6-0.4,1c-0.2,0.4-0.2,0.7-0.2,1c0,0.8-0.3,1.4-0.9,2c-0.5,0.3-0.8,1-1.1,2
		c-0.3,0.4-0.5,0.9-0.6,1.4c-0.1,0.4-0.3,0.8-0.6,1.1l-1.6,3.2l-3.2,6.5l-0.9,1.8c-0.2,0.4-0.3,0.9-0.6,1.2
		c-0.2,0.4-0.4,0.8-0.6,1.2c-0.6,1.2-0.9,2-0.9,2.3c-0.3,1.1-0.7,1.8-1.1,2.3c-0.8,0.5-1.1,1.1-1.1,2c-0.2,0.6-0.5,1.5-1.2,2.7
		c-0.5,0.8-0.9,1.5-1.4,2.4c-0.5,0.8-0.9,1.6-1.2,2.4c-0.3,0.8-0.7,1.5-1,2.3c-0.4,0.8-0.8,1.5-1.3,2.3c-0.5,0.5-0.9,1.1-1.2,2
		c0,0.8-0.2,1.4-0.7,2c-0.5,0.3-0.8,1-1.1,2l-0.7,1.8c-0.6,0.9-1.1,1.9-1.5,2.9c-0.4,1.1-0.9,2-1.5,2.9c-0.5,0.8-0.8,1.4-1,2
		c-0.2,0.6-0.5,1.3-0.8,2c-0.3,0.8-0.6,1.5-1,2.3c-0.4,0.8-0.9,1.5-1.5,2.3c-0.6,0.8-1,1.6-1.1,2.5c0,0.8-0.2,1.3-0.4,1.6
		c-0.6,0.4-1.2,1.4-1.8,2.9c-0.1,0.3-0.4,0.5-0.7,0.6c-0.3,0.1-0.5,0-0.7-0.3c-0.6-0.7-1.1-1.4-1.6-2c-0.4-0.6-0.7-1.4-0.9-2.3
		c0-0.3-0.2-0.7-0.4-1.4c-0.3-0.6-0.6-1.1-1-1.6c-0.4-0.5-0.7-1-1-1.6c-0.3-0.5-0.6-1-0.8-1.6c-0.2-0.6-0.5-1.1-0.8-1.6l-1.3-2.9
		c-0.3-0.7-0.6-1.4-1-2c-0.4-0.6-0.7-1.2-1-1.8c-1.2-1.5-1.7-2.9-1.6-4.3c0.1-0.6-0.1-1.2-0.7-1.8l-1.1-1.6l-1.1-2.3
		c-0.3-0.7-0.6-1.5-0.9-2.4c-0.3-0.8-0.6-1.6-0.9-2.4c-0.4-1.7-1.2-3.1-2.2-4.3l-1.1-2c-0.3-0.5-0.5-0.9-0.7-1.4
		c-0.1-0.5-0.4-0.8-0.9-1.1l-0.7-1.6c-0.2-0.7-0.4-1.4-0.8-1.9c-0.4-0.5-0.7-1.2-1-1.9c-0.4-0.6-0.7-1.3-0.7-2
		c0-0.7-0.4-1.5-1.1-2.3c-0.9-0.9-1.6-2.2-2-3.8l-0.7-1.6c-0.8-1-1.2-2.2-1.4-3.4c-0.3-1.1-0.6-2-0.9-2.9c-0.3-0.9-0.9-1.7-1.8-2.5
		v-0.2c-0.6-1.2-1.2-2.3-1.8-3.3c-0.6-1-1.1-2.1-1.4-3.3c-0.6-1.6-1.5-3.6-2.7-5.9c-0.3-0.4-0.6-0.9-0.8-1.5c-0.2-0.5-0.5-1-0.8-1.5
		c-0.9-0.9-1.4-1.8-1.4-2.7c0-0.6-0.3-0.9-0.9-0.9c-0.4,0-0.8,0.2-0.9,0.7c-0.6,0.8-1.1,1.6-1.5,2.5c-0.4,0.9-0.8,1.8-1.2,2.7v1.1
		c0,0.6-0.3,1.5-0.9,2.7c-0.8,1.1-1.1,2-1.1,2.9c0,0.6-0.1,1.1-0.2,1.4c-0.8,2-1.5,3.6-2.3,5c-0.3,0.9-0.5,1.5-0.5,1.8
		c0,1.2-0.3,2.1-0.9,2.7c-0.5,0.8-0.8,1.6-0.9,2.5c0,1.1-0.2,1.9-0.7,2.5l-1.1,2.7c0,0.6-0.1,1-0.2,1.1c-0.3,0.5-0.5,0.9-0.7,1.5
		c-0.2,0.5-0.3,1-0.4,1.5c-0.3,0.9-0.6,1.7-0.9,2.3c-0.4,0.9-0.7,1.7-0.7,2.5c0,0.8-0.2,1.4-0.7,2c-0.4,0.4-0.8,1.1-1.1,2
		c-0.3,1.2-0.6,2.3-0.9,3.3c-0.3,1-0.6,2-0.9,3l-0.7,1.1c-0.6,0.6-0.9,1.4-0.9,2.3c0,0.8-0.2,1.6-0.7,2.5c-0.2,0.2-0.2,0.3-0.2,0.4
		c0,0.2-0.1,0.4-0.2,0.7c-0.3,1.7-0.8,3.1-1.4,4.3c-0.3,0.2-0.5,0.6-0.5,1.4l-1.1,2.7c-0.5,0.5-0.7,1.1-0.7,2c0,0.6-0.2,1.2-0.7,1.8
		c-0.6,0.9-0.9,1.8-0.9,2.7c0,0.8-0.3,1.7-0.9,2.9c-0.3,0.8-0.6,1.5-1,2.4c-0.4,0.8-0.7,1.6-1,2.4c-0.2,0.9-0.4,1.8-0.7,2.6
		c-0.3,0.8-0.6,1.6-0.9,2.4c-0.3,1.2-0.7,2.4-1.1,3.5c-0.5,1.1-0.8,2.3-1.1,3.5c0,0.2-0.2,0.5-0.4,1.1l-0.7,1.8l-0.9,2.3
		c-0.3,0.6-0.5,1.1-0.7,1.6c-0.2,0.5-0.2,1.1-0.2,1.8c0,0.5-0.2,1-0.5,1.6c-0.8,0.8-1.3,1.9-1.6,3.4c0,0.6-0.1,1.1-0.2,1.4
		c-0.5,1.2-1,2.5-1.6,3.8c-0.6,1.4-1.1,2.7-1.4,4.1c0,0.3-0.2,0.6-0.5,0.9c-0.3,0.6-0.4,1.1-0.4,1.4c-0.8,2.1-1.5,4.2-2.1,6.3
		c-0.7,2.1-1.5,4.2-2.6,6.3c-0.2,0.3-0.2,0.8-0.2,1.6l-0.4,1.4c-0.2,0.8-0.4,1.4-0.7,2l-0.9,1.8c-1.2,2-0.8,3.2,1.4,3.6
		c1.2,0.3,2.2,0.4,2.9,0.2c1-0.4,2.2-0.5,3.4-0.2h3.6c0.7,0.2,1.4,0.3,2,0.3c0.6,0.1,1.2,0,1.8-0.3c0.5-0.2,0.9-0.2,1.4,0
		c1.1,0.2,2.1,0.2,3.2,0c1.1-0.2,2.2-0.1,3.4,0.2c1.2,0.3,2.3-0.1,3.2-1.4l1.1-1.6c0.3-0.7,0.7-1.5,1.1-2.4c0.5-0.8,0.7-1.7,0.7-2.6
		c0-0.3,0.1-0.6,0.2-0.9l0.5-0.9c0.3-0.7,0.6-1.5,0.8-2.4c0.2-0.8,0.5-1.7,0.8-2.6c0.3-0.6,0.5-1.2,0.7-1.7c0.2-0.5,0.4-1.1,0.7-1.7
		c0.3-0.6,0.5-1.2,0.7-1.7c0.2-0.5,0.3-1.2,0.5-1.9c0-0.4,0.1-0.8,0.2-1.1c0.7-1,1.3-2.3,1.6-3.8c0.3-0.9,0.6-1.8,1-2.7
		c0.4-0.9,0.7-1.8,1-2.7l1.1-3.4c0-0.3,0.1-0.7,0.4-1.4c0.6-0.7,1-1.6,1.2-2.5c0.2-0.9,0.5-1.8,0.8-2.7l1.1-3.6
		c0.6-1.1,0.9-2.1,0.9-3.2c0.3-1,0.7-1.8,1.1-2.3c0.3-0.3,0.4-0.7,0.4-1.1l1.4-3.6c0.2-0.1,0.2-0.5,0.2-1.1c0.3-1.2,0.6-2.2,0.9-2.9
		l0.7-1.6c0.1-1.2,0.5-2.2,1.1-3c0.6-0.8,0.9-1.8,0.9-3l0.2-0.2c0.4-0.6,0.8-1.6,1.1-3.2c0-0.6,0.1-1,0.2-1.1
		c0.1-0.4,0.4-0.7,0.9-0.9c0.5-0.1,0.8,0.1,1.1,0.7c0.3,0.3,0.5,0.6,0.6,0.9c0.1,0.3,0.3,0.6,0.6,0.9c1.4,1.4,2.1,2.6,2.3,3.8
		c0,0.3,0.2,0.7,0.7,1.1c0.9,1.4,1.6,2.9,2,4.5c0.1,1.1,0.7,1.9,1.6,2.5c0.7,0.6,1.3,1.5,1.6,2.7c0.3,0.5,0.5,0.9,0.6,1.4
		c0.1,0.5,0.3,0.8,0.6,1.1c0.6,1.1,1.1,2.1,1.7,3c0.5,1,1,2,1.4,3c0.7,2.3,1.8,4.1,3.1,5.6l0.9,1.6c1.3,2.4,2.4,5,3.3,7.9
		c0.1,0.9,0.7,1.9,1.8,2.9c0.7,0.8,1.2,1.6,1.3,2.5c0.4,1.2,1,2.2,1.6,2.9l1.3,1.6c0.4,0.8,0.7,1.4,0.7,1.8c0,0.9,0.4,1.7,1.1,2.3
		c1,1.1,1.7,2.3,2,3.8l1.3,2.7c0.6,0.6,0.9,1.1,0.9,1.6c0.4,1.4,1.3,2.6,2.4,3.6c0.7,0.8,1.1,1.6,1.1,2.5c0.3,0.6,0.5,1.1,0.5,1.6
		c0.3,0.8,0.7,1.1,1.2,1.1c0.3,0,0.5-0.1,0.7-0.3c0.2-0.2,0.4-0.5,0.7-0.8c0-0.3,0.1-0.5,0.2-0.7c0.3-0.4,0.5-0.9,0.7-1.5
		c0.2-0.5,0.4-0.9,0.7-1.2c0.8-1.2,1.4-2.3,1.8-3.5c0.5-1.1,1.1-2.3,1.8-3.5c0.3-0.4,0.6-0.9,0.8-1.5c0.2-0.5,0.5-1,0.8-1.5
		c0.9-1.2,1.5-2.2,1.6-3.1l0.7-0.9l0.7-1.1l2.8-5.6l1.2-2.2c0.8-1,1.4-2.1,1.8-3.1c0.3-1.1,0.7-1.8,1.2-2.3c0.8-0.5,1.1-1.1,1.1-2
		c0.2-0.3,0.2-0.5,0.2-0.7c0-0.2,0.2-0.4,0.4-0.7c0.9-1.2,1.6-2.5,2-3.9c0.4-1.4,1.1-2.6,2-3.9l0.2-0.2l2.5-5
		c0.7-1.5,1.5-2.9,2.3-4.2c0.8-1.3,1.5-2.8,2.1-4.4c0-0.3,0.1-0.5,0.2-0.6c0.1-0.1,0.3-0.3,0.4-0.6l2-3.4c0.3-0.8,0.6-1.5,0.8-2.1
		c0.2-0.7,0.6-1.4,1-2.2c1.2-1.5,2-3.1,2.5-4.8c0-0.5,0.3-0.7,0.9-0.7c0.6,0,1,0.3,1.2,0.9l1.2,2.8c0.5,1.2,0.9,2.5,1.3,3.8
		c0.4,1.3,0.7,2.6,1,3.8c0.3,0.5,0.5,0.9,0.7,1.4c0.2,0.5,0.4,0.8,0.7,1.1c0.6,0.6,0.9,1.3,0.9,2.2c0,0.7,0.3,1.6,0.8,2.5
		c0.7,0.7,1,1.6,1,2.5c0.1,1.1,0.5,2.1,1.1,3.1c0.6,1.3,1,2.8,1.4,4.5c0,0.6,0.1,1.1,0.2,1.3c0.3,0.7,0.6,1.5,0.8,2.2
		c0.2,0.7,0.6,1.5,1,2.2c0.6,1.2,1.1,2.5,1.4,3.8c0.3,1.3,0.8,2.6,1.4,3.8c0.6,1.3,1.1,2.7,1.5,4.2c0.4,1.4,0.8,2.9,1.3,4.4l0.9,2.7
		c0.3,0.9,0.5,1.5,0.5,1.8c0.1,1.2,0.6,2.1,1.3,2.7c0.7,1.1,1.3,2.1,1.7,3.1c0.4,1.1,0.8,2.2,1.2,3.4c0.1,0.3,0.2,0.7,0.2,1.1
		c0.1,1.1,0.4,2,0.8,2.8c0.4,0.8,0.8,1.7,1.2,2.6c0.6,1.5,1.6,2.2,3.1,2c0.7-0.2,1.4-0.2,2-0.1c0.6,0.1,1.3,0.2,2,0.3h1.8
		c1.5-0.3,2.6-0.4,3.4-0.2h3.8c1.2,0.3,2.4,0.3,3.6,0c0.3-0.2,0.7-0.2,1.1-0.1c0.4,0.1,0.8,0.1,1.1,0.1h2.7
		C1235.9,178.3,1236.5,177.5,1236.1,176 M1323.5,52.8v-2.9c0-0.6,0.1-1.3,0.2-2v-1.1c-0.5-1.2-0.5-2.6-0.2-4.3V40
		c0-1.5-0.8-2.3-2.3-2.5c-0.4-0.2-0.9-0.2-1.5-0.1c-0.5,0.1-1.1,0.1-1.7,0.1c-0.3,0-0.7,0-1.1,0.1c-0.4,0.1-0.8,0-1.1-0.1
		c-1.2-0.2-2.3-0.2-3.3-0.1c-1,0.1-2,0-3-0.1c-0.3,0-0.6,0-0.9,0.1c-0.3,0.1-0.6,0.1-0.9,0.1c-0.3,0-0.6,0-1,0.1
		c-0.4,0.1-0.7,0-1-0.1c-1.2-0.2-2.3-0.2-3.4-0.1c-1.1,0.1-2.1,0-3.2-0.1h-0.9c-1.1,0.3-2.1,0.3-3.2,0.1c-1.1-0.2-2.2-0.2-3.4,0.1
		h-5.9c-0.8,0-1.4-0.1-2-0.2c-0.6-0.1-1.3-0.1-2,0.2c-0.9-0.3-1.8-0.4-2.7-0.2c-0.9,0.2-1.8,0.2-2.7,0.2c-0.8,0.2-1.6,0.2-2.5,0.1
		c-0.9-0.1-1.7-0.1-2.5-0.1c-0.8,0-1.5,0-2.4-0.1c-0.8-0.1-1.6,0-2.4,0.1c-0.9,0.2-1.8,0.2-2.8,0c-1-0.2-2-0.2-3,0
		c-0.6,0-1.2,0-1.8-0.1c-0.6-0.1-1.3,0-2,0.1c-0.9,0.2-1.8,0.1-2.8-0.1c-1-0.2-1.9-0.2-2.8,0.1h-0.9c-0.2,0-0.3,0-0.5-0.1
		c-0.2-0.1-0.4-0.1-0.7-0.1c-0.4,0-0.8,0.1-0.9,0.2c-0.6,0-0.9,0.2-0.9,0.4c-0.9,0.9-1.3,2-1.1,3.4l0.5,2c0,0.8,0,1.4-0.1,2
		c-0.1,0.6,0,1.3,0.1,2c0,0.5-0.1,0.9-0.2,1.5s-0.2,1-0.2,1.5c-0.2,0.6-0.2,1.1,0,1.6c0.2,0.4,0.3,1,0.5,1.6v4.1
		c-0.3,1.2-0.5,2.2-0.5,2.9c0,0.8,0.2,1.7,0.5,2.9v2.3c0,0.6-0.1,1.3-0.2,2c-0.2,2-0.2,3.9,0,5.9c0.2,0.8,0.2,1.5,0.2,2.3V78
		c-0.3,1.2-0.5,2.1-0.5,2.7c0,0.8,0.2,1.7,0.5,2.9c0,0.8,0,1.5-0.1,2.1c-0.1,0.7,0,1.4,0.1,2.1c0,0.6-0.1,1.1-0.2,1.6
		c-0.2,0.5-0.2,0.9-0.2,1.4c0,0.6,0.1,1.2,0.2,1.7c0.2,0.5,0.2,1.1,0.2,1.7c-0.2,0.6-0.2,1.2-0.1,1.8c0.1,0.6,0.1,1.3,0.1,2
		c-0.3,1.2-0.5,2.2-0.5,2.9c0,0.8,0.2,1.7,0.5,2.9v4.3c-0.3,1.2-0.5,2.2-0.5,2.9c0,0.8,0.2,1.7,0.5,2.9v4.3
		c-0.2,0.6-0.3,1.1-0.3,1.6c-0.1,0.5-0.1,0.9-0.1,1.4c0,0.8,0.2,1.7,0.5,2.9v4.3c-0.3,1.2-0.5,2.2-0.5,2.9c0,0.8,0.2,1.7,0.5,2.9
		v4.3c-0.3,1.2-0.5,2.2-0.5,2.9c0,0.8,0.2,1.7,0.5,2.9c0,0.8,0,1.4-0.1,2c-0.1,0.6,0,1.2,0.1,1.8c0,0.6-0.1,1.2-0.2,1.7
		c-0.2,0.5-0.2,1.1-0.2,1.7c0,0.8,0.2,1.9,0.5,3.4c0,0.6,0,1.2-0.1,1.7c-0.1,0.5,0,1.1,0.1,1.7c0,0.6-0.1,1.2-0.2,1.7
		c-0.2,0.5-0.2,1-0.2,1.5c-0.2,0.8-0.1,1.4,0.1,1.8c0.2,0.5,0.3,1.1,0.3,1.8c-0.2,0.4-0.2,0.9-0.1,1.5c0.1,0.5,0.1,1,0.1,1.5
		c0,1.5-0.2,2.6-0.5,3.4c-0.3,0.3-0.3,0.6,0,0.9c0.3,0.6,0.5,1.2,0.5,1.8v2c-0.2,1.1,0.4,1.7,1.6,2c1.4,0.4,2.6,0.5,3.6,0.2
		c0.6-0.3,1.2-0.4,1.8-0.2c1.2,0.3,2.4,0.4,3.5,0.2c1.1-0.1,2.3-0.1,3.5,0.2c0.3,0,0.6-0.1,0.9-0.2c1.2-0.4,2.4-0.4,3.6,0h0.9
		c0.6-0.1,1.2-0.2,1.7-0.1c0.5,0.1,1.1,0.1,1.7,0.1c0.3,0.2,0.7,0.2,1.1,0.2c0.9-0.3,1.8-0.4,2.7-0.4c0.9,0,1.9,0.1,2.9,0.2h3.2
		c0.9,0.3,1.9,0.3,2.9,0c0.7-0.4,1.7-0.5,2.7-0.2c0.3,0.2,0.8,0.2,1.4,0.2c0.6-0.1,1.2-0.2,1.7-0.1c0.5,0.1,1.1,0.1,1.7,0.1
		c0.1,0.2,0.5,0.2,1.1,0.2c2.1-0.4,3.9-0.5,5.4-0.2c0.4,0.2,0.9,0.2,1.5,0.1c0.5-0.1,1.1-0.1,1.7-0.1c1.4,0.3,2.6,0.2,3.8-0.2
		c0.3-0.2,0.6-0.2,0.8-0.1c0.2,0.1,0.5,0.1,0.8,0.1l6.3,0.4c0.5,0,0.8-0.1,1.1-0.2c1.2-0.3,2.3-0.4,3.2-0.2c0.3,0.2,0.7,0.2,1.1,0.2
		c0.8-0.1,1.4-0.2,1.9-0.1c0.5,0.1,1.1,0.1,1.7,0.1c0.5,0.2,1,0.2,1.6,0c0.9,0,1.4-0.4,1.4-1.4c0.3-1.5,0.4-2.6,0.2-3.4
		c-0.2-1.2-0.1-2.4,0.1-3.7c0.2-1.3,0.1-2.5-0.3-3.7v-0.7c0.1-1.6,0.3-3.2,0.3-4.7c0.1-1.5,0-3.1-0.3-4.7v-1.1v-0.5l0.2-0.5
		c0-0.7-0.4-1.3-1.1-1.6c-0.3-0.1-0.8-0.2-1.6-0.2c-1.1,0.3-2,0.2-2.7-0.2c-0.8-0.3-1.4-0.3-1.8,0c-0.8,0.4-1.8,0.5-3,0.2h-2.5
		c-1.1,0.3-2,0.2-2.7-0.2c-0.3,0-0.6,0-0.8-0.1c-0.2-0.1-0.5,0-0.8,0.1c-0.7,0.2-1.4,0.3-1.9,0.3c-0.5,0.1-1.2,0-1.9-0.1
		c-0.7-0.3-1.5-0.3-2.2,0c-1,0.3-1.9,0.2-2.7-0.2c-0.6-0.2-1.2-0.2-1.8,0c-0.7,0.4-1.6,0.5-2.7,0.2h-2.7c-1,0.3-1.9,0.2-2.7-0.2
		c-0.9-0.3-1.6-0.2-2.2,0.2c-0.9,0.2-1.7,0.2-2.5,0c-1-0.3-2-0.3-2.9,0c-1,0.3-1.9,0.2-2.7-0.2c-0.6-0.2-1.2-0.2-1.8,0
		c-0.2,0.2-0.4,0.2-0.7,0.2c-1.2,0.3-1.9-0.1-2-1.1c-0.5-1.5-0.5-2.8-0.2-3.8c0.1-1.1,0.1-2.2,0-3.4c0-0.9,0-1.8-0.1-2.7
		c-0.1-0.9-0.1-1.9-0.1-2.9c0-0.4,0.1-0.7,0.2-0.9c0.1-1.2,0.1-2.5,0-3.8c-0.2-1.1-0.2-2-0.2-2.9V128c0.2-0.8,0.3-1.5,0.3-2.3
		c0.1-0.7,0.1-1.5,0.1-2.3c0-1.1,0.5-1.6,1.4-1.6c0.5,0,0.7,0.1,0.9,0.2c0.3,0.2,0.9,0.1,1.8-0.2c1.1-0.6,2.3-0.7,3.8-0.2
		c0.8,0.3,1.6,0.4,2.5,0.2c0.9-0.2,1.8-0.1,2.7,0.2c0.4,0,0.7-0.1,0.9-0.2c0.7-0.3,1.5-0.5,2.1-0.5c0.7,0,1.4,0.1,2.1,0.2
		c0.5,0.2,1,0.2,1.8,0.2c1,0,1.8,0.1,2.3,0.2c0.9,0,1.7-0.1,2.3-0.2c0.9-0.6,1.9-0.7,3.2-0.2c1.2,0.3,2.2,0.4,2.9,0.2h1.4
		c1,0.3,2.4,0.1,4.1-0.7c0.7-0.5,1.2-1,1.4-1.8c0.3-0.7,0.4-1.6,0.3-2.5c-0.1-0.9-0.1-1.7-0.1-2.5c-0.2-1.1-0.3-2.1-0.3-3
		c-0.1-1,0-2,0.3-3v-1.4c0-0.6,0-1.2-0.1-1.8c-0.1-0.6-0.1-1.3-0.1-2c0-0.7,0-1.5-0.1-2.4c-0.1-0.8,0-1.6,0.3-2.4
		c0.1-1.5-0.4-2.3-1.6-2.5c-0.5-0.1-1.2-0.2-2.3-0.2c-0.9,0.3-1.8,0.3-2.7,0c-0.9-0.3-1.6-0.5-2-0.5c-0.9,0.3-1.8,0.5-2.7,0.5h-2.7
		c-0.9,0.3-1.9,0.2-2.9-0.2c-0.3,0-0.6,0-1-0.1c-0.4-0.1-0.7-0.1-1-0.1c-0.8,0.3-1.6,0.5-2.5,0.5h-2.3c-1.2,0.3-2.3,0.3-3.4,0
		c-0.8-0.5-1.7-0.5-2.9-0.2c-0.9,0.2-1.8,0.3-2.7,0.3c-0.9,0.1-1.8,0.1-2.7,0.1c-1.4,0-2.1-0.6-2.3-1.8c-0.3-1.2-0.4-2.3-0.3-3.4
		c0.1-1,0-2.2-0.1-3.4v-0.5l0.2-0.5c0.3-1.2,0.3-2.3,0-3.2c0-1.2-0.1-2.5-0.2-3.8c-0.2-1.4,0-2.6,0.5-3.8v-1.6l-0.5-5
		c-0.2-0.9-0.1-1.8,0.1-2.6c0.2-0.8,0.5-1.8,0.8-2.8h1.8l5-0.4c1,0,1.9,0.1,2.5,0.2c2.3,0.3,4.5,0.3,6.8,0c0.6-0.2,1.7-0.2,3.2-0.2
		c1.9,0.4,4.3,0.5,7,0.2c0.5-0.2,0.9-0.2,1.4-0.2h1.6c2.3,0.4,4.7,0.5,7.4,0.2c1.1-0.2,2.1-0.2,3.2,0c1.5,0.3,3,0.4,4.5,0.2
		c1.5-0.1,3-0.4,4.5-0.7c0.9,0,1.4-0.5,1.4-1.4c0-1.5,0.1-2.6,0.2-3.4c0-0.9-0.1-1.6-0.2-2C1323.3,55.4,1323.3,54.2,1323.5,52.8
		 M1455,52.1v-1.6c0-1.1,0-2.1,0.1-3c0.1-1,0.1-2,0.1-3c0-0.7-0.1-1.5-0.2-2.3c-0.2-0.7-0.2-1.5,0-2.3c0-1.7-0.8-2.3-2.5-2
		c-0.9,0-1.6-0.1-2-0.2h-1.6c-1.7,0-3.3,0.1-4.8,0.2c-1.6,0.2-3.2,0.1-4.8-0.2h-0.5c-1.7,0-3.3,0.1-4.8,0.2
		c-1.6,0.2-3.2,0.1-4.8-0.2h-0.5c-1.7,0-3.3,0.1-4.8,0.2c-1.6,0.2-3.2,0.1-4.8-0.2h-0.2c-1.7,0-3.3,0.1-5,0.2
		c-1.7,0.2-3.3,0.1-5-0.2h-0.7c-1.7,0-3.2,0.1-4.7,0.2c-1.5,0.2-3.1,0.1-4.7-0.2h-0.4c-1.7,0-3.3,0.1-4.8,0.2
		c-1.6,0.2-3.2,0.1-4.8-0.2h-0.7c-1.7,0-3.2,0.1-4.6,0.2c-1.4,0.2-3,0.1-4.6-0.2c-1.5-0.3-2.5,0.3-2.9,1.8c-0.2,0.5-0.2,1.1-0.2,2
		c-0.2,0.5-0.2,0.9-0.1,1.5c0.1,0.5,0,1-0.1,1.5c-0.2,0.8-0.1,1.7,0.2,2.9c0,0.3,0,0.6,0.1,1c0.1,0.4,0.1,0.7,0.1,1l-0.4,5.2
		c-0.3,0.9-0.3,1.8,0,2.7c0.4,1.1,0.5,2.2,0.2,3.4c-0.3,1.8,0.5,2.9,2.3,3.2c0.7,0.2,1.4,0.3,1.9,0.3c0.5,0.1,1.2,0,1.9-0.1
		c1.1-0.1,2.1-0.3,3-0.3c1-0.1,1.9,0,2.8,0.1c0.7,0.2,1.4,0.3,2,0.3c0.6,0.1,1.3,0,2-0.1c2.6-0.3,5.2-0.3,7.9,0
		c1.6,0,2.4,0.8,2.3,2.5c0,1.5,0.1,2.6,0.2,3.4c0.3,0.6,0.3,1.1,0,1.6c-0.5,1.2-0.6,2.6-0.5,4.3l0.2,1.6c-0.2,0.5-0.1,1.1,0.1,2
		c0.2,1.2,0.2,2.1,0,2.7c-0.2,0.6-0.3,1.2-0.3,1.8c0,0.6,0.1,1.2,0.2,1.8c0.1,0.6,0,1.2-0.2,1.8c-0.2,0.6-0.1,1.2,0.2,1.8l0.2,1.1
		l0.2,1.1c-0.5,0.8-0.7,1.6-0.7,2.5c0,0.9,0.1,1.7,0.2,2.5v0.4c-0.2,0.9-0.1,2,0.2,3.2c0.1,0.3,0.2,0.8,0.2,1.6
		c-0.6,0.8-0.9,1.5-0.8,2.4s0.1,1.7,0.1,2.6l0.2,0.9c-0.2,0.6-0.1,1.4,0.2,2.3c0,0.3,0,0.6,0.1,1c0.1,0.4,0,0.7-0.1,1
		c-0.5,1.4-0.6,2.9-0.5,4.7l0.2,1.4c-0.2,0.5-0.1,1.1,0.2,2c0.3,1.1,0.2,2-0.2,2.9c-0.2,0.6-0.2,1.4-0.2,2.5
		c0.2,0.6,0.2,1.4,0.2,2.5c0,0.5,0,0.8-0.1,1.1c-0.1,0.3,0,0.6,0.3,0.9c0.3,1.2,0.2,2.3-0.2,3.4c-0.2,0.6-0.2,1.4-0.2,2.3
		c0.2,0.6,0.2,1.5,0.2,2.7c0,0.9,0.1,1.6,0.2,2c0.3,1,0.2,2-0.2,2.9c-0.2,0.9-0.2,1.7-0.2,2.5l0.2,2.5c-0.2,0.6-0.1,1.3,0.2,2.2
		c0.3,1.2,0.2,2.2-0.2,3.1c-0.3,0.7-0.4,1.5-0.2,2.2l0.2,2c0,1.3,0.1,2.4,0.2,3.1c0.3,0.6,0.3,1.1,0,1.6c-0.5,1.3-0.6,2.8-0.5,4.5
		l0.2,3.1c0.4,1.3,0.4,2.6,0,3.8c-0.3,0.7-0.3,1.5,0,2.2c0.7,2.1,2.2,2.9,4.5,2.5c0.7-0.2,1.4-0.3,2.1-0.4c0.7-0.2,1.4-0.1,2.1,0.2
		h0.7c0.7-0.1,1.9-0.1,3.3,0.2c0.3,0,0.5,0,0.6,0.1c0.1,0.1,0.3,0,0.6-0.1c1.6-0.4,3.6-0.5,5.8-0.2c0.3,0.2,0.7,0.2,1.1,0.1
		c0.4-0.1,0.8-0.1,1.1-0.1c0.3,0,0.6,0,0.9,0.1c0.3,0.1,0.6,0.1,0.9,0.1c1.3,0,2-0.6,2-1.8c0.2-0.4,0.2-1.1,0.2-2
		c0-1.4,0.1-2.7,0.2-4.1c0.1-1.4,0.1-2.6-0.2-3.8c-0.2-0.3-0.2-0.6-0.1-0.9c0.1-0.3,0.1-0.6,0.1-0.9c0-1.5,0.1-3,0.2-4.4
		c0.1-1.4,0.1-2.8-0.2-4.2c-0.2-0.3-0.2-0.6-0.1-0.8s0.1-0.5,0.1-0.8c0-1.4,0.1-2.7,0.2-4.2c0.1-1.4,0.1-2.9-0.2-4.4
		c-0.2-0.3-0.2-0.6-0.1-0.9c0.1-0.3,0.1-0.6,0.1-0.9c0-1.4,0.1-2.7,0.2-4.2c0.1-1.4,0.1-2.8-0.2-4.2c-0.2-0.3-0.2-0.6-0.1-0.8
		s0.1-0.5,0.1-0.8c0-1.5,0.1-3,0.2-4.4c0.1-1.4,0.1-2.8-0.2-4.2c-0.2-0.3-0.2-0.6-0.1-1c0.1-0.4,0.1-0.7,0.1-1
		c0-1.4,0.1-2.7,0.2-4.1c0.1-1.4,0.1-2.7-0.2-4.1c-0.2-0.3-0.2-0.6-0.1-0.9c0.1-0.3,0.1-0.6,0.1-0.9c0-1.4,0.1-2.7,0.2-4.1
		c0.1-1.4,0.1-2.8-0.2-4.3c-0.2-0.3-0.2-0.6-0.1-0.9c0.1-0.3,0.1-0.6,0.1-0.9c0-1.1,0-2,0.1-2.9c0.1-0.9,0.1-1.9,0.1-2.9v-1.1
		c-0.2-0.7-0.2-1.9-0.2-3.4c0-1.4,0.1-2.7,0.2-3.9c0.1-1.3,0.1-2.6-0.2-3.9c-0.2-0.3-0.2-0.6-0.1-0.8c0.1-0.2,0.1-0.5,0.1-0.8
		c0-1.5,0.1-3,0.2-4.5c0.1-1.5,0.1-3-0.2-4.5v-0.9c0-1.5,0.1-3,0.2-4.4c0.1-1.4,0.1-2.8-0.2-4.2c0-0.3,0.1-0.5,0.2-0.7
		c0-0.7,0.3-1.1,0.9-1.1h1.4c0.3,0.2,0.6,0.2,1,0.1c0.4-0.1,0.7-0.1,1-0.1c1.1,0,2.1-0.1,3.1-0.2c1-0.1,2-0.1,3.1,0
		c0.8,0.2,1.6,0.3,2.4,0.3c0.8,0.1,1.6,0,2.4-0.1c0.8-0.1,1.5-0.2,2.3-0.2h2.3c0.8,0,1.4,0,1.9,0.1c0.5,0.1,1.1,0.2,1.7,0.3
		c0.3,0,0.6,0,1-0.1c0.4-0.1,0.7-0.1,1-0.1c1.1-0.1,1.6-0.8,1.6-2c0-0.3,0-0.6,0.1-0.9c0.1-0.3,0.1-0.6,0.1-0.9
		c0.1-1.4,0.3-2.7,0.3-4.1C1455.4,54.8,1455.3,53.5,1455,52.1 M1576.6,107c0,1.5-0.1,2.5-0.2,3.1l-0.4,2.2c-0.2,0.7-0.1,1.5,0.2,2.2
		c0,0.5-0.1,0.8-0.2,0.9l-0.7,3.1c0,0.6-0.1,1-0.2,1.3c-0.6,0.9-0.8,1.9-0.7,2.9c0,0.3-0.1,0.6-0.2,0.8c-0.2,0.2-0.3,0.5-0.5,0.8
		c-0.8,0.9-1.2,2-1.4,3.4c-0.3,0.9-0.6,1.5-0.9,1.8c-0.8,1.2-1.4,2.4-2,3.5c-0.6,1.1-1.4,2.2-2.3,3.3l-0.9,0.9
		c-0.3,0.3-0.6,0.7-0.9,1.1c-0.6,0.7-1.2,1.5-1.9,2.2c-0.7,0.7-1.5,1.4-2.4,2c-0.3,0.7-0.8,1.3-1.4,1.7c-0.6,0.4-1.2,0.8-1.8,1.2
		c-0.6,0.6-1.1,1.1-1.6,1.5c-0.4,0.4-1.1,0.7-1.8,1l-1.1,0.7c-0.6,0.6-1.7,1.2-3.2,1.8c-0.8,0.1-1.5,0.6-2.3,1.3
		c-1.2,0.6-2.1,0.8-2.7,0.7c-0.5-0.3-0.9-0.2-1.4,0.2c-1.2,0.7-2.5,1.3-3.8,1.6c-1.4,0.3-2.7,0.5-4.1,0.7l-2.7,0.7
		c-0.8,0.5-1.7,0.5-2.7,0.2c-1.2-0.3-2.5-0.5-3.8-0.5h-3.6c-2.9,0.2-5.6-0.4-8.1-1.8c-0.9-0.6-1.7-0.8-2.3-0.7
		c-1.1,0.2-2-0.1-2.9-0.7l-3.4-1.8l-4.1-2c-0.8-0.5-1.4-0.9-2-1.5c-0.6-0.5-1.3-0.9-2-1.2c-0.3-0.1-0.8-0.5-1.4-1.1
		c-0.5-0.6-1.1-1.1-2-1.6c-0.5-0.3-0.8-0.6-1-1c-0.2-0.4-0.5-0.7-0.8-1c-0.6-1-1.2-2-1.8-2.8c-0.6-0.8-1.4-1.6-2.3-2.4
		c-0.5-0.3-0.8-0.8-0.9-1.6c-0.3-0.7-0.6-1.5-1-2.1c-0.4-0.7-0.9-1.3-1.5-1.9c-0.5-0.5-0.7-1-0.7-1.6c-0.3-1.1-0.8-1.9-1.4-2.7
		c-0.3-0.5-0.5-0.9-0.7-1.4c-0.2-0.5-0.4-0.9-0.7-1.4c-0.3-0.9-0.6-1.8-0.8-2.8c-0.2-1-0.3-2-0.3-3l-0.7-3.6c-0.2-0.4-0.2-1-0.2-1.6
		c0-0.3,0-0.6,0.1-0.8c0.1-0.2,0.1-0.4,0.1-0.6c-0.5-1.4-0.6-2.7-0.3-3.9c0.2-1.3,0.3-2.6,0.1-3.9c0-0.6,0.1-1.1,0.2-1.4
		c0.3-0.9,0.4-1.7,0.2-2.3c0-0.4,0.1-1.1,0.5-2c0.6-1.7,1-3.1,1.1-4.3c0.3-1.1,0.6-1.7,0.9-2l0.7-0.9c0.3-0.7,0.6-1.5,0.8-2.1
		c0.2-0.7,0.5-1.4,0.8-2.1c0.1-0.3,0.2-0.6,0.2-0.8c0-0.2,0.1-0.4,0.2-0.6c0.6-0.7,1.1-1.6,1.5-2.5c0.4-0.9,0.9-1.7,1.7-2.5l0.5-0.4
		c1.2-1.8,2.6-3.5,4.2-5c1.6-1.5,3.2-2.9,4.8-4.3c1.4-1.2,2.8-2.3,4.3-3.2c1.5-0.9,3-1.7,4.5-2.5l1.4-0.7l2.3-0.7l1.1-0.7
		c0.9-0.3,1.7-0.6,2.3-0.9c0.9-0.5,1.8-0.7,2.7-0.7c2.4,0,4.5-0.3,6.3-0.9c0.6-0.1,1.4-0.2,2.5-0.2c1.4,0.2,2.8,0.2,4.3,0
		c2.4-0.1,4.8,0.1,7.2,0.7c0.9,0.5,1.9,0.7,2.9,0.7c0.9,0.3,1.6,0.6,2.3,0.9c0.5,0.3,0.9,0.5,1.4,0.6c0.5,0.1,0.8,0.2,1.1,0.3
		c1,0.3,2,0.6,2.9,0.8c0.9,0.2,1.7,0.7,2.5,1.5l0.7,0.2c0.9,0.3,1.7,0.7,2.5,1.2c0.7,0.5,1.5,1.1,2.3,1.7c0.4,0.3,0.9,0.6,1.5,0.9
		c0.5,0.3,0.9,0.6,1.2,0.9c0.4,0.3,0.8,0.7,1.1,1.1c0.3,0.5,0.7,0.8,1.1,1.1c0.9,0.6,1.7,1.3,2.4,2c0.7,0.8,1.4,1.4,2.1,2
		c0.6,0.6,1,1.1,1.1,1.4c0.3,0.8,0.6,1.4,0.9,1.8c0.3,0.5,0.7,1,1.1,1.6c0.3,0.6,0.6,1.2,1,1.7c0.4,0.5,0.7,1.2,1,1.9
		c0.3,0.9,0.6,1.5,0.9,1.8c0.5,0.5,0.8,0.9,1,1.5c0.2,0.5,0.5,1,0.8,1.5c0.1,0.4,0.3,0.9,0.4,1.2c0.2,0.4,0.3,0.7,0.5,1
		c0.6,1.2,0.9,2.1,0.9,2.7c0,0.8,0.1,1.4,0.2,2l0.5,1.8c0.3,1.2,0.3,2.2,0,2.9c0,0.6,0.1,1.1,0.2,1.3c0.4,0.7,0.7,1.5,0.7,2.2V107z
		 M1602.7,104.4c-0.2-0.9-0.2-1.8-0.2-2.6c0-0.8-0.2-1.6-0.5-2.4c-0.2-0.3-0.2-0.5-0.1-0.7c0.1-0.2,0.1-0.4,0.1-0.7l-0.4-2.5
		c-0.3-1.5-0.6-3-0.8-4.5c-0.2-1.5-0.7-2.9-1.5-4.3c-0.3-0.3-0.4-0.7-0.4-1.1c0-0.4-0.1-0.9-0.2-1.3c-0.3-1.2-0.6-2.3-1-3.4
		c-0.4-1.1-0.9-2.2-1.5-3.4l-2.7-5.4c0-0.2-0.2-0.4-0.5-0.7l-2.7-4.5l-1.6-2.5c-1.4-1.2-2.2-2.4-2.5-3.6c-0.4-0.7-1.1-1.4-1.8-2
		c-1.2-0.9-2-1.6-2.3-2.2c-0.4-0.9-1-1.5-1.8-1.8c-1.1-0.6-2-1.3-2.7-2c-0.8-0.7-1.6-1.4-2.5-2c-0.8-0.9-1.5-1.6-2.4-2.2
		c-0.8-0.6-1.7-1.2-2.6-1.8l-0.5-0.4c-1.2-0.9-2.3-1.6-3.4-2c-1-0.1-2.1-0.7-3.2-1.8c-0.6-1-1.5-1.6-2.7-1.6
		c-1.2-0.3-2.3-0.8-3.2-1.4c-1.2-0.6-2.1-1-2.7-1.2c-0.9-0.2-1.7-0.6-2.5-1.2c-0.8-0.5-1.5-0.7-2.3-0.7c-1.1,0-1.8-0.1-2.3-0.2
		l-2.7-0.9c-0.9-0.3-1.9-0.5-2.9-0.5h-0.4c-1.2-0.4-2.5-0.7-3.8-0.9c-1.4-0.1-2.6-0.4-3.8-0.7h-1.4c-0.8,0.3-1.6,0.4-2.5,0.3
		c-0.9-0.1-1.8-0.2-2.7-0.3c-1.4-0.2-2.9,0-4.7,0.4c-0.9,0.3-1.6,0.4-2,0.2c-1-0.1-2-0.1-2.9,0l-2.7,0.5l-1.8,0.7
		c-1.4,0-2.4,0.1-3.1,0.2c-0.5,0.2-0.9,0.4-1.4,0.7c-0.5,0.3-1,0.4-1.6,0.4l-5.2,1.6l-1.8,0.9c-0.8,0.7-1.6,1.1-2.5,1.1
		c-0.9,0-1.7,0.4-2.5,1.1c-0.9,0.9-1.7,1.4-2.5,1.6c-1.2,0.3-2.3,0.8-3.2,1.4c-0.9,0.7-2,1.3-3.2,1.9c-0.5,0.3-0.9,0.6-1.4,1
		c-0.5,0.4-1,0.8-1.6,1.2l-2,1.8c-1.4,1-2.6,2.2-3.8,3.3l-3.6,3.6c-0.8,1-1.5,1.9-2.4,2.7c-0.8,0.7-1.6,1.7-2.4,2.9
		c-0.3,0.5-0.7,0.9-1.1,1.4c-0.5,0.5-0.8,1-1.1,1.6c-0.6,0.8-1.1,1.4-1.6,2c-0.5,0.6-0.8,1.4-1.1,2.3c0,0.5-0.2,0.7-0.4,0.7
		c-0.9,0.9-1.5,2.3-1.8,4.1c-0.3,0.9-0.6,1.5-0.9,1.8c-0.9,0.9-1.4,2-1.6,3.2c0,0.3-0.2,0.8-0.5,1.4c-0.3,0.8-0.6,1.5-0.9,2.4
		c-0.3,0.8-0.6,1.6-0.9,2.4c-0.3,0.9-0.4,1.7-0.4,2.3c-0.2,0.5-0.2,0.9-0.2,1.2c0,0.4-0.2,0.7-0.5,1c-0.3,0.5-0.5,0.9-0.5,1.4
		c0,0.5-0.1,1-0.2,1.6c-0.3,1.4-0.5,2.7-0.7,4c-0.1,1.3-0.5,2.5-0.9,3.7c-0.2,0.6-0.2,1.1,0,1.6c0.4,0.8,0.5,1.8,0.2,3.2
		c-0.3,0.8-0.3,1.6,0,2.5c0,1.2-0.1,2.1-0.4,2.7c-0.3,0.8-0.2,1.4,0.2,1.8c0.4,0.6,0.7,1.6,0.7,2.9c-0.1,1.4,0,2.9,0.5,4.5
		c0.2,0.2,0.2,0.4,0.2,0.7c0.2,2.1,0.6,4.1,1.5,6c0.8,1.9,1.4,3.9,1.7,6c0.6,1.2,1.2,2.4,1.7,3.5c0.5,1.1,0.9,2.3,1.2,3.5
		c0.3,0.8,0.7,1.5,1.1,2.4c0.4,0.8,0.8,1.6,1.1,2.4c0.7,1.2,1.5,2.3,2.3,3.4c0.8,1.1,1.5,2.2,2.3,3.4l0.2,0.2c0.6,0.8,1.2,1.4,1.7,2
		c0.5,0.6,1,1.3,1.5,2l1.6,1.8c0.9,0.6,1.5,1.1,1.8,1.6c0.1,0.8,0.7,1.4,1.6,2c0.7,0.4,1.4,1.1,1.8,1.8c0.4,0.8,1.2,1.4,2.3,1.8
		c0.3,0,0.5,0.1,0.7,0.2c0.1,0.2,0.4,0.3,0.7,0.5c1.7,1.7,3.5,2.9,5.4,3.8l1.4,0.9c0.6,0.5,1.2,0.9,1.8,1.2c0.6,0.4,1.3,0.7,2,1
		c0.3,0.3,0.6,0.5,0.9,0.6c0.3,0.1,0.6,0.3,0.9,0.6c1.2,0.9,2.4,1.6,3.6,2c1.2,0.4,2.4,1.1,3.6,1.8c1.2,0.3,2.3,0.6,3.3,1
		c1,0.4,2.1,0.7,3.3,1l2.7,0.5c0.3,0.1,0.5,0.2,0.7,0.1c0.1-0.1,0.3,0,0.4,0.1c1.7,0.8,3.3,1.2,5.1,1.4c1.7,0.2,3.4,0.4,5.1,0.7
		c0.3,0.1,0.5,0.2,0.7,0.1c0.1-0.1,0.4-0.1,0.7-0.1c0.8-0.3,1.6-0.4,2.5-0.2c0.6,0.3,1.2,0.5,1.8,0.5h2.3c0.9,0,1.7,0.1,2.5,0.2
		l0.7-0.2c0.6-0.3,1.2-0.5,1.7-0.6c0.5-0.1,1.2-0.1,1.9-0.1c1.1,0.2,2.3,0,3.8-0.4c0.3-0.3,0.7-0.5,1.4-0.5c1.2,0,2.4-0.2,3.5-0.5
		c1.1-0.3,2.3-0.6,3.5-0.9c0.7-0.3,1.5-0.6,2.1-0.8c0.7-0.2,1.4-0.5,2.1-0.8h0.2c0.2-0.1,0.4-0.2,0.7-0.2l1.8-0.9
		c0.6-0.3,1.3-0.5,2-0.7c0.9-0.3,1.8-0.7,2.6-1.1c0.8-0.5,1.6-0.8,2.4-1.1c0.4-0.3,0.9-0.6,1.2-0.8c0.4-0.2,0.9-0.4,1.5-0.6
		c0.3,0,0.7-0.2,1.1-0.7c0.6-0.9,1.6-1.6,2.9-2.3c1.1-0.5,1.9-1.1,2.5-1.8l1.6-1.4c0.8-0.3,1.4-0.7,1.9-1.1c0.5-0.5,1-1,1.5-1.6
		l1.6-1.4c1.1-0.5,1.8-1.1,2.3-2c0.2-0.6,0.7-1.2,1.6-1.8c1-0.4,1.7-1.1,2-2c0.1-0.7,0.7-1.4,1.6-2c1-0.9,1.8-1.8,2.3-2.7
		c0.6-1.2,1.1-2,1.6-2.5c0.7-0.7,1.2-1.4,1.4-2c0.5-1.2,1.1-2.3,2-3.2c0.6-0.6,1-1.1,1.1-1.4c0.1-0.7,0.3-1.4,0.6-1.9
		c0.2-0.5,0.5-1.2,0.8-1.9l1.1-2.3c0.3-0.7,0.6-1.4,0.8-1.9c0.2-0.5,0.4-1.2,0.6-1.9c0-0.4,0.1-0.8,0.2-1.1c0.9-0.9,1.4-2.1,1.4-3.6
		c0-0.2,0.1-0.3,0.2-0.5c0.6-1.2,0.9-2.4,1-3.6c0.1-1.2,0.3-2.4,0.6-3.6v-0.7c0-0.3,0-0.6,0.1-0.8c0.1-0.2,0.1-0.5,0.1-0.8
		c0-0.6,0.1-1.3,0.4-2.3c0-1.2,0.1-2.3,0.2-3.3c0.2-1,0.2-2.1,0-3.3v-2.7C1602.5,105.8,1602.6,105.1,1602.7,104.4"/>
</g>
</svg>
