<?xml version="1.0" encoding="UTF-8" standalone="no"?>
<svg width="115px" height="70px" viewBox="0 0 115 70" version="1.1" xmlns="http://www.w3.org/2000/svg" xmlns:xlink="http://www.w3.org/1999/xlink">
    <!-- Generator: Sketch 39.1 (31720) - http://www.bohemiancoding.com/sketch -->
    <title>TRANSPARENT-PRIC_ING</title>
    <desc>Created with Sketch.</desc>
    <defs></defs>
    <g id="ICONS" stroke="none" stroke-width="1" fill="none" fill-rule="evenodd" stroke-linecap="round" stroke-linejoin="round">
        <g id="TRANSPARENT-PRIC_ING" stroke="#333040" stroke-width="3">
            <g id="Group-2" transform="translate(19.000000, 11.000000)">
                <rect id="Rectangle-4" x="0" y="18.0784656" width="58.8774194" height="28.6242371"></rect>
                <ellipse id="Oval-5" cx="29.4387097" cy="32.3905841" rx="6.79354839" ry="6.77942459"></ellipse>
                <path d="M0,25.6111595 L0,25.6111595 C4.16885908,25.6111595 7.5483871,22.2386576 7.5483871,18.0784656" id="Oval-5"></path>
                <path d="M51.3290323,25.6111595 L51.3290323,25.6111595 C55.4978913,25.6111595 58.8774194,22.2386576 58.8774194,18.0784656" id="Oval-5" transform="translate(55.103226, 21.844813) scale(-1, 1) translate(-55.103226, -21.844813) "></path>
                <path d="M0,46.7027027 L0,46.7027027 C4.16885908,46.7027027 7.5483871,43.3302007 7.5483871,39.1700087" id="Oval-5" transform="translate(3.774194, 42.936356) scale(1, -1) translate(-3.774194, -42.936356) "></path>
                <path d="M51.3290323,46.7027027 L51.3290323,46.7027027 C55.4978913,46.7027027 58.8774194,43.3302007 58.8774194,39.1700087" id="Oval-5" transform="translate(55.103226, 42.936356) scale(-1, -1) translate(-55.103226, -42.936356) "></path>
                <polyline id="Rectangle-4" points="9.05806452 18.1551721 9.05806452 18.1551721 9.05806452 9.03923278 67.9354839 9.03923278 67.9354839 37.6634699 59.3888008 37.6634699"></polyline>
                <path d="M42.7422726,18.0584733 C41.5792911,17.1282986 40.1031418,16.5719268 38.4967742,16.5719268 C37.2689883,16.5719268 36.1172749,16.8969546 35.1233231,17.465491" id="Oval-5"></path>
                <path d="M9.05806452,16.5719268 L9.05806452,16.5719268 C13.2269236,16.5719268 16.6064516,13.1994248 16.6064516,9.03923278" id="Oval-5"></path>
                <path d="M60.3870968,16.5719268 L60.3870968,16.5719268 C64.5559559,16.5719268 67.9354839,13.1994248 67.9354839,9.03923278" id="Oval-5" transform="translate(64.161290, 12.805580) scale(-1, 1) translate(-64.161290, -12.805580) "></path>
                <polyline id="Rectangle-4" points="18.116129 9.11593932 18.116129 9.11593932 18.116129 0 76.9935484 0 76.9935484 28.6242371 68.4468653 28.6242371"></polyline>
                <path d="M51.8003372,9.01924052 C50.6373556,8.08906584 49.1612063,7.53269398 47.5548387,7.53269398 C46.3270528,7.53269398 45.1753394,7.8577218 44.1813876,8.42625819" id="Oval-5"></path>
                <path d="M18.116129,7.53269398 L18.116129,7.53269398 C22.2849881,7.53269398 25.6645161,4.16019201 25.6645161,0" id="Oval-5"></path>
                <path d="M69.4451613,7.53269398 L69.4451613,7.53269398 C73.6140204,7.53269398 76.9935484,4.16019201 76.9935484,0" id="Oval-5" transform="translate(73.219355, 3.766347) scale(-1, 1) translate(-73.219355, -3.766347) "></path>
            </g>
        </g>
    </g>
</svg>