<?xml version="1.0" encoding="UTF-8" standalone="no"?>
<svg width="580px" height="334px" viewBox="0 0 580 334" version="1.1" xmlns="http://www.w3.org/2000/svg" xmlns:xlink="http://www.w3.org/1999/xlink">
    <!-- Generator: Sketch 39.1 (31720) - http://www.bohemiancoding.com/sketch -->
    <title>welcome to Camden - white plus orange</title>
    <desc>Created with Sketch.</desc>
    <defs>
        <polygon id="path-1" points="102.406911 0.529 0.880888005 0.529 0.880888005 143.65036 102.406911 143.65036"></polygon>
        <polygon id="path-3" points="0.06 0.745554098 0.06 170.999717 511.431 170.999717 511.431 0.745554098"></polygon>
    </defs>
    <g id="Page-1" stroke="none" stroke-width="1" fill="none" fill-rule="evenodd">
        <g id="welcome-to-Camden---white-plus-orange">
            <path d="M303.591,59.726 C301.935,62.694 299.731,65.312 298.924,68.304 C294.549,84.466 291.222,100.853 293.295,117.702 C293.78,121.644 296.291,125.339 297.872,129.143 C301.051,126.927 304.887,125.249 307.272,122.368 C311.328,117.476 315.04,112.115 317.881,106.439 C324.113,93.989 329.672,81.211 335.605,68.612 C336.38,66.96 337.735,65.577 338.82,64.072 C339.442,64.374 340.059,64.675 340.681,64.981 C339.014,69.428 337.52,73.951 335.656,78.309 C329.83,91.913 324.221,105.636 317.767,118.941 C315.269,124.092 310.84,128.339 307.107,132.848 C301.772,139.28 294.354,141.271 286.771,139.582 C278.707,137.78 274.842,130.645 274.055,123.158 C271.693,100.71 274.101,79.077 289.092,60.782 C291.272,58.12 294.696,55.903 297.982,54.851 C308.331,51.542 314.579,56.96 313.348,67.644 C313.055,70.187 313.003,72.845 312.148,75.194 C311.479,77.032 310.03,79.218 308.383,79.878 C307.08,80.402 304.177,79.318 303.4,78.075 C302.724,76.984 303.645,74.432 304.534,72.935 C307.643,67.7 307.693,63.489 303.591,59.726" id="Fill-1" fill="#F2B66D"></path>
            <path d="M552.352,72.37 C552.165,73.05 552.144,73.851 551.758,74.401 C543.411,86.395 535.191,98.494 526.559,110.284 C522.499,115.823 517.239,120.091 510.037,121.362 C502.552,122.682 496.304,119.568 494.915,112.189 C490.216,87.207 497.098,62.898 518.156,46.19 C522.571,42.685 527.047,43.413 531.483,45.989 C536.031,48.628 535.233,53.224 534.105,56.831 C531.11,66.371 525.69,74.217 515.965,78.298 C514.723,78.819 513.257,79.886 512.814,81.05 C509.197,90.638 507.091,100.39 511.112,112.037 C515.548,108.556 520.067,105.984 523.293,102.284 C531.248,93.163 538.546,83.478 546.266,74.152 C547.494,72.673 549.549,71.874 551.219,70.765 C551.593,71.3 551.975,71.835 552.352,72.37 M516.152,71.128 C516.575,71.429 516.992,71.732 517.415,72.032 C523.434,67.665 528.907,62.792 530.234,54.818 C530.435,53.594 529.112,52.116 528.495,50.751 C527.151,51.42 525.115,51.739 524.58,52.81 C521.567,58.817 518.922,65.006 516.152,71.128" id="Fill-2" fill="#F2B66D"></path>
            <g id="Group-6" transform="translate(184.000000, 0.000000)">
                <mask id="mask-2" fill="white">
                    <use xlink:href="#path-1"></use>
                </mask>
                <g id="Clip-4"></g>
                <path d="M59.725,93.705 C59.538,94.384 59.518,95.189 59.137,95.735 C50.784,107.734 42.567,119.832 33.933,131.622 C29.873,137.161 24.613,141.429 17.41,142.694 C9.928,144.017 3.677,140.902 2.29,133.526 C-2.41,108.546 4.476,84.233 25.53,67.525 C29.944,64.023 34.421,64.747 38.856,67.323 C43.408,69.963 42.611,74.559 41.476,78.168 C38.488,87.705 33.063,95.552 23.338,99.636 C22.099,100.153 20.625,101.224 20.188,102.388 C16.574,111.972 14.462,121.729 18.484,133.371 C22.918,129.892 27.439,127.319 30.671,123.618 C38.624,114.501 45.919,104.817 53.644,95.491 C54.867,94.007 56.918,93.214 58.589,92.1 C58.97,92.634 59.348,93.171 59.725,93.705 M23.525,92.466 C23.945,92.769 24.369,93.069 24.792,93.366 C30.807,89.003 36.28,84.132 37.607,76.157 C37.812,74.929 36.485,73.451 35.872,72.091 C34.524,72.757 32.491,73.075 31.953,74.145 C28.945,80.152 26.295,86.341 23.525,92.466" id="Fill-3" fill="#F2B66D" mask="url(#mask-2)"></path>
                <path d="M70.109,130.868 C78.232,116.025 86.359,101.181 94.479,86.337 L96.241,87.12 C94.895,91.216 93.795,95.411 92.146,99.385 C87.516,110.539 82.733,121.636 77.845,132.671 C76.827,134.978 75.483,137.428 73.62,139.009 C65.347,146.014 57.712,145.487 54.024,134.697 C52.092,129.039 50.639,122.94 50.485,116.997 C49.53,80.59 57.429,46.355 76.918,15.217 C79.244,11.499 81.678,7.622 84.889,4.745 C87.378,2.515 91.125,0.65 94.377,0.539 C100.782,0.33 103.673,3.325 101.887,9.433 C98.583,20.756 94.499,31.956 89.529,42.648 C86.667,48.794 80.391,53.349 77.495,59.488 C73.328,68.325 70.132,77.78 67.807,87.286 C64.74,99.823 64.216,112.698 66.882,125.501 C67.239,127.222 67.968,128.862 68.529,130.545 C69.054,130.652 69.582,130.761 70.109,130.868 M77.664,48.704 C78.159,48.902 78.655,49.097 79.152,49.285 C86.314,37.411 92.827,25.204 96.365,11.646 C96.812,9.946 95.572,7.802 95.108,5.862 C93.564,7.162 91.179,8.165 90.608,9.804 C86.096,22.703 81.933,35.725 77.664,48.704" id="Fill-5" fill="#F2B66D" mask="url(#mask-2)"></path>
            </g>
            <path d="M103.323,72.851 C99.917,89.255 96.689,105.693 93.03,122.038 C91.173,130.337 88.185,138.193 80.604,143.341 C65.783,153.413 56.351,146.944 52.323,130.883 C45.58,103.984 50.584,77.665 56.166,51.395 C57.994,42.79 60.25,34.275 62.375,25.735 C63.487,21.251 66.196,18.657 71.07,19.122 C75.846,19.577 80.651,20.569 81.206,26.396 C81.557,30.128 81.019,34.063 80.245,37.773 C76.045,57.883 70.829,77.866 71.333,98.616 C71.546,107.357 72.839,116.071 73.765,126.132 C80.524,122.545 84.342,118.683 85.608,112.49 C90.281,89.617 96.379,67.154 105.229,45.514 C106.053,43.509 107.04,41.484 108.366,39.784 C112.907,33.944 119.161,34.81 121.524,41.958 C123.288,47.3 124.597,52.997 124.854,58.593 C125.596,74.189 125.479,89.815 126.098,105.413 C126.515,115.866 127.161,126.36 128.649,136.695 C129.212,140.62 132.405,144.169 134.403,147.896 C137.126,145.261 140.752,143.107 142.437,139.927 C152.47,120.995 156.59,100.327 159.222,79.297 C161.375,62.11 162.489,44.919 159.173,27.718 C158.73,25.433 158.771,22.847 159.412,20.642 C159.844,19.153 161.543,17.569 163.034,17.034 C164.005,16.683 165.688,18.04 166.938,18.812 C177.945,25.613 175.507,37.503 176.573,47.325 C180.755,85.849 171.245,122.189 154.546,156.405 C149.718,166.296 138.125,172.151 126.368,173.071 C118.281,173.707 115.048,166.529 112.638,160.062 C106.254,142.96 104.781,125.02 104.371,106.98 C104.196,99.278 104.781,91.561 104.959,83.851 C105.04,80.287 104.972,76.725 104.972,73.164 C104.422,73.06 103.87,72.952 103.323,72.851" id="Fill-7" fill="#F2B66D"></path>
            <path d="M431.444,47.31 C424.885,55.932 422.228,64.949 419.978,73.905 C417.118,85.275 415.552,96.97 412.827,108.38 C411.81,112.625 410.053,117.527 406.979,120.292 C399.574,126.96 393.844,122.71 391.034,115.292 C390.15,112.964 390.18,110.241 390.075,107.687 C389.231,87.43 392.753,67.887 399.376,48.769 C401.127,43.718 404.24,42.784 408.674,43.546 C414.148,44.484 416.863,47.642 416.044,52.626 C415.183,57.868 413.738,63.009 412.646,68.21 C412.237,70.157 412.1,72.153 412.851,74.425 C413.702,71.984 414.328,69.425 415.441,67.103 C419.163,59.372 422.841,51.607 426.982,44.099 C429.056,40.349 432.921,39.378 437.091,40.428 C441.231,41.469 444.01,43.852 444.153,48.402 C444.384,55.738 444.539,63.063 444.683,70.396 C444.739,73.497 444.688,76.61 445.655,80.026 C446.202,78.7 446.755,77.378 447.293,76.053 C451.798,64.841 456.009,53.489 460.906,42.446 C464.425,34.505 468.263,32.736 475.038,34.335 C483.486,36.331 486.806,39.896 486.192,48.712 C485.215,62.8 482.89,76.796 482.136,90.886 C481.504,102.73 483.458,130.573 484.072,142.439 C484.263,146.113 486.45,149.692 487.513,152.717 C485.188,155.956 483.529,159.721 480.645,161.712 C479.006,162.847 474.561,162.021 472.771,160.468 C466.738,155.231 463.7,148.107 462.948,140.154 C460.779,117.15 463.132,78.895 469.089,56.786 C469.896,53.777 470.949,50.756 471.147,47.693 C471.269,45.672 470.053,43.57 469.437,41.513 C467.843,42.77 465.402,43.712 464.784,45.341 C460.316,57.146 456.066,69.04 452.039,81.007 C449.011,89.994 447.171,99.472 443.277,108.034 C441.611,111.692 436.366,114.386 432.17,116.054 C428.215,117.622 426.638,113.435 426.479,110.435 C425.934,100.038 425.114,89.552 425.916,79.218 C426.702,69.044 429.336,59.014 431.444,47.31" id="Fill-8" fill="#F2B66D"></path>
            <path d="M371.059,90.949 C387.012,84.136 393.086,69.956 402.75,59.1 C403.896,65.902 402.966,68.667 395.899,77.839 C389.285,86.427 382.729,95.146 370.641,96.523 C369.683,96.626 368.766,98.87 368.188,100.275 C365.893,105.844 364.337,111.814 361.401,117.016 C355.328,127.792 341.564,127.72 334.959,117.231 C329.534,108.617 328.15,99.162 329.478,89.226 C331.337,75.262 337.84,63.63 347.46,53.548 C350.438,50.425 354.06,49.696 357.357,51.894 C360.126,53.743 362.279,54.294 365.608,53.604 C370.627,52.563 375.716,58.968 375.247,65.581 C374.87,70.862 373.868,76.099 373.04,81.348 C372.616,83.999 371.964,86.613 371.059,90.949 M349.449,86.884 C346.835,95.333 346.404,104.204 349.835,113.021 C351.336,116.894 354.124,116.589 355.82,113.538 C358.837,108.101 361.186,102.28 363.267,97.79 C357.871,93.528 353.71,90.245 349.449,86.884 M366.941,86.841 C368.339,79.052 369.779,72.083 370.713,65.05 C370.933,63.375 369.683,61.318 368.627,59.769 C368.291,59.283 366.046,59.439 365.237,60.044 C360.241,63.806 358.974,69.159 359.354,75.093 C359.669,80.02 360.864,84.392 366.941,86.841" id="Fill-9" fill="#F2B66D"></path>
            <path d="M409.395,254.367 C405.163,261.57 402.106,267.564 398.298,273.036 C393.96,279.28 387.366,281.958 382.345,279.942 C375.685,277.264 373.461,271.412 373.138,264.897 C372.499,251.964 375.401,239.745 381.485,228.314 C382.783,225.885 384.238,223.546 385.625,221.173 C391.656,210.862 399.096,202.976 413.072,206.094 C414.001,201.741 414.497,197.757 415.714,194.013 C421.555,176.044 427.287,158.032 440.289,143.485 C443.903,139.436 447.71,139.712 452.223,141.02 C456.638,142.298 457.259,145.495 457.716,149.411 C458.974,160.146 454.362,169.213 449.618,178.071 C444.711,187.228 438.249,195.595 433.806,204.943 C430.981,210.877 429.816,217.903 429.289,224.549 C428.233,237.891 427.694,251.304 427.82,264.682 C427.874,270.893 429.986,277.09 431.165,283.29 C431.711,283.398 432.257,283.505 432.799,283.616 C434.183,281.637 435.826,279.788 436.902,277.653 C444.995,261.613 452.901,245.486 461.06,229.477 C462.202,227.241 464.389,225.544 466.094,223.592 C466.639,223.994 467.182,224.391 467.728,224.793 C465.152,231.7 462.842,238.723 459.942,245.487 C454.331,258.582 448.376,271.525 442.585,284.541 C440.174,289.964 436.567,294.329 431.592,297.606 C427.059,300.59 423.298,300.124 419.494,295.692 C412.313,287.332 410.179,277.154 409.438,266.565 C409.184,262.943 409.395,259.287 409.395,254.367 M391.778,264.775 C392.371,265.02 392.964,265.263 393.554,265.513 C393.998,264.71 394.343,263.838 394.9,263.13 C405.749,249.41 411.314,233.835 411.155,216.323 C411.141,214.982 409.883,213.656 409.201,212.32 C408.002,213.148 406.115,213.722 405.702,214.842 C401.14,227.163 396.527,239.48 392.571,251.994 C391.325,255.946 391.994,260.496 391.778,264.775 M449.354,145.144 C440.16,156.898 440.453,169.973 438.399,182.345 C442.561,170.592 452.042,160.418 449.354,145.144" id="Fill-10" fill="#F2B66D"></path>
            <path d="M254.871,284.92 C258.543,278.871 262.232,272.83 265.882,266.766 C269.845,260.18 273.626,253.487 277.795,247.036 C278.761,245.547 280.974,244.865 282.611,243.813 C282.874,244.274 283.133,244.733 283.394,245.194 C276.874,258.439 270.631,271.827 263.651,284.823 C261.6,288.65 257.915,292.055 254.192,294.419 C247.529,298.659 240.962,295.86 238.812,288.289 C237.873,284.995 237.632,281.429 237.57,277.977 C237.513,274.723 238.099,271.45 238.437,267.864 C235.395,273.001 232.638,277.956 229.586,282.714 C226.934,286.849 215.787,291.6 211.603,289.526 C208.574,288.024 204.741,284.345 204.625,281.509 C204.299,273.411 204.5,264.904 206.692,257.182 C209.99,245.535 215.798,234.88 225.527,226.862 C231.601,221.851 237.88,221.05 244.893,224.497 C246.476,225.277 248.267,225.806 250.018,226.079 C260.292,227.71 263.583,232.864 260.847,243.165 C258.772,250.952 256.452,258.689 254.821,266.565 C253.618,272.368 253.349,278.354 252.662,284.264 C253.399,284.482 254.136,284.701 254.871,284.92 M220.094,274.711 C220.698,274.912 221.302,275.112 221.904,275.319 C228.142,262.913 234.421,250.535 240.57,238.088 C242.001,235.19 244.077,231.28 240.211,229.502 C238.623,228.769 235.15,232.096 232.563,233.616 C232.294,233.78 232.158,234.228 232.039,234.57 C228.267,245.628 224.42,256.667 220.81,267.779 C220.105,269.941 220.306,272.39 220.094,274.711" id="Fill-11" fill="#F2B66D"></path>
            <g id="Group-16" transform="translate(0.000000, 163.000000)">
                <mask id="mask-4" fill="white">
                    <use xlink:href="#path-3"></use>
                </mask>
                <g id="Clip-13"></g>
                <path d="M511.431,70.669 C511.244,71.349 511.223,72.146 510.842,72.698 C502.489,84.696 494.274,96.792 485.638,108.583 C481.579,114.126 476.318,118.391 469.118,119.658 C461.635,120.98 455.388,117.862 453.997,110.49 C449.294,85.51 456.181,61.197 477.235,44.487 C481.65,40.983 486.126,41.711 490.563,44.283 C495.114,46.927 494.318,51.523 493.185,55.132 C490.193,64.668 484.77,72.516 475.045,76.602 C473.805,77.117 472.336,78.187 471.895,79.352 C468.284,88.936 466.169,98.692 470.191,110.331 C474.628,106.855 479.15,104.283 482.377,100.583 C490.33,91.464 497.627,81.778 505.349,72.454 C506.579,70.97 508.63,70.177 510.3,69.065 C510.677,69.603 511.053,70.134 511.431,70.669 M475.231,69.432 C475.651,69.732 476.076,70.032 476.5,70.328 C482.517,65.965 487.987,61.095 489.313,53.116 C489.519,51.893 488.196,50.412 487.578,49.055 C486.231,49.72 484.197,50.04 483.659,51.11 C480.651,57.115 478.003,63.304 475.231,69.432" id="Fill-12" fill="#F2B66D" mask="url(#mask-4)"></path>
                <path d="M28.674,22.365 C19.141,20.56 10.77,28.323 0,24.44 C2.558,22.55 4.167,20.518 6.137,20.064 C13.159,18.455 20.272,17.098 27.421,16.242 C30.295,15.902 32.256,15.477 33.319,12.574 C34.313,9.856 35.585,7.225 36.868,4.616 C38.797,0.673 41.743,-0.153 46.172,1.664 C50.063,3.261 51.263,5.777 49.564,9.74 C48.63,11.924 48.039,14.255 46.818,17.973 C57.445,17.973 67.235,17.905 77.017,18.038 C78.795,18.064 80.562,18.908 82.337,19.374 C80.691,20.711 79.092,23.112 77.394,23.19 C68.384,23.602 59.332,23.729 50.329,23.318 C46.558,23.148 44.632,23.484 43.439,27.572 C36.519,51.253 31.167,75.136 32.838,100.025 C33.197,105.384 34.521,110.685 35.402,116.009 C35.856,116.072 36.311,116.137 36.769,116.202 C41.031,107.214 45.066,98.105 49.621,89.266 C54.101,80.581 59.112,72.168 63.89,63.631 C64.636,63.89 65.384,64.154 66.132,64.409 C65.916,66.282 66.196,68.409 65.403,69.997 C62.51,75.768 59.022,81.234 56.206,87.035 C51.849,96.013 47.917,105.201 43.677,114.24 C42.386,116.998 40.992,119.819 39.092,122.162 C33.384,129.21 25.325,127.974 21.126,119.888 C17.337,112.589 16.748,104.768 16.524,96.833 C15.884,73.783 20.357,51.527 26.969,29.606 C27.571,27.593 28.174,25.586 28.75,23.567 C28.832,23.279 28.717,22.935 28.674,22.365" id="Fill-14" fill="#F2B66D" mask="url(#mask-4)"></path>
                <path d="M162.561,119.654 C164.147,126.516 165.229,135.543 168.379,143.783 C173.35,156.766 183.769,159.515 194.563,151.044 C200.955,146.032 206.288,139.692 212.233,134.094 C213.424,132.978 215.236,132.531 216.761,131.778 C217.263,133.412 218.068,135.025 218.177,136.685 C218.251,137.853 217.593,139.222 216.901,140.255 C212.229,147.218 208.226,154.833 202.558,160.888 C185.4,179.205 155.746,171.465 147.935,147.103 C139.037,119.348 142.097,91.961 150.86,64.936 C156.481,47.603 164.047,31.042 175.778,16.833 C179.71,12.071 184.1,7.384 189.128,3.877 C200.746,-4.223 218.507,4.396 220.946,18.233 C223.303,31.611 219.308,43.221 212.823,54.326 C211.57,56.48 208.889,58.348 206.479,59.095 C204.683,59.651 201.234,58.831 200.384,57.467 C199.306,55.742 199.102,51.907 200.294,50.6 C207.312,42.881 208.671,33.271 210.274,23.693 C210.567,21.933 210.787,19.688 209.964,18.308 C208.664,16.126 206.727,13.898 204.508,12.865 C203.423,12.362 200.365,14.072 199.476,15.548 C195.888,21.487 192.537,27.608 189.574,33.881 C180.669,52.747 170.063,70.974 166.274,91.854 C164.737,100.314 163.968,108.91 162.561,119.654" id="Fill-15" fill="#F2B66D" mask="url(#mask-4)"></path>
            </g>
            <path d="M316.297,226.926 C309.737,235.547 307.08,244.558 304.83,253.517 C301.97,264.887 300.403,276.578 297.677,287.992 C296.664,292.242 294.908,297.134 291.832,299.902 C284.427,306.573 278.695,302.321 275.887,294.904 C275.007,292.578 275.032,289.855 274.927,287.299 C274.086,267.04 277.606,247.502 284.229,228.38 C285.981,223.331 289.092,222.396 293.525,223.158 C298.998,224.095 301.716,227.25 300.896,232.238 C300.037,237.482 298.591,242.622 297.498,247.826 C297.089,249.767 296.956,251.763 297.703,254.041 C298.555,251.592 299.181,249.033 300.296,246.712 C304.015,238.987 307.693,231.223 311.834,223.714 C313.907,219.961 317.772,218.987 321.947,220.044 C326.082,221.087 328.87,223.464 329.006,228.019 C329.239,235.348 329.395,242.676 329.534,250.006 C329.591,253.112 329.545,256.219 330.507,259.634 C331.054,258.312 331.61,256.993 332.146,255.664 C336.65,244.448 340.864,233.105 345.757,222.064 C349.277,214.115 353.118,212.349 359.893,213.951 C368.339,215.946 371.658,219.509 371.048,228.328 C370.066,242.408 367.74,256.408 366.991,270.495 C366.359,282.342 366.869,294.283 367.483,306.146 C367.679,309.822 369.865,313.394 370.929,316.427 C368.601,319.666 366.945,323.426 364.06,325.421 C362.418,326.555 357.972,325.726 356.187,324.174 C350.15,318.933 347.112,311.813 346.364,303.861 C344.191,280.853 347.988,258.503 353.94,236.4 C354.752,233.394 355.802,230.369 355.999,227.303 C356.121,225.281 354.907,223.184 354.289,221.121 C352.697,222.381 350.255,223.322 349.637,224.95 C345.169,236.763 340.919,248.653 336.892,260.617 C333.866,269.606 332.023,279.081 328.129,287.643 C326.464,291.308 321.226,293.994 317.025,295.666 C313.07,297.236 311.49,293.046 311.331,290.048 C310.785,279.655 309.971,269.166 310.769,258.835 C311.555,248.656 314.188,238.626 316.297,226.926" id="Fill-17" fill="#F2B66D"></path>
            <path d="M521.909,231.715 C525.628,224.812 528.286,219.182 531.574,213.944 C535.205,208.16 540.394,205.513 547.534,207.32 C553.292,208.778 556.882,213.521 555.907,219.463 C552.782,238.464 549.57,257.455 546.528,276.471 C546.025,279.601 546.19,282.844 546.047,286.032 C546.626,286.273 547.203,286.508 547.783,286.75 C557.881,270.842 567.975,254.938 578.065,239.027 C578.582,239.272 579.097,239.515 579.613,239.75 C578.438,243.012 577.678,246.497 576.015,249.49 C568.98,262.16 561.702,274.69 554.45,287.239 C553.354,289.138 552.269,291.316 550.58,292.536 C547.473,294.792 543.901,297.989 540.558,297.952 C535.787,297.903 533,293.499 531.379,288.858 C527.92,278.94 528.789,268.74 530.475,258.866 C532.5,246.979 536.06,235.354 538.959,223.612 C539.724,220.503 540.507,217.407 541.28,214.303 C540.694,213.992 540.116,213.678 539.534,213.366 C537.104,216.843 533.61,219.999 532.453,223.851 C528.563,236.788 525.459,249.959 522.173,263.071 C521.282,266.613 521.029,270.329 520.061,273.844 C518.773,278.472 513.263,283.101 509.538,281.575 C506.545,280.353 503.441,276.695 502.552,273.513 C499.383,262.242 501.983,250.885 504.086,239.76 C505.433,232.61 508.306,225.74 510.52,218.757 C511.78,214.778 514.643,213.944 518.351,214.884 C521.885,215.785 523.67,217.956 523.192,221.71 C522.83,224.605 522.452,227.494 521.909,231.715" id="Fill-18" fill="#F2B66D"></path>
            <path d="M98.887,235.736 C112.938,229.736 118.287,217.249 126.798,207.687 C127.811,213.673 126.988,216.111 120.767,224.188 C114.939,231.75 109.167,239.43 98.516,240.642 C97.675,240.737 96.871,242.718 96.361,243.947 C94.335,248.855 92.966,254.117 90.383,258.697 C85.029,268.189 72.91,268.119 67.09,258.883 C62.315,251.298 61.094,242.966 62.264,234.218 C63.899,221.922 69.627,211.673 78.105,202.792 C80.727,200.042 83.914,199.403 86.815,201.341 C89.258,202.965 91.152,203.453 94.087,202.843 C98.51,201.924 102.992,207.569 102.576,213.391 C102.245,218.045 101.361,222.658 100.632,227.278 C100.261,229.612 99.683,231.916 98.887,235.736 M79.857,232.151 C77.554,239.598 77.175,247.414 80.192,255.181 C81.517,258.586 83.97,258.316 85.461,255.634 C88.123,250.836 90.189,245.715 92.025,241.762 C87.272,238.014 83.604,235.118 79.857,232.151 M95.261,232.114 C96.489,225.252 97.763,219.116 98.581,212.924 C98.774,211.452 97.675,209.641 96.742,208.276 C96.449,207.845 94.471,207.981 93.76,208.522 C89.363,211.828 88.242,216.541 88.58,221.771 C88.853,226.112 89.909,229.964 95.261,232.114" id="Fill-19" fill="#F2B66D"></path>
        </g>
    </g>
</svg>