<?xml version="1.0" encoding="UTF-8" standalone="no"?>
<svg width="371px" height="143px" viewBox="0 0 371 143" version="1.1" xmlns="http://www.w3.org/2000/svg" xmlns:xlink="http://www.w3.org/1999/xlink">
    <!-- Generator: Sketch 39.1 (31720) - http://www.bohemiancoding.com/sketch -->
    <title>Group 4</title>
    <desc>Created with Sketch.</desc>
    <defs></defs>
    <g id="London-Fields" stroke="none" stroke-width="1" fill="none" fill-rule="evenodd">
        <g id="WL-LONDON-FIELD-DESKTOP" transform="translate(-535.000000, -155.000000)">
            <g id="Group-4" transform="translate(535.000000, 150.000000)">
                <g id="Group-3" transform="translate(113.000000, 0.000000)" fill="#66BBB0">
                    <g id="Page-1">
                        <g id="Group-2" transform="translate(72.131702, 22.906999) rotate(-3.000000) translate(-72.131702, -22.906999) translate(1.131702, 3.906999)">
                            <path d="M140.60792,19.5159365 C140.312756,22.2127905 140.049394,24.9122403 139.710018,27.6041976 C139.494806,29.3077253 138.540043,30.4859471 136.84376,30.9979198 C135.786672,31.3172096 134.727375,31.6373253 133.655489,31.9000373 C132.609976,32.1563777 130.204512,30.8884221 129.690258,29.6313219 C129.221289,28.4851353 128.784898,27.2058524 128.817057,25.9988403 C128.899574,22.8243496 129.215263,19.6544606 129.494556,16.4878754 C129.82707,12.7360436 133.018742,10.4795405 135.973364,10.4503961 C137.308135,10.4365909 138.999405,11.3659649 139.584542,12.8254825 C140.459592,15.0081219 140.496048,17.2269262 140.60792,19.5159365 M134.853925,30.0527938 C135.03668,29.5257769 135.292286,29.0805293 135.336975,28.6151049 C135.71746,24.7417401 136.158326,20.8664874 136.366677,16.9815592 C136.449672,15.4414521 136.236846,13.7791631 134.851539,12.5594667 C133.741885,13.3930891 133.341591,14.5106033 133.22936,15.6921878 C132.924769,18.8846135 132.565943,22.081936 132.506158,25.2814413 C132.473223,27.0669153 132.734199,28.9867247 134.853925,30.0527938" id="Fill-29" transform="translate(134.711652, 21.191795) rotate(5.000000) translate(-134.711652, -21.191795) "></path>
                            <path d="M120.261237,4.79571214 C120.636233,4.27506687 122.054475,4.09406521 122.398028,4.11489102 C123.966507,4.21471332 124.54162,5.19081258 124.273604,6.95540182 C124.041089,8.48854727 124.371515,10.0284183 124.202304,11.5567261 C123.997414,13.3670377 128.128992,11.9201453 128.00101,12.7540037 C127.513366,15.8722706 128.449334,15.8569905 124.991735,16.2171059 C123.591153,16.3627096 124.166505,22.3349976 123.974502,23.76425 C123.781366,25.2027648 123.585008,26.7782699 123.585008,28.2246313 C123.522061,29.7033228 123.505593,31.3490339 124.249738,32.6850716 C125.212377,33.3684886 126.626084,32.8263685 127.668555,32.7319739 C127.575597,33.097458 127.374883,36.4879354 125.48439,36.4879354 C122.933344,37.2052165 120.674956,35.0003354 119.905095,32.7788762 C119.036131,30.2855606 119.689525,27.3086496 119.905095,24.7501427 C120.135642,22.0149999 120.075141,19.2698866 120.261237,16.5335639 C119.779977,16.4752162 116.788303,16.5430623 116.272497,16.2048936 C115.75687,15.8668429 116.115697,15.2367589 115.750247,13.8103974 C115.384798,12.3840358 118.409885,12.3747144 120.118697,12.2609689 C120.502702,10.1670014 119.886122,5.31635741 120.261237,4.79571214" id="Fill-31" transform="translate(121.861924, 20.369608) rotate(5.000000) translate(-121.861924, -20.369608) "></path>
                            <path d="M28.0375465,28.5760336 C27.9178581,31.8530604 28.1165433,32.0254486 31.3338116,31.4362492 C32.9908342,31.1310007 33.3762119,31.4846855 33.2104619,33.1596588 C33.0160129,35.1378159 33.0079581,35.1434205 31.0412133,35.3363395 C30.7234363,35.3687877 30.4059576,35.4012948 30.0927152,35.4568696 C26.1566003,36.1458323 24.319329,33.174762 24.344806,30.1308898 C24.3693284,27.2344502 24.8475452,24.3429663 25.0823875,21.4478246 C25.1921716,20.0761529 25.2517175,18.6980506 25.2450349,17.3230161 C25.2375768,16.0573024 25.9300514,15.1407308 26.6394709,14.2228612 C28.3720298,11.9868299 32.8371963,13.0307162 34.0148088,15.0865719 C35.3549494,17.4240184 35.6556025,19.9097234 35.2555472,22.4891741 C35.0494038,23.8216131 33.9962529,24.4682161 32.7280089,24.645442 C31.5919233,24.804025 30.4266018,24.7554707 29.2892633,24.9124018 C28.954422,24.9580062 28.4754893,25.3492128 28.4074112,25.6582962 C28.1963753,26.6125077 28.1481658,27.6005243 28.0375465,28.5760336 M28.6871218,22.2940723 C29.4044768,22.2940723 29.9945062,22.3075825 30.5826264,22.2907095 C32.4589784,22.2387334 32.6129147,22.1502385 32.6018169,20.2591015 C32.5904209,18.2440126 31.7074352,16.2109886 29.1277495,16.0602523 C28.982047,18.1174648 28.8370009,20.1763292 28.6871218,22.2940723" id="Fill-33"></path>
                            <path d="M99.1215628,29.0531924 C99.0173873,31.9037916 99.1900584,32.0537021 101.988656,31.5411983 C103.430048,31.2757135 103.765069,31.5833809 103.621037,33.0403027 C103.451826,34.7611165 103.444845,34.7658952 101.734005,34.9336816 C101.457576,34.961941 101.181624,34.9902594 100.909073,35.0385186 C97.485065,35.6378064 95.8871705,33.053459 95.9094257,30.4057492 C95.9305472,27.8862981 96.3464138,25.3712127 96.5508268,22.8528235 C96.6462912,21.6597346 96.698021,20.4610411 96.6922931,19.2650024 C96.6859089,18.1639482 97.28811,17.3666678 97.9052871,16.5683253 C99.4123114,14.6232654 103.29616,15.5312826 104.320731,17.3195884 C105.486291,19.3528483 105.747983,21.5150159 105.399955,23.7585988 C105.220721,24.9177056 104.304621,25.4801794 103.201292,25.6342786 C102.213057,25.7722128 101.199464,25.7299712 100.210214,25.8665484 C99.9188692,25.9061351 99.5022866,26.2464867 99.4430987,26.5152753 C99.2595684,27.3453579 99.2174448,28.2047029 99.1215628,29.0531924 M99.6864135,23.5889244 C100.310452,23.5889244 100.823513,23.6006648 101.335083,23.5860336 C102.967285,23.5407832 103.101174,23.4638516 103.091508,21.8189075 C103.081723,20.0660586 102.313652,18.2976936 100.069703,18.1665441 C99.9429143,19.9559119 99.8166626,21.7468726 99.6864135,23.5889244" id="Fill-35"></path>
                            <path d="M37.7425847,23.9930514 C37.9484894,18.8264214 38.2918031,13.6642752 38.5946638,8.50330888 C38.6340429,7.83800387 38.7724065,7.17682862 38.8654843,6.5152404 C38.9532518,5.89907959 38.8627993,4.88256763 39.1741921,4.74286361 C40.0700058,4.3366718 41.1262593,4.22587613 42.1319167,4.14605369 C42.3070938,4.1336644 42.7337002,4.85277433 42.712877,5.21395171 C42.617532,6.81978101 42.3469502,8.41522691 42.243789,10.0207022 C42.0829912,12.5228084 41.9861546,15.0291622 41.8982677,17.5345722 C41.704833,23.070816 41.5969583,28.6105407 41.3156368,34.1430678 C41.2364013,35.7116702 39.52568,34.7942726 38.6732429,35.3331478 C38.1607186,35.6571573 37.6357243,35.1778097 37.6472397,34.4318563" id="Fill-37"></path>
                            <path d="M53.544168,22.2066511 C52.2263421,22.3975642 54.2571674,14.6933121 50.8245673,15.6190872 C48.2592609,16.8859219 47.99566,28.7447757 48.4290682,30.0277165 C49.3975541,32.9123567 50.9994461,33.678723 52.2965681,31.1133135 C53.530087,28.6756907 52.3569493,26.0801929 56.0643674,26.0801929 C57.7617834,25.5289874 55.0962991,33.5433257 53.9185076,34.4193077 C51.6414439,36.1048414 46.4034934,36.1621272 45.4847086,32.9143626 C44.1226708,28.2450153 42.4489419,19.4607709 47.081708,15.7177886 C49.0256011,13.7957374 54.0623008,12.0217677 55.6650877,15.1010968 C56.812629,17.3077478 55.9455143,19.1297408 56.563467,21.244416 C55.6984406,21.244416 54.5544196,22.0656491 53.544168,22.2066511 Z" id="Fill-39"></path>
                            <path d="M76.4768555,12.8090718 C76.6206486,13.4128433 76.6362809,14.0206266 76.52417,14.6321857 C77.2482075,14.4552548 78.0508838,13.1159723 78.8465792,12.8034671 C81.5655236,11.7359231 84.086976,13.2714284 84.844784,15.8943006 C85.355757,15.8943006 86.778534,13.2565023 90.423602,13.4167961 C95.8388178,12.9475959 94.5642493,20.1689015 94.2056016,25.1502231 C94.2056016,28.1473109 93.8274434,31.2669348 93.8274434,34.1722829 C93.8274434,35.0838988 89.8181192,35.1409486 89.5251033,33.3775983 C89.5251033,29.9780944 89.9468768,26.5110394 90.3761681,23.1400899 C90.5477056,21.4176832 91.8944691,15.4962504 89.4305936,15.0528907 C85.9973969,14.4536029 85.1285518,24.9710503 85.1285518,26.412456 C84.7138189,27.8380506 85.908973,33.2370683 83.3794061,32.699786 C83.1828092,32.6581344 81.6932668,32.9472769 81.3226861,33.050403 C79.6239574,33.5318155 80.4204882,29.7717242 80.3772309,29.0768619 C80.1352288,25.361077 81.7101521,21.3903678 80.747573,17.7019574 C79.6865463,13.6358506 76.3823457,16.5756527 76.3823457,19.3535681 C76.3823457,23.3378466 76.2446981,27.3326855 76.4296603,31.3207397 C76.4296603,32.0885809 76.8887842,33.9366504 76.7134281,34.6397722 C76.2955328,35.0510377 73.045747,35.8830672 72.6947365,35.0138698 C72.0467124,34.2470316 72.6474219,30.5903614 72.6474219,29.5444102 C72.6474219,27.1601203 72.3261844,24.6673947 72.5767186,22.2986209 C72.7319079,20.8142067 71.9655081,10.2726296 76.4768555,12.8090718 C76.5714845,13.0588635 76.2561538,12.6849429 76.4768555,12.8090718" id="Fill-41"></path>
                            <path d="M25.6481451,1.65335753 C25.6481451,2.15022716 24.5331811,8.10145332 24.1586028,9.95253162 C23.5048509,13.1847801 22.9053944,16.4169105 22.4503277,19.6791882 C22.0657853,22.4370447 21.2264149,25.0917161 20.8722422,27.8133487 C20.6310156,29.6506808 20.3139546,33.3434569 19.0281094,34.6163092 C19.0097921,34.4910004 15.1683659,35.0621468 14.4886597,34.3826236 C12.7355163,33.2312453 13.2763219,25.1406243 13.2120028,24.3300696 C13.1476837,23.5194559 12.7666616,19.7960015 12.3135639,17.5504718 C11.491735,20.7962304 10.1924054,23.8930226 9.38143567,27.1416131 C9.12171294,28.1823136 8.32237791,34.7566032 7.72679963,34.7566032 C7.02352561,35.4520555 5.27885475,35.7328795 4.03232885,35.4460379 C2.01779217,34.9823833 2.19016501,35.059079 2.15287424,33.0852877 C2.14165718,32.4889497 2.21916231,26.8225003 2.2416561,27.0418498 C2.49744092,22.5953917 1.44178408,18.4556571 1.39608052,14.096514 C1.37257242,11.8513382 1.61725951,9.66356612 1.34321713,7.40446712 C1.16988965,5.95946264 0.722997108,4.20177601 0.846742786,2.77553245 C0.950381283,1.52627879 3.07828189,1.36568996 3.95577837,1.4840372 C5.49448487,1.69158735 5.63338552,5.96176351 5.40987958,7.31083947 C5.40987958,11.837769 5.18565766,16.3065868 5.64621354,20.8233099 C6.83283555,18.9452111 6.79566411,16.3190351 7.324835,14.2306723 C7.96080664,11.7057935 8.26844055,9.11418949 8.61909308,6.53945852 C8.90876775,4.41510783 8.34719864,1.45483387 10.8949634,1.09229957 C14.1380071,0.300859762 14.6316175,3.09783105 14.4414645,5.76790058 C14.4414645,9.91229592 15.855232,13.9549221 16.2855973,18.1114707 C16.8006872,12.4864369 18.3298472,5.49887594 19.595645,0.53118261 C21.2504004,-0.287395647 24.7614602,-0.315419047 25.6481451,1.65335753 C25.6481451,1.71618894 25.3955226,1.09229957 25.6481451,1.65335753" id="Fill-43"></path>
                            <path d="M70.6640484,22.8196556 C70.3690039,25.5165686 70.1056416,28.2160774 69.7662658,30.9079167 C69.550934,32.6114444 68.596171,33.7897251 66.8998886,34.3015799 C65.8427998,34.6208697 64.7835034,34.9409854 63.7116176,35.2037564 C62.6661039,35.4600968 60.26076,34.1922592 59.7464457,32.935041 C59.2774174,31.7888544 58.8411453,30.5095715 58.8731855,29.3026184 C58.9557622,26.1280687 59.2713912,22.9581207 59.5508035,19.7915355 C59.8831388,16.0398217 63.07493,13.7833186 66.0294923,13.7541742 C67.3641438,13.74031 69.0555336,14.669743 69.6407898,16.1292606 C70.5157207,18.311841 70.5521761,20.5306453 70.6640484,22.8196556 M64.9100534,33.3565719 C65.0929273,32.829437 65.3484734,32.3843074 65.3932224,31.918824 C65.7737075,28.0454592 66.2144545,24.1702065 66.4229248,20.2852783 C66.5057998,18.7451712 66.292974,17.0828822 64.9076071,15.8631858 C63.7980129,16.6968672 63.3978382,17.8143224 63.2854886,18.9959659 C62.9809573,22.1883326 62.622071,25.385655 62.5624057,28.5851603 C62.5294109,30.3706344 62.7904462,32.2905028 64.9100534,33.3565719" id="Fill-46"></path>
                        </g>
                    </g>
                </g>
                <g id="Page-1" transform="translate(0.000000, 50.000000)">
                    <path d="M229.695929,34.8152309 C233.362726,34.8152309 236.761129,34.8423028 240.158993,34.806568 C242.733311,34.7789547 245.31033,34.5856619 247.877629,34.6820376 C248.322613,34.6988221 248.974428,35.743253 249.099715,36.3962254 C249.38323,37.8748884 249.464774,39.4028221 249.509597,40.9145127 C249.657025,45.9298387 248.63745,47.3229547 243.839291,47.8508552 C239.247963,48.3560155 234.619374,48.5168221 229.651646,48.8530541 C229.606284,49.7653746 229.488017,50.8347116 229.509618,51.9018829 C229.746691,63.8297282 229.9141,75.7608221 230.317502,87.6837945 C230.429288,90.9681481 229.754252,92.911905 226.059913,92.6763801 C225.168324,92.6195293 224.248115,92.792789 223.358687,92.9584685 C220.546215,93.4814961 219.555262,92.1116619 219.495319,89.4884022 C219.283627,80.2899381 218.791661,71.091474 218.813262,61.8940928 C218.850524,46.1123028 219.221524,30.3315956 219.386233,14.5492641 C219.416474,11.6531204 219.161041,8.75102099 218.982831,5.85541878 C218.819202,3.19534144 220.529474,2.24945193 222.67447,1.9906453 C227.654078,1.38910939 232.644487,0.81681105 237.647317,0.491407735 C242.829977,0.154634254 248.031537,0.0923690608 253.226617,0.000324861878 C253.852511,-0.0110453039 254.622052,0.400987845 255.095658,0.856335912 C256.848052,2.54020331 256.700624,9.60594917 254.863985,11.1669105 C254.298575,11.6471646 253.388086,12.0808552 252.699009,11.9990983 C245.580345,11.1577061 238.653931,12.3207116 231.795562,13.9948331 C230.968237,14.1973304 229.808255,15.4085238 229.787733,16.1784464 C229.623565,22.343242 229.695929,28.5139934 229.695929,34.8152309" id="Fill-1" fill="#75B9AE"></path>
                    <path d="M324.918884,80.6972608 C325.205639,77.6792939 325.684645,74.7972276 325.710026,71.9108298 C325.759709,66.1472387 325.492935,60.3814818 325.491855,54.6168077 C325.491855,51.5923436 325.803992,48.5695039 325.926578,45.5439569 C326.031884,42.9407304 324.458239,42.5194928 322.361846,42.9504762 C318.215502,43.8026972 313.807785,48.3356033 313.429764,52.5642221 C312.78497,59.7864431 312.005708,66.9675149 315.054712,74.039758 C316.998277,78.5482994 319.123291,80.6133381 324.918884,80.6972608 M324.464179,93.4480895 C324.28273,92.1394376 324.159603,91.2525646 323.988414,90.0186309 C318.529799,91.6591834 314.157184,89.3245094 310.461764,85.9129182 C306.449888,82.2094928 304.486882,77.1178243 303.225914,71.9146199 C301.332032,64.0973602 301.772156,56.0516144 303.793485,48.4839569 C305.819674,40.898432 315.967361,32.8846309 324.317831,34.9864873 C326.942913,35.6470398 328.18876,34.7883215 328.512778,31.9501116 C329.289339,25.1577912 330.442842,18.4082442 331.186462,11.6132166 C331.437035,9.32943757 332.897274,9.45775801 334.317551,9.23685193 C339.104369,8.49291823 340.029978,9.60178011 339.50939,14.2873713 C338.352648,24.7046088 337.225067,35.1332166 336.467946,45.5845646 C335.776169,55.1457912 335.682744,64.7487083 335.138395,74.3223878 C334.846779,79.450874 333.971932,84.5484983 333.737019,89.6769845 C333.627933,92.0620122 332.771447,93.2445094 330.580009,93.4156033 C328.614303,93.5693713 326.626996,93.4480895 324.464179,93.4480895" id="Fill-3" fill="#75B9AE"></path>
                    <path d="M358.295167,38.8266254 C355.75703,41.9019845 355.594482,44.2420729 357.327975,47.3380066 C360.923489,53.7594431 364.621068,60.1316088 367.961148,66.6856972 C370.199569,71.0783713 370.887026,75.9236862 370.321075,80.8675425 C369.834509,85.115653 368.18742,88.4130011 363.956292,90.3989901 C360.01732,92.2474541 356.016784,92.7266254 351.893662,92.2561171 C347.175428,91.7179293 344.328934,87.7990122 343.618796,81.6233878 C343.483249,80.4430564 343.387663,79.1885481 342.917838,78.1267912 C340.200412,71.9874431 342.560339,68.140537 349.158415,68.1085923 C350.037582,68.1042608 350.917289,68.1080508 350.999374,68.1080508 C352.866794,74.0828022 354.537105,79.6081613 356.394805,85.0696309 C356.567074,85.5753326 357.929567,85.6744155 358.979384,86.0474652 C360.94941,78.9909238 359.141393,72.7616972 356.210115,66.8362166 C353.573153,61.5046917 350.694797,56.2641282 347.520506,51.2390564 C345.008831,47.2632884 345.953342,40.5781724 350.249273,38.1362939 C352.852214,36.6565481 355.459474,34.9813436 358.285987,34.1394099 C364.570845,32.2671227 371.488078,38.1276309 370.440962,43.8679403 C369.950075,46.5615867 371.036074,49.6764707 367.186746,50.743642 C364.538984,51.4778298 363.572872,50.862758 362.999361,48.1387912 C362.278422,44.7142055 361.697891,41.1585923 358.295167,38.8266254" id="Fill-5" fill="#75B9AE"></path>
                    <path d="M267.390609,57.6178276 C269.212667,57.6178276 270.706387,57.6541039 272.197948,57.6113304 C276.961005,57.474347 277.349285,57.2491094 277.320664,52.382137 C277.289882,47.2005901 275.050382,41.9708552 268.508469,41.5804796 C268.139629,46.8735624 267.770249,52.1726011 267.390609,57.6178276 M265.74136,73.7780818 C265.440563,82.208789 265.94063,82.655474 274.106951,81.1334961 C278.308377,80.3500376 279.28529,81.2601923 278.865687,85.5667779 C278.3694,90.6589878 278.351579,90.6736066 273.36009,91.1722696 C272.556527,91.2524022 271.751344,91.339032 270.957501,91.4798055 C260.968042,93.2492199 256.306511,85.6106343 256.372935,77.7782144 C256.436118,70.3275072 257.647403,62.8908773 258.243595,55.4390873 C258.525491,51.9143359 258.672379,48.3673856 258.654018,44.8318055 C258.637277,41.5761481 260.397232,39.2154851 262.196609,36.859695 C266.591906,31.1053083 277.918476,33.788126 280.908617,39.0812088 C284.30432,45.0933193 285.069002,51.4833525 284.055367,58.1197392 C283.531539,61.5475735 280.858395,63.2108663 277.641441,63.6667558 C274.758766,64.0749989 271.801026,63.9504685 268.917271,64.3549215 C268.068345,64.4734961 266.85382,65.480568 266.67939,66.2732309 C266.140981,68.7248552 266.022715,71.2696066 265.74136,73.7780818" id="Fill-7" fill="#75B9AE"></path>
                    <path d="M286.018481,87.7150354 C286.018481,79.3243945 285.749546,70.9229249 286.078964,62.5452785 C286.626554,48.6087039 287.541903,34.6867481 288.347086,20.7610022 C288.450772,18.9655989 288.814211,17.1848144 289.066945,15.3991569 C289.301858,13.7353227 289.057765,10.9951127 289.885629,10.6155657 C292.273098,9.52078122 295.082329,9.22190829 297.757094,9.01074807 C298.223139,8.97393039 299.35828,10.9133558 299.301577,11.8884829 C299.050463,16.2199746 298.330064,20.5233116 298.05519,24.8548033 C297.627487,31.6038088 297.367733,38.364726 297.13498,45.1245602 C296.621412,60.0595436 296.334117,75.0048144 295.587257,89.9273448 C295.375565,94.1581293 290.82528,91.6880961 288.551757,93.141853 C287.190344,94.0124829 285.794369,92.7195326 285.82677,90.7086376 C285.842971,89.7188917 285.543255,88.7242729 285.386647,87.7318199 L286.018481,87.7150354 Z" id="Fill-9" fill="#75B9AE"></path>
                    <path d="M250.308678,57.5449503 C250.147749,69.8030718 249.518075,73.4122873 249.397109,86.5139669 C249.353906,91.1789834 245.754612,91.9911381 240.906771,91.8379116 C238.911903,91.7745635 238.092139,90.5113923 238.158563,88.830232 C238.552244,78.89 239.264002,78.4411492 239.734368,68.5025414 C239.915817,64.6740442 240.414804,60.8466298 240.942413,57.0327514 C241.035838,56.3564972 241.835621,55.3921989 242.56034,55.1815801 C244.239831,54.692663 246.063509,54.4939558 247.845605,54.3439779 C249.829672,54.1772155 250.955633,54.8837901 250.308678,57.5449503" id="Fill-11" fill="#75B9AE"></path>
                    <path d="M244.040452,30.9839182 C240.515682,31.0391448 239.493407,30.1057083 239.357319,27.0222276 C239.161829,22.5873215 241.921918,21.2521392 247.134279,20.8119514 C249.627593,20.6013326 250.13144,22.1769127 250.155201,24.274979 C250.213525,29.4673547 248.939596,30.9075757 244.040452,30.9839182" id="Fill-13" fill="#75B9AE"></path>
                    <path d="M114.654931,84.316168 C114.924945,81.1444331 115.367769,78.1551624 115.392611,75.1626431 C115.440133,69.5003006 115.179299,63.8357923 115.180379,58.1723669 C115.180919,55.1484442 115.482255,52.125063 115.607002,49.1000575 C115.706908,46.6836265 114.236948,46.2185326 112.254501,46.5461017 C108.078996,47.2364331 103.491989,51.9485547 103.103168,56.300621 C102.456753,63.5277149 101.732574,70.7039138 104.764838,77.7734497 C106.637119,82.1368862 108.960324,84.3215823 114.654931,84.316168 M114.228848,97.5310077 C113.998795,95.8882895 113.874589,95.0035823 113.698539,93.7474497 C107.435282,95.3647204 102.284484,92.6190961 98.8131769,88.1203006 C95.9072802,84.3546099 94.0765815,79.4513613 92.8361346,74.7679359 C90.8661084,67.3285989 91.5206237,59.5270409 93.4425873,52.2479691 C95.4790371,44.5341238 105.689908,36.5907094 113.880529,38.6124331 C116.665999,39.299516 117.950729,38.3834055 118.228303,35.4190409 C118.576622,31.7058696 119.374785,28.0370961 119.888893,24.3369193 C120.38464,20.7721017 120.76536,17.1915823 121.195763,13.6262232 C121.571084,13.4497149 121.819497,13.266168 122.093292,13.2141901 C129.136892,11.8665547 129.741184,12.5552619 128.985683,19.6150519 C127.880784,29.9359138 126.88551,40.2719359 126.092747,50.620411 C125.615362,56.8507204 125.76711,63.1270519 125.354528,69.3644 C124.795057,77.8205547 124.002295,86.262632 123.185771,94.699295 C123.117727,95.3993724 122.194277,96.4373061 121.513841,96.5807867 C119.210076,97.0659138 116.836648,97.2196818 114.228848,97.5310077" id="Fill-15" fill="#75B9AE"></path>
                    <g id="Group-19" transform="translate(0.000000, 2.238298)" fill="#6FAFA4">
                        <path d="M13.9532182,79.7573271 C18.6125894,79.7573271 22.7351716,79.6295481 26.8458732,79.7941448 C30.7864656,79.9522442 34.7151774,80.4135481 39.0877932,80.7784762 C39.0877932,83.771537 39.2865239,87.1706751 38.9571061,90.5178354 C38.8669213,91.4312387 37.2284729,92.8303105 36.2294191,92.8947414 C33.2543987,93.0858685 30.2388761,92.5314376 27.249815,92.6186088 C20.8121279,92.8064873 14.3625603,93.0106088 7.95187467,93.5894044 C2.06771747,94.1205536 -1.26858239,91.0262442 0.452490393,85.2913492 C1.97267234,80.2256696 1.57899112,75.1919348 1.87600713,70.115968 C2.93014396,52.0769293 4.17761121,34.0492608 5.20204643,16.0091392 C5.40131718,12.5049624 5.0697393,8.94880773 4.71926041,5.44300663 C4.46274658,2.87768066 5.53362431,1.86952597 7.87087031,1.25607845 C12.8412983,-0.0477005525 15.0672983,0.137470718 16.4800144,2.91341547 C17.1669314,4.26267514 17.3138194,6.00610055 17.3089591,7.56976906 C17.2949183,11.788642 17.1707116,16.0129293 16.8969169,20.2225978 C16.6144817,24.5551724 15.9291847,28.8650066 15.7245137,33.1992055 C15.0591978,47.3144541 14.5283492,61.4367414 13.9607786,75.556863 C13.9046156,76.9537691 13.9532182,78.3550066 13.9532182,79.7573271" id="Fill-17"></path>
                    </g>
                    <path d="M53.1004686,96.2349171 C53.4352866,90.2910276 53.7468834,84.2670055 54.1200435,78.2467735 C54.8199213,66.9421215 55.5554409,55.6396354 56.2774598,44.3360663 C56.354684,43.1254144 56.3023012,41.884442 56.5609751,40.7127735 C56.8623114,39.3478122 57.1312459,37.1750276 57.9569504,36.8804862 C60.2601745,36.0585856 62.8388135,35.9410939 65.3234875,35.7862431 C65.6448048,35.7662099 66.3571032,37.1609503 66.3662837,37.9065083 C66.3943652,40.2119448 66.1702531,42.5206298 66.0444263,44.8271492 C66.4040857,44.8271492 66.7340435,44.8921215 66.7686054,44.8179448 C69.6890828,38.5491934 75.3707291,38.7045856 80.95301,38.7251602 C83.4144627,38.7343646 85.3612677,40.0040331 86.0957073,42.2834807 C87.1055617,45.4200221 88.2860654,48.6989613 88.3022662,51.922674 C88.3578892,62.9490276 87.9312662,73.977547 87.7033739,85.0055249 C87.6639518,86.9032597 87.6979737,88.8020773 87.6979737,91.6045525 C84.6181876,91.8481989 81.0745166,92.4686851 77.6102298,92.1692707 C76.7148616,92.0918453 75.3998907,89.1155691 75.4268921,87.4901768 C75.5251774,81.6307514 76.2606971,75.7848619 76.4788689,69.9232707 C76.741323,62.8569834 76.8568892,55.7771602 76.7262022,48.7087072 C76.6943405,46.9771934 75.4582138,45.2684199 74.775617,43.5488177 C73.3153783,44.7795028 71.7109518,45.8797017 70.4494438,47.2896022 C69.6890828,48.1396575 69.3521047,49.4380221 69.0135064,50.5907403 C65.5854016,62.2673591 63.5597524,74.1643425 63.5424715,86.367779 C63.5408514,87.2784751 63.4944089,88.1897127 63.4333856,89.0982431 C62.9716607,95.9403757 60.6495355,97.6534807 53.1004686,96.2349171" id="Fill-20" fill="#75B9AE"></path>
                    <path d="M173.919184,45.2756751 C176.702494,38.4470785 182.544529,38.7502829 188.198633,38.7242939 C190.655226,38.7129238 192.617692,39.9717635 193.356452,42.2571669 C194.370086,45.3915425 195.56031,48.6688575 195.577591,51.8909459 C195.635914,62.9172994 195.209291,73.9463602 194.981939,84.9743381 C194.943057,86.8720729 194.976539,88.7708906 194.976539,91.5966475 C191.910254,91.8446254 188.366583,92.5046365 184.921737,92.1635315 C183.990187,92.0709459 182.695737,88.942526 182.709778,87.216968 C182.75406,81.6612884 183.455558,76.1148133 183.672649,70.5558851 C183.948604,63.4901392 184.174877,56.4113989 184.032309,49.3461945 C183.992887,47.3710343 182.579091,45.4234873 181.795508,43.4629459 C180.287207,44.982758 178.015305,46.2475536 177.411012,48.0689459 C175.485808,53.8720619 173.620548,59.8024155 172.768382,65.8307691 C171.497693,74.8202387 171.047849,83.9309901 170.398194,93.0011337 C170.260486,94.9226917 169.496885,95.6974873 167.73369,95.9021503 C165.482849,96.1636641 163.241188,96.5069348 160.721952,96.8523713 C160.721952,93.6671006 160.582625,90.9615425 160.745174,88.2738519 C161.649182,73.3323713 162.626095,58.3957635 163.577626,43.4569901 C163.590587,43.2550343 163.590047,43.0519956 163.600307,42.8500398 C163.903804,36.7431779 165.209054,35.6018298 171.363226,35.6061613 C173.11562,35.6072442 173.786337,36.222316 173.698312,37.8742387 C173.574105,40.1856309 173.445038,42.4964818 173.317591,44.807874 C173.518482,44.9638077 173.718833,45.1197414 173.919184,45.2756751" id="Fill-22" fill="#75B9AE"></path>
                    <path d="M36.6900099,72.3567028 C37.1803563,70.0891669 37.749547,68.298095 37.9326169,66.4680398 C38.7334801,58.4499072 39.6563898,50.432316 40.0554713,42.3909017 C40.2617624,38.2375425 39.6261482,34.0110895 39.029956,29.8669348 C38.8285252,28.4694873 37.5767377,27.2241834 36.7240317,25.7715094 C33.4401147,28.2345039 32.5658076,31.3250232 32.1894073,34.5541503 C31.6056358,39.5597304 31.1768527,44.5848022 30.7642705,49.6082497 C30.5169371,52.6170122 30.2107406,55.6463492 30.3128061,58.6534873 C30.4866955,63.7846807 30.8576955,68.9532331 36.6900099,72.3567028 M51.4500856,44.2826807 C50.6816242,51.4009459 49.9963272,58.5294983 49.1155397,65.6342276 C48.5582297,70.1319403 46.0757159,73.2430343 41.6652981,74.6020398 C38.9154699,75.4493878 36.1580812,76.2880729 33.3677508,76.9843602 C30.6173825,77.6698188 24.4189284,74.3562276 23.0326737,71.0096088 C21.8203083,68.0815204 20.6592457,64.8090785 20.7456504,61.7245149 C20.9865033,53.1438298 21.7544247,44.5685591 22.5644684,36.0149459 C23.4862981,26.2799182 31.7908658,20.444316 39.3712544,20.3652663 C42.8441817,20.3284486 47.2632399,22.7822387 48.7839619,26.623189 C51.0650448,32.3851558 51.16063,38.241874 51.4500856,44.2826807" id="Fill-24" fill="#75B9AE"></path>
                    <path d="M144.209428,76.3276519 C144.686274,74.9377845 145.34997,73.7628674 145.469316,72.5343481 C146.461349,62.3060718 147.609451,52.0810442 148.1484,41.8251547 C148.362252,37.7589669 147.811962,33.3765801 144.202408,30.1534088 C141.313252,32.3516409 140.270456,35.303011 139.97722,38.4233094 C139.185537,46.8486022 138.253447,55.2874309 138.099539,63.7343812 C138.013674,68.4459613 138.691411,73.5148895 144.209428,76.3276519 M159.187136,48.5140608 C158.418674,55.632326 157.734457,62.7614199 156.85097,69.8650663 C156.292039,74.362779 153.804665,77.4700829 149.389927,78.8231326 C146.638479,79.6666906 143.88271,80.5102486 141.09184,81.2049116 C138.370633,81.8827901 132.105216,78.5361713 130.767563,75.2155414 C129.547098,72.1862044 128.410876,68.8146796 128.492961,65.6261602 C128.708972,57.2474309 129.527657,48.8795304 130.257236,40.5208343 C131.120743,30.6190442 139.434491,24.6627017 147.121805,24.5847348 C150.598513,24.5495414 155.00299,27.0017072 156.525872,30.8534862 C158.805335,36.6170773 158.89606,42.4737956 159.187136,48.5140608" id="Fill-26" fill="#75B9AE"></path>
                </g>
            </g>
        </g>
    </g>
</svg>