<?xml version="1.0" encoding="UTF-8" standalone="no"?>
<svg width="104px" height="75px" viewBox="0 0 104 75" version="1.1" xmlns="http://www.w3.org/2000/svg" xmlns:xlink="http://www.w3.org/1999/xlink">
    <!-- Generator: Sketch 39.1 (31720) - http://www.bohemiancoding.com/sketch -->
    <title>WE'RE PERSONAL</title>
    <desc>Created with Sketch.</desc>
    <defs></defs>
    <g id="ICONS" stroke="none" stroke-width="1" fill="none" fill-rule="evenodd" stroke-linecap="round" stroke-linejoin="round">
        <g id="WE'RE-PERSONAL" stroke="#333040" stroke-width="3.90000021">
            <g id="Group-21" transform="translate(10.000000, 7.000000)">
                <polyline id="Rectangle-7" transform="translate(15.335831, 16.899355) rotate(38.000000) translate(-15.335831, -16.899355) " points="8.83583068 0.899355033 21.8358307 0.899355033 21.8358307 32.899355 8.83583068 32.899355"></polyline>
                <g id="Group-20" transform="translate(30.427794, 44.514299) rotate(14.000000) translate(-30.427794, -44.514299) translate(14.427794, 32.514299)">
                    <rect id="Rectangle-7" transform="translate(5.167585, 6.698855) rotate(30.000000) translate(-5.167585, -6.698855) " x="1.93079709" y="1.96996566" width="6.47357607" height="9.45777783" rx="3.23678803"></rect>
                    <rect id="Rectangle-7" transform="translate(12.112059, 9.473125) rotate(30.000000) translate(-12.112059, -9.473125) " x="8.87527146" y="2.85528732" width="6.47357607" height="13.2356753" rx="3.23678803"></rect>
                    <rect id="Rectangle-7" transform="translate(24.561572, 15.694547) rotate(30.000000) translate(-24.561572, -15.694547) " x="21.3247836" y="8.17768507" width="6.47357607" height="15.033724" rx="3.23678803"></rect>
                    <rect id="Rectangle-7" transform="translate(19.008824, 11.922394) rotate(30.000000) translate(-19.008824, -11.922394) " x="15.7720363" y="3.51102629" width="6.47357607" height="16.8227345" rx="3.23678803"></rect>
                </g>
                <path d="M47.3391008,53.3576376 C48.6051193,54.623656 48.600573,56.2055224 47.3391008,57.4669947 C46.0750564,58.731039 44.0315602,58.7369637 42.7580168,57.4634202 L40,54.7054035" id="Rectangle-7"></path>
                <path d="M52.5796104,49.6547239 C53.8415818,50.9166953 53.9523954,52.8519413 52.6909231,54.1134136 C51.4268787,55.3774579 49.3784603,55.3784603 48.1171669,54.1171669 L43.3749874,49.2877949" id="Rectangle-7"></path>
                <path d="M61.3548164,40.1442819 C62.6167879,41.4062533 62.9327333,43.8322792 61.671261,45.0937515 C60.4072166,46.3577958 58.3587982,46.3587982 57.0975048,45.0975048 L49,37" id="Rectangle-7"></path>
                <path d="M57.2953243,45.3718323 C58.5601653,46.6366734 58.6740028,48.5735487 57.4125305,49.835021 C56.1484862,51.0990653 54.1037118,51.1037118 52.8335784,49.8335784 L46,43" id="Rectangle-7"></path>
                <path d="M29,10 L38.0421963,15.8135543" id="Path-12"></path>
                <path d="M13,35.8093846 L17.309279,32" id="Path-12" transform="translate(15.154639, 33.904692) scale(1, -1) translate(-15.154639, -33.904692) "></path>
                <polyline id="Rectangle-7" transform="translate(70.250704, 21.178727) rotate(-28.000000) translate(-70.250704, -21.178727) " points="76.7507044 37.1787266 63.7507044 37.1787266 63.7507044 5.17872664 63.7507044 5.17872664 76.7507044 5.17872664"></polyline>
                <path d="M58.510625,13.6637525 L44.4716632,13.9684391 C42.2600893,14.0164367 39.3495804,15.4428607 37.9582748,17.1700693 L34.0604029,22.0090045 C33.0218112,23.2983435 33.0943061,25.3350761 34.2161626,26.5514926 L34.9451361,27.3419104 C36.0697515,28.5613183 37.9461001,28.6165879 39.1396246,27.4619273 L45.319844,21.4829502 L60.6094109,40.9465551 L69.4239308,36.7347478" id="Path-2" transform="translate(51.374893, 27.305154) rotate(-4.000000) translate(-51.374893, -27.305154) "></path>
            </g>
        </g>
    </g>
</svg>